%FSLAX45Y45*%
G04 Gerber Fmt 4.5, Leading zero omitted, Abs format (unit mm)*
G04 Created by KiCad (PCBNEW (5.1.6)-1) date 2021-11-08 17:04:52*
%MOMM*%
%LPD*%
G01*
G04 APERTURE LIST*
%ADD10C,0.200000*%
%ADD11C,0.300000*%
G04 APERTURE END LIST*
D10*
X8903300Y-8903300D02*
X8978300Y-8978300D01*
X8978300Y-8903300D02*
X8903300Y-8978300D01*
X9030300Y-8903300D02*
X9105300Y-8978300D01*
X9105300Y-8903300D02*
X9030300Y-8978300D01*
X9157300Y-8903300D02*
X9232300Y-8978300D01*
X9232300Y-8903300D02*
X9157300Y-8978300D01*
X8903300Y-8242900D02*
X8978300Y-8317900D01*
X8978300Y-8242900D02*
X8903300Y-8317900D01*
X9030300Y-8242900D02*
X9105300Y-8317900D01*
X9105300Y-8242900D02*
X9030300Y-8317900D01*
X9157300Y-8242900D02*
X9232300Y-8317900D01*
X9232300Y-8242900D02*
X9157300Y-8317900D01*
X8903300Y-7531700D02*
X8978300Y-7606700D01*
X8978300Y-7531700D02*
X8903300Y-7606700D01*
X9030300Y-7531700D02*
X9105300Y-7606700D01*
X9105300Y-7531700D02*
X9030300Y-7606700D01*
X9157300Y-7531700D02*
X9232300Y-7606700D01*
X9232300Y-7531700D02*
X9157300Y-7606700D01*
X9055700Y-6261700D02*
X9130700Y-6336700D01*
X9130700Y-6261700D02*
X9055700Y-6336700D01*
X9055700Y-6388700D02*
X9130700Y-6463700D01*
X9130700Y-6388700D02*
X9055700Y-6463700D01*
X9055700Y-6515700D02*
X9130700Y-6590700D01*
X9130700Y-6515700D02*
X9055700Y-6590700D01*
X9043000Y-2883500D02*
X9118000Y-2958500D01*
X9118000Y-2883500D02*
X9043000Y-2958500D01*
X9043000Y-3010500D02*
X9118000Y-3085500D01*
X9118000Y-3010500D02*
X9043000Y-3085500D01*
X9043000Y-3137500D02*
X9118000Y-3212500D01*
X9118000Y-3137500D02*
X9043000Y-3212500D01*
X9055700Y-5042500D02*
X9130700Y-5117500D01*
X9130700Y-5042500D02*
X9055700Y-5117500D01*
X9055700Y-5169500D02*
X9130700Y-5244500D01*
X9130700Y-5169500D02*
X9055700Y-5244500D01*
X9055700Y-5296500D02*
X9130700Y-5371500D01*
X9130700Y-5296500D02*
X9055700Y-5371500D01*
X9055700Y-4077300D02*
X9130700Y-4152300D01*
X9130700Y-4077300D02*
X9055700Y-4152300D01*
X9055700Y-4204300D02*
X9130700Y-4279300D01*
X9130700Y-4204300D02*
X9055700Y-4279300D01*
X9055700Y-4331300D02*
X9130700Y-4406300D01*
X9130700Y-4331300D02*
X9055700Y-4406300D01*
X9055700Y-3467700D02*
X9130700Y-3542700D01*
X9130700Y-3467700D02*
X9055700Y-3542700D01*
X9055700Y-3594700D02*
X9130700Y-3669700D01*
X9130700Y-3594700D02*
X9055700Y-3669700D01*
X9055700Y-3721700D02*
X9130700Y-3796700D01*
X9130700Y-3721700D02*
X9055700Y-3796700D01*
X9055700Y-5652100D02*
X9130700Y-5727100D01*
X9130700Y-5652100D02*
X9055700Y-5727100D01*
X9055700Y-5779100D02*
X9130700Y-5854100D01*
X9130700Y-5779100D02*
X9055700Y-5854100D01*
X9055700Y-5906100D02*
X9130700Y-5981100D01*
X9130700Y-5906100D02*
X9055700Y-5981100D01*
X1752600Y-3111500D02*
G75*
G03*
X1752600Y-3111500I-38100J0D01*
G01*
X1752600Y-4127500D02*
G75*
G03*
X1752600Y-4127500I-38100J0D01*
G01*
X1752600Y-4635500D02*
G75*
G03*
X1752600Y-4635500I-38100J0D01*
G01*
X6324600Y-2857500D02*
G75*
G03*
X6324600Y-2857500I-38100J0D01*
G01*
X6324600Y-3873500D02*
G75*
G03*
X6324600Y-3873500I-38100J0D01*
G01*
X6324600Y-4889500D02*
G75*
G03*
X6324600Y-4889500I-38100J0D01*
G01*
X6324600Y-5905500D02*
G75*
G03*
X6324600Y-5905500I-38100J0D01*
G01*
X2387600Y-7427600D02*
X2387600Y-7507600D01*
X2347600Y-7467600D02*
X2427600Y-7467600D01*
X3403600Y-7427600D02*
X3403600Y-7507600D01*
X3363600Y-7467600D02*
X3443600Y-7467600D01*
X7518400Y-7021200D02*
X7518400Y-7101200D01*
X7478400Y-7061200D02*
X7558400Y-7061200D01*
X8534400Y-7021200D02*
X8534400Y-7101200D01*
X8494400Y-7061200D02*
X8574400Y-7061200D01*
X7467600Y-4227200D02*
X7467600Y-4307200D01*
X7427600Y-4267200D02*
X7507600Y-4267200D01*
X8483600Y-4227200D02*
X8483600Y-4307200D01*
X8443600Y-4267200D02*
X8523600Y-4267200D01*
X7489000Y-7404800D02*
X7489000Y-7484800D01*
X7449000Y-7444800D02*
X7529000Y-7444800D01*
X8505000Y-7404800D02*
X8505000Y-7484800D01*
X8465000Y-7444800D02*
X8545000Y-7444800D01*
X7467600Y-3058800D02*
X7467600Y-3138800D01*
X7427600Y-3098800D02*
X7507600Y-3098800D01*
X8483600Y-3058800D02*
X8483600Y-3138800D01*
X8443600Y-3098800D02*
X8523600Y-3098800D01*
X2387600Y-6970400D02*
X2387600Y-7050400D01*
X2347600Y-7010400D02*
X2427600Y-7010400D01*
X3403600Y-6970400D02*
X3403600Y-7050400D01*
X3363600Y-7010400D02*
X3443600Y-7010400D01*
X7518400Y-8291200D02*
X7518400Y-8371200D01*
X7478400Y-8331200D02*
X7558400Y-8331200D01*
X8534400Y-8291200D02*
X8534400Y-8371200D01*
X8494400Y-8331200D02*
X8574400Y-8331200D01*
X2387600Y-7884800D02*
X2387600Y-7964800D01*
X2347600Y-7924800D02*
X2427600Y-7924800D01*
X3403600Y-7884800D02*
X3403600Y-7964800D01*
X3363600Y-7924800D02*
X3443600Y-7924800D01*
X2387600Y-8291200D02*
X2387600Y-8371200D01*
X2347600Y-8331200D02*
X2427600Y-8331200D01*
X3403600Y-8291200D02*
X3403600Y-8371200D01*
X3363600Y-8331200D02*
X3443600Y-8331200D01*
X7467600Y-3668400D02*
X7467600Y-3748400D01*
X7427600Y-3708400D02*
X7507600Y-3708400D01*
X8483600Y-3668400D02*
X8483600Y-3748400D01*
X8443600Y-3708400D02*
X8523600Y-3708400D01*
X7489000Y-7809800D02*
X7489000Y-7889800D01*
X7449000Y-7849800D02*
X7529000Y-7849800D01*
X8505000Y-7809800D02*
X8505000Y-7889800D01*
X8465000Y-7849800D02*
X8545000Y-7849800D01*
X7467400Y-5114400D02*
X7467400Y-5194400D01*
X7427400Y-5154400D02*
X7507400Y-5154400D01*
X8483400Y-5114400D02*
X8483400Y-5194400D01*
X8443400Y-5154400D02*
X8523400Y-5154400D01*
X7467400Y-5519400D02*
X7467400Y-5599400D01*
X7427400Y-5559400D02*
X7507400Y-5559400D01*
X8483400Y-5519400D02*
X8483400Y-5599400D01*
X8443400Y-5559400D02*
X8523400Y-5559400D01*
X1546656Y-6829856D02*
X1546656Y-6759144D01*
X1475944Y-6759144D01*
X1475944Y-6829856D01*
X1546656Y-6829856D01*
X1546656Y-7083856D02*
X1546656Y-7013144D01*
X1475944Y-7013144D01*
X1475944Y-7083856D01*
X1546656Y-7083856D01*
X1546656Y-7337856D02*
X1546656Y-7267144D01*
X1475944Y-7267144D01*
X1475944Y-7337856D01*
X1546656Y-7337856D01*
X1546656Y-7591856D02*
X1546656Y-7521144D01*
X1475944Y-7521144D01*
X1475944Y-7591856D01*
X1546656Y-7591856D01*
X1546656Y-7845856D02*
X1546656Y-7775144D01*
X1475944Y-7775144D01*
X1475944Y-7845856D01*
X1546656Y-7845856D01*
X1546656Y-8099856D02*
X1546656Y-8029144D01*
X1475944Y-8029144D01*
X1475944Y-8099856D01*
X1546656Y-8099856D01*
X1546656Y-8353856D02*
X1546656Y-8283144D01*
X1475944Y-8283144D01*
X1475944Y-8353856D01*
X1546656Y-8353856D01*
X1546656Y-8607856D02*
X1546656Y-8537144D01*
X1475944Y-8537144D01*
X1475944Y-8607856D01*
X1546656Y-8607856D01*
X1546656Y-8861856D02*
X1546656Y-8791144D01*
X1475944Y-8791144D01*
X1475944Y-8861856D01*
X1546656Y-8861856D01*
X1546656Y-9115856D02*
X1546656Y-9045144D01*
X1475944Y-9045144D01*
X1475944Y-9115856D01*
X1546656Y-9115856D01*
X1800656Y-6829856D02*
X1800656Y-6759144D01*
X1729944Y-6759144D01*
X1729944Y-6829856D01*
X1800656Y-6829856D01*
X1800656Y-7083856D02*
X1800656Y-7013144D01*
X1729944Y-7013144D01*
X1729944Y-7083856D01*
X1800656Y-7083856D01*
X1800656Y-7337856D02*
X1800656Y-7267144D01*
X1729944Y-7267144D01*
X1729944Y-7337856D01*
X1800656Y-7337856D01*
X1800656Y-7591856D02*
X1800656Y-7521144D01*
X1729944Y-7521144D01*
X1729944Y-7591856D01*
X1800656Y-7591856D01*
X1800656Y-7845856D02*
X1800656Y-7775144D01*
X1729944Y-7775144D01*
X1729944Y-7845856D01*
X1800656Y-7845856D01*
X1800656Y-8099856D02*
X1800656Y-8029144D01*
X1729944Y-8029144D01*
X1729944Y-8099856D01*
X1800656Y-8099856D01*
X1800656Y-8353856D02*
X1800656Y-8283144D01*
X1729944Y-8283144D01*
X1729944Y-8353856D01*
X1800656Y-8353856D01*
X1800656Y-8607856D02*
X1800656Y-8537144D01*
X1729944Y-8537144D01*
X1729944Y-8607856D01*
X1800656Y-8607856D01*
X1800656Y-8861856D02*
X1800656Y-8791144D01*
X1729944Y-8791144D01*
X1729944Y-8861856D01*
X1800656Y-8861856D01*
X1800656Y-9115856D02*
X1800656Y-9045144D01*
X1729944Y-9045144D01*
X1729944Y-9115856D01*
X1800656Y-9115856D01*
X10515600Y-1944600D02*
X10580600Y-1879600D01*
X10515600Y-1814600D01*
X10450600Y-1879600D01*
X10515600Y-1944600D01*
X11023600Y-1944600D02*
X11088600Y-1879600D01*
X11023600Y-1814600D01*
X10958600Y-1879600D01*
X11023600Y-1944600D01*
X8636000Y-1944600D02*
X8701000Y-1879600D01*
X8636000Y-1814600D01*
X8571000Y-1879600D01*
X8636000Y-1944600D01*
X9144000Y-1944600D02*
X9209000Y-1879600D01*
X9144000Y-1814600D01*
X9079000Y-1879600D01*
X9144000Y-1944600D01*
X10160000Y-5478500D02*
X10225000Y-5413500D01*
X10160000Y-5348500D01*
X10095000Y-5413500D01*
X10160000Y-5478500D01*
X10160000Y-5978500D02*
X10225000Y-5913500D01*
X10160000Y-5848500D01*
X10095000Y-5913500D01*
X10160000Y-5978500D01*
X10160000Y-6478500D02*
X10225000Y-6413500D01*
X10160000Y-6348500D01*
X10095000Y-6413500D01*
X10160000Y-6478500D01*
X10160000Y-3256000D02*
X10225000Y-3191000D01*
X10160000Y-3126000D01*
X10095000Y-3191000D01*
X10160000Y-3256000D01*
X10160000Y-3756000D02*
X10225000Y-3691000D01*
X10160000Y-3626000D01*
X10095000Y-3691000D01*
X10160000Y-3756000D01*
X10160000Y-4256000D02*
X10225000Y-4191000D01*
X10160000Y-4126000D01*
X10095000Y-4191000D01*
X10160000Y-4256000D01*
X12496800Y-1944600D02*
X12561800Y-1879600D01*
X12496800Y-1814600D01*
X12431800Y-1879600D01*
X12496800Y-1944600D01*
X13004800Y-1944600D02*
X13069800Y-1879600D01*
X13004800Y-1814600D01*
X12939800Y-1879600D01*
X13004800Y-1944600D01*
X10127600Y-9785200D02*
X10267600Y-9925200D01*
X10267600Y-9785200D02*
X10127600Y-9925200D01*
X10267600Y-9855200D02*
G75*
G03*
X10267600Y-9855200I-70000J0D01*
G01*
X10477600Y-10535200D02*
X10617600Y-10675200D01*
X10617600Y-10535200D02*
X10477600Y-10675200D01*
X10617600Y-10605200D02*
G75*
G03*
X10617600Y-10605200I-70000J0D01*
G01*
X10827600Y-9785200D02*
X10967600Y-9925200D01*
X10967600Y-9785200D02*
X10827600Y-9925200D01*
X10967600Y-9855200D02*
G75*
G03*
X10967600Y-9855200I-70000J0D01*
G01*
X11977600Y-9785200D02*
X12117600Y-9925200D01*
X12117600Y-9785200D02*
X11977600Y-9925200D01*
X12117600Y-9855200D02*
G75*
G03*
X12117600Y-9855200I-70000J0D01*
G01*
X11977600Y-10535200D02*
X12117600Y-10675200D01*
X12117600Y-10535200D02*
X11977600Y-10675200D01*
X12117600Y-10605200D02*
G75*
G03*
X12117600Y-10605200I-70000J0D01*
G01*
X12477600Y-9785200D02*
X12617600Y-9925200D01*
X12617600Y-9785200D02*
X12477600Y-9925200D01*
X12617600Y-9855200D02*
G75*
G03*
X12617600Y-9855200I-70000J0D01*
G01*
X12477600Y-10535200D02*
X12617600Y-10675200D01*
X12617600Y-10535200D02*
X12477600Y-10675200D01*
X12617600Y-10605200D02*
G75*
G03*
X12617600Y-10605200I-70000J0D01*
G01*
X10003400Y-7749600D02*
X10153400Y-7899600D01*
X10153400Y-7749600D02*
X10003400Y-7899600D01*
X10078400Y-7749600D02*
X10078400Y-7899600D01*
X10003400Y-7824600D02*
X10153400Y-7824600D01*
X10003400Y-8499600D02*
X10153400Y-8649600D01*
X10153400Y-8499600D02*
X10003400Y-8649600D01*
X10078400Y-8499600D02*
X10078400Y-8649600D01*
X10003400Y-8574600D02*
X10153400Y-8574600D01*
X11503400Y-7749600D02*
X11653400Y-7899600D01*
X11653400Y-7749600D02*
X11503400Y-7899600D01*
X11578400Y-7749600D02*
X11578400Y-7899600D01*
X11503400Y-7824600D02*
X11653400Y-7824600D01*
X11503400Y-8499600D02*
X11653400Y-8649600D01*
X11653400Y-8499600D02*
X11503400Y-8649600D01*
X11578400Y-8499600D02*
X11578400Y-8649600D01*
X11503400Y-8574600D02*
X11653400Y-8574600D01*
X12003400Y-7749600D02*
X12153400Y-7899600D01*
X12153400Y-7749600D02*
X12003400Y-7899600D01*
X12078400Y-7749600D02*
X12078400Y-7899600D01*
X12003400Y-7824600D02*
X12153400Y-7824600D01*
X12003400Y-8499600D02*
X12153400Y-8649600D01*
X12153400Y-8499600D02*
X12003400Y-8649600D01*
X12078400Y-8499600D02*
X12078400Y-8649600D01*
X12003400Y-8574600D02*
X12153400Y-8574600D01*
X12503400Y-7749600D02*
X12653400Y-7899600D01*
X12653400Y-7749600D02*
X12503400Y-7899600D01*
X12578400Y-7749600D02*
X12578400Y-7899600D01*
X12503400Y-7824600D02*
X12653400Y-7824600D01*
X12503400Y-8499600D02*
X12653400Y-8649600D01*
X12653400Y-8499600D02*
X12503400Y-8649600D01*
X12578400Y-8499600D02*
X12578400Y-8649600D01*
X12503400Y-8574600D02*
X12653400Y-8574600D01*
X12765000Y-5393500D02*
X13055000Y-5683500D01*
X13055000Y-5393500D02*
X12765000Y-5683500D01*
X13012531Y-5641031D02*
X13012531Y-5435969D01*
X12807468Y-5435969D01*
X12807468Y-5641031D01*
X13012531Y-5641031D01*
X13440000Y-6143500D02*
X13730000Y-6433500D01*
X13730000Y-6143500D02*
X13440000Y-6433500D01*
X13687531Y-6391031D02*
X13687531Y-6185968D01*
X13482468Y-6185968D01*
X13482468Y-6391031D01*
X13687531Y-6391031D01*
X12765000Y-3171000D02*
X13055000Y-3461000D01*
X13055000Y-3171000D02*
X12765000Y-3461000D01*
X13012531Y-3418531D02*
X13012531Y-3213468D01*
X12807468Y-3213468D01*
X12807468Y-3418531D01*
X13012531Y-3418531D01*
X13440000Y-3921000D02*
X13730000Y-4211000D01*
X13730000Y-3921000D02*
X13440000Y-4211000D01*
X13687531Y-4168531D02*
X13687531Y-3963468D01*
X13482468Y-3963468D01*
X13482468Y-4168531D01*
X13687531Y-4168531D01*
D11*
X286429Y-465714D02*
X286429Y-165714D01*
X357857Y-165714D01*
X400714Y-180000D01*
X429286Y-208571D01*
X443571Y-237143D01*
X457857Y-294286D01*
X457857Y-337143D01*
X443571Y-394286D01*
X429286Y-422857D01*
X400714Y-451428D01*
X357857Y-465714D01*
X286429Y-465714D01*
X586429Y-465714D02*
X586429Y-265714D01*
X586429Y-322857D02*
X600714Y-294286D01*
X615000Y-280000D01*
X643571Y-265714D01*
X672143Y-265714D01*
X772143Y-465714D02*
X772143Y-265714D01*
X772143Y-165714D02*
X757857Y-180000D01*
X772143Y-194286D01*
X786428Y-180000D01*
X772143Y-165714D01*
X772143Y-194286D01*
X957857Y-465714D02*
X929286Y-451428D01*
X915000Y-422857D01*
X915000Y-165714D01*
X1115000Y-465714D02*
X1086429Y-451428D01*
X1072143Y-422857D01*
X1072143Y-165714D01*
X1457857Y-465714D02*
X1457857Y-165714D01*
X1557857Y-380000D01*
X1657857Y-165714D01*
X1657857Y-465714D01*
X1929286Y-465714D02*
X1929286Y-308571D01*
X1915000Y-280000D01*
X1886428Y-265714D01*
X1829286Y-265714D01*
X1800714Y-280000D01*
X1929286Y-451428D02*
X1900714Y-465714D01*
X1829286Y-465714D01*
X1800714Y-451428D01*
X1786428Y-422857D01*
X1786428Y-394286D01*
X1800714Y-365714D01*
X1829286Y-351428D01*
X1900714Y-351428D01*
X1929286Y-337143D01*
X2072143Y-265714D02*
X2072143Y-565714D01*
X2072143Y-280000D02*
X2100714Y-265714D01*
X2157857Y-265714D01*
X2186429Y-280000D01*
X2200714Y-294286D01*
X2215000Y-322857D01*
X2215000Y-408571D01*
X2200714Y-437143D01*
X2186429Y-451428D01*
X2157857Y-465714D01*
X2100714Y-465714D01*
X2072143Y-451428D01*
X2343571Y-437143D02*
X2357857Y-451428D01*
X2343571Y-465714D01*
X2329286Y-451428D01*
X2343571Y-437143D01*
X2343571Y-465714D01*
X2343571Y-280000D02*
X2357857Y-294286D01*
X2343571Y-308571D01*
X2329286Y-294286D01*
X2343571Y-280000D01*
X2343571Y-308571D01*
X-75000Y-922500D02*
X0Y-997500D01*
X0Y-922500D02*
X-75000Y-997500D01*
X343571Y-795714D02*
X372143Y-795714D01*
X400714Y-810000D01*
X415000Y-824286D01*
X429286Y-852857D01*
X443571Y-910000D01*
X443571Y-981428D01*
X429286Y-1038571D01*
X415000Y-1067143D01*
X400714Y-1081429D01*
X372143Y-1095714D01*
X343571Y-1095714D01*
X315000Y-1081429D01*
X300714Y-1067143D01*
X286429Y-1038571D01*
X272143Y-981428D01*
X272143Y-910000D01*
X286429Y-852857D01*
X300714Y-824286D01*
X315000Y-810000D01*
X343571Y-795714D01*
X572143Y-1067143D02*
X586429Y-1081429D01*
X572143Y-1095714D01*
X557857Y-1081429D01*
X572143Y-1067143D01*
X572143Y-1095714D01*
X686429Y-795714D02*
X886428Y-795714D01*
X757857Y-1095714D01*
X1143571Y-795714D02*
X1000714Y-795714D01*
X986428Y-938571D01*
X1000714Y-924286D01*
X1029286Y-910000D01*
X1100714Y-910000D01*
X1129286Y-924286D01*
X1143571Y-938571D01*
X1157857Y-967143D01*
X1157857Y-1038571D01*
X1143571Y-1067143D01*
X1129286Y-1081429D01*
X1100714Y-1095714D01*
X1029286Y-1095714D01*
X1000714Y-1081429D01*
X986428Y-1067143D01*
X1286429Y-1095714D02*
X1286429Y-895714D01*
X1286429Y-924286D02*
X1300714Y-910000D01*
X1329286Y-895714D01*
X1372143Y-895714D01*
X1400714Y-910000D01*
X1415000Y-938571D01*
X1415000Y-1095714D01*
X1415000Y-938571D02*
X1429286Y-910000D01*
X1457857Y-895714D01*
X1500714Y-895714D01*
X1529286Y-910000D01*
X1543571Y-938571D01*
X1543571Y-1095714D01*
X1686428Y-1095714D02*
X1686428Y-895714D01*
X1686428Y-924286D02*
X1700714Y-910000D01*
X1729286Y-895714D01*
X1772143Y-895714D01*
X1800714Y-910000D01*
X1815000Y-938571D01*
X1815000Y-1095714D01*
X1815000Y-938571D02*
X1829286Y-910000D01*
X1857857Y-895714D01*
X1900714Y-895714D01*
X1929286Y-910000D01*
X1943571Y-938571D01*
X1943571Y-1095714D01*
X2529286Y-781428D02*
X2272143Y-1167143D01*
X2915000Y-795714D02*
X2943571Y-795714D01*
X2972143Y-810000D01*
X2986428Y-824286D01*
X3000714Y-852857D01*
X3015000Y-910000D01*
X3015000Y-981428D01*
X3000714Y-1038571D01*
X2986428Y-1067143D01*
X2972143Y-1081429D01*
X2943571Y-1095714D01*
X2915000Y-1095714D01*
X2886428Y-1081429D01*
X2872143Y-1067143D01*
X2857857Y-1038571D01*
X2843571Y-981428D01*
X2843571Y-910000D01*
X2857857Y-852857D01*
X2872143Y-824286D01*
X2886428Y-810000D01*
X2915000Y-795714D01*
X3143571Y-1067143D02*
X3157857Y-1081429D01*
X3143571Y-1095714D01*
X3129286Y-1081429D01*
X3143571Y-1067143D01*
X3143571Y-1095714D01*
X3343571Y-795714D02*
X3372143Y-795714D01*
X3400714Y-810000D01*
X3415000Y-824286D01*
X3429286Y-852857D01*
X3443571Y-910000D01*
X3443571Y-981428D01*
X3429286Y-1038571D01*
X3415000Y-1067143D01*
X3400714Y-1081429D01*
X3372143Y-1095714D01*
X3343571Y-1095714D01*
X3315000Y-1081429D01*
X3300714Y-1067143D01*
X3286428Y-1038571D01*
X3272143Y-981428D01*
X3272143Y-910000D01*
X3286428Y-852857D01*
X3300714Y-824286D01*
X3315000Y-810000D01*
X3343571Y-795714D01*
X3543571Y-795714D02*
X3729286Y-795714D01*
X3629286Y-910000D01*
X3672143Y-910000D01*
X3700714Y-924286D01*
X3715000Y-938571D01*
X3729286Y-967143D01*
X3729286Y-1038571D01*
X3715000Y-1067143D01*
X3700714Y-1081429D01*
X3672143Y-1095714D01*
X3586428Y-1095714D01*
X3557857Y-1081429D01*
X3543571Y-1067143D01*
X3915000Y-795714D02*
X3943571Y-795714D01*
X3972143Y-810000D01*
X3986428Y-824286D01*
X4000714Y-852857D01*
X4015000Y-910000D01*
X4015000Y-981428D01*
X4000714Y-1038571D01*
X3986428Y-1067143D01*
X3972143Y-1081429D01*
X3943571Y-1095714D01*
X3915000Y-1095714D01*
X3886428Y-1081429D01*
X3872143Y-1067143D01*
X3857857Y-1038571D01*
X3843571Y-981428D01*
X3843571Y-910000D01*
X3857857Y-852857D01*
X3872143Y-824286D01*
X3886428Y-810000D01*
X3915000Y-795714D01*
X4129286Y-795714D02*
X4129286Y-852857D01*
X4243571Y-795714D02*
X4243571Y-852857D01*
X4686429Y-1210000D02*
X4672143Y-1195714D01*
X4643571Y-1152857D01*
X4629286Y-1124286D01*
X4615000Y-1081429D01*
X4600714Y-1010000D01*
X4600714Y-952857D01*
X4615000Y-881428D01*
X4629286Y-838571D01*
X4643571Y-810000D01*
X4672143Y-767143D01*
X4686429Y-752857D01*
X4786429Y-824286D02*
X4800714Y-810000D01*
X4829286Y-795714D01*
X4900714Y-795714D01*
X4929286Y-810000D01*
X4943571Y-824286D01*
X4957857Y-852857D01*
X4957857Y-881428D01*
X4943571Y-924286D01*
X4772143Y-1095714D01*
X4957857Y-1095714D01*
X5057857Y-795714D02*
X5257857Y-795714D01*
X5129286Y-1095714D01*
X5600714Y-1095714D02*
X5600714Y-795714D01*
X5729286Y-1095714D02*
X5729286Y-938571D01*
X5715000Y-910000D01*
X5686428Y-895714D01*
X5643571Y-895714D01*
X5615000Y-910000D01*
X5600714Y-924286D01*
X5915000Y-1095714D02*
X5886428Y-1081429D01*
X5872143Y-1067143D01*
X5857857Y-1038571D01*
X5857857Y-952857D01*
X5872143Y-924286D01*
X5886428Y-910000D01*
X5915000Y-895714D01*
X5957857Y-895714D01*
X5986428Y-910000D01*
X6000714Y-924286D01*
X6015000Y-952857D01*
X6015000Y-1038571D01*
X6000714Y-1067143D01*
X5986428Y-1081429D01*
X5957857Y-1095714D01*
X5915000Y-1095714D01*
X6186428Y-1095714D02*
X6157857Y-1081429D01*
X6143571Y-1052857D01*
X6143571Y-795714D01*
X6415000Y-1081429D02*
X6386428Y-1095714D01*
X6329286Y-1095714D01*
X6300714Y-1081429D01*
X6286428Y-1052857D01*
X6286428Y-938571D01*
X6300714Y-910000D01*
X6329286Y-895714D01*
X6386428Y-895714D01*
X6415000Y-910000D01*
X6429286Y-938571D01*
X6429286Y-967143D01*
X6286428Y-995714D01*
X6543571Y-1081429D02*
X6572143Y-1095714D01*
X6629286Y-1095714D01*
X6657857Y-1081429D01*
X6672143Y-1052857D01*
X6672143Y-1038571D01*
X6657857Y-1010000D01*
X6629286Y-995714D01*
X6586428Y-995714D01*
X6557857Y-981428D01*
X6543571Y-952857D01*
X6543571Y-938571D01*
X6557857Y-910000D01*
X6586428Y-895714D01*
X6629286Y-895714D01*
X6657857Y-910000D01*
X6772143Y-1210000D02*
X6786428Y-1195714D01*
X6815000Y-1152857D01*
X6829286Y-1124286D01*
X6843571Y-1081429D01*
X6857857Y-1010000D01*
X6857857Y-952857D01*
X6843571Y-881428D01*
X6829286Y-838571D01*
X6815000Y-810000D01*
X6786428Y-767143D01*
X6772143Y-752857D01*
X0Y-1356000D02*
G75*
G03*
X0Y-1356000I-38100J0D01*
G01*
X343571Y-1191714D02*
X372143Y-1191714D01*
X400714Y-1206000D01*
X415000Y-1220286D01*
X429286Y-1248857D01*
X443571Y-1306000D01*
X443571Y-1377429D01*
X429286Y-1434571D01*
X415000Y-1463143D01*
X400714Y-1477428D01*
X372143Y-1491714D01*
X343571Y-1491714D01*
X315000Y-1477428D01*
X300714Y-1463143D01*
X286429Y-1434571D01*
X272143Y-1377429D01*
X272143Y-1306000D01*
X286429Y-1248857D01*
X300714Y-1220286D01*
X315000Y-1206000D01*
X343571Y-1191714D01*
X572143Y-1463143D02*
X586429Y-1477428D01*
X572143Y-1491714D01*
X557857Y-1477428D01*
X572143Y-1463143D01*
X572143Y-1491714D01*
X686429Y-1191714D02*
X886428Y-1191714D01*
X757857Y-1491714D01*
X1129286Y-1191714D02*
X1072143Y-1191714D01*
X1043571Y-1206000D01*
X1029286Y-1220286D01*
X1000714Y-1263143D01*
X986428Y-1320286D01*
X986428Y-1434571D01*
X1000714Y-1463143D01*
X1015000Y-1477428D01*
X1043571Y-1491714D01*
X1100714Y-1491714D01*
X1129286Y-1477428D01*
X1143571Y-1463143D01*
X1157857Y-1434571D01*
X1157857Y-1363143D01*
X1143571Y-1334571D01*
X1129286Y-1320286D01*
X1100714Y-1306000D01*
X1043571Y-1306000D01*
X1015000Y-1320286D01*
X1000714Y-1334571D01*
X986428Y-1363143D01*
X1286429Y-1491714D02*
X1286429Y-1291714D01*
X1286429Y-1320286D02*
X1300714Y-1306000D01*
X1329286Y-1291714D01*
X1372143Y-1291714D01*
X1400714Y-1306000D01*
X1415000Y-1334571D01*
X1415000Y-1491714D01*
X1415000Y-1334571D02*
X1429286Y-1306000D01*
X1457857Y-1291714D01*
X1500714Y-1291714D01*
X1529286Y-1306000D01*
X1543571Y-1334571D01*
X1543571Y-1491714D01*
X1686428Y-1491714D02*
X1686428Y-1291714D01*
X1686428Y-1320286D02*
X1700714Y-1306000D01*
X1729286Y-1291714D01*
X1772143Y-1291714D01*
X1800714Y-1306000D01*
X1815000Y-1334571D01*
X1815000Y-1491714D01*
X1815000Y-1334571D02*
X1829286Y-1306000D01*
X1857857Y-1291714D01*
X1900714Y-1291714D01*
X1929286Y-1306000D01*
X1943571Y-1334571D01*
X1943571Y-1491714D01*
X2529286Y-1177429D02*
X2272143Y-1563143D01*
X2915000Y-1191714D02*
X2943571Y-1191714D01*
X2972143Y-1206000D01*
X2986428Y-1220286D01*
X3000714Y-1248857D01*
X3015000Y-1306000D01*
X3015000Y-1377429D01*
X3000714Y-1434571D01*
X2986428Y-1463143D01*
X2972143Y-1477428D01*
X2943571Y-1491714D01*
X2915000Y-1491714D01*
X2886428Y-1477428D01*
X2872143Y-1463143D01*
X2857857Y-1434571D01*
X2843571Y-1377429D01*
X2843571Y-1306000D01*
X2857857Y-1248857D01*
X2872143Y-1220286D01*
X2886428Y-1206000D01*
X2915000Y-1191714D01*
X3143571Y-1463143D02*
X3157857Y-1477428D01*
X3143571Y-1491714D01*
X3129286Y-1477428D01*
X3143571Y-1463143D01*
X3143571Y-1491714D01*
X3343571Y-1191714D02*
X3372143Y-1191714D01*
X3400714Y-1206000D01*
X3415000Y-1220286D01*
X3429286Y-1248857D01*
X3443571Y-1306000D01*
X3443571Y-1377429D01*
X3429286Y-1434571D01*
X3415000Y-1463143D01*
X3400714Y-1477428D01*
X3372143Y-1491714D01*
X3343571Y-1491714D01*
X3315000Y-1477428D01*
X3300714Y-1463143D01*
X3286428Y-1434571D01*
X3272143Y-1377429D01*
X3272143Y-1306000D01*
X3286428Y-1248857D01*
X3300714Y-1220286D01*
X3315000Y-1206000D01*
X3343571Y-1191714D01*
X3543571Y-1191714D02*
X3729286Y-1191714D01*
X3629286Y-1306000D01*
X3672143Y-1306000D01*
X3700714Y-1320286D01*
X3715000Y-1334571D01*
X3729286Y-1363143D01*
X3729286Y-1434571D01*
X3715000Y-1463143D01*
X3700714Y-1477428D01*
X3672143Y-1491714D01*
X3586428Y-1491714D01*
X3557857Y-1477428D01*
X3543571Y-1463143D01*
X3915000Y-1191714D02*
X3943571Y-1191714D01*
X3972143Y-1206000D01*
X3986428Y-1220286D01*
X4000714Y-1248857D01*
X4015000Y-1306000D01*
X4015000Y-1377429D01*
X4000714Y-1434571D01*
X3986428Y-1463143D01*
X3972143Y-1477428D01*
X3943571Y-1491714D01*
X3915000Y-1491714D01*
X3886428Y-1477428D01*
X3872143Y-1463143D01*
X3857857Y-1434571D01*
X3843571Y-1377429D01*
X3843571Y-1306000D01*
X3857857Y-1248857D01*
X3872143Y-1220286D01*
X3886428Y-1206000D01*
X3915000Y-1191714D01*
X4129286Y-1191714D02*
X4129286Y-1248857D01*
X4243571Y-1191714D02*
X4243571Y-1248857D01*
X4686429Y-1606000D02*
X4672143Y-1591714D01*
X4643571Y-1548857D01*
X4629286Y-1520286D01*
X4615000Y-1477428D01*
X4600714Y-1406000D01*
X4600714Y-1348857D01*
X4615000Y-1277429D01*
X4629286Y-1234571D01*
X4643571Y-1206000D01*
X4672143Y-1163143D01*
X4686429Y-1148857D01*
X4772143Y-1191714D02*
X4972143Y-1191714D01*
X4843571Y-1491714D01*
X5315000Y-1491714D02*
X5315000Y-1191714D01*
X5443571Y-1491714D02*
X5443571Y-1334571D01*
X5429286Y-1306000D01*
X5400714Y-1291714D01*
X5357857Y-1291714D01*
X5329286Y-1306000D01*
X5315000Y-1320286D01*
X5629286Y-1491714D02*
X5600714Y-1477428D01*
X5586429Y-1463143D01*
X5572143Y-1434571D01*
X5572143Y-1348857D01*
X5586429Y-1320286D01*
X5600714Y-1306000D01*
X5629286Y-1291714D01*
X5672143Y-1291714D01*
X5700714Y-1306000D01*
X5715000Y-1320286D01*
X5729286Y-1348857D01*
X5729286Y-1434571D01*
X5715000Y-1463143D01*
X5700714Y-1477428D01*
X5672143Y-1491714D01*
X5629286Y-1491714D01*
X5900714Y-1491714D02*
X5872143Y-1477428D01*
X5857857Y-1448857D01*
X5857857Y-1191714D01*
X6129286Y-1477428D02*
X6100714Y-1491714D01*
X6043571Y-1491714D01*
X6015000Y-1477428D01*
X6000714Y-1448857D01*
X6000714Y-1334571D01*
X6015000Y-1306000D01*
X6043571Y-1291714D01*
X6100714Y-1291714D01*
X6129286Y-1306000D01*
X6143571Y-1334571D01*
X6143571Y-1363143D01*
X6000714Y-1391714D01*
X6257857Y-1477428D02*
X6286428Y-1491714D01*
X6343571Y-1491714D01*
X6372143Y-1477428D01*
X6386428Y-1448857D01*
X6386428Y-1434571D01*
X6372143Y-1406000D01*
X6343571Y-1391714D01*
X6300714Y-1391714D01*
X6272143Y-1377429D01*
X6257857Y-1348857D01*
X6257857Y-1334571D01*
X6272143Y-1306000D01*
X6300714Y-1291714D01*
X6343571Y-1291714D01*
X6372143Y-1306000D01*
X6486428Y-1606000D02*
X6500714Y-1591714D01*
X6529286Y-1548857D01*
X6543571Y-1520286D01*
X6557857Y-1477428D01*
X6572143Y-1406000D01*
X6572143Y-1348857D01*
X6557857Y-1277429D01*
X6543571Y-1234571D01*
X6529286Y-1206000D01*
X6500714Y-1163143D01*
X6486428Y-1148857D01*
X-40000Y-1712000D02*
X-40000Y-1792000D01*
X-80000Y-1752000D02*
X0Y-1752000D01*
X343571Y-1587714D02*
X372143Y-1587714D01*
X400714Y-1602000D01*
X415000Y-1616286D01*
X429286Y-1644857D01*
X443571Y-1702000D01*
X443571Y-1773428D01*
X429286Y-1830571D01*
X415000Y-1859143D01*
X400714Y-1873428D01*
X372143Y-1887714D01*
X343571Y-1887714D01*
X315000Y-1873428D01*
X300714Y-1859143D01*
X286429Y-1830571D01*
X272143Y-1773428D01*
X272143Y-1702000D01*
X286429Y-1644857D01*
X300714Y-1616286D01*
X315000Y-1602000D01*
X343571Y-1587714D01*
X572143Y-1859143D02*
X586429Y-1873428D01*
X572143Y-1887714D01*
X557857Y-1873428D01*
X572143Y-1859143D01*
X572143Y-1887714D01*
X757857Y-1716286D02*
X729286Y-1702000D01*
X715000Y-1687714D01*
X700714Y-1659143D01*
X700714Y-1644857D01*
X715000Y-1616286D01*
X729286Y-1602000D01*
X757857Y-1587714D01*
X815000Y-1587714D01*
X843571Y-1602000D01*
X857857Y-1616286D01*
X872143Y-1644857D01*
X872143Y-1659143D01*
X857857Y-1687714D01*
X843571Y-1702000D01*
X815000Y-1716286D01*
X757857Y-1716286D01*
X729286Y-1730571D01*
X715000Y-1744857D01*
X700714Y-1773428D01*
X700714Y-1830571D01*
X715000Y-1859143D01*
X729286Y-1873428D01*
X757857Y-1887714D01*
X815000Y-1887714D01*
X843571Y-1873428D01*
X857857Y-1859143D01*
X872143Y-1830571D01*
X872143Y-1773428D01*
X857857Y-1744857D01*
X843571Y-1730571D01*
X815000Y-1716286D01*
X1057857Y-1587714D02*
X1086429Y-1587714D01*
X1115000Y-1602000D01*
X1129286Y-1616286D01*
X1143571Y-1644857D01*
X1157857Y-1702000D01*
X1157857Y-1773428D01*
X1143571Y-1830571D01*
X1129286Y-1859143D01*
X1115000Y-1873428D01*
X1086429Y-1887714D01*
X1057857Y-1887714D01*
X1029286Y-1873428D01*
X1015000Y-1859143D01*
X1000714Y-1830571D01*
X986428Y-1773428D01*
X986428Y-1702000D01*
X1000714Y-1644857D01*
X1015000Y-1616286D01*
X1029286Y-1602000D01*
X1057857Y-1587714D01*
X1286429Y-1887714D02*
X1286429Y-1687714D01*
X1286429Y-1716286D02*
X1300714Y-1702000D01*
X1329286Y-1687714D01*
X1372143Y-1687714D01*
X1400714Y-1702000D01*
X1415000Y-1730571D01*
X1415000Y-1887714D01*
X1415000Y-1730571D02*
X1429286Y-1702000D01*
X1457857Y-1687714D01*
X1500714Y-1687714D01*
X1529286Y-1702000D01*
X1543571Y-1730571D01*
X1543571Y-1887714D01*
X1686428Y-1887714D02*
X1686428Y-1687714D01*
X1686428Y-1716286D02*
X1700714Y-1702000D01*
X1729286Y-1687714D01*
X1772143Y-1687714D01*
X1800714Y-1702000D01*
X1815000Y-1730571D01*
X1815000Y-1887714D01*
X1815000Y-1730571D02*
X1829286Y-1702000D01*
X1857857Y-1687714D01*
X1900714Y-1687714D01*
X1929286Y-1702000D01*
X1943571Y-1730571D01*
X1943571Y-1887714D01*
X2529286Y-1573428D02*
X2272143Y-1959143D01*
X2915000Y-1587714D02*
X2943571Y-1587714D01*
X2972143Y-1602000D01*
X2986428Y-1616286D01*
X3000714Y-1644857D01*
X3015000Y-1702000D01*
X3015000Y-1773428D01*
X3000714Y-1830571D01*
X2986428Y-1859143D01*
X2972143Y-1873428D01*
X2943571Y-1887714D01*
X2915000Y-1887714D01*
X2886428Y-1873428D01*
X2872143Y-1859143D01*
X2857857Y-1830571D01*
X2843571Y-1773428D01*
X2843571Y-1702000D01*
X2857857Y-1644857D01*
X2872143Y-1616286D01*
X2886428Y-1602000D01*
X2915000Y-1587714D01*
X3143571Y-1859143D02*
X3157857Y-1873428D01*
X3143571Y-1887714D01*
X3129286Y-1873428D01*
X3143571Y-1859143D01*
X3143571Y-1887714D01*
X3343571Y-1587714D02*
X3372143Y-1587714D01*
X3400714Y-1602000D01*
X3415000Y-1616286D01*
X3429286Y-1644857D01*
X3443571Y-1702000D01*
X3443571Y-1773428D01*
X3429286Y-1830571D01*
X3415000Y-1859143D01*
X3400714Y-1873428D01*
X3372143Y-1887714D01*
X3343571Y-1887714D01*
X3315000Y-1873428D01*
X3300714Y-1859143D01*
X3286428Y-1830571D01*
X3272143Y-1773428D01*
X3272143Y-1702000D01*
X3286428Y-1644857D01*
X3300714Y-1616286D01*
X3315000Y-1602000D01*
X3343571Y-1587714D01*
X3543571Y-1587714D02*
X3729286Y-1587714D01*
X3629286Y-1702000D01*
X3672143Y-1702000D01*
X3700714Y-1716286D01*
X3715000Y-1730571D01*
X3729286Y-1759143D01*
X3729286Y-1830571D01*
X3715000Y-1859143D01*
X3700714Y-1873428D01*
X3672143Y-1887714D01*
X3586428Y-1887714D01*
X3557857Y-1873428D01*
X3543571Y-1859143D01*
X4015000Y-1887714D02*
X3843571Y-1887714D01*
X3929286Y-1887714D02*
X3929286Y-1587714D01*
X3900714Y-1630571D01*
X3872143Y-1659143D01*
X3843571Y-1673428D01*
X4129286Y-1587714D02*
X4129286Y-1644857D01*
X4243571Y-1587714D02*
X4243571Y-1644857D01*
X4686429Y-2002000D02*
X4672143Y-1987714D01*
X4643571Y-1944857D01*
X4629286Y-1916286D01*
X4615000Y-1873428D01*
X4600714Y-1802000D01*
X4600714Y-1744857D01*
X4615000Y-1673428D01*
X4629286Y-1630571D01*
X4643571Y-1602000D01*
X4672143Y-1559143D01*
X4686429Y-1544857D01*
X4786429Y-1616286D02*
X4800714Y-1602000D01*
X4829286Y-1587714D01*
X4900714Y-1587714D01*
X4929286Y-1602000D01*
X4943571Y-1616286D01*
X4957857Y-1644857D01*
X4957857Y-1673428D01*
X4943571Y-1716286D01*
X4772143Y-1887714D01*
X4957857Y-1887714D01*
X5215000Y-1587714D02*
X5157857Y-1587714D01*
X5129286Y-1602000D01*
X5115000Y-1616286D01*
X5086429Y-1659143D01*
X5072143Y-1716286D01*
X5072143Y-1830571D01*
X5086429Y-1859143D01*
X5100714Y-1873428D01*
X5129286Y-1887714D01*
X5186429Y-1887714D01*
X5215000Y-1873428D01*
X5229286Y-1859143D01*
X5243571Y-1830571D01*
X5243571Y-1759143D01*
X5229286Y-1730571D01*
X5215000Y-1716286D01*
X5186429Y-1702000D01*
X5129286Y-1702000D01*
X5100714Y-1716286D01*
X5086429Y-1730571D01*
X5072143Y-1759143D01*
X5600714Y-1887714D02*
X5600714Y-1587714D01*
X5729286Y-1887714D02*
X5729286Y-1730571D01*
X5715000Y-1702000D01*
X5686428Y-1687714D01*
X5643571Y-1687714D01*
X5615000Y-1702000D01*
X5600714Y-1716286D01*
X5915000Y-1887714D02*
X5886428Y-1873428D01*
X5872143Y-1859143D01*
X5857857Y-1830571D01*
X5857857Y-1744857D01*
X5872143Y-1716286D01*
X5886428Y-1702000D01*
X5915000Y-1687714D01*
X5957857Y-1687714D01*
X5986428Y-1702000D01*
X6000714Y-1716286D01*
X6015000Y-1744857D01*
X6015000Y-1830571D01*
X6000714Y-1859143D01*
X5986428Y-1873428D01*
X5957857Y-1887714D01*
X5915000Y-1887714D01*
X6186428Y-1887714D02*
X6157857Y-1873428D01*
X6143571Y-1844857D01*
X6143571Y-1587714D01*
X6415000Y-1873428D02*
X6386428Y-1887714D01*
X6329286Y-1887714D01*
X6300714Y-1873428D01*
X6286428Y-1844857D01*
X6286428Y-1730571D01*
X6300714Y-1702000D01*
X6329286Y-1687714D01*
X6386428Y-1687714D01*
X6415000Y-1702000D01*
X6429286Y-1730571D01*
X6429286Y-1759143D01*
X6286428Y-1787714D01*
X6543571Y-1873428D02*
X6572143Y-1887714D01*
X6629286Y-1887714D01*
X6657857Y-1873428D01*
X6672143Y-1844857D01*
X6672143Y-1830571D01*
X6657857Y-1802000D01*
X6629286Y-1787714D01*
X6586428Y-1787714D01*
X6557857Y-1773428D01*
X6543571Y-1744857D01*
X6543571Y-1730571D01*
X6557857Y-1702000D01*
X6586428Y-1687714D01*
X6629286Y-1687714D01*
X6657857Y-1702000D01*
X6772143Y-2002000D02*
X6786428Y-1987714D01*
X6815000Y-1944857D01*
X6829286Y-1916286D01*
X6843571Y-1873428D01*
X6857857Y-1802000D01*
X6857857Y-1744857D01*
X6843571Y-1673428D01*
X6829286Y-1630571D01*
X6815000Y-1602000D01*
X6786428Y-1559143D01*
X6772143Y-1544857D01*
X-14644Y-2183356D02*
X-14644Y-2112644D01*
X-85356Y-2112644D01*
X-85356Y-2183356D01*
X-14644Y-2183356D01*
X443571Y-2283714D02*
X272143Y-2283714D01*
X357857Y-2283714D02*
X357857Y-1983714D01*
X329286Y-2026571D01*
X300714Y-2055143D01*
X272143Y-2069428D01*
X572143Y-2255143D02*
X586429Y-2269429D01*
X572143Y-2283714D01*
X557857Y-2269429D01*
X572143Y-2255143D01*
X572143Y-2283714D01*
X772143Y-1983714D02*
X800714Y-1983714D01*
X829286Y-1998000D01*
X843571Y-2012286D01*
X857857Y-2040857D01*
X872143Y-2098000D01*
X872143Y-2169429D01*
X857857Y-2226571D01*
X843571Y-2255143D01*
X829286Y-2269429D01*
X800714Y-2283714D01*
X772143Y-2283714D01*
X743571Y-2269429D01*
X729286Y-2255143D01*
X715000Y-2226571D01*
X700714Y-2169429D01*
X700714Y-2098000D01*
X715000Y-2040857D01*
X729286Y-2012286D01*
X743571Y-1998000D01*
X772143Y-1983714D01*
X1057857Y-1983714D02*
X1086429Y-1983714D01*
X1115000Y-1998000D01*
X1129286Y-2012286D01*
X1143571Y-2040857D01*
X1157857Y-2098000D01*
X1157857Y-2169429D01*
X1143571Y-2226571D01*
X1129286Y-2255143D01*
X1115000Y-2269429D01*
X1086429Y-2283714D01*
X1057857Y-2283714D01*
X1029286Y-2269429D01*
X1015000Y-2255143D01*
X1000714Y-2226571D01*
X986428Y-2169429D01*
X986428Y-2098000D01*
X1000714Y-2040857D01*
X1015000Y-2012286D01*
X1029286Y-1998000D01*
X1057857Y-1983714D01*
X1286429Y-2283714D02*
X1286429Y-2083714D01*
X1286429Y-2112286D02*
X1300714Y-2098000D01*
X1329286Y-2083714D01*
X1372143Y-2083714D01*
X1400714Y-2098000D01*
X1415000Y-2126571D01*
X1415000Y-2283714D01*
X1415000Y-2126571D02*
X1429286Y-2098000D01*
X1457857Y-2083714D01*
X1500714Y-2083714D01*
X1529286Y-2098000D01*
X1543571Y-2126571D01*
X1543571Y-2283714D01*
X1686428Y-2283714D02*
X1686428Y-2083714D01*
X1686428Y-2112286D02*
X1700714Y-2098000D01*
X1729286Y-2083714D01*
X1772143Y-2083714D01*
X1800714Y-2098000D01*
X1815000Y-2126571D01*
X1815000Y-2283714D01*
X1815000Y-2126571D02*
X1829286Y-2098000D01*
X1857857Y-2083714D01*
X1900714Y-2083714D01*
X1929286Y-2098000D01*
X1943571Y-2126571D01*
X1943571Y-2283714D01*
X2529286Y-1969428D02*
X2272143Y-2355143D01*
X2915000Y-1983714D02*
X2943571Y-1983714D01*
X2972143Y-1998000D01*
X2986428Y-2012286D01*
X3000714Y-2040857D01*
X3015000Y-2098000D01*
X3015000Y-2169429D01*
X3000714Y-2226571D01*
X2986428Y-2255143D01*
X2972143Y-2269429D01*
X2943571Y-2283714D01*
X2915000Y-2283714D01*
X2886428Y-2269429D01*
X2872143Y-2255143D01*
X2857857Y-2226571D01*
X2843571Y-2169429D01*
X2843571Y-2098000D01*
X2857857Y-2040857D01*
X2872143Y-2012286D01*
X2886428Y-1998000D01*
X2915000Y-1983714D01*
X3143571Y-2255143D02*
X3157857Y-2269429D01*
X3143571Y-2283714D01*
X3129286Y-2269429D01*
X3143571Y-2255143D01*
X3143571Y-2283714D01*
X3343571Y-1983714D02*
X3372143Y-1983714D01*
X3400714Y-1998000D01*
X3415000Y-2012286D01*
X3429286Y-2040857D01*
X3443571Y-2098000D01*
X3443571Y-2169429D01*
X3429286Y-2226571D01*
X3415000Y-2255143D01*
X3400714Y-2269429D01*
X3372143Y-2283714D01*
X3343571Y-2283714D01*
X3315000Y-2269429D01*
X3300714Y-2255143D01*
X3286428Y-2226571D01*
X3272143Y-2169429D01*
X3272143Y-2098000D01*
X3286428Y-2040857D01*
X3300714Y-2012286D01*
X3315000Y-1998000D01*
X3343571Y-1983714D01*
X3543571Y-1983714D02*
X3729286Y-1983714D01*
X3629286Y-2098000D01*
X3672143Y-2098000D01*
X3700714Y-2112286D01*
X3715000Y-2126571D01*
X3729286Y-2155143D01*
X3729286Y-2226571D01*
X3715000Y-2255143D01*
X3700714Y-2269429D01*
X3672143Y-2283714D01*
X3586428Y-2283714D01*
X3557857Y-2269429D01*
X3543571Y-2255143D01*
X3872143Y-2283714D02*
X3929286Y-2283714D01*
X3957857Y-2269429D01*
X3972143Y-2255143D01*
X4000714Y-2212286D01*
X4015000Y-2155143D01*
X4015000Y-2040857D01*
X4000714Y-2012286D01*
X3986428Y-1998000D01*
X3957857Y-1983714D01*
X3900714Y-1983714D01*
X3872143Y-1998000D01*
X3857857Y-2012286D01*
X3843571Y-2040857D01*
X3843571Y-2112286D01*
X3857857Y-2140857D01*
X3872143Y-2155143D01*
X3900714Y-2169429D01*
X3957857Y-2169429D01*
X3986428Y-2155143D01*
X4000714Y-2140857D01*
X4015000Y-2112286D01*
X4129286Y-1983714D02*
X4129286Y-2040857D01*
X4243571Y-1983714D02*
X4243571Y-2040857D01*
X4686429Y-2398000D02*
X4672143Y-2383714D01*
X4643571Y-2340857D01*
X4629286Y-2312286D01*
X4615000Y-2269429D01*
X4600714Y-2198000D01*
X4600714Y-2140857D01*
X4615000Y-2069428D01*
X4629286Y-2026571D01*
X4643571Y-1998000D01*
X4672143Y-1955143D01*
X4686429Y-1940857D01*
X4786429Y-2012286D02*
X4800714Y-1998000D01*
X4829286Y-1983714D01*
X4900714Y-1983714D01*
X4929286Y-1998000D01*
X4943571Y-2012286D01*
X4957857Y-2040857D01*
X4957857Y-2069428D01*
X4943571Y-2112286D01*
X4772143Y-2283714D01*
X4957857Y-2283714D01*
X5143571Y-1983714D02*
X5172143Y-1983714D01*
X5200714Y-1998000D01*
X5215000Y-2012286D01*
X5229286Y-2040857D01*
X5243571Y-2098000D01*
X5243571Y-2169429D01*
X5229286Y-2226571D01*
X5215000Y-2255143D01*
X5200714Y-2269429D01*
X5172143Y-2283714D01*
X5143571Y-2283714D01*
X5115000Y-2269429D01*
X5100714Y-2255143D01*
X5086429Y-2226571D01*
X5072143Y-2169429D01*
X5072143Y-2098000D01*
X5086429Y-2040857D01*
X5100714Y-2012286D01*
X5115000Y-1998000D01*
X5143571Y-1983714D01*
X5600714Y-2283714D02*
X5600714Y-1983714D01*
X5729286Y-2283714D02*
X5729286Y-2126571D01*
X5715000Y-2098000D01*
X5686428Y-2083714D01*
X5643571Y-2083714D01*
X5615000Y-2098000D01*
X5600714Y-2112286D01*
X5915000Y-2283714D02*
X5886428Y-2269429D01*
X5872143Y-2255143D01*
X5857857Y-2226571D01*
X5857857Y-2140857D01*
X5872143Y-2112286D01*
X5886428Y-2098000D01*
X5915000Y-2083714D01*
X5957857Y-2083714D01*
X5986428Y-2098000D01*
X6000714Y-2112286D01*
X6015000Y-2140857D01*
X6015000Y-2226571D01*
X6000714Y-2255143D01*
X5986428Y-2269429D01*
X5957857Y-2283714D01*
X5915000Y-2283714D01*
X6186428Y-2283714D02*
X6157857Y-2269429D01*
X6143571Y-2240857D01*
X6143571Y-1983714D01*
X6415000Y-2269429D02*
X6386428Y-2283714D01*
X6329286Y-2283714D01*
X6300714Y-2269429D01*
X6286428Y-2240857D01*
X6286428Y-2126571D01*
X6300714Y-2098000D01*
X6329286Y-2083714D01*
X6386428Y-2083714D01*
X6415000Y-2098000D01*
X6429286Y-2126571D01*
X6429286Y-2155143D01*
X6286428Y-2183714D01*
X6543571Y-2269429D02*
X6572143Y-2283714D01*
X6629286Y-2283714D01*
X6657857Y-2269429D01*
X6672143Y-2240857D01*
X6672143Y-2226571D01*
X6657857Y-2198000D01*
X6629286Y-2183714D01*
X6586428Y-2183714D01*
X6557857Y-2169429D01*
X6543571Y-2140857D01*
X6543571Y-2126571D01*
X6557857Y-2098000D01*
X6586428Y-2083714D01*
X6629286Y-2083714D01*
X6657857Y-2098000D01*
X6772143Y-2398000D02*
X6786428Y-2383714D01*
X6815000Y-2340857D01*
X6829286Y-2312286D01*
X6843571Y-2269429D01*
X6857857Y-2198000D01*
X6857857Y-2140857D01*
X6843571Y-2069428D01*
X6829286Y-2026571D01*
X6815000Y-1998000D01*
X6786428Y-1955143D01*
X6772143Y-1940857D01*
X-65000Y-2609000D02*
X0Y-2544000D01*
X-65000Y-2479000D01*
X-130000Y-2544000D01*
X-65000Y-2609000D01*
X443571Y-2679714D02*
X272143Y-2679714D01*
X357857Y-2679714D02*
X357857Y-2379714D01*
X329286Y-2422571D01*
X300714Y-2451143D01*
X272143Y-2465429D01*
X572143Y-2651143D02*
X586429Y-2665429D01*
X572143Y-2679714D01*
X557857Y-2665429D01*
X572143Y-2651143D01*
X572143Y-2679714D01*
X686429Y-2379714D02*
X872143Y-2379714D01*
X772143Y-2494000D01*
X815000Y-2494000D01*
X843571Y-2508286D01*
X857857Y-2522571D01*
X872143Y-2551143D01*
X872143Y-2622571D01*
X857857Y-2651143D01*
X843571Y-2665429D01*
X815000Y-2679714D01*
X729286Y-2679714D01*
X700714Y-2665429D01*
X686429Y-2651143D01*
X1057857Y-2379714D02*
X1086429Y-2379714D01*
X1115000Y-2394000D01*
X1129286Y-2408286D01*
X1143571Y-2436857D01*
X1157857Y-2494000D01*
X1157857Y-2565429D01*
X1143571Y-2622571D01*
X1129286Y-2651143D01*
X1115000Y-2665429D01*
X1086429Y-2679714D01*
X1057857Y-2679714D01*
X1029286Y-2665429D01*
X1015000Y-2651143D01*
X1000714Y-2622571D01*
X986428Y-2565429D01*
X986428Y-2494000D01*
X1000714Y-2436857D01*
X1015000Y-2408286D01*
X1029286Y-2394000D01*
X1057857Y-2379714D01*
X1286429Y-2679714D02*
X1286429Y-2479714D01*
X1286429Y-2508286D02*
X1300714Y-2494000D01*
X1329286Y-2479714D01*
X1372143Y-2479714D01*
X1400714Y-2494000D01*
X1415000Y-2522571D01*
X1415000Y-2679714D01*
X1415000Y-2522571D02*
X1429286Y-2494000D01*
X1457857Y-2479714D01*
X1500714Y-2479714D01*
X1529286Y-2494000D01*
X1543571Y-2522571D01*
X1543571Y-2679714D01*
X1686428Y-2679714D02*
X1686428Y-2479714D01*
X1686428Y-2508286D02*
X1700714Y-2494000D01*
X1729286Y-2479714D01*
X1772143Y-2479714D01*
X1800714Y-2494000D01*
X1815000Y-2522571D01*
X1815000Y-2679714D01*
X1815000Y-2522571D02*
X1829286Y-2494000D01*
X1857857Y-2479714D01*
X1900714Y-2479714D01*
X1929286Y-2494000D01*
X1943571Y-2522571D01*
X1943571Y-2679714D01*
X2529286Y-2365429D02*
X2272143Y-2751143D01*
X2915000Y-2379714D02*
X2943571Y-2379714D01*
X2972143Y-2394000D01*
X2986428Y-2408286D01*
X3000714Y-2436857D01*
X3015000Y-2494000D01*
X3015000Y-2565429D01*
X3000714Y-2622571D01*
X2986428Y-2651143D01*
X2972143Y-2665429D01*
X2943571Y-2679714D01*
X2915000Y-2679714D01*
X2886428Y-2665429D01*
X2872143Y-2651143D01*
X2857857Y-2622571D01*
X2843571Y-2565429D01*
X2843571Y-2494000D01*
X2857857Y-2436857D01*
X2872143Y-2408286D01*
X2886428Y-2394000D01*
X2915000Y-2379714D01*
X3143571Y-2651143D02*
X3157857Y-2665429D01*
X3143571Y-2679714D01*
X3129286Y-2665429D01*
X3143571Y-2651143D01*
X3143571Y-2679714D01*
X3343571Y-2379714D02*
X3372143Y-2379714D01*
X3400714Y-2394000D01*
X3415000Y-2408286D01*
X3429286Y-2436857D01*
X3443571Y-2494000D01*
X3443571Y-2565429D01*
X3429286Y-2622571D01*
X3415000Y-2651143D01*
X3400714Y-2665429D01*
X3372143Y-2679714D01*
X3343571Y-2679714D01*
X3315000Y-2665429D01*
X3300714Y-2651143D01*
X3286428Y-2622571D01*
X3272143Y-2565429D01*
X3272143Y-2494000D01*
X3286428Y-2436857D01*
X3300714Y-2408286D01*
X3315000Y-2394000D01*
X3343571Y-2379714D01*
X3715000Y-2379714D02*
X3572143Y-2379714D01*
X3557857Y-2522571D01*
X3572143Y-2508286D01*
X3600714Y-2494000D01*
X3672143Y-2494000D01*
X3700714Y-2508286D01*
X3715000Y-2522571D01*
X3729286Y-2551143D01*
X3729286Y-2622571D01*
X3715000Y-2651143D01*
X3700714Y-2665429D01*
X3672143Y-2679714D01*
X3600714Y-2679714D01*
X3572143Y-2665429D01*
X3557857Y-2651143D01*
X4015000Y-2679714D02*
X3843571Y-2679714D01*
X3929286Y-2679714D02*
X3929286Y-2379714D01*
X3900714Y-2422571D01*
X3872143Y-2451143D01*
X3843571Y-2465429D01*
X4129286Y-2379714D02*
X4129286Y-2436857D01*
X4243571Y-2379714D02*
X4243571Y-2436857D01*
X4686429Y-2794000D02*
X4672143Y-2779714D01*
X4643571Y-2736857D01*
X4629286Y-2708286D01*
X4615000Y-2665429D01*
X4600714Y-2594000D01*
X4600714Y-2536857D01*
X4615000Y-2465429D01*
X4629286Y-2422571D01*
X4643571Y-2394000D01*
X4672143Y-2351143D01*
X4686429Y-2336857D01*
X4957857Y-2679714D02*
X4786429Y-2679714D01*
X4872143Y-2679714D02*
X4872143Y-2379714D01*
X4843571Y-2422571D01*
X4815000Y-2451143D01*
X4786429Y-2465429D01*
X5072143Y-2408286D02*
X5086429Y-2394000D01*
X5115000Y-2379714D01*
X5186429Y-2379714D01*
X5215000Y-2394000D01*
X5229286Y-2408286D01*
X5243571Y-2436857D01*
X5243571Y-2465429D01*
X5229286Y-2508286D01*
X5057857Y-2679714D01*
X5243571Y-2679714D01*
X5600714Y-2679714D02*
X5600714Y-2379714D01*
X5729286Y-2679714D02*
X5729286Y-2522571D01*
X5715000Y-2494000D01*
X5686428Y-2479714D01*
X5643571Y-2479714D01*
X5615000Y-2494000D01*
X5600714Y-2508286D01*
X5915000Y-2679714D02*
X5886428Y-2665429D01*
X5872143Y-2651143D01*
X5857857Y-2622571D01*
X5857857Y-2536857D01*
X5872143Y-2508286D01*
X5886428Y-2494000D01*
X5915000Y-2479714D01*
X5957857Y-2479714D01*
X5986428Y-2494000D01*
X6000714Y-2508286D01*
X6015000Y-2536857D01*
X6015000Y-2622571D01*
X6000714Y-2651143D01*
X5986428Y-2665429D01*
X5957857Y-2679714D01*
X5915000Y-2679714D01*
X6186428Y-2679714D02*
X6157857Y-2665429D01*
X6143571Y-2636857D01*
X6143571Y-2379714D01*
X6415000Y-2665429D02*
X6386428Y-2679714D01*
X6329286Y-2679714D01*
X6300714Y-2665429D01*
X6286428Y-2636857D01*
X6286428Y-2522571D01*
X6300714Y-2494000D01*
X6329286Y-2479714D01*
X6386428Y-2479714D01*
X6415000Y-2494000D01*
X6429286Y-2522571D01*
X6429286Y-2551143D01*
X6286428Y-2579714D01*
X6543571Y-2665429D02*
X6572143Y-2679714D01*
X6629286Y-2679714D01*
X6657857Y-2665429D01*
X6672143Y-2636857D01*
X6672143Y-2622571D01*
X6657857Y-2594000D01*
X6629286Y-2579714D01*
X6586428Y-2579714D01*
X6557857Y-2565429D01*
X6543571Y-2536857D01*
X6543571Y-2522571D01*
X6557857Y-2494000D01*
X6586428Y-2479714D01*
X6629286Y-2479714D01*
X6657857Y-2494000D01*
X6772143Y-2794000D02*
X6786428Y-2779714D01*
X6815000Y-2736857D01*
X6829286Y-2708286D01*
X6843571Y-2665429D01*
X6857857Y-2594000D01*
X6857857Y-2536857D01*
X6843571Y-2465429D01*
X6829286Y-2422571D01*
X6815000Y-2394000D01*
X6786428Y-2351143D01*
X6772143Y-2336857D01*
X-140000Y-2870000D02*
X0Y-3010000D01*
X0Y-2870000D02*
X-140000Y-3010000D01*
X0Y-2940000D02*
G75*
G03*
X0Y-2940000I-70000J0D01*
G01*
X443571Y-3075714D02*
X272143Y-3075714D01*
X357857Y-3075714D02*
X357857Y-2775714D01*
X329286Y-2818571D01*
X300714Y-2847143D01*
X272143Y-2861428D01*
X572143Y-3047143D02*
X586429Y-3061428D01*
X572143Y-3075714D01*
X557857Y-3061428D01*
X572143Y-3047143D01*
X572143Y-3075714D01*
X843571Y-2875714D02*
X843571Y-3075714D01*
X772143Y-2761429D02*
X700714Y-2975714D01*
X886428Y-2975714D01*
X1057857Y-2775714D02*
X1086429Y-2775714D01*
X1115000Y-2790000D01*
X1129286Y-2804286D01*
X1143571Y-2832857D01*
X1157857Y-2890000D01*
X1157857Y-2961428D01*
X1143571Y-3018571D01*
X1129286Y-3047143D01*
X1115000Y-3061428D01*
X1086429Y-3075714D01*
X1057857Y-3075714D01*
X1029286Y-3061428D01*
X1015000Y-3047143D01*
X1000714Y-3018571D01*
X986428Y-2961428D01*
X986428Y-2890000D01*
X1000714Y-2832857D01*
X1015000Y-2804286D01*
X1029286Y-2790000D01*
X1057857Y-2775714D01*
X1286429Y-3075714D02*
X1286429Y-2875714D01*
X1286429Y-2904286D02*
X1300714Y-2890000D01*
X1329286Y-2875714D01*
X1372143Y-2875714D01*
X1400714Y-2890000D01*
X1415000Y-2918571D01*
X1415000Y-3075714D01*
X1415000Y-2918571D02*
X1429286Y-2890000D01*
X1457857Y-2875714D01*
X1500714Y-2875714D01*
X1529286Y-2890000D01*
X1543571Y-2918571D01*
X1543571Y-3075714D01*
X1686428Y-3075714D02*
X1686428Y-2875714D01*
X1686428Y-2904286D02*
X1700714Y-2890000D01*
X1729286Y-2875714D01*
X1772143Y-2875714D01*
X1800714Y-2890000D01*
X1815000Y-2918571D01*
X1815000Y-3075714D01*
X1815000Y-2918571D02*
X1829286Y-2890000D01*
X1857857Y-2875714D01*
X1900714Y-2875714D01*
X1929286Y-2890000D01*
X1943571Y-2918571D01*
X1943571Y-3075714D01*
X2529286Y-2761429D02*
X2272143Y-3147143D01*
X2915000Y-2775714D02*
X2943571Y-2775714D01*
X2972143Y-2790000D01*
X2986428Y-2804286D01*
X3000714Y-2832857D01*
X3015000Y-2890000D01*
X3015000Y-2961428D01*
X3000714Y-3018571D01*
X2986428Y-3047143D01*
X2972143Y-3061428D01*
X2943571Y-3075714D01*
X2915000Y-3075714D01*
X2886428Y-3061428D01*
X2872143Y-3047143D01*
X2857857Y-3018571D01*
X2843571Y-2961428D01*
X2843571Y-2890000D01*
X2857857Y-2832857D01*
X2872143Y-2804286D01*
X2886428Y-2790000D01*
X2915000Y-2775714D01*
X3143571Y-3047143D02*
X3157857Y-3061428D01*
X3143571Y-3075714D01*
X3129286Y-3061428D01*
X3143571Y-3047143D01*
X3143571Y-3075714D01*
X3343571Y-2775714D02*
X3372143Y-2775714D01*
X3400714Y-2790000D01*
X3415000Y-2804286D01*
X3429286Y-2832857D01*
X3443571Y-2890000D01*
X3443571Y-2961428D01*
X3429286Y-3018571D01*
X3415000Y-3047143D01*
X3400714Y-3061428D01*
X3372143Y-3075714D01*
X3343571Y-3075714D01*
X3315000Y-3061428D01*
X3300714Y-3047143D01*
X3286428Y-3018571D01*
X3272143Y-2961428D01*
X3272143Y-2890000D01*
X3286428Y-2832857D01*
X3300714Y-2804286D01*
X3315000Y-2790000D01*
X3343571Y-2775714D01*
X3715000Y-2775714D02*
X3572143Y-2775714D01*
X3557857Y-2918571D01*
X3572143Y-2904286D01*
X3600714Y-2890000D01*
X3672143Y-2890000D01*
X3700714Y-2904286D01*
X3715000Y-2918571D01*
X3729286Y-2947143D01*
X3729286Y-3018571D01*
X3715000Y-3047143D01*
X3700714Y-3061428D01*
X3672143Y-3075714D01*
X3600714Y-3075714D01*
X3572143Y-3061428D01*
X3557857Y-3047143D01*
X4000714Y-2775714D02*
X3857857Y-2775714D01*
X3843571Y-2918571D01*
X3857857Y-2904286D01*
X3886428Y-2890000D01*
X3957857Y-2890000D01*
X3986428Y-2904286D01*
X4000714Y-2918571D01*
X4015000Y-2947143D01*
X4015000Y-3018571D01*
X4000714Y-3047143D01*
X3986428Y-3061428D01*
X3957857Y-3075714D01*
X3886428Y-3075714D01*
X3857857Y-3061428D01*
X3843571Y-3047143D01*
X4129286Y-2775714D02*
X4129286Y-2832857D01*
X4243571Y-2775714D02*
X4243571Y-2832857D01*
X4686429Y-3190000D02*
X4672143Y-3175714D01*
X4643571Y-3132857D01*
X4629286Y-3104286D01*
X4615000Y-3061428D01*
X4600714Y-2990000D01*
X4600714Y-2932857D01*
X4615000Y-2861428D01*
X4629286Y-2818571D01*
X4643571Y-2790000D01*
X4672143Y-2747143D01*
X4686429Y-2732857D01*
X4772143Y-2775714D02*
X4972143Y-2775714D01*
X4843571Y-3075714D01*
X5315000Y-3075714D02*
X5315000Y-2775714D01*
X5443571Y-3075714D02*
X5443571Y-2918571D01*
X5429286Y-2890000D01*
X5400714Y-2875714D01*
X5357857Y-2875714D01*
X5329286Y-2890000D01*
X5315000Y-2904286D01*
X5629286Y-3075714D02*
X5600714Y-3061428D01*
X5586429Y-3047143D01*
X5572143Y-3018571D01*
X5572143Y-2932857D01*
X5586429Y-2904286D01*
X5600714Y-2890000D01*
X5629286Y-2875714D01*
X5672143Y-2875714D01*
X5700714Y-2890000D01*
X5715000Y-2904286D01*
X5729286Y-2932857D01*
X5729286Y-3018571D01*
X5715000Y-3047143D01*
X5700714Y-3061428D01*
X5672143Y-3075714D01*
X5629286Y-3075714D01*
X5900714Y-3075714D02*
X5872143Y-3061428D01*
X5857857Y-3032857D01*
X5857857Y-2775714D01*
X6129286Y-3061428D02*
X6100714Y-3075714D01*
X6043571Y-3075714D01*
X6015000Y-3061428D01*
X6000714Y-3032857D01*
X6000714Y-2918571D01*
X6015000Y-2890000D01*
X6043571Y-2875714D01*
X6100714Y-2875714D01*
X6129286Y-2890000D01*
X6143571Y-2918571D01*
X6143571Y-2947143D01*
X6000714Y-2975714D01*
X6257857Y-3061428D02*
X6286428Y-3075714D01*
X6343571Y-3075714D01*
X6372143Y-3061428D01*
X6386428Y-3032857D01*
X6386428Y-3018571D01*
X6372143Y-2990000D01*
X6343571Y-2975714D01*
X6300714Y-2975714D01*
X6272143Y-2961428D01*
X6257857Y-2932857D01*
X6257857Y-2918571D01*
X6272143Y-2890000D01*
X6300714Y-2875714D01*
X6343571Y-2875714D01*
X6372143Y-2890000D01*
X6486428Y-3190000D02*
X6500714Y-3175714D01*
X6529286Y-3132857D01*
X6543571Y-3104286D01*
X6557857Y-3061428D01*
X6572143Y-2990000D01*
X6572143Y-2932857D01*
X6557857Y-2861428D01*
X6543571Y-2818571D01*
X6529286Y-2790000D01*
X6500714Y-2747143D01*
X6486428Y-2732857D01*
X-150000Y-3261000D02*
X0Y-3411000D01*
X0Y-3261000D02*
X-150000Y-3411000D01*
X-75000Y-3261000D02*
X-75000Y-3411000D01*
X-150000Y-3336000D02*
X0Y-3336000D01*
X443571Y-3471714D02*
X272143Y-3471714D01*
X357857Y-3471714D02*
X357857Y-3171714D01*
X329286Y-3214571D01*
X300714Y-3243143D01*
X272143Y-3257428D01*
X572143Y-3443143D02*
X586429Y-3457428D01*
X572143Y-3471714D01*
X557857Y-3457428D01*
X572143Y-3443143D01*
X572143Y-3471714D01*
X857857Y-3171714D02*
X715000Y-3171714D01*
X700714Y-3314571D01*
X715000Y-3300286D01*
X743571Y-3286000D01*
X815000Y-3286000D01*
X843571Y-3300286D01*
X857857Y-3314571D01*
X872143Y-3343143D01*
X872143Y-3414571D01*
X857857Y-3443143D01*
X843571Y-3457428D01*
X815000Y-3471714D01*
X743571Y-3471714D01*
X715000Y-3457428D01*
X700714Y-3443143D01*
X1057857Y-3171714D02*
X1086429Y-3171714D01*
X1115000Y-3186000D01*
X1129286Y-3200286D01*
X1143571Y-3228857D01*
X1157857Y-3286000D01*
X1157857Y-3357428D01*
X1143571Y-3414571D01*
X1129286Y-3443143D01*
X1115000Y-3457428D01*
X1086429Y-3471714D01*
X1057857Y-3471714D01*
X1029286Y-3457428D01*
X1015000Y-3443143D01*
X1000714Y-3414571D01*
X986428Y-3357428D01*
X986428Y-3286000D01*
X1000714Y-3228857D01*
X1015000Y-3200286D01*
X1029286Y-3186000D01*
X1057857Y-3171714D01*
X1286429Y-3471714D02*
X1286429Y-3271714D01*
X1286429Y-3300286D02*
X1300714Y-3286000D01*
X1329286Y-3271714D01*
X1372143Y-3271714D01*
X1400714Y-3286000D01*
X1415000Y-3314571D01*
X1415000Y-3471714D01*
X1415000Y-3314571D02*
X1429286Y-3286000D01*
X1457857Y-3271714D01*
X1500714Y-3271714D01*
X1529286Y-3286000D01*
X1543571Y-3314571D01*
X1543571Y-3471714D01*
X1686428Y-3471714D02*
X1686428Y-3271714D01*
X1686428Y-3300286D02*
X1700714Y-3286000D01*
X1729286Y-3271714D01*
X1772143Y-3271714D01*
X1800714Y-3286000D01*
X1815000Y-3314571D01*
X1815000Y-3471714D01*
X1815000Y-3314571D02*
X1829286Y-3286000D01*
X1857857Y-3271714D01*
X1900714Y-3271714D01*
X1929286Y-3286000D01*
X1943571Y-3314571D01*
X1943571Y-3471714D01*
X2529286Y-3157428D02*
X2272143Y-3543143D01*
X2915000Y-3171714D02*
X2943571Y-3171714D01*
X2972143Y-3186000D01*
X2986428Y-3200286D01*
X3000714Y-3228857D01*
X3015000Y-3286000D01*
X3015000Y-3357428D01*
X3000714Y-3414571D01*
X2986428Y-3443143D01*
X2972143Y-3457428D01*
X2943571Y-3471714D01*
X2915000Y-3471714D01*
X2886428Y-3457428D01*
X2872143Y-3443143D01*
X2857857Y-3414571D01*
X2843571Y-3357428D01*
X2843571Y-3286000D01*
X2857857Y-3228857D01*
X2872143Y-3200286D01*
X2886428Y-3186000D01*
X2915000Y-3171714D01*
X3143571Y-3443143D02*
X3157857Y-3457428D01*
X3143571Y-3471714D01*
X3129286Y-3457428D01*
X3143571Y-3443143D01*
X3143571Y-3471714D01*
X3343571Y-3171714D02*
X3372143Y-3171714D01*
X3400714Y-3186000D01*
X3415000Y-3200286D01*
X3429286Y-3228857D01*
X3443571Y-3286000D01*
X3443571Y-3357428D01*
X3429286Y-3414571D01*
X3415000Y-3443143D01*
X3400714Y-3457428D01*
X3372143Y-3471714D01*
X3343571Y-3471714D01*
X3315000Y-3457428D01*
X3300714Y-3443143D01*
X3286428Y-3414571D01*
X3272143Y-3357428D01*
X3272143Y-3286000D01*
X3286428Y-3228857D01*
X3300714Y-3200286D01*
X3315000Y-3186000D01*
X3343571Y-3171714D01*
X3715000Y-3171714D02*
X3572143Y-3171714D01*
X3557857Y-3314571D01*
X3572143Y-3300286D01*
X3600714Y-3286000D01*
X3672143Y-3286000D01*
X3700714Y-3300286D01*
X3715000Y-3314571D01*
X3729286Y-3343143D01*
X3729286Y-3414571D01*
X3715000Y-3443143D01*
X3700714Y-3457428D01*
X3672143Y-3471714D01*
X3600714Y-3471714D01*
X3572143Y-3457428D01*
X3557857Y-3443143D01*
X3872143Y-3471714D02*
X3929286Y-3471714D01*
X3957857Y-3457428D01*
X3972143Y-3443143D01*
X4000714Y-3400286D01*
X4015000Y-3343143D01*
X4015000Y-3228857D01*
X4000714Y-3200286D01*
X3986428Y-3186000D01*
X3957857Y-3171714D01*
X3900714Y-3171714D01*
X3872143Y-3186000D01*
X3857857Y-3200286D01*
X3843571Y-3228857D01*
X3843571Y-3300286D01*
X3857857Y-3328857D01*
X3872143Y-3343143D01*
X3900714Y-3357428D01*
X3957857Y-3357428D01*
X3986428Y-3343143D01*
X4000714Y-3328857D01*
X4015000Y-3300286D01*
X4129286Y-3171714D02*
X4129286Y-3228857D01*
X4243571Y-3171714D02*
X4243571Y-3228857D01*
X4686429Y-3586000D02*
X4672143Y-3571714D01*
X4643571Y-3528857D01*
X4629286Y-3500286D01*
X4615000Y-3457428D01*
X4600714Y-3386000D01*
X4600714Y-3328857D01*
X4615000Y-3257428D01*
X4629286Y-3214571D01*
X4643571Y-3186000D01*
X4672143Y-3143143D01*
X4686429Y-3128857D01*
X4843571Y-3300286D02*
X4815000Y-3286000D01*
X4800714Y-3271714D01*
X4786429Y-3243143D01*
X4786429Y-3228857D01*
X4800714Y-3200286D01*
X4815000Y-3186000D01*
X4843571Y-3171714D01*
X4900714Y-3171714D01*
X4929286Y-3186000D01*
X4943571Y-3200286D01*
X4957857Y-3228857D01*
X4957857Y-3243143D01*
X4943571Y-3271714D01*
X4929286Y-3286000D01*
X4900714Y-3300286D01*
X4843571Y-3300286D01*
X4815000Y-3314571D01*
X4800714Y-3328857D01*
X4786429Y-3357428D01*
X4786429Y-3414571D01*
X4800714Y-3443143D01*
X4815000Y-3457428D01*
X4843571Y-3471714D01*
X4900714Y-3471714D01*
X4929286Y-3457428D01*
X4943571Y-3443143D01*
X4957857Y-3414571D01*
X4957857Y-3357428D01*
X4943571Y-3328857D01*
X4929286Y-3314571D01*
X4900714Y-3300286D01*
X5315000Y-3471714D02*
X5315000Y-3171714D01*
X5443571Y-3471714D02*
X5443571Y-3314571D01*
X5429286Y-3286000D01*
X5400714Y-3271714D01*
X5357857Y-3271714D01*
X5329286Y-3286000D01*
X5315000Y-3300286D01*
X5629286Y-3471714D02*
X5600714Y-3457428D01*
X5586429Y-3443143D01*
X5572143Y-3414571D01*
X5572143Y-3328857D01*
X5586429Y-3300286D01*
X5600714Y-3286000D01*
X5629286Y-3271714D01*
X5672143Y-3271714D01*
X5700714Y-3286000D01*
X5715000Y-3300286D01*
X5729286Y-3328857D01*
X5729286Y-3414571D01*
X5715000Y-3443143D01*
X5700714Y-3457428D01*
X5672143Y-3471714D01*
X5629286Y-3471714D01*
X5900714Y-3471714D02*
X5872143Y-3457428D01*
X5857857Y-3428857D01*
X5857857Y-3171714D01*
X6129286Y-3457428D02*
X6100714Y-3471714D01*
X6043571Y-3471714D01*
X6015000Y-3457428D01*
X6000714Y-3428857D01*
X6000714Y-3314571D01*
X6015000Y-3286000D01*
X6043571Y-3271714D01*
X6100714Y-3271714D01*
X6129286Y-3286000D01*
X6143571Y-3314571D01*
X6143571Y-3343143D01*
X6000714Y-3371714D01*
X6257857Y-3457428D02*
X6286428Y-3471714D01*
X6343571Y-3471714D01*
X6372143Y-3457428D01*
X6386428Y-3428857D01*
X6386428Y-3414571D01*
X6372143Y-3386000D01*
X6343571Y-3371714D01*
X6300714Y-3371714D01*
X6272143Y-3357428D01*
X6257857Y-3328857D01*
X6257857Y-3314571D01*
X6272143Y-3286000D01*
X6300714Y-3271714D01*
X6343571Y-3271714D01*
X6372143Y-3286000D01*
X6486428Y-3586000D02*
X6500714Y-3571714D01*
X6529286Y-3528857D01*
X6543571Y-3500286D01*
X6557857Y-3457428D01*
X6572143Y-3386000D01*
X6572143Y-3328857D01*
X6557857Y-3257428D01*
X6543571Y-3214571D01*
X6529286Y-3186000D01*
X6500714Y-3143143D01*
X6486428Y-3128857D01*
X-290000Y-3587000D02*
X0Y-3877000D01*
X0Y-3587000D02*
X-290000Y-3877000D01*
X-42469Y-3834531D02*
X-42469Y-3629468D01*
X-247531Y-3629468D01*
X-247531Y-3834531D01*
X-42469Y-3834531D01*
X272143Y-3596286D02*
X286429Y-3582000D01*
X315000Y-3567714D01*
X386428Y-3567714D01*
X415000Y-3582000D01*
X429286Y-3596286D01*
X443571Y-3624857D01*
X443571Y-3653428D01*
X429286Y-3696286D01*
X257857Y-3867714D01*
X443571Y-3867714D01*
X572143Y-3839143D02*
X586429Y-3853428D01*
X572143Y-3867714D01*
X557857Y-3853428D01*
X572143Y-3839143D01*
X572143Y-3867714D01*
X729286Y-3867714D02*
X786428Y-3867714D01*
X815000Y-3853428D01*
X829286Y-3839143D01*
X857857Y-3796286D01*
X872143Y-3739143D01*
X872143Y-3624857D01*
X857857Y-3596286D01*
X843571Y-3582000D01*
X815000Y-3567714D01*
X757857Y-3567714D01*
X729286Y-3582000D01*
X715000Y-3596286D01*
X700714Y-3624857D01*
X700714Y-3696286D01*
X715000Y-3724857D01*
X729286Y-3739143D01*
X757857Y-3753428D01*
X815000Y-3753428D01*
X843571Y-3739143D01*
X857857Y-3724857D01*
X872143Y-3696286D01*
X1057857Y-3567714D02*
X1086429Y-3567714D01*
X1115000Y-3582000D01*
X1129286Y-3596286D01*
X1143571Y-3624857D01*
X1157857Y-3682000D01*
X1157857Y-3753428D01*
X1143571Y-3810571D01*
X1129286Y-3839143D01*
X1115000Y-3853428D01*
X1086429Y-3867714D01*
X1057857Y-3867714D01*
X1029286Y-3853428D01*
X1015000Y-3839143D01*
X1000714Y-3810571D01*
X986428Y-3753428D01*
X986428Y-3682000D01*
X1000714Y-3624857D01*
X1015000Y-3596286D01*
X1029286Y-3582000D01*
X1057857Y-3567714D01*
X1286429Y-3867714D02*
X1286429Y-3667714D01*
X1286429Y-3696286D02*
X1300714Y-3682000D01*
X1329286Y-3667714D01*
X1372143Y-3667714D01*
X1400714Y-3682000D01*
X1415000Y-3710571D01*
X1415000Y-3867714D01*
X1415000Y-3710571D02*
X1429286Y-3682000D01*
X1457857Y-3667714D01*
X1500714Y-3667714D01*
X1529286Y-3682000D01*
X1543571Y-3710571D01*
X1543571Y-3867714D01*
X1686428Y-3867714D02*
X1686428Y-3667714D01*
X1686428Y-3696286D02*
X1700714Y-3682000D01*
X1729286Y-3667714D01*
X1772143Y-3667714D01*
X1800714Y-3682000D01*
X1815000Y-3710571D01*
X1815000Y-3867714D01*
X1815000Y-3710571D02*
X1829286Y-3682000D01*
X1857857Y-3667714D01*
X1900714Y-3667714D01*
X1929286Y-3682000D01*
X1943571Y-3710571D01*
X1943571Y-3867714D01*
X2529286Y-3553428D02*
X2272143Y-3939143D01*
X2915000Y-3567714D02*
X2943571Y-3567714D01*
X2972143Y-3582000D01*
X2986428Y-3596286D01*
X3000714Y-3624857D01*
X3015000Y-3682000D01*
X3015000Y-3753428D01*
X3000714Y-3810571D01*
X2986428Y-3839143D01*
X2972143Y-3853428D01*
X2943571Y-3867714D01*
X2915000Y-3867714D01*
X2886428Y-3853428D01*
X2872143Y-3839143D01*
X2857857Y-3810571D01*
X2843571Y-3753428D01*
X2843571Y-3682000D01*
X2857857Y-3624857D01*
X2872143Y-3596286D01*
X2886428Y-3582000D01*
X2915000Y-3567714D01*
X3143571Y-3839143D02*
X3157857Y-3853428D01*
X3143571Y-3867714D01*
X3129286Y-3853428D01*
X3143571Y-3839143D01*
X3143571Y-3867714D01*
X3443571Y-3867714D02*
X3272143Y-3867714D01*
X3357857Y-3867714D02*
X3357857Y-3567714D01*
X3329286Y-3610571D01*
X3300714Y-3639143D01*
X3272143Y-3653428D01*
X3729286Y-3867714D02*
X3557857Y-3867714D01*
X3643571Y-3867714D02*
X3643571Y-3567714D01*
X3615000Y-3610571D01*
X3586428Y-3639143D01*
X3557857Y-3653428D01*
X3986428Y-3667714D02*
X3986428Y-3867714D01*
X3915000Y-3553428D02*
X3843571Y-3767714D01*
X4029286Y-3767714D01*
X4129286Y-3567714D02*
X4129286Y-3624857D01*
X4243571Y-3567714D02*
X4243571Y-3624857D01*
X4686429Y-3982000D02*
X4672143Y-3967714D01*
X4643571Y-3924857D01*
X4629286Y-3896286D01*
X4615000Y-3853428D01*
X4600714Y-3782000D01*
X4600714Y-3724857D01*
X4615000Y-3653428D01*
X4629286Y-3610571D01*
X4643571Y-3582000D01*
X4672143Y-3539143D01*
X4686429Y-3524857D01*
X4929286Y-3667714D02*
X4929286Y-3867714D01*
X4857857Y-3553428D02*
X4786429Y-3767714D01*
X4972143Y-3767714D01*
X5315000Y-3867714D02*
X5315000Y-3567714D01*
X5443571Y-3867714D02*
X5443571Y-3710571D01*
X5429286Y-3682000D01*
X5400714Y-3667714D01*
X5357857Y-3667714D01*
X5329286Y-3682000D01*
X5315000Y-3696286D01*
X5629286Y-3867714D02*
X5600714Y-3853428D01*
X5586429Y-3839143D01*
X5572143Y-3810571D01*
X5572143Y-3724857D01*
X5586429Y-3696286D01*
X5600714Y-3682000D01*
X5629286Y-3667714D01*
X5672143Y-3667714D01*
X5700714Y-3682000D01*
X5715000Y-3696286D01*
X5729286Y-3724857D01*
X5729286Y-3810571D01*
X5715000Y-3839143D01*
X5700714Y-3853428D01*
X5672143Y-3867714D01*
X5629286Y-3867714D01*
X5900714Y-3867714D02*
X5872143Y-3853428D01*
X5857857Y-3824857D01*
X5857857Y-3567714D01*
X6129286Y-3853428D02*
X6100714Y-3867714D01*
X6043571Y-3867714D01*
X6015000Y-3853428D01*
X6000714Y-3824857D01*
X6000714Y-3710571D01*
X6015000Y-3682000D01*
X6043571Y-3667714D01*
X6100714Y-3667714D01*
X6129286Y-3682000D01*
X6143571Y-3710571D01*
X6143571Y-3739143D01*
X6000714Y-3767714D01*
X6257857Y-3853428D02*
X6286428Y-3867714D01*
X6343571Y-3867714D01*
X6372143Y-3853428D01*
X6386428Y-3824857D01*
X6386428Y-3810571D01*
X6372143Y-3782000D01*
X6343571Y-3767714D01*
X6300714Y-3767714D01*
X6272143Y-3753428D01*
X6257857Y-3724857D01*
X6257857Y-3710571D01*
X6272143Y-3682000D01*
X6300714Y-3667714D01*
X6343571Y-3667714D01*
X6372143Y-3682000D01*
X6486428Y-3982000D02*
X6500714Y-3967714D01*
X6529286Y-3924857D01*
X6543571Y-3896286D01*
X6557857Y-3853428D01*
X6572143Y-3782000D01*
X6572143Y-3724857D01*
X6557857Y-3653428D01*
X6543571Y-3610571D01*
X6529286Y-3582000D01*
X6500714Y-3539143D01*
X6486428Y-3524857D01*
M02*
