%TF.GenerationSoftware,KiCad,Pcbnew,(5.1.6)-1*%
%TF.CreationDate,2021-11-10T15:24:26+01:00*%
%TF.ProjectId,FoxRobot,466f7852-6f62-46f7-942e-6b696361645f,V01*%
%TF.SameCoordinates,Original*%
%TF.FileFunction,Legend,Top*%
%TF.FilePolarity,Positive*%
%FSLAX46Y46*%
G04 Gerber Fmt 4.6, Leading zero omitted, Abs format (unit mm)*
G04 Created by KiCad (PCBNEW (5.1.6)-1) date 2021-11-10 15:24:26*
%MOMM*%
%LPD*%
G01*
G04 APERTURE LIST*
%ADD10C,0.120000*%
%ADD11C,0.100000*%
%ADD12C,0.200000*%
%ADD13C,0.150000*%
%ADD14C,0.254000*%
G04 APERTURE END LIST*
D10*
%TO.C,U1*%
X17145000Y-71628000D02*
X17145000Y-30988000D01*
X67945000Y-71628000D02*
X67945000Y-30988000D01*
%TO.C,R13*%
X90900000Y-65886000D02*
X90900000Y-63146000D01*
X90900000Y-63146000D02*
X84360000Y-63146000D01*
X84360000Y-63146000D02*
X84360000Y-65886000D01*
X84360000Y-65886000D02*
X90900000Y-65886000D01*
X91670000Y-64516000D02*
X90900000Y-64516000D01*
X83590000Y-64516000D02*
X84360000Y-64516000D01*
%TO.C,R12*%
X90900000Y-60298000D02*
X90900000Y-57558000D01*
X90900000Y-57558000D02*
X84360000Y-57558000D01*
X84360000Y-57558000D02*
X84360000Y-60298000D01*
X84360000Y-60298000D02*
X90900000Y-60298000D01*
X91670000Y-58928000D02*
X90900000Y-58928000D01*
X83590000Y-58928000D02*
X84360000Y-58928000D01*
%TO.C,R11*%
X90900000Y-54202000D02*
X90900000Y-51462000D01*
X90900000Y-51462000D02*
X84360000Y-51462000D01*
X84360000Y-51462000D02*
X84360000Y-54202000D01*
X84360000Y-54202000D02*
X90900000Y-54202000D01*
X91670000Y-52832000D02*
X90900000Y-52832000D01*
X83590000Y-52832000D02*
X84360000Y-52832000D01*
%TO.C,R10*%
X98330000Y-34190000D02*
X98330000Y-36930000D01*
X98330000Y-36930000D02*
X104870000Y-36930000D01*
X104870000Y-36930000D02*
X104870000Y-34190000D01*
X104870000Y-34190000D02*
X98330000Y-34190000D01*
X97560000Y-35560000D02*
X98330000Y-35560000D01*
X105640000Y-35560000D02*
X104870000Y-35560000D01*
%TO.C,R9*%
X98328000Y-54732000D02*
X98328000Y-57472000D01*
X98328000Y-57472000D02*
X104868000Y-57472000D01*
X104868000Y-57472000D02*
X104868000Y-54732000D01*
X104868000Y-54732000D02*
X98328000Y-54732000D01*
X97558000Y-56102000D02*
X98328000Y-56102000D01*
X105638000Y-56102000D02*
X104868000Y-56102000D01*
%TO.C,R8*%
X98328000Y-50682000D02*
X98328000Y-53422000D01*
X98328000Y-53422000D02*
X104868000Y-53422000D01*
X104868000Y-53422000D02*
X104868000Y-50682000D01*
X104868000Y-50682000D02*
X98328000Y-50682000D01*
X97558000Y-52052000D02*
X98328000Y-52052000D01*
X105638000Y-52052000D02*
X104868000Y-52052000D01*
%TO.C,R7*%
X98330000Y-46890000D02*
X98330000Y-49630000D01*
X98330000Y-49630000D02*
X104870000Y-49630000D01*
X104870000Y-49630000D02*
X104870000Y-46890000D01*
X104870000Y-46890000D02*
X98330000Y-46890000D01*
X97560000Y-48260000D02*
X98330000Y-48260000D01*
X105640000Y-48260000D02*
X104870000Y-48260000D01*
%TO.C,R6*%
X98036000Y-42076000D02*
X98036000Y-44816000D01*
X98036000Y-44816000D02*
X104576000Y-44816000D01*
X104576000Y-44816000D02*
X104576000Y-42076000D01*
X104576000Y-42076000D02*
X98036000Y-42076000D01*
X97266000Y-43446000D02*
X98036000Y-43446000D01*
X105346000Y-43446000D02*
X104576000Y-43446000D01*
%TO.C,R5*%
X98036000Y-38026000D02*
X98036000Y-40766000D01*
X98036000Y-40766000D02*
X104576000Y-40766000D01*
X104576000Y-40766000D02*
X104576000Y-38026000D01*
X104576000Y-38026000D02*
X98036000Y-38026000D01*
X97266000Y-39396000D02*
X98036000Y-39396000D01*
X105346000Y-39396000D02*
X104576000Y-39396000D01*
%TO.C,R4*%
X84106000Y-38254000D02*
X84106000Y-40994000D01*
X84106000Y-40994000D02*
X90646000Y-40994000D01*
X90646000Y-40994000D02*
X90646000Y-38254000D01*
X90646000Y-38254000D02*
X84106000Y-38254000D01*
X83336000Y-39624000D02*
X84106000Y-39624000D01*
X91416000Y-39624000D02*
X90646000Y-39624000D01*
%TO.C,R3*%
X90646000Y-49630000D02*
X90646000Y-46890000D01*
X90646000Y-46890000D02*
X84106000Y-46890000D01*
X84106000Y-46890000D02*
X84106000Y-49630000D01*
X84106000Y-49630000D02*
X90646000Y-49630000D01*
X91416000Y-48260000D02*
X90646000Y-48260000D01*
X83336000Y-48260000D02*
X84106000Y-48260000D01*
%TO.C,R2*%
X90646000Y-36422000D02*
X90646000Y-33682000D01*
X90646000Y-33682000D02*
X84106000Y-33682000D01*
X84106000Y-33682000D02*
X84106000Y-36422000D01*
X84106000Y-36422000D02*
X90646000Y-36422000D01*
X91416000Y-35052000D02*
X90646000Y-35052000D01*
X83336000Y-35052000D02*
X84106000Y-35052000D01*
%TO.C,R1*%
X84106000Y-42826000D02*
X84106000Y-45566000D01*
X84106000Y-45566000D02*
X90646000Y-45566000D01*
X90646000Y-45566000D02*
X90646000Y-42826000D01*
X90646000Y-42826000D02*
X84106000Y-42826000D01*
X83336000Y-44196000D02*
X84106000Y-44196000D01*
X91416000Y-44196000D02*
X90646000Y-44196000D01*
%TO.C,Q9*%
X72826000Y-43158000D02*
X72826000Y-46758000D01*
X72837522Y-46796478D02*
G75*
G03*
X77276000Y-44958000I1838478J1838478D01*
G01*
X72837522Y-43119522D02*
G75*
G02*
X77276000Y-44958000I1838478J-1838478D01*
G01*
%TO.C,Q8*%
X72826000Y-37062000D02*
X72826000Y-40662000D01*
X72837522Y-40700478D02*
G75*
G03*
X77276000Y-38862000I1838478J1838478D01*
G01*
X72837522Y-37023522D02*
G75*
G02*
X77276000Y-38862000I1838478J-1838478D01*
G01*
%TO.C,Q7*%
X72699000Y-31220000D02*
X72699000Y-34820000D01*
X72710522Y-34858478D02*
G75*
G03*
X77149000Y-33020000I1838478J1838478D01*
G01*
X72710522Y-31181522D02*
G75*
G02*
X77149000Y-33020000I1838478J-1838478D01*
G01*
%TO.C,Q6*%
X72826000Y-52810000D02*
X72826000Y-56410000D01*
X72837522Y-56448478D02*
G75*
G03*
X77276000Y-54610000I1838478J1838478D01*
G01*
X72837522Y-52771522D02*
G75*
G02*
X77276000Y-54610000I1838478J-1838478D01*
G01*
%TO.C,Q5*%
X72826000Y-58906000D02*
X72826000Y-62506000D01*
X72837522Y-62544478D02*
G75*
G03*
X77276000Y-60706000I1838478J1838478D01*
G01*
X72837522Y-58867522D02*
G75*
G02*
X77276000Y-60706000I1838478J-1838478D01*
G01*
%TO.C,Q4*%
X72826000Y-65002000D02*
X72826000Y-68602000D01*
X72837522Y-68640478D02*
G75*
G03*
X77276000Y-66802000I1838478J1838478D01*
G01*
X72837522Y-64963522D02*
G75*
G02*
X77276000Y-66802000I1838478J-1838478D01*
G01*
%TO.C,Q3*%
X102340000Y-77796000D02*
X105940000Y-77796000D01*
X105978478Y-77784478D02*
G75*
G03*
X104140000Y-73346000I-1838478J1838478D01*
G01*
X102301522Y-77784478D02*
G75*
G02*
X104140000Y-73346000I1838478J1838478D01*
G01*
%TO.C,Q2*%
X102340000Y-71192000D02*
X105940000Y-71192000D01*
X105978478Y-71180478D02*
G75*
G03*
X104140000Y-66742000I-1838478J1838478D01*
G01*
X102301522Y-71180478D02*
G75*
G02*
X104140000Y-66742000I1838478J1838478D01*
G01*
%TO.C,Q1*%
X102340000Y-64080000D02*
X105940000Y-64080000D01*
X105978478Y-64068478D02*
G75*
G03*
X104140000Y-59630000I-1838478J1838478D01*
G01*
X102301522Y-64068478D02*
G75*
G02*
X104140000Y-59630000I1838478J1838478D01*
G01*
D11*
%TO.C,K4*%
X60363000Y-90384000D02*
X99363000Y-90384000D01*
X99363000Y-90384000D02*
X99363000Y-75384000D01*
X99363000Y-75384000D02*
X60363000Y-75384000D01*
X60363000Y-75384000D02*
X60363000Y-90384000D01*
X59938000Y-87884000D02*
X59938000Y-87884000D01*
X59838000Y-87884000D02*
X59838000Y-87884000D01*
X59938000Y-87884000D02*
G75*
G03*
X59838000Y-87884000I-50000J0D01*
G01*
X59838000Y-87884000D02*
G75*
G03*
X59938000Y-87884000I50000J0D01*
G01*
%TO.C,K3*%
X18453000Y-90384000D02*
X57453000Y-90384000D01*
X57453000Y-90384000D02*
X57453000Y-75384000D01*
X57453000Y-75384000D02*
X18453000Y-75384000D01*
X18453000Y-75384000D02*
X18453000Y-90384000D01*
X18028000Y-87884000D02*
X18028000Y-87884000D01*
X17928000Y-87884000D02*
X17928000Y-87884000D01*
X18028000Y-87884000D02*
G75*
G03*
X17928000Y-87884000I-50000J0D01*
G01*
X17928000Y-87884000D02*
G75*
G03*
X18028000Y-87884000I50000J0D01*
G01*
%TO.C,K2*%
X58996000Y-99916000D02*
X30196000Y-99916000D01*
X30196000Y-99916000D02*
X30196000Y-112716000D01*
X30196000Y-112716000D02*
X58996000Y-112716000D01*
X58996000Y-112716000D02*
X58996000Y-99916000D01*
D12*
X59796000Y-102616000D02*
X59796000Y-102616000D01*
X59796000Y-102516000D02*
X59796000Y-102516000D01*
X59796000Y-102616000D02*
X59796000Y-102616000D01*
X59796000Y-102516000D02*
G75*
G02*
X59796000Y-102616000I0J-50000D01*
G01*
X59796000Y-102616000D02*
G75*
G02*
X59796000Y-102516000I0J50000D01*
G01*
X59796000Y-102516000D02*
G75*
G02*
X59796000Y-102616000I0J-50000D01*
G01*
D10*
%TO.C,J5*%
X18355000Y-19110000D02*
X18355000Y-16510000D01*
X18355000Y-19110000D02*
X43875000Y-19110000D01*
X43875000Y-19110000D02*
X43875000Y-13910000D01*
X20955000Y-13910000D02*
X43875000Y-13910000D01*
X20955000Y-16510000D02*
X20955000Y-13910000D01*
X18355000Y-16510000D02*
X20955000Y-16510000D01*
X18355000Y-13910000D02*
X19685000Y-13910000D01*
X18355000Y-15240000D02*
X18355000Y-13910000D01*
%TO.C,J4*%
X83468000Y-19050000D02*
G75*
G03*
X83468000Y-19050000I-1680000J0D01*
G01*
X74108000Y-23150000D02*
X84388000Y-23150000D01*
X74108000Y-21650000D02*
X84388000Y-21650000D01*
X74108000Y-16749000D02*
X84388000Y-16749000D01*
X74108000Y-13789000D02*
X84388000Y-13789000D01*
X74108000Y-23710000D02*
X84388000Y-23710000D01*
X74108000Y-13789000D02*
X74108000Y-23710000D01*
X84388000Y-13789000D02*
X84388000Y-23710000D01*
X83063000Y-17981000D02*
X83016000Y-18027000D01*
X80754000Y-20289000D02*
X80719000Y-20324000D01*
X82858000Y-17775000D02*
X82823000Y-17811000D01*
X80561000Y-20073000D02*
X80514000Y-20119000D01*
X73868000Y-23210000D02*
X73868000Y-23950000D01*
X73868000Y-23950000D02*
X74368000Y-23950000D01*
X76736805Y-20730253D02*
G75*
G02*
X76024000Y-20585000I-28805J1680253D01*
G01*
X75172574Y-19733042D02*
G75*
G02*
X75173000Y-18366000I1535426J683042D01*
G01*
X76024958Y-17514574D02*
G75*
G02*
X77392000Y-17515000I683042J-1535426D01*
G01*
X78243426Y-18366958D02*
G75*
G02*
X78243000Y-19734000I-1535426J-683042D01*
G01*
X77391318Y-20584756D02*
G75*
G02*
X76708000Y-20730000I-683318J1534756D01*
G01*
%TO.C,J3*%
X19378000Y-103706000D02*
X22278000Y-103706000D01*
X19378000Y-106606000D02*
X19378000Y-103706000D01*
X22278000Y-106606000D02*
X19378000Y-106606000D01*
X22278000Y-103706000D02*
X22278000Y-106606000D01*
X19378000Y-111686000D02*
X22278000Y-111686000D01*
X22278000Y-108786000D02*
X19378000Y-108786000D01*
X22278000Y-111686000D02*
X22278000Y-108786000D01*
X19378000Y-108786000D02*
X19378000Y-111686000D01*
%TO.C,J2*%
X19378000Y-115390000D02*
X22278000Y-115390000D01*
X19378000Y-118290000D02*
X19378000Y-115390000D01*
X22278000Y-118290000D02*
X19378000Y-118290000D01*
X22278000Y-115390000D02*
X22278000Y-118290000D01*
X19378000Y-123370000D02*
X22278000Y-123370000D01*
X22278000Y-120470000D02*
X19378000Y-120470000D01*
X22278000Y-123370000D02*
X22278000Y-120470000D01*
X19378000Y-120470000D02*
X19378000Y-123370000D01*
D12*
%TO.C,K1*%
X65632000Y-112572000D02*
X65632000Y-112572000D01*
X65432000Y-112572000D02*
X65432000Y-112572000D01*
D11*
X63732000Y-112072000D02*
X63732000Y-99672000D01*
X92732000Y-112072000D02*
X63732000Y-112072000D01*
X92732000Y-99672000D02*
X92732000Y-112072000D01*
X63732000Y-99672000D02*
X92732000Y-99672000D01*
D12*
X65632000Y-112572000D02*
G75*
G03*
X65432000Y-112572000I-100000J0D01*
G01*
X65432000Y-112572000D02*
G75*
G03*
X65632000Y-112572000I100000J0D01*
G01*
D10*
%TO.C,J1*%
X61168000Y-23950000D02*
X61668000Y-23950000D01*
X61168000Y-23210000D02*
X61168000Y-23950000D01*
X67861000Y-20073000D02*
X67814000Y-20119000D01*
X70158000Y-17775000D02*
X70123000Y-17811000D01*
X68054000Y-20289000D02*
X68019000Y-20324000D01*
X70363000Y-17981000D02*
X70316000Y-18027000D01*
X71688000Y-13789000D02*
X71688000Y-23710000D01*
X61408000Y-13789000D02*
X61408000Y-23710000D01*
X61408000Y-23710000D02*
X71688000Y-23710000D01*
X61408000Y-13789000D02*
X71688000Y-13789000D01*
X61408000Y-16749000D02*
X71688000Y-16749000D01*
X61408000Y-21650000D02*
X71688000Y-21650000D01*
X61408000Y-23150000D02*
X71688000Y-23150000D01*
X70768000Y-19050000D02*
G75*
G03*
X70768000Y-19050000I-1680000J0D01*
G01*
X64691318Y-20584756D02*
G75*
G02*
X64008000Y-20730000I-683318J1534756D01*
G01*
X65543426Y-18366958D02*
G75*
G02*
X65543000Y-19734000I-1535426J-683042D01*
G01*
X63324958Y-17514574D02*
G75*
G02*
X64692000Y-17515000I683042J-1535426D01*
G01*
X62472574Y-19733042D02*
G75*
G02*
X62473000Y-18366000I1535426J683042D01*
G01*
X64036805Y-20730253D02*
G75*
G02*
X63324000Y-20585000I-28805J1680253D01*
G01*
%TO.C,J6*%
X47960000Y-23950000D02*
X48460000Y-23950000D01*
X47960000Y-23210000D02*
X47960000Y-23950000D01*
X54653000Y-20073000D02*
X54606000Y-20119000D01*
X56950000Y-17775000D02*
X56915000Y-17811000D01*
X54846000Y-20289000D02*
X54811000Y-20324000D01*
X57155000Y-17981000D02*
X57108000Y-18027000D01*
X58480000Y-13789000D02*
X58480000Y-23710000D01*
X48200000Y-13789000D02*
X48200000Y-23710000D01*
X48200000Y-23710000D02*
X58480000Y-23710000D01*
X48200000Y-13789000D02*
X58480000Y-13789000D01*
X48200000Y-16749000D02*
X58480000Y-16749000D01*
X48200000Y-21650000D02*
X58480000Y-21650000D01*
X48200000Y-23150000D02*
X58480000Y-23150000D01*
X57560000Y-19050000D02*
G75*
G03*
X57560000Y-19050000I-1680000J0D01*
G01*
X51483318Y-20584756D02*
G75*
G02*
X50800000Y-20730000I-683318J1534756D01*
G01*
X52335426Y-18366958D02*
G75*
G02*
X52335000Y-19734000I-1535426J-683042D01*
G01*
X50116958Y-17514574D02*
G75*
G02*
X51484000Y-17515000I683042J-1535426D01*
G01*
X49264574Y-19733042D02*
G75*
G02*
X49265000Y-18366000I1535426J683042D01*
G01*
X50828805Y-20730253D02*
G75*
G02*
X50116000Y-20585000I-28805J1680253D01*
G01*
%TO.C,J7*%
X87570000Y-15240000D02*
X87570000Y-13910000D01*
X87570000Y-13910000D02*
X88900000Y-13910000D01*
X87570000Y-16510000D02*
X90170000Y-16510000D01*
X90170000Y-16510000D02*
X90170000Y-13910000D01*
X90170000Y-13910000D02*
X113090000Y-13910000D01*
X113090000Y-19110000D02*
X113090000Y-13910000D01*
X87570000Y-19110000D02*
X113090000Y-19110000D01*
X87570000Y-19110000D02*
X87570000Y-16510000D01*
%TO.C,U1*%
D13*
X46442380Y-52069904D02*
X47251904Y-52069904D01*
X47347142Y-52022285D01*
X47394761Y-51974666D01*
X47442380Y-51879428D01*
X47442380Y-51688952D01*
X47394761Y-51593714D01*
X47347142Y-51546095D01*
X47251904Y-51498476D01*
X46442380Y-51498476D01*
X47442380Y-50498476D02*
X47442380Y-51069904D01*
X47442380Y-50784190D02*
X46442380Y-50784190D01*
X46585238Y-50879428D01*
X46680476Y-50974666D01*
X46728095Y-51069904D01*
%TO.C,R13*%
X86987142Y-67338380D02*
X86653809Y-66862190D01*
X86415714Y-67338380D02*
X86415714Y-66338380D01*
X86796666Y-66338380D01*
X86891904Y-66386000D01*
X86939523Y-66433619D01*
X86987142Y-66528857D01*
X86987142Y-66671714D01*
X86939523Y-66766952D01*
X86891904Y-66814571D01*
X86796666Y-66862190D01*
X86415714Y-66862190D01*
X87939523Y-67338380D02*
X87368095Y-67338380D01*
X87653809Y-67338380D02*
X87653809Y-66338380D01*
X87558571Y-66481238D01*
X87463333Y-66576476D01*
X87368095Y-66624095D01*
X88272857Y-66338380D02*
X88891904Y-66338380D01*
X88558571Y-66719333D01*
X88701428Y-66719333D01*
X88796666Y-66766952D01*
X88844285Y-66814571D01*
X88891904Y-66909809D01*
X88891904Y-67147904D01*
X88844285Y-67243142D01*
X88796666Y-67290761D01*
X88701428Y-67338380D01*
X88415714Y-67338380D01*
X88320476Y-67290761D01*
X88272857Y-67243142D01*
%TO.C,R12*%
X86987142Y-61750380D02*
X86653809Y-61274190D01*
X86415714Y-61750380D02*
X86415714Y-60750380D01*
X86796666Y-60750380D01*
X86891904Y-60798000D01*
X86939523Y-60845619D01*
X86987142Y-60940857D01*
X86987142Y-61083714D01*
X86939523Y-61178952D01*
X86891904Y-61226571D01*
X86796666Y-61274190D01*
X86415714Y-61274190D01*
X87939523Y-61750380D02*
X87368095Y-61750380D01*
X87653809Y-61750380D02*
X87653809Y-60750380D01*
X87558571Y-60893238D01*
X87463333Y-60988476D01*
X87368095Y-61036095D01*
X88320476Y-60845619D02*
X88368095Y-60798000D01*
X88463333Y-60750380D01*
X88701428Y-60750380D01*
X88796666Y-60798000D01*
X88844285Y-60845619D01*
X88891904Y-60940857D01*
X88891904Y-61036095D01*
X88844285Y-61178952D01*
X88272857Y-61750380D01*
X88891904Y-61750380D01*
%TO.C,R11*%
X86987142Y-55654380D02*
X86653809Y-55178190D01*
X86415714Y-55654380D02*
X86415714Y-54654380D01*
X86796666Y-54654380D01*
X86891904Y-54702000D01*
X86939523Y-54749619D01*
X86987142Y-54844857D01*
X86987142Y-54987714D01*
X86939523Y-55082952D01*
X86891904Y-55130571D01*
X86796666Y-55178190D01*
X86415714Y-55178190D01*
X87939523Y-55654380D02*
X87368095Y-55654380D01*
X87653809Y-55654380D02*
X87653809Y-54654380D01*
X87558571Y-54797238D01*
X87463333Y-54892476D01*
X87368095Y-54940095D01*
X88891904Y-55654380D02*
X88320476Y-55654380D01*
X88606190Y-55654380D02*
X88606190Y-54654380D01*
X88510952Y-54797238D01*
X88415714Y-54892476D01*
X88320476Y-54940095D01*
%TO.C,R10*%
X100957142Y-33642380D02*
X100623809Y-33166190D01*
X100385714Y-33642380D02*
X100385714Y-32642380D01*
X100766666Y-32642380D01*
X100861904Y-32690000D01*
X100909523Y-32737619D01*
X100957142Y-32832857D01*
X100957142Y-32975714D01*
X100909523Y-33070952D01*
X100861904Y-33118571D01*
X100766666Y-33166190D01*
X100385714Y-33166190D01*
X101909523Y-33642380D02*
X101338095Y-33642380D01*
X101623809Y-33642380D02*
X101623809Y-32642380D01*
X101528571Y-32785238D01*
X101433333Y-32880476D01*
X101338095Y-32928095D01*
X102528571Y-32642380D02*
X102623809Y-32642380D01*
X102719047Y-32690000D01*
X102766666Y-32737619D01*
X102814285Y-32832857D01*
X102861904Y-33023333D01*
X102861904Y-33261428D01*
X102814285Y-33451904D01*
X102766666Y-33547142D01*
X102719047Y-33594761D01*
X102623809Y-33642380D01*
X102528571Y-33642380D01*
X102433333Y-33594761D01*
X102385714Y-33547142D01*
X102338095Y-33451904D01*
X102290476Y-33261428D01*
X102290476Y-33023333D01*
X102338095Y-32832857D01*
X102385714Y-32737619D01*
X102433333Y-32690000D01*
X102528571Y-32642380D01*
%TO.C,R9*%
X101431333Y-54184380D02*
X101098000Y-53708190D01*
X100859904Y-54184380D02*
X100859904Y-53184380D01*
X101240857Y-53184380D01*
X101336095Y-53232000D01*
X101383714Y-53279619D01*
X101431333Y-53374857D01*
X101431333Y-53517714D01*
X101383714Y-53612952D01*
X101336095Y-53660571D01*
X101240857Y-53708190D01*
X100859904Y-53708190D01*
X101907523Y-54184380D02*
X102098000Y-54184380D01*
X102193238Y-54136761D01*
X102240857Y-54089142D01*
X102336095Y-53946285D01*
X102383714Y-53755809D01*
X102383714Y-53374857D01*
X102336095Y-53279619D01*
X102288476Y-53232000D01*
X102193238Y-53184380D01*
X102002761Y-53184380D01*
X101907523Y-53232000D01*
X101859904Y-53279619D01*
X101812285Y-53374857D01*
X101812285Y-53612952D01*
X101859904Y-53708190D01*
X101907523Y-53755809D01*
X102002761Y-53803428D01*
X102193238Y-53803428D01*
X102288476Y-53755809D01*
X102336095Y-53708190D01*
X102383714Y-53612952D01*
%TO.C,R8*%
X101431333Y-50134380D02*
X101098000Y-49658190D01*
X100859904Y-50134380D02*
X100859904Y-49134380D01*
X101240857Y-49134380D01*
X101336095Y-49182000D01*
X101383714Y-49229619D01*
X101431333Y-49324857D01*
X101431333Y-49467714D01*
X101383714Y-49562952D01*
X101336095Y-49610571D01*
X101240857Y-49658190D01*
X100859904Y-49658190D01*
X102002761Y-49562952D02*
X101907523Y-49515333D01*
X101859904Y-49467714D01*
X101812285Y-49372476D01*
X101812285Y-49324857D01*
X101859904Y-49229619D01*
X101907523Y-49182000D01*
X102002761Y-49134380D01*
X102193238Y-49134380D01*
X102288476Y-49182000D01*
X102336095Y-49229619D01*
X102383714Y-49324857D01*
X102383714Y-49372476D01*
X102336095Y-49467714D01*
X102288476Y-49515333D01*
X102193238Y-49562952D01*
X102002761Y-49562952D01*
X101907523Y-49610571D01*
X101859904Y-49658190D01*
X101812285Y-49753428D01*
X101812285Y-49943904D01*
X101859904Y-50039142D01*
X101907523Y-50086761D01*
X102002761Y-50134380D01*
X102193238Y-50134380D01*
X102288476Y-50086761D01*
X102336095Y-50039142D01*
X102383714Y-49943904D01*
X102383714Y-49753428D01*
X102336095Y-49658190D01*
X102288476Y-49610571D01*
X102193238Y-49562952D01*
%TO.C,R7*%
X101433333Y-46342380D02*
X101100000Y-45866190D01*
X100861904Y-46342380D02*
X100861904Y-45342380D01*
X101242857Y-45342380D01*
X101338095Y-45390000D01*
X101385714Y-45437619D01*
X101433333Y-45532857D01*
X101433333Y-45675714D01*
X101385714Y-45770952D01*
X101338095Y-45818571D01*
X101242857Y-45866190D01*
X100861904Y-45866190D01*
X101766666Y-45342380D02*
X102433333Y-45342380D01*
X102004761Y-46342380D01*
%TO.C,R6*%
X101139333Y-41528380D02*
X100806000Y-41052190D01*
X100567904Y-41528380D02*
X100567904Y-40528380D01*
X100948857Y-40528380D01*
X101044095Y-40576000D01*
X101091714Y-40623619D01*
X101139333Y-40718857D01*
X101139333Y-40861714D01*
X101091714Y-40956952D01*
X101044095Y-41004571D01*
X100948857Y-41052190D01*
X100567904Y-41052190D01*
X101996476Y-40528380D02*
X101806000Y-40528380D01*
X101710761Y-40576000D01*
X101663142Y-40623619D01*
X101567904Y-40766476D01*
X101520285Y-40956952D01*
X101520285Y-41337904D01*
X101567904Y-41433142D01*
X101615523Y-41480761D01*
X101710761Y-41528380D01*
X101901238Y-41528380D01*
X101996476Y-41480761D01*
X102044095Y-41433142D01*
X102091714Y-41337904D01*
X102091714Y-41099809D01*
X102044095Y-41004571D01*
X101996476Y-40956952D01*
X101901238Y-40909333D01*
X101710761Y-40909333D01*
X101615523Y-40956952D01*
X101567904Y-41004571D01*
X101520285Y-41099809D01*
%TO.C,R5*%
X101139333Y-37478380D02*
X100806000Y-37002190D01*
X100567904Y-37478380D02*
X100567904Y-36478380D01*
X100948857Y-36478380D01*
X101044095Y-36526000D01*
X101091714Y-36573619D01*
X101139333Y-36668857D01*
X101139333Y-36811714D01*
X101091714Y-36906952D01*
X101044095Y-36954571D01*
X100948857Y-37002190D01*
X100567904Y-37002190D01*
X102044095Y-36478380D02*
X101567904Y-36478380D01*
X101520285Y-36954571D01*
X101567904Y-36906952D01*
X101663142Y-36859333D01*
X101901238Y-36859333D01*
X101996476Y-36906952D01*
X102044095Y-36954571D01*
X102091714Y-37049809D01*
X102091714Y-37287904D01*
X102044095Y-37383142D01*
X101996476Y-37430761D01*
X101901238Y-37478380D01*
X101663142Y-37478380D01*
X101567904Y-37430761D01*
X101520285Y-37383142D01*
%TO.C,R4*%
X87209333Y-37706380D02*
X86876000Y-37230190D01*
X86637904Y-37706380D02*
X86637904Y-36706380D01*
X87018857Y-36706380D01*
X87114095Y-36754000D01*
X87161714Y-36801619D01*
X87209333Y-36896857D01*
X87209333Y-37039714D01*
X87161714Y-37134952D01*
X87114095Y-37182571D01*
X87018857Y-37230190D01*
X86637904Y-37230190D01*
X88066476Y-37039714D02*
X88066476Y-37706380D01*
X87828380Y-36658761D02*
X87590285Y-37373047D01*
X88209333Y-37373047D01*
%TO.C,R3*%
X87209333Y-51082380D02*
X86876000Y-50606190D01*
X86637904Y-51082380D02*
X86637904Y-50082380D01*
X87018857Y-50082380D01*
X87114095Y-50130000D01*
X87161714Y-50177619D01*
X87209333Y-50272857D01*
X87209333Y-50415714D01*
X87161714Y-50510952D01*
X87114095Y-50558571D01*
X87018857Y-50606190D01*
X86637904Y-50606190D01*
X87542666Y-50082380D02*
X88161714Y-50082380D01*
X87828380Y-50463333D01*
X87971238Y-50463333D01*
X88066476Y-50510952D01*
X88114095Y-50558571D01*
X88161714Y-50653809D01*
X88161714Y-50891904D01*
X88114095Y-50987142D01*
X88066476Y-51034761D01*
X87971238Y-51082380D01*
X87685523Y-51082380D01*
X87590285Y-51034761D01*
X87542666Y-50987142D01*
%TO.C,R2*%
X87209333Y-37874380D02*
X86876000Y-37398190D01*
X86637904Y-37874380D02*
X86637904Y-36874380D01*
X87018857Y-36874380D01*
X87114095Y-36922000D01*
X87161714Y-36969619D01*
X87209333Y-37064857D01*
X87209333Y-37207714D01*
X87161714Y-37302952D01*
X87114095Y-37350571D01*
X87018857Y-37398190D01*
X86637904Y-37398190D01*
X87590285Y-36969619D02*
X87637904Y-36922000D01*
X87733142Y-36874380D01*
X87971238Y-36874380D01*
X88066476Y-36922000D01*
X88114095Y-36969619D01*
X88161714Y-37064857D01*
X88161714Y-37160095D01*
X88114095Y-37302952D01*
X87542666Y-37874380D01*
X88161714Y-37874380D01*
%TO.C,R1*%
X87209333Y-42278380D02*
X86876000Y-41802190D01*
X86637904Y-42278380D02*
X86637904Y-41278380D01*
X87018857Y-41278380D01*
X87114095Y-41326000D01*
X87161714Y-41373619D01*
X87209333Y-41468857D01*
X87209333Y-41611714D01*
X87161714Y-41706952D01*
X87114095Y-41754571D01*
X87018857Y-41802190D01*
X86637904Y-41802190D01*
X88161714Y-42278380D02*
X87590285Y-42278380D01*
X87876000Y-42278380D02*
X87876000Y-41278380D01*
X87780761Y-41421238D01*
X87685523Y-41516476D01*
X87590285Y-41564095D01*
%TO.C,Q9*%
X78783619Y-45053238D02*
X78736000Y-45148476D01*
X78640761Y-45243714D01*
X78497904Y-45386571D01*
X78450285Y-45481809D01*
X78450285Y-45577047D01*
X78688380Y-45529428D02*
X78640761Y-45624666D01*
X78545523Y-45719904D01*
X78355047Y-45767523D01*
X78021714Y-45767523D01*
X77831238Y-45719904D01*
X77736000Y-45624666D01*
X77688380Y-45529428D01*
X77688380Y-45338952D01*
X77736000Y-45243714D01*
X77831238Y-45148476D01*
X78021714Y-45100857D01*
X78355047Y-45100857D01*
X78545523Y-45148476D01*
X78640761Y-45243714D01*
X78688380Y-45338952D01*
X78688380Y-45529428D01*
X78688380Y-44624666D02*
X78688380Y-44434190D01*
X78640761Y-44338952D01*
X78593142Y-44291333D01*
X78450285Y-44196095D01*
X78259809Y-44148476D01*
X77878857Y-44148476D01*
X77783619Y-44196095D01*
X77736000Y-44243714D01*
X77688380Y-44338952D01*
X77688380Y-44529428D01*
X77736000Y-44624666D01*
X77783619Y-44672285D01*
X77878857Y-44719904D01*
X78116952Y-44719904D01*
X78212190Y-44672285D01*
X78259809Y-44624666D01*
X78307428Y-44529428D01*
X78307428Y-44338952D01*
X78259809Y-44243714D01*
X78212190Y-44196095D01*
X78116952Y-44148476D01*
%TO.C,Q8*%
X78783619Y-38957238D02*
X78736000Y-39052476D01*
X78640761Y-39147714D01*
X78497904Y-39290571D01*
X78450285Y-39385809D01*
X78450285Y-39481047D01*
X78688380Y-39433428D02*
X78640761Y-39528666D01*
X78545523Y-39623904D01*
X78355047Y-39671523D01*
X78021714Y-39671523D01*
X77831238Y-39623904D01*
X77736000Y-39528666D01*
X77688380Y-39433428D01*
X77688380Y-39242952D01*
X77736000Y-39147714D01*
X77831238Y-39052476D01*
X78021714Y-39004857D01*
X78355047Y-39004857D01*
X78545523Y-39052476D01*
X78640761Y-39147714D01*
X78688380Y-39242952D01*
X78688380Y-39433428D01*
X78116952Y-38433428D02*
X78069333Y-38528666D01*
X78021714Y-38576285D01*
X77926476Y-38623904D01*
X77878857Y-38623904D01*
X77783619Y-38576285D01*
X77736000Y-38528666D01*
X77688380Y-38433428D01*
X77688380Y-38242952D01*
X77736000Y-38147714D01*
X77783619Y-38100095D01*
X77878857Y-38052476D01*
X77926476Y-38052476D01*
X78021714Y-38100095D01*
X78069333Y-38147714D01*
X78116952Y-38242952D01*
X78116952Y-38433428D01*
X78164571Y-38528666D01*
X78212190Y-38576285D01*
X78307428Y-38623904D01*
X78497904Y-38623904D01*
X78593142Y-38576285D01*
X78640761Y-38528666D01*
X78688380Y-38433428D01*
X78688380Y-38242952D01*
X78640761Y-38147714D01*
X78593142Y-38100095D01*
X78497904Y-38052476D01*
X78307428Y-38052476D01*
X78212190Y-38100095D01*
X78164571Y-38147714D01*
X78116952Y-38242952D01*
%TO.C,Q7*%
X78656619Y-33115238D02*
X78609000Y-33210476D01*
X78513761Y-33305714D01*
X78370904Y-33448571D01*
X78323285Y-33543809D01*
X78323285Y-33639047D01*
X78561380Y-33591428D02*
X78513761Y-33686666D01*
X78418523Y-33781904D01*
X78228047Y-33829523D01*
X77894714Y-33829523D01*
X77704238Y-33781904D01*
X77609000Y-33686666D01*
X77561380Y-33591428D01*
X77561380Y-33400952D01*
X77609000Y-33305714D01*
X77704238Y-33210476D01*
X77894714Y-33162857D01*
X78228047Y-33162857D01*
X78418523Y-33210476D01*
X78513761Y-33305714D01*
X78561380Y-33400952D01*
X78561380Y-33591428D01*
X77561380Y-32829523D02*
X77561380Y-32162857D01*
X78561380Y-32591428D01*
%TO.C,Q6*%
X78783619Y-54705238D02*
X78736000Y-54800476D01*
X78640761Y-54895714D01*
X78497904Y-55038571D01*
X78450285Y-55133809D01*
X78450285Y-55229047D01*
X78688380Y-55181428D02*
X78640761Y-55276666D01*
X78545523Y-55371904D01*
X78355047Y-55419523D01*
X78021714Y-55419523D01*
X77831238Y-55371904D01*
X77736000Y-55276666D01*
X77688380Y-55181428D01*
X77688380Y-54990952D01*
X77736000Y-54895714D01*
X77831238Y-54800476D01*
X78021714Y-54752857D01*
X78355047Y-54752857D01*
X78545523Y-54800476D01*
X78640761Y-54895714D01*
X78688380Y-54990952D01*
X78688380Y-55181428D01*
X77688380Y-53895714D02*
X77688380Y-54086190D01*
X77736000Y-54181428D01*
X77783619Y-54229047D01*
X77926476Y-54324285D01*
X78116952Y-54371904D01*
X78497904Y-54371904D01*
X78593142Y-54324285D01*
X78640761Y-54276666D01*
X78688380Y-54181428D01*
X78688380Y-53990952D01*
X78640761Y-53895714D01*
X78593142Y-53848095D01*
X78497904Y-53800476D01*
X78259809Y-53800476D01*
X78164571Y-53848095D01*
X78116952Y-53895714D01*
X78069333Y-53990952D01*
X78069333Y-54181428D01*
X78116952Y-54276666D01*
X78164571Y-54324285D01*
X78259809Y-54371904D01*
%TO.C,Q5*%
X78783619Y-60801238D02*
X78736000Y-60896476D01*
X78640761Y-60991714D01*
X78497904Y-61134571D01*
X78450285Y-61229809D01*
X78450285Y-61325047D01*
X78688380Y-61277428D02*
X78640761Y-61372666D01*
X78545523Y-61467904D01*
X78355047Y-61515523D01*
X78021714Y-61515523D01*
X77831238Y-61467904D01*
X77736000Y-61372666D01*
X77688380Y-61277428D01*
X77688380Y-61086952D01*
X77736000Y-60991714D01*
X77831238Y-60896476D01*
X78021714Y-60848857D01*
X78355047Y-60848857D01*
X78545523Y-60896476D01*
X78640761Y-60991714D01*
X78688380Y-61086952D01*
X78688380Y-61277428D01*
X77688380Y-59944095D02*
X77688380Y-60420285D01*
X78164571Y-60467904D01*
X78116952Y-60420285D01*
X78069333Y-60325047D01*
X78069333Y-60086952D01*
X78116952Y-59991714D01*
X78164571Y-59944095D01*
X78259809Y-59896476D01*
X78497904Y-59896476D01*
X78593142Y-59944095D01*
X78640761Y-59991714D01*
X78688380Y-60086952D01*
X78688380Y-60325047D01*
X78640761Y-60420285D01*
X78593142Y-60467904D01*
%TO.C,Q4*%
X78783619Y-66897238D02*
X78736000Y-66992476D01*
X78640761Y-67087714D01*
X78497904Y-67230571D01*
X78450285Y-67325809D01*
X78450285Y-67421047D01*
X78688380Y-67373428D02*
X78640761Y-67468666D01*
X78545523Y-67563904D01*
X78355047Y-67611523D01*
X78021714Y-67611523D01*
X77831238Y-67563904D01*
X77736000Y-67468666D01*
X77688380Y-67373428D01*
X77688380Y-67182952D01*
X77736000Y-67087714D01*
X77831238Y-66992476D01*
X78021714Y-66944857D01*
X78355047Y-66944857D01*
X78545523Y-66992476D01*
X78640761Y-67087714D01*
X78688380Y-67182952D01*
X78688380Y-67373428D01*
X78021714Y-66087714D02*
X78688380Y-66087714D01*
X77640761Y-66325809D02*
X78355047Y-66563904D01*
X78355047Y-65944857D01*
%TO.C,Q3*%
X104044761Y-72933619D02*
X103949523Y-72886000D01*
X103854285Y-72790761D01*
X103711428Y-72647904D01*
X103616190Y-72600285D01*
X103520952Y-72600285D01*
X103568571Y-72838380D02*
X103473333Y-72790761D01*
X103378095Y-72695523D01*
X103330476Y-72505047D01*
X103330476Y-72171714D01*
X103378095Y-71981238D01*
X103473333Y-71886000D01*
X103568571Y-71838380D01*
X103759047Y-71838380D01*
X103854285Y-71886000D01*
X103949523Y-71981238D01*
X103997142Y-72171714D01*
X103997142Y-72505047D01*
X103949523Y-72695523D01*
X103854285Y-72790761D01*
X103759047Y-72838380D01*
X103568571Y-72838380D01*
X104330476Y-71838380D02*
X104949523Y-71838380D01*
X104616190Y-72219333D01*
X104759047Y-72219333D01*
X104854285Y-72266952D01*
X104901904Y-72314571D01*
X104949523Y-72409809D01*
X104949523Y-72647904D01*
X104901904Y-72743142D01*
X104854285Y-72790761D01*
X104759047Y-72838380D01*
X104473333Y-72838380D01*
X104378095Y-72790761D01*
X104330476Y-72743142D01*
%TO.C,Q2*%
X104044761Y-66329619D02*
X103949523Y-66282000D01*
X103854285Y-66186761D01*
X103711428Y-66043904D01*
X103616190Y-65996285D01*
X103520952Y-65996285D01*
X103568571Y-66234380D02*
X103473333Y-66186761D01*
X103378095Y-66091523D01*
X103330476Y-65901047D01*
X103330476Y-65567714D01*
X103378095Y-65377238D01*
X103473333Y-65282000D01*
X103568571Y-65234380D01*
X103759047Y-65234380D01*
X103854285Y-65282000D01*
X103949523Y-65377238D01*
X103997142Y-65567714D01*
X103997142Y-65901047D01*
X103949523Y-66091523D01*
X103854285Y-66186761D01*
X103759047Y-66234380D01*
X103568571Y-66234380D01*
X104378095Y-65329619D02*
X104425714Y-65282000D01*
X104520952Y-65234380D01*
X104759047Y-65234380D01*
X104854285Y-65282000D01*
X104901904Y-65329619D01*
X104949523Y-65424857D01*
X104949523Y-65520095D01*
X104901904Y-65662952D01*
X104330476Y-66234380D01*
X104949523Y-66234380D01*
%TO.C,Q1*%
X104044761Y-59217619D02*
X103949523Y-59170000D01*
X103854285Y-59074761D01*
X103711428Y-58931904D01*
X103616190Y-58884285D01*
X103520952Y-58884285D01*
X103568571Y-59122380D02*
X103473333Y-59074761D01*
X103378095Y-58979523D01*
X103330476Y-58789047D01*
X103330476Y-58455714D01*
X103378095Y-58265238D01*
X103473333Y-58170000D01*
X103568571Y-58122380D01*
X103759047Y-58122380D01*
X103854285Y-58170000D01*
X103949523Y-58265238D01*
X103997142Y-58455714D01*
X103997142Y-58789047D01*
X103949523Y-58979523D01*
X103854285Y-59074761D01*
X103759047Y-59122380D01*
X103568571Y-59122380D01*
X104949523Y-59122380D02*
X104378095Y-59122380D01*
X104663809Y-59122380D02*
X104663809Y-58122380D01*
X104568571Y-58265238D01*
X104473333Y-58360476D01*
X104378095Y-58408095D01*
%TO.C,K4*%
D14*
X78662619Y-83458523D02*
X78662619Y-82188523D01*
X79388333Y-83458523D02*
X78844047Y-82732809D01*
X79388333Y-82188523D02*
X78662619Y-82914238D01*
X80476904Y-82611857D02*
X80476904Y-83458523D01*
X80174523Y-82128047D02*
X79872142Y-83035190D01*
X80658333Y-83035190D01*
%TO.C,K3*%
X36752619Y-83458523D02*
X36752619Y-82188523D01*
X37478333Y-83458523D02*
X36934047Y-82732809D01*
X37478333Y-82188523D02*
X36752619Y-82914238D01*
X37901666Y-82188523D02*
X38687857Y-82188523D01*
X38264523Y-82672333D01*
X38445952Y-82672333D01*
X38566904Y-82732809D01*
X38627380Y-82793285D01*
X38687857Y-82914238D01*
X38687857Y-83216619D01*
X38627380Y-83337571D01*
X38566904Y-83398047D01*
X38445952Y-83458523D01*
X38083095Y-83458523D01*
X37962142Y-83398047D01*
X37901666Y-83337571D01*
%TO.C,K2*%
X44083619Y-106890523D02*
X44083619Y-105620523D01*
X44809333Y-106890523D02*
X44265047Y-106164809D01*
X44809333Y-105620523D02*
X44083619Y-106346238D01*
X45293142Y-105741476D02*
X45353619Y-105681000D01*
X45474571Y-105620523D01*
X45776952Y-105620523D01*
X45897904Y-105681000D01*
X45958380Y-105741476D01*
X46018857Y-105862428D01*
X46018857Y-105983380D01*
X45958380Y-106164809D01*
X45232666Y-106890523D01*
X46018857Y-106890523D01*
%TO.C,J5*%
D13*
X16367380Y-16843333D02*
X17081666Y-16843333D01*
X17224523Y-16890952D01*
X17319761Y-16986190D01*
X17367380Y-17129047D01*
X17367380Y-17224285D01*
X16367380Y-15890952D02*
X16367380Y-16367142D01*
X16843571Y-16414761D01*
X16795952Y-16367142D01*
X16748333Y-16271904D01*
X16748333Y-16033809D01*
X16795952Y-15938571D01*
X16843571Y-15890952D01*
X16938809Y-15843333D01*
X17176904Y-15843333D01*
X17272142Y-15890952D01*
X17319761Y-15938571D01*
X17367380Y-16033809D01*
X17367380Y-16271904D01*
X17319761Y-16367142D01*
X17272142Y-16414761D01*
%TO.C,J4*%
X78914666Y-12242380D02*
X78914666Y-12956666D01*
X78867047Y-13099523D01*
X78771809Y-13194761D01*
X78628952Y-13242380D01*
X78533714Y-13242380D01*
X79819428Y-12575714D02*
X79819428Y-13242380D01*
X79581333Y-12194761D02*
X79343238Y-12909047D01*
X79962285Y-12909047D01*
%TO.C,J3*%
X25995380Y-108029333D02*
X26709666Y-108029333D01*
X26852523Y-108076952D01*
X26947761Y-108172190D01*
X26995380Y-108315047D01*
X26995380Y-108410285D01*
X25995380Y-107648380D02*
X25995380Y-107029333D01*
X26376333Y-107362666D01*
X26376333Y-107219809D01*
X26423952Y-107124571D01*
X26471571Y-107076952D01*
X26566809Y-107029333D01*
X26804904Y-107029333D01*
X26900142Y-107076952D01*
X26947761Y-107124571D01*
X26995380Y-107219809D01*
X26995380Y-107505523D01*
X26947761Y-107600761D01*
X26900142Y-107648380D01*
%TO.C,J2*%
X25995380Y-119713333D02*
X26709666Y-119713333D01*
X26852523Y-119760952D01*
X26947761Y-119856190D01*
X26995380Y-119999047D01*
X26995380Y-120094285D01*
X26090619Y-119284761D02*
X26043000Y-119237142D01*
X25995380Y-119141904D01*
X25995380Y-118903809D01*
X26043000Y-118808571D01*
X26090619Y-118760952D01*
X26185857Y-118713333D01*
X26281095Y-118713333D01*
X26423952Y-118760952D01*
X26995380Y-119332380D01*
X26995380Y-118713333D01*
%TO.C,K1*%
D14*
X77294619Y-106746523D02*
X77294619Y-105476523D01*
X78020333Y-106746523D02*
X77476047Y-106020809D01*
X78020333Y-105476523D02*
X77294619Y-106202238D01*
X79229857Y-106746523D02*
X78504142Y-106746523D01*
X78867000Y-106746523D02*
X78867000Y-105476523D01*
X78746047Y-105657952D01*
X78625095Y-105778904D01*
X78504142Y-105839380D01*
%TO.C,J1*%
D13*
X66214666Y-12242380D02*
X66214666Y-12956666D01*
X66167047Y-13099523D01*
X66071809Y-13194761D01*
X65928952Y-13242380D01*
X65833714Y-13242380D01*
X67214666Y-13242380D02*
X66643238Y-13242380D01*
X66928952Y-13242380D02*
X66928952Y-12242380D01*
X66833714Y-12385238D01*
X66738476Y-12480476D01*
X66643238Y-12528095D01*
%TO.C,J6*%
X53006666Y-12242380D02*
X53006666Y-12956666D01*
X52959047Y-13099523D01*
X52863809Y-13194761D01*
X52720952Y-13242380D01*
X52625714Y-13242380D01*
X53911428Y-12242380D02*
X53720952Y-12242380D01*
X53625714Y-12290000D01*
X53578095Y-12337619D01*
X53482857Y-12480476D01*
X53435238Y-12670952D01*
X53435238Y-13051904D01*
X53482857Y-13147142D01*
X53530476Y-13194761D01*
X53625714Y-13242380D01*
X53816190Y-13242380D01*
X53911428Y-13194761D01*
X53959047Y-13147142D01*
X54006666Y-13051904D01*
X54006666Y-12813809D01*
X53959047Y-12718571D01*
X53911428Y-12670952D01*
X53816190Y-12623333D01*
X53625714Y-12623333D01*
X53530476Y-12670952D01*
X53482857Y-12718571D01*
X53435238Y-12813809D01*
%TO.C,J7*%
X85582380Y-16843333D02*
X86296666Y-16843333D01*
X86439523Y-16890952D01*
X86534761Y-16986190D01*
X86582380Y-17129047D01*
X86582380Y-17224285D01*
X85582380Y-16462380D02*
X85582380Y-15795714D01*
X86582380Y-16224285D01*
%TO.C,H1*%
X18288095Y-20732380D02*
X18288095Y-19732380D01*
X18288095Y-20208571D02*
X18859523Y-20208571D01*
X18859523Y-20732380D02*
X18859523Y-19732380D01*
X19859523Y-20732380D02*
X19288095Y-20732380D01*
X19573809Y-20732380D02*
X19573809Y-19732380D01*
X19478571Y-19875238D01*
X19383333Y-19970476D01*
X19288095Y-20018095D01*
%TO.C,H2*%
X100153095Y-24757380D02*
X100153095Y-23757380D01*
X100153095Y-24233571D02*
X100724523Y-24233571D01*
X100724523Y-24757380D02*
X100724523Y-23757380D01*
X101153095Y-23852619D02*
X101200714Y-23805000D01*
X101295952Y-23757380D01*
X101534047Y-23757380D01*
X101629285Y-23805000D01*
X101676904Y-23852619D01*
X101724523Y-23947857D01*
X101724523Y-24043095D01*
X101676904Y-24185952D01*
X101105476Y-24757380D01*
X101724523Y-24757380D01*
%TO.C,H3*%
X32258095Y-115982380D02*
X32258095Y-114982380D01*
X32258095Y-115458571D02*
X32829523Y-115458571D01*
X32829523Y-115982380D02*
X32829523Y-114982380D01*
X33210476Y-114982380D02*
X33829523Y-114982380D01*
X33496190Y-115363333D01*
X33639047Y-115363333D01*
X33734285Y-115410952D01*
X33781904Y-115458571D01*
X33829523Y-115553809D01*
X33829523Y-115791904D01*
X33781904Y-115887142D01*
X33734285Y-115934761D01*
X33639047Y-115982380D01*
X33353333Y-115982380D01*
X33258095Y-115934761D01*
X33210476Y-115887142D01*
%TO.C,H4*%
X108458095Y-115982380D02*
X108458095Y-114982380D01*
X108458095Y-115458571D02*
X109029523Y-115458571D01*
X109029523Y-115982380D02*
X109029523Y-114982380D01*
X109934285Y-115315714D02*
X109934285Y-115982380D01*
X109696190Y-114934761D02*
X109458095Y-115649047D01*
X110077142Y-115649047D01*
%TD*%
M02*
