%TF.GenerationSoftware,KiCad,Pcbnew,(5.1.6)-1*%
%TF.CreationDate,2021-11-19T15:31:24+01:00*%
%TF.ProjectId,FoxRobot,466f7852-6f62-46f7-942e-6b696361645f,V01*%
%TF.SameCoordinates,Original*%
%TF.FileFunction,Legend,Top*%
%TF.FilePolarity,Positive*%
%FSLAX46Y46*%
G04 Gerber Fmt 4.6, Leading zero omitted, Abs format (unit mm)*
G04 Created by KiCad (PCBNEW (5.1.6)-1) date 2021-11-19 15:31:24*
%MOMM*%
%LPD*%
G01*
G04 APERTURE LIST*
%ADD10C,0.120000*%
%ADD11C,0.100000*%
%ADD12C,0.200000*%
%ADD13C,0.150000*%
%ADD14C,0.254000*%
G04 APERTURE END LIST*
D10*
%TO.C,U1*%
X113665000Y-114808000D02*
X113665000Y-74168000D01*
X164465000Y-114808000D02*
X164465000Y-74168000D01*
%TO.C,R13*%
X187420000Y-109066000D02*
X187420000Y-106326000D01*
X187420000Y-106326000D02*
X180880000Y-106326000D01*
X180880000Y-106326000D02*
X180880000Y-109066000D01*
X180880000Y-109066000D02*
X187420000Y-109066000D01*
X188190000Y-107696000D02*
X187420000Y-107696000D01*
X180110000Y-107696000D02*
X180880000Y-107696000D01*
%TO.C,R12*%
X187420000Y-103478000D02*
X187420000Y-100738000D01*
X187420000Y-100738000D02*
X180880000Y-100738000D01*
X180880000Y-100738000D02*
X180880000Y-103478000D01*
X180880000Y-103478000D02*
X187420000Y-103478000D01*
X188190000Y-102108000D02*
X187420000Y-102108000D01*
X180110000Y-102108000D02*
X180880000Y-102108000D01*
%TO.C,R11*%
X187420000Y-97382000D02*
X187420000Y-94642000D01*
X187420000Y-94642000D02*
X180880000Y-94642000D01*
X180880000Y-94642000D02*
X180880000Y-97382000D01*
X180880000Y-97382000D02*
X187420000Y-97382000D01*
X188190000Y-96012000D02*
X187420000Y-96012000D01*
X180110000Y-96012000D02*
X180880000Y-96012000D01*
%TO.C,R10*%
X194850000Y-77370000D02*
X194850000Y-80110000D01*
X194850000Y-80110000D02*
X201390000Y-80110000D01*
X201390000Y-80110000D02*
X201390000Y-77370000D01*
X201390000Y-77370000D02*
X194850000Y-77370000D01*
X194080000Y-78740000D02*
X194850000Y-78740000D01*
X202160000Y-78740000D02*
X201390000Y-78740000D01*
%TO.C,R9*%
X194848000Y-97912000D02*
X194848000Y-100652000D01*
X194848000Y-100652000D02*
X201388000Y-100652000D01*
X201388000Y-100652000D02*
X201388000Y-97912000D01*
X201388000Y-97912000D02*
X194848000Y-97912000D01*
X194078000Y-99282000D02*
X194848000Y-99282000D01*
X202158000Y-99282000D02*
X201388000Y-99282000D01*
%TO.C,R8*%
X194848000Y-93862000D02*
X194848000Y-96602000D01*
X194848000Y-96602000D02*
X201388000Y-96602000D01*
X201388000Y-96602000D02*
X201388000Y-93862000D01*
X201388000Y-93862000D02*
X194848000Y-93862000D01*
X194078000Y-95232000D02*
X194848000Y-95232000D01*
X202158000Y-95232000D02*
X201388000Y-95232000D01*
%TO.C,R7*%
X194850000Y-90070000D02*
X194850000Y-92810000D01*
X194850000Y-92810000D02*
X201390000Y-92810000D01*
X201390000Y-92810000D02*
X201390000Y-90070000D01*
X201390000Y-90070000D02*
X194850000Y-90070000D01*
X194080000Y-91440000D02*
X194850000Y-91440000D01*
X202160000Y-91440000D02*
X201390000Y-91440000D01*
%TO.C,R6*%
X194556000Y-85256000D02*
X194556000Y-87996000D01*
X194556000Y-87996000D02*
X201096000Y-87996000D01*
X201096000Y-87996000D02*
X201096000Y-85256000D01*
X201096000Y-85256000D02*
X194556000Y-85256000D01*
X193786000Y-86626000D02*
X194556000Y-86626000D01*
X201866000Y-86626000D02*
X201096000Y-86626000D01*
%TO.C,R5*%
X194556000Y-81206000D02*
X194556000Y-83946000D01*
X194556000Y-83946000D02*
X201096000Y-83946000D01*
X201096000Y-83946000D02*
X201096000Y-81206000D01*
X201096000Y-81206000D02*
X194556000Y-81206000D01*
X193786000Y-82576000D02*
X194556000Y-82576000D01*
X201866000Y-82576000D02*
X201096000Y-82576000D01*
%TO.C,R4*%
X180626000Y-81434000D02*
X180626000Y-84174000D01*
X180626000Y-84174000D02*
X187166000Y-84174000D01*
X187166000Y-84174000D02*
X187166000Y-81434000D01*
X187166000Y-81434000D02*
X180626000Y-81434000D01*
X179856000Y-82804000D02*
X180626000Y-82804000D01*
X187936000Y-82804000D02*
X187166000Y-82804000D01*
%TO.C,R3*%
X187166000Y-92810000D02*
X187166000Y-90070000D01*
X187166000Y-90070000D02*
X180626000Y-90070000D01*
X180626000Y-90070000D02*
X180626000Y-92810000D01*
X180626000Y-92810000D02*
X187166000Y-92810000D01*
X187936000Y-91440000D02*
X187166000Y-91440000D01*
X179856000Y-91440000D02*
X180626000Y-91440000D01*
%TO.C,R2*%
X187166000Y-79602000D02*
X187166000Y-76862000D01*
X187166000Y-76862000D02*
X180626000Y-76862000D01*
X180626000Y-76862000D02*
X180626000Y-79602000D01*
X180626000Y-79602000D02*
X187166000Y-79602000D01*
X187936000Y-78232000D02*
X187166000Y-78232000D01*
X179856000Y-78232000D02*
X180626000Y-78232000D01*
%TO.C,R1*%
X180626000Y-86006000D02*
X180626000Y-88746000D01*
X180626000Y-88746000D02*
X187166000Y-88746000D01*
X187166000Y-88746000D02*
X187166000Y-86006000D01*
X187166000Y-86006000D02*
X180626000Y-86006000D01*
X179856000Y-87376000D02*
X180626000Y-87376000D01*
X187936000Y-87376000D02*
X187166000Y-87376000D01*
%TO.C,Q9*%
X169346000Y-86338000D02*
X169346000Y-89938000D01*
X169357522Y-89976478D02*
G75*
G03*
X173796000Y-88138000I1838478J1838478D01*
G01*
X169357522Y-86299522D02*
G75*
G02*
X173796000Y-88138000I1838478J-1838478D01*
G01*
%TO.C,Q8*%
X169346000Y-80242000D02*
X169346000Y-83842000D01*
X169357522Y-83880478D02*
G75*
G03*
X173796000Y-82042000I1838478J1838478D01*
G01*
X169357522Y-80203522D02*
G75*
G02*
X173796000Y-82042000I1838478J-1838478D01*
G01*
%TO.C,Q7*%
X169219000Y-74400000D02*
X169219000Y-78000000D01*
X169230522Y-78038478D02*
G75*
G03*
X173669000Y-76200000I1838478J1838478D01*
G01*
X169230522Y-74361522D02*
G75*
G02*
X173669000Y-76200000I1838478J-1838478D01*
G01*
%TO.C,Q6*%
X169346000Y-95990000D02*
X169346000Y-99590000D01*
X169357522Y-99628478D02*
G75*
G03*
X173796000Y-97790000I1838478J1838478D01*
G01*
X169357522Y-95951522D02*
G75*
G02*
X173796000Y-97790000I1838478J-1838478D01*
G01*
%TO.C,Q5*%
X169346000Y-102086000D02*
X169346000Y-105686000D01*
X169357522Y-105724478D02*
G75*
G03*
X173796000Y-103886000I1838478J1838478D01*
G01*
X169357522Y-102047522D02*
G75*
G02*
X173796000Y-103886000I1838478J-1838478D01*
G01*
%TO.C,Q4*%
X169346000Y-108182000D02*
X169346000Y-111782000D01*
X169357522Y-111820478D02*
G75*
G03*
X173796000Y-109982000I1838478J1838478D01*
G01*
X169357522Y-108143522D02*
G75*
G02*
X173796000Y-109982000I1838478J-1838478D01*
G01*
%TO.C,Q3*%
X198860000Y-120976000D02*
X202460000Y-120976000D01*
X202498478Y-120964478D02*
G75*
G03*
X200660000Y-116526000I-1838478J1838478D01*
G01*
X198821522Y-120964478D02*
G75*
G02*
X200660000Y-116526000I1838478J1838478D01*
G01*
%TO.C,Q2*%
X198860000Y-114372000D02*
X202460000Y-114372000D01*
X202498478Y-114360478D02*
G75*
G03*
X200660000Y-109922000I-1838478J1838478D01*
G01*
X198821522Y-114360478D02*
G75*
G02*
X200660000Y-109922000I1838478J1838478D01*
G01*
%TO.C,Q1*%
X198860000Y-107260000D02*
X202460000Y-107260000D01*
X202498478Y-107248478D02*
G75*
G03*
X200660000Y-102810000I-1838478J1838478D01*
G01*
X198821522Y-107248478D02*
G75*
G02*
X200660000Y-102810000I1838478J1838478D01*
G01*
D11*
%TO.C,K4*%
X156883000Y-133564000D02*
X195883000Y-133564000D01*
X195883000Y-133564000D02*
X195883000Y-118564000D01*
X195883000Y-118564000D02*
X156883000Y-118564000D01*
X156883000Y-118564000D02*
X156883000Y-133564000D01*
X156458000Y-131064000D02*
X156458000Y-131064000D01*
X156358000Y-131064000D02*
X156358000Y-131064000D01*
X156458000Y-131064000D02*
G75*
G03*
X156358000Y-131064000I-50000J0D01*
G01*
X156358000Y-131064000D02*
G75*
G03*
X156458000Y-131064000I50000J0D01*
G01*
%TO.C,K3*%
X114973000Y-133564000D02*
X153973000Y-133564000D01*
X153973000Y-133564000D02*
X153973000Y-118564000D01*
X153973000Y-118564000D02*
X114973000Y-118564000D01*
X114973000Y-118564000D02*
X114973000Y-133564000D01*
X114548000Y-131064000D02*
X114548000Y-131064000D01*
X114448000Y-131064000D02*
X114448000Y-131064000D01*
X114548000Y-131064000D02*
G75*
G03*
X114448000Y-131064000I-50000J0D01*
G01*
X114448000Y-131064000D02*
G75*
G03*
X114548000Y-131064000I50000J0D01*
G01*
%TO.C,K2*%
X155516000Y-143096000D02*
X126716000Y-143096000D01*
X126716000Y-143096000D02*
X126716000Y-155896000D01*
X126716000Y-155896000D02*
X155516000Y-155896000D01*
X155516000Y-155896000D02*
X155516000Y-143096000D01*
D12*
X156316000Y-145796000D02*
X156316000Y-145796000D01*
X156316000Y-145696000D02*
X156316000Y-145696000D01*
X156316000Y-145796000D02*
X156316000Y-145796000D01*
X156316000Y-145696000D02*
G75*
G02*
X156316000Y-145796000I0J-50000D01*
G01*
X156316000Y-145796000D02*
G75*
G02*
X156316000Y-145696000I0J50000D01*
G01*
X156316000Y-145696000D02*
G75*
G02*
X156316000Y-145796000I0J-50000D01*
G01*
D10*
%TO.C,J5*%
X114875000Y-62290000D02*
X114875000Y-59690000D01*
X114875000Y-62290000D02*
X140395000Y-62290000D01*
X140395000Y-62290000D02*
X140395000Y-57090000D01*
X117475000Y-57090000D02*
X140395000Y-57090000D01*
X117475000Y-59690000D02*
X117475000Y-57090000D01*
X114875000Y-59690000D02*
X117475000Y-59690000D01*
X114875000Y-57090000D02*
X116205000Y-57090000D01*
X114875000Y-58420000D02*
X114875000Y-57090000D01*
%TO.C,J4*%
X179988000Y-62230000D02*
G75*
G03*
X179988000Y-62230000I-1680000J0D01*
G01*
X170628000Y-66330000D02*
X180908000Y-66330000D01*
X170628000Y-64830000D02*
X180908000Y-64830000D01*
X170628000Y-59929000D02*
X180908000Y-59929000D01*
X170628000Y-56969000D02*
X180908000Y-56969000D01*
X170628000Y-66890000D02*
X180908000Y-66890000D01*
X170628000Y-56969000D02*
X170628000Y-66890000D01*
X180908000Y-56969000D02*
X180908000Y-66890000D01*
X179583000Y-61161000D02*
X179536000Y-61207000D01*
X177274000Y-63469000D02*
X177239000Y-63504000D01*
X179378000Y-60955000D02*
X179343000Y-60991000D01*
X177081000Y-63253000D02*
X177034000Y-63299000D01*
X170388000Y-66390000D02*
X170388000Y-67130000D01*
X170388000Y-67130000D02*
X170888000Y-67130000D01*
X173256805Y-63910253D02*
G75*
G02*
X172544000Y-63765000I-28805J1680253D01*
G01*
X171692574Y-62913042D02*
G75*
G02*
X171693000Y-61546000I1535426J683042D01*
G01*
X172544958Y-60694574D02*
G75*
G02*
X173912000Y-60695000I683042J-1535426D01*
G01*
X174763426Y-61546958D02*
G75*
G02*
X174763000Y-62914000I-1535426J-683042D01*
G01*
X173911318Y-63764756D02*
G75*
G02*
X173228000Y-63910000I-683318J1534756D01*
G01*
%TO.C,J3*%
X115898000Y-146886000D02*
X118798000Y-146886000D01*
X115898000Y-149786000D02*
X115898000Y-146886000D01*
X118798000Y-149786000D02*
X115898000Y-149786000D01*
X118798000Y-146886000D02*
X118798000Y-149786000D01*
X115898000Y-154866000D02*
X118798000Y-154866000D01*
X118798000Y-151966000D02*
X115898000Y-151966000D01*
X118798000Y-154866000D02*
X118798000Y-151966000D01*
X115898000Y-151966000D02*
X115898000Y-154866000D01*
%TO.C,J2*%
X115898000Y-158570000D02*
X118798000Y-158570000D01*
X115898000Y-161470000D02*
X115898000Y-158570000D01*
X118798000Y-161470000D02*
X115898000Y-161470000D01*
X118798000Y-158570000D02*
X118798000Y-161470000D01*
X115898000Y-166550000D02*
X118798000Y-166550000D01*
X118798000Y-163650000D02*
X115898000Y-163650000D01*
X118798000Y-166550000D02*
X118798000Y-163650000D01*
X115898000Y-163650000D02*
X115898000Y-166550000D01*
D12*
%TO.C,K1*%
X162152000Y-155752000D02*
X162152000Y-155752000D01*
X161952000Y-155752000D02*
X161952000Y-155752000D01*
D11*
X160252000Y-155252000D02*
X160252000Y-142852000D01*
X189252000Y-155252000D02*
X160252000Y-155252000D01*
X189252000Y-142852000D02*
X189252000Y-155252000D01*
X160252000Y-142852000D02*
X189252000Y-142852000D01*
D12*
X162152000Y-155752000D02*
G75*
G03*
X161952000Y-155752000I-100000J0D01*
G01*
X161952000Y-155752000D02*
G75*
G03*
X162152000Y-155752000I100000J0D01*
G01*
D10*
%TO.C,J1*%
X157688000Y-67130000D02*
X158188000Y-67130000D01*
X157688000Y-66390000D02*
X157688000Y-67130000D01*
X164381000Y-63253000D02*
X164334000Y-63299000D01*
X166678000Y-60955000D02*
X166643000Y-60991000D01*
X164574000Y-63469000D02*
X164539000Y-63504000D01*
X166883000Y-61161000D02*
X166836000Y-61207000D01*
X168208000Y-56969000D02*
X168208000Y-66890000D01*
X157928000Y-56969000D02*
X157928000Y-66890000D01*
X157928000Y-66890000D02*
X168208000Y-66890000D01*
X157928000Y-56969000D02*
X168208000Y-56969000D01*
X157928000Y-59929000D02*
X168208000Y-59929000D01*
X157928000Y-64830000D02*
X168208000Y-64830000D01*
X157928000Y-66330000D02*
X168208000Y-66330000D01*
X167288000Y-62230000D02*
G75*
G03*
X167288000Y-62230000I-1680000J0D01*
G01*
X161211318Y-63764756D02*
G75*
G02*
X160528000Y-63910000I-683318J1534756D01*
G01*
X162063426Y-61546958D02*
G75*
G02*
X162063000Y-62914000I-1535426J-683042D01*
G01*
X159844958Y-60694574D02*
G75*
G02*
X161212000Y-60695000I683042J-1535426D01*
G01*
X158992574Y-62913042D02*
G75*
G02*
X158993000Y-61546000I1535426J683042D01*
G01*
X160556805Y-63910253D02*
G75*
G02*
X159844000Y-63765000I-28805J1680253D01*
G01*
%TO.C,J6*%
X144480000Y-67130000D02*
X144980000Y-67130000D01*
X144480000Y-66390000D02*
X144480000Y-67130000D01*
X151173000Y-63253000D02*
X151126000Y-63299000D01*
X153470000Y-60955000D02*
X153435000Y-60991000D01*
X151366000Y-63469000D02*
X151331000Y-63504000D01*
X153675000Y-61161000D02*
X153628000Y-61207000D01*
X155000000Y-56969000D02*
X155000000Y-66890000D01*
X144720000Y-56969000D02*
X144720000Y-66890000D01*
X144720000Y-66890000D02*
X155000000Y-66890000D01*
X144720000Y-56969000D02*
X155000000Y-56969000D01*
X144720000Y-59929000D02*
X155000000Y-59929000D01*
X144720000Y-64830000D02*
X155000000Y-64830000D01*
X144720000Y-66330000D02*
X155000000Y-66330000D01*
X154080000Y-62230000D02*
G75*
G03*
X154080000Y-62230000I-1680000J0D01*
G01*
X148003318Y-63764756D02*
G75*
G02*
X147320000Y-63910000I-683318J1534756D01*
G01*
X148855426Y-61546958D02*
G75*
G02*
X148855000Y-62914000I-1535426J-683042D01*
G01*
X146636958Y-60694574D02*
G75*
G02*
X148004000Y-60695000I683042J-1535426D01*
G01*
X145784574Y-62913042D02*
G75*
G02*
X145785000Y-61546000I1535426J683042D01*
G01*
X147348805Y-63910253D02*
G75*
G02*
X146636000Y-63765000I-28805J1680253D01*
G01*
%TO.C,J7*%
X184090000Y-58420000D02*
X184090000Y-57090000D01*
X184090000Y-57090000D02*
X185420000Y-57090000D01*
X184090000Y-59690000D02*
X186690000Y-59690000D01*
X186690000Y-59690000D02*
X186690000Y-57090000D01*
X186690000Y-57090000D02*
X209610000Y-57090000D01*
X209610000Y-62290000D02*
X209610000Y-57090000D01*
X184090000Y-62290000D02*
X209610000Y-62290000D01*
X184090000Y-62290000D02*
X184090000Y-59690000D01*
%TO.C,C1*%
X156485000Y-160175000D02*
X164225000Y-160175000D01*
X156485000Y-162915000D02*
X164225000Y-162915000D01*
X156485000Y-160175000D02*
X156485000Y-162915000D01*
X164225000Y-160175000D02*
X164225000Y-162915000D01*
%TO.C,C2*%
X175280000Y-159920000D02*
X175280000Y-162660000D01*
X167540000Y-159920000D02*
X167540000Y-162660000D01*
X167540000Y-162660000D02*
X175280000Y-162660000D01*
X167540000Y-159920000D02*
X175280000Y-159920000D01*
%TO.C,L1*%
X152400000Y-163830000D02*
G75*
G03*
X152400000Y-163830000I-5120000J0D01*
G01*
%TO.C,U1*%
D13*
X142962380Y-95249904D02*
X143771904Y-95249904D01*
X143867142Y-95202285D01*
X143914761Y-95154666D01*
X143962380Y-95059428D01*
X143962380Y-94868952D01*
X143914761Y-94773714D01*
X143867142Y-94726095D01*
X143771904Y-94678476D01*
X142962380Y-94678476D01*
X143962380Y-93678476D02*
X143962380Y-94249904D01*
X143962380Y-93964190D02*
X142962380Y-93964190D01*
X143105238Y-94059428D01*
X143200476Y-94154666D01*
X143248095Y-94249904D01*
%TO.C,R13*%
X183507142Y-110518380D02*
X183173809Y-110042190D01*
X182935714Y-110518380D02*
X182935714Y-109518380D01*
X183316666Y-109518380D01*
X183411904Y-109566000D01*
X183459523Y-109613619D01*
X183507142Y-109708857D01*
X183507142Y-109851714D01*
X183459523Y-109946952D01*
X183411904Y-109994571D01*
X183316666Y-110042190D01*
X182935714Y-110042190D01*
X184459523Y-110518380D02*
X183888095Y-110518380D01*
X184173809Y-110518380D02*
X184173809Y-109518380D01*
X184078571Y-109661238D01*
X183983333Y-109756476D01*
X183888095Y-109804095D01*
X184792857Y-109518380D02*
X185411904Y-109518380D01*
X185078571Y-109899333D01*
X185221428Y-109899333D01*
X185316666Y-109946952D01*
X185364285Y-109994571D01*
X185411904Y-110089809D01*
X185411904Y-110327904D01*
X185364285Y-110423142D01*
X185316666Y-110470761D01*
X185221428Y-110518380D01*
X184935714Y-110518380D01*
X184840476Y-110470761D01*
X184792857Y-110423142D01*
%TO.C,R12*%
X183507142Y-104930380D02*
X183173809Y-104454190D01*
X182935714Y-104930380D02*
X182935714Y-103930380D01*
X183316666Y-103930380D01*
X183411904Y-103978000D01*
X183459523Y-104025619D01*
X183507142Y-104120857D01*
X183507142Y-104263714D01*
X183459523Y-104358952D01*
X183411904Y-104406571D01*
X183316666Y-104454190D01*
X182935714Y-104454190D01*
X184459523Y-104930380D02*
X183888095Y-104930380D01*
X184173809Y-104930380D02*
X184173809Y-103930380D01*
X184078571Y-104073238D01*
X183983333Y-104168476D01*
X183888095Y-104216095D01*
X184840476Y-104025619D02*
X184888095Y-103978000D01*
X184983333Y-103930380D01*
X185221428Y-103930380D01*
X185316666Y-103978000D01*
X185364285Y-104025619D01*
X185411904Y-104120857D01*
X185411904Y-104216095D01*
X185364285Y-104358952D01*
X184792857Y-104930380D01*
X185411904Y-104930380D01*
%TO.C,R11*%
X183507142Y-98834380D02*
X183173809Y-98358190D01*
X182935714Y-98834380D02*
X182935714Y-97834380D01*
X183316666Y-97834380D01*
X183411904Y-97882000D01*
X183459523Y-97929619D01*
X183507142Y-98024857D01*
X183507142Y-98167714D01*
X183459523Y-98262952D01*
X183411904Y-98310571D01*
X183316666Y-98358190D01*
X182935714Y-98358190D01*
X184459523Y-98834380D02*
X183888095Y-98834380D01*
X184173809Y-98834380D02*
X184173809Y-97834380D01*
X184078571Y-97977238D01*
X183983333Y-98072476D01*
X183888095Y-98120095D01*
X185411904Y-98834380D02*
X184840476Y-98834380D01*
X185126190Y-98834380D02*
X185126190Y-97834380D01*
X185030952Y-97977238D01*
X184935714Y-98072476D01*
X184840476Y-98120095D01*
%TO.C,R10*%
X197477142Y-76822380D02*
X197143809Y-76346190D01*
X196905714Y-76822380D02*
X196905714Y-75822380D01*
X197286666Y-75822380D01*
X197381904Y-75870000D01*
X197429523Y-75917619D01*
X197477142Y-76012857D01*
X197477142Y-76155714D01*
X197429523Y-76250952D01*
X197381904Y-76298571D01*
X197286666Y-76346190D01*
X196905714Y-76346190D01*
X198429523Y-76822380D02*
X197858095Y-76822380D01*
X198143809Y-76822380D02*
X198143809Y-75822380D01*
X198048571Y-75965238D01*
X197953333Y-76060476D01*
X197858095Y-76108095D01*
X199048571Y-75822380D02*
X199143809Y-75822380D01*
X199239047Y-75870000D01*
X199286666Y-75917619D01*
X199334285Y-76012857D01*
X199381904Y-76203333D01*
X199381904Y-76441428D01*
X199334285Y-76631904D01*
X199286666Y-76727142D01*
X199239047Y-76774761D01*
X199143809Y-76822380D01*
X199048571Y-76822380D01*
X198953333Y-76774761D01*
X198905714Y-76727142D01*
X198858095Y-76631904D01*
X198810476Y-76441428D01*
X198810476Y-76203333D01*
X198858095Y-76012857D01*
X198905714Y-75917619D01*
X198953333Y-75870000D01*
X199048571Y-75822380D01*
%TO.C,R9*%
X197951333Y-97364380D02*
X197618000Y-96888190D01*
X197379904Y-97364380D02*
X197379904Y-96364380D01*
X197760857Y-96364380D01*
X197856095Y-96412000D01*
X197903714Y-96459619D01*
X197951333Y-96554857D01*
X197951333Y-96697714D01*
X197903714Y-96792952D01*
X197856095Y-96840571D01*
X197760857Y-96888190D01*
X197379904Y-96888190D01*
X198427523Y-97364380D02*
X198618000Y-97364380D01*
X198713238Y-97316761D01*
X198760857Y-97269142D01*
X198856095Y-97126285D01*
X198903714Y-96935809D01*
X198903714Y-96554857D01*
X198856095Y-96459619D01*
X198808476Y-96412000D01*
X198713238Y-96364380D01*
X198522761Y-96364380D01*
X198427523Y-96412000D01*
X198379904Y-96459619D01*
X198332285Y-96554857D01*
X198332285Y-96792952D01*
X198379904Y-96888190D01*
X198427523Y-96935809D01*
X198522761Y-96983428D01*
X198713238Y-96983428D01*
X198808476Y-96935809D01*
X198856095Y-96888190D01*
X198903714Y-96792952D01*
%TO.C,R8*%
X197951333Y-93314380D02*
X197618000Y-92838190D01*
X197379904Y-93314380D02*
X197379904Y-92314380D01*
X197760857Y-92314380D01*
X197856095Y-92362000D01*
X197903714Y-92409619D01*
X197951333Y-92504857D01*
X197951333Y-92647714D01*
X197903714Y-92742952D01*
X197856095Y-92790571D01*
X197760857Y-92838190D01*
X197379904Y-92838190D01*
X198522761Y-92742952D02*
X198427523Y-92695333D01*
X198379904Y-92647714D01*
X198332285Y-92552476D01*
X198332285Y-92504857D01*
X198379904Y-92409619D01*
X198427523Y-92362000D01*
X198522761Y-92314380D01*
X198713238Y-92314380D01*
X198808476Y-92362000D01*
X198856095Y-92409619D01*
X198903714Y-92504857D01*
X198903714Y-92552476D01*
X198856095Y-92647714D01*
X198808476Y-92695333D01*
X198713238Y-92742952D01*
X198522761Y-92742952D01*
X198427523Y-92790571D01*
X198379904Y-92838190D01*
X198332285Y-92933428D01*
X198332285Y-93123904D01*
X198379904Y-93219142D01*
X198427523Y-93266761D01*
X198522761Y-93314380D01*
X198713238Y-93314380D01*
X198808476Y-93266761D01*
X198856095Y-93219142D01*
X198903714Y-93123904D01*
X198903714Y-92933428D01*
X198856095Y-92838190D01*
X198808476Y-92790571D01*
X198713238Y-92742952D01*
%TO.C,R7*%
X197953333Y-89522380D02*
X197620000Y-89046190D01*
X197381904Y-89522380D02*
X197381904Y-88522380D01*
X197762857Y-88522380D01*
X197858095Y-88570000D01*
X197905714Y-88617619D01*
X197953333Y-88712857D01*
X197953333Y-88855714D01*
X197905714Y-88950952D01*
X197858095Y-88998571D01*
X197762857Y-89046190D01*
X197381904Y-89046190D01*
X198286666Y-88522380D02*
X198953333Y-88522380D01*
X198524761Y-89522380D01*
%TO.C,R6*%
X197659333Y-84708380D02*
X197326000Y-84232190D01*
X197087904Y-84708380D02*
X197087904Y-83708380D01*
X197468857Y-83708380D01*
X197564095Y-83756000D01*
X197611714Y-83803619D01*
X197659333Y-83898857D01*
X197659333Y-84041714D01*
X197611714Y-84136952D01*
X197564095Y-84184571D01*
X197468857Y-84232190D01*
X197087904Y-84232190D01*
X198516476Y-83708380D02*
X198326000Y-83708380D01*
X198230761Y-83756000D01*
X198183142Y-83803619D01*
X198087904Y-83946476D01*
X198040285Y-84136952D01*
X198040285Y-84517904D01*
X198087904Y-84613142D01*
X198135523Y-84660761D01*
X198230761Y-84708380D01*
X198421238Y-84708380D01*
X198516476Y-84660761D01*
X198564095Y-84613142D01*
X198611714Y-84517904D01*
X198611714Y-84279809D01*
X198564095Y-84184571D01*
X198516476Y-84136952D01*
X198421238Y-84089333D01*
X198230761Y-84089333D01*
X198135523Y-84136952D01*
X198087904Y-84184571D01*
X198040285Y-84279809D01*
%TO.C,R5*%
X197659333Y-80658380D02*
X197326000Y-80182190D01*
X197087904Y-80658380D02*
X197087904Y-79658380D01*
X197468857Y-79658380D01*
X197564095Y-79706000D01*
X197611714Y-79753619D01*
X197659333Y-79848857D01*
X197659333Y-79991714D01*
X197611714Y-80086952D01*
X197564095Y-80134571D01*
X197468857Y-80182190D01*
X197087904Y-80182190D01*
X198564095Y-79658380D02*
X198087904Y-79658380D01*
X198040285Y-80134571D01*
X198087904Y-80086952D01*
X198183142Y-80039333D01*
X198421238Y-80039333D01*
X198516476Y-80086952D01*
X198564095Y-80134571D01*
X198611714Y-80229809D01*
X198611714Y-80467904D01*
X198564095Y-80563142D01*
X198516476Y-80610761D01*
X198421238Y-80658380D01*
X198183142Y-80658380D01*
X198087904Y-80610761D01*
X198040285Y-80563142D01*
%TO.C,R4*%
X183729333Y-80886380D02*
X183396000Y-80410190D01*
X183157904Y-80886380D02*
X183157904Y-79886380D01*
X183538857Y-79886380D01*
X183634095Y-79934000D01*
X183681714Y-79981619D01*
X183729333Y-80076857D01*
X183729333Y-80219714D01*
X183681714Y-80314952D01*
X183634095Y-80362571D01*
X183538857Y-80410190D01*
X183157904Y-80410190D01*
X184586476Y-80219714D02*
X184586476Y-80886380D01*
X184348380Y-79838761D02*
X184110285Y-80553047D01*
X184729333Y-80553047D01*
%TO.C,R3*%
X183729333Y-94262380D02*
X183396000Y-93786190D01*
X183157904Y-94262380D02*
X183157904Y-93262380D01*
X183538857Y-93262380D01*
X183634095Y-93310000D01*
X183681714Y-93357619D01*
X183729333Y-93452857D01*
X183729333Y-93595714D01*
X183681714Y-93690952D01*
X183634095Y-93738571D01*
X183538857Y-93786190D01*
X183157904Y-93786190D01*
X184062666Y-93262380D02*
X184681714Y-93262380D01*
X184348380Y-93643333D01*
X184491238Y-93643333D01*
X184586476Y-93690952D01*
X184634095Y-93738571D01*
X184681714Y-93833809D01*
X184681714Y-94071904D01*
X184634095Y-94167142D01*
X184586476Y-94214761D01*
X184491238Y-94262380D01*
X184205523Y-94262380D01*
X184110285Y-94214761D01*
X184062666Y-94167142D01*
%TO.C,R2*%
X183729333Y-81054380D02*
X183396000Y-80578190D01*
X183157904Y-81054380D02*
X183157904Y-80054380D01*
X183538857Y-80054380D01*
X183634095Y-80102000D01*
X183681714Y-80149619D01*
X183729333Y-80244857D01*
X183729333Y-80387714D01*
X183681714Y-80482952D01*
X183634095Y-80530571D01*
X183538857Y-80578190D01*
X183157904Y-80578190D01*
X184110285Y-80149619D02*
X184157904Y-80102000D01*
X184253142Y-80054380D01*
X184491238Y-80054380D01*
X184586476Y-80102000D01*
X184634095Y-80149619D01*
X184681714Y-80244857D01*
X184681714Y-80340095D01*
X184634095Y-80482952D01*
X184062666Y-81054380D01*
X184681714Y-81054380D01*
%TO.C,R1*%
X183729333Y-85458380D02*
X183396000Y-84982190D01*
X183157904Y-85458380D02*
X183157904Y-84458380D01*
X183538857Y-84458380D01*
X183634095Y-84506000D01*
X183681714Y-84553619D01*
X183729333Y-84648857D01*
X183729333Y-84791714D01*
X183681714Y-84886952D01*
X183634095Y-84934571D01*
X183538857Y-84982190D01*
X183157904Y-84982190D01*
X184681714Y-85458380D02*
X184110285Y-85458380D01*
X184396000Y-85458380D02*
X184396000Y-84458380D01*
X184300761Y-84601238D01*
X184205523Y-84696476D01*
X184110285Y-84744095D01*
%TO.C,Q9*%
X175303619Y-88233238D02*
X175256000Y-88328476D01*
X175160761Y-88423714D01*
X175017904Y-88566571D01*
X174970285Y-88661809D01*
X174970285Y-88757047D01*
X175208380Y-88709428D02*
X175160761Y-88804666D01*
X175065523Y-88899904D01*
X174875047Y-88947523D01*
X174541714Y-88947523D01*
X174351238Y-88899904D01*
X174256000Y-88804666D01*
X174208380Y-88709428D01*
X174208380Y-88518952D01*
X174256000Y-88423714D01*
X174351238Y-88328476D01*
X174541714Y-88280857D01*
X174875047Y-88280857D01*
X175065523Y-88328476D01*
X175160761Y-88423714D01*
X175208380Y-88518952D01*
X175208380Y-88709428D01*
X175208380Y-87804666D02*
X175208380Y-87614190D01*
X175160761Y-87518952D01*
X175113142Y-87471333D01*
X174970285Y-87376095D01*
X174779809Y-87328476D01*
X174398857Y-87328476D01*
X174303619Y-87376095D01*
X174256000Y-87423714D01*
X174208380Y-87518952D01*
X174208380Y-87709428D01*
X174256000Y-87804666D01*
X174303619Y-87852285D01*
X174398857Y-87899904D01*
X174636952Y-87899904D01*
X174732190Y-87852285D01*
X174779809Y-87804666D01*
X174827428Y-87709428D01*
X174827428Y-87518952D01*
X174779809Y-87423714D01*
X174732190Y-87376095D01*
X174636952Y-87328476D01*
%TO.C,Q8*%
X175303619Y-82137238D02*
X175256000Y-82232476D01*
X175160761Y-82327714D01*
X175017904Y-82470571D01*
X174970285Y-82565809D01*
X174970285Y-82661047D01*
X175208380Y-82613428D02*
X175160761Y-82708666D01*
X175065523Y-82803904D01*
X174875047Y-82851523D01*
X174541714Y-82851523D01*
X174351238Y-82803904D01*
X174256000Y-82708666D01*
X174208380Y-82613428D01*
X174208380Y-82422952D01*
X174256000Y-82327714D01*
X174351238Y-82232476D01*
X174541714Y-82184857D01*
X174875047Y-82184857D01*
X175065523Y-82232476D01*
X175160761Y-82327714D01*
X175208380Y-82422952D01*
X175208380Y-82613428D01*
X174636952Y-81613428D02*
X174589333Y-81708666D01*
X174541714Y-81756285D01*
X174446476Y-81803904D01*
X174398857Y-81803904D01*
X174303619Y-81756285D01*
X174256000Y-81708666D01*
X174208380Y-81613428D01*
X174208380Y-81422952D01*
X174256000Y-81327714D01*
X174303619Y-81280095D01*
X174398857Y-81232476D01*
X174446476Y-81232476D01*
X174541714Y-81280095D01*
X174589333Y-81327714D01*
X174636952Y-81422952D01*
X174636952Y-81613428D01*
X174684571Y-81708666D01*
X174732190Y-81756285D01*
X174827428Y-81803904D01*
X175017904Y-81803904D01*
X175113142Y-81756285D01*
X175160761Y-81708666D01*
X175208380Y-81613428D01*
X175208380Y-81422952D01*
X175160761Y-81327714D01*
X175113142Y-81280095D01*
X175017904Y-81232476D01*
X174827428Y-81232476D01*
X174732190Y-81280095D01*
X174684571Y-81327714D01*
X174636952Y-81422952D01*
%TO.C,Q7*%
X175176619Y-76295238D02*
X175129000Y-76390476D01*
X175033761Y-76485714D01*
X174890904Y-76628571D01*
X174843285Y-76723809D01*
X174843285Y-76819047D01*
X175081380Y-76771428D02*
X175033761Y-76866666D01*
X174938523Y-76961904D01*
X174748047Y-77009523D01*
X174414714Y-77009523D01*
X174224238Y-76961904D01*
X174129000Y-76866666D01*
X174081380Y-76771428D01*
X174081380Y-76580952D01*
X174129000Y-76485714D01*
X174224238Y-76390476D01*
X174414714Y-76342857D01*
X174748047Y-76342857D01*
X174938523Y-76390476D01*
X175033761Y-76485714D01*
X175081380Y-76580952D01*
X175081380Y-76771428D01*
X174081380Y-76009523D02*
X174081380Y-75342857D01*
X175081380Y-75771428D01*
%TO.C,Q6*%
X175303619Y-97885238D02*
X175256000Y-97980476D01*
X175160761Y-98075714D01*
X175017904Y-98218571D01*
X174970285Y-98313809D01*
X174970285Y-98409047D01*
X175208380Y-98361428D02*
X175160761Y-98456666D01*
X175065523Y-98551904D01*
X174875047Y-98599523D01*
X174541714Y-98599523D01*
X174351238Y-98551904D01*
X174256000Y-98456666D01*
X174208380Y-98361428D01*
X174208380Y-98170952D01*
X174256000Y-98075714D01*
X174351238Y-97980476D01*
X174541714Y-97932857D01*
X174875047Y-97932857D01*
X175065523Y-97980476D01*
X175160761Y-98075714D01*
X175208380Y-98170952D01*
X175208380Y-98361428D01*
X174208380Y-97075714D02*
X174208380Y-97266190D01*
X174256000Y-97361428D01*
X174303619Y-97409047D01*
X174446476Y-97504285D01*
X174636952Y-97551904D01*
X175017904Y-97551904D01*
X175113142Y-97504285D01*
X175160761Y-97456666D01*
X175208380Y-97361428D01*
X175208380Y-97170952D01*
X175160761Y-97075714D01*
X175113142Y-97028095D01*
X175017904Y-96980476D01*
X174779809Y-96980476D01*
X174684571Y-97028095D01*
X174636952Y-97075714D01*
X174589333Y-97170952D01*
X174589333Y-97361428D01*
X174636952Y-97456666D01*
X174684571Y-97504285D01*
X174779809Y-97551904D01*
%TO.C,Q5*%
X175303619Y-103981238D02*
X175256000Y-104076476D01*
X175160761Y-104171714D01*
X175017904Y-104314571D01*
X174970285Y-104409809D01*
X174970285Y-104505047D01*
X175208380Y-104457428D02*
X175160761Y-104552666D01*
X175065523Y-104647904D01*
X174875047Y-104695523D01*
X174541714Y-104695523D01*
X174351238Y-104647904D01*
X174256000Y-104552666D01*
X174208380Y-104457428D01*
X174208380Y-104266952D01*
X174256000Y-104171714D01*
X174351238Y-104076476D01*
X174541714Y-104028857D01*
X174875047Y-104028857D01*
X175065523Y-104076476D01*
X175160761Y-104171714D01*
X175208380Y-104266952D01*
X175208380Y-104457428D01*
X174208380Y-103124095D02*
X174208380Y-103600285D01*
X174684571Y-103647904D01*
X174636952Y-103600285D01*
X174589333Y-103505047D01*
X174589333Y-103266952D01*
X174636952Y-103171714D01*
X174684571Y-103124095D01*
X174779809Y-103076476D01*
X175017904Y-103076476D01*
X175113142Y-103124095D01*
X175160761Y-103171714D01*
X175208380Y-103266952D01*
X175208380Y-103505047D01*
X175160761Y-103600285D01*
X175113142Y-103647904D01*
%TO.C,Q4*%
X175303619Y-110077238D02*
X175256000Y-110172476D01*
X175160761Y-110267714D01*
X175017904Y-110410571D01*
X174970285Y-110505809D01*
X174970285Y-110601047D01*
X175208380Y-110553428D02*
X175160761Y-110648666D01*
X175065523Y-110743904D01*
X174875047Y-110791523D01*
X174541714Y-110791523D01*
X174351238Y-110743904D01*
X174256000Y-110648666D01*
X174208380Y-110553428D01*
X174208380Y-110362952D01*
X174256000Y-110267714D01*
X174351238Y-110172476D01*
X174541714Y-110124857D01*
X174875047Y-110124857D01*
X175065523Y-110172476D01*
X175160761Y-110267714D01*
X175208380Y-110362952D01*
X175208380Y-110553428D01*
X174541714Y-109267714D02*
X175208380Y-109267714D01*
X174160761Y-109505809D02*
X174875047Y-109743904D01*
X174875047Y-109124857D01*
%TO.C,Q3*%
X200564761Y-116113619D02*
X200469523Y-116066000D01*
X200374285Y-115970761D01*
X200231428Y-115827904D01*
X200136190Y-115780285D01*
X200040952Y-115780285D01*
X200088571Y-116018380D02*
X199993333Y-115970761D01*
X199898095Y-115875523D01*
X199850476Y-115685047D01*
X199850476Y-115351714D01*
X199898095Y-115161238D01*
X199993333Y-115066000D01*
X200088571Y-115018380D01*
X200279047Y-115018380D01*
X200374285Y-115066000D01*
X200469523Y-115161238D01*
X200517142Y-115351714D01*
X200517142Y-115685047D01*
X200469523Y-115875523D01*
X200374285Y-115970761D01*
X200279047Y-116018380D01*
X200088571Y-116018380D01*
X200850476Y-115018380D02*
X201469523Y-115018380D01*
X201136190Y-115399333D01*
X201279047Y-115399333D01*
X201374285Y-115446952D01*
X201421904Y-115494571D01*
X201469523Y-115589809D01*
X201469523Y-115827904D01*
X201421904Y-115923142D01*
X201374285Y-115970761D01*
X201279047Y-116018380D01*
X200993333Y-116018380D01*
X200898095Y-115970761D01*
X200850476Y-115923142D01*
%TO.C,Q2*%
X200564761Y-109509619D02*
X200469523Y-109462000D01*
X200374285Y-109366761D01*
X200231428Y-109223904D01*
X200136190Y-109176285D01*
X200040952Y-109176285D01*
X200088571Y-109414380D02*
X199993333Y-109366761D01*
X199898095Y-109271523D01*
X199850476Y-109081047D01*
X199850476Y-108747714D01*
X199898095Y-108557238D01*
X199993333Y-108462000D01*
X200088571Y-108414380D01*
X200279047Y-108414380D01*
X200374285Y-108462000D01*
X200469523Y-108557238D01*
X200517142Y-108747714D01*
X200517142Y-109081047D01*
X200469523Y-109271523D01*
X200374285Y-109366761D01*
X200279047Y-109414380D01*
X200088571Y-109414380D01*
X200898095Y-108509619D02*
X200945714Y-108462000D01*
X201040952Y-108414380D01*
X201279047Y-108414380D01*
X201374285Y-108462000D01*
X201421904Y-108509619D01*
X201469523Y-108604857D01*
X201469523Y-108700095D01*
X201421904Y-108842952D01*
X200850476Y-109414380D01*
X201469523Y-109414380D01*
%TO.C,Q1*%
X200564761Y-102397619D02*
X200469523Y-102350000D01*
X200374285Y-102254761D01*
X200231428Y-102111904D01*
X200136190Y-102064285D01*
X200040952Y-102064285D01*
X200088571Y-102302380D02*
X199993333Y-102254761D01*
X199898095Y-102159523D01*
X199850476Y-101969047D01*
X199850476Y-101635714D01*
X199898095Y-101445238D01*
X199993333Y-101350000D01*
X200088571Y-101302380D01*
X200279047Y-101302380D01*
X200374285Y-101350000D01*
X200469523Y-101445238D01*
X200517142Y-101635714D01*
X200517142Y-101969047D01*
X200469523Y-102159523D01*
X200374285Y-102254761D01*
X200279047Y-102302380D01*
X200088571Y-102302380D01*
X201469523Y-102302380D02*
X200898095Y-102302380D01*
X201183809Y-102302380D02*
X201183809Y-101302380D01*
X201088571Y-101445238D01*
X200993333Y-101540476D01*
X200898095Y-101588095D01*
%TO.C,K4*%
D14*
X175182619Y-126638523D02*
X175182619Y-125368523D01*
X175908333Y-126638523D02*
X175364047Y-125912809D01*
X175908333Y-125368523D02*
X175182619Y-126094238D01*
X176996904Y-125791857D02*
X176996904Y-126638523D01*
X176694523Y-125308047D02*
X176392142Y-126215190D01*
X177178333Y-126215190D01*
%TO.C,K3*%
X133272619Y-126638523D02*
X133272619Y-125368523D01*
X133998333Y-126638523D02*
X133454047Y-125912809D01*
X133998333Y-125368523D02*
X133272619Y-126094238D01*
X134421666Y-125368523D02*
X135207857Y-125368523D01*
X134784523Y-125852333D01*
X134965952Y-125852333D01*
X135086904Y-125912809D01*
X135147380Y-125973285D01*
X135207857Y-126094238D01*
X135207857Y-126396619D01*
X135147380Y-126517571D01*
X135086904Y-126578047D01*
X134965952Y-126638523D01*
X134603095Y-126638523D01*
X134482142Y-126578047D01*
X134421666Y-126517571D01*
%TO.C,K2*%
X140603619Y-150070523D02*
X140603619Y-148800523D01*
X141329333Y-150070523D02*
X140785047Y-149344809D01*
X141329333Y-148800523D02*
X140603619Y-149526238D01*
X141813142Y-148921476D02*
X141873619Y-148861000D01*
X141994571Y-148800523D01*
X142296952Y-148800523D01*
X142417904Y-148861000D01*
X142478380Y-148921476D01*
X142538857Y-149042428D01*
X142538857Y-149163380D01*
X142478380Y-149344809D01*
X141752666Y-150070523D01*
X142538857Y-150070523D01*
%TO.C,J5*%
D13*
X112887380Y-60023333D02*
X113601666Y-60023333D01*
X113744523Y-60070952D01*
X113839761Y-60166190D01*
X113887380Y-60309047D01*
X113887380Y-60404285D01*
X112887380Y-59070952D02*
X112887380Y-59547142D01*
X113363571Y-59594761D01*
X113315952Y-59547142D01*
X113268333Y-59451904D01*
X113268333Y-59213809D01*
X113315952Y-59118571D01*
X113363571Y-59070952D01*
X113458809Y-59023333D01*
X113696904Y-59023333D01*
X113792142Y-59070952D01*
X113839761Y-59118571D01*
X113887380Y-59213809D01*
X113887380Y-59451904D01*
X113839761Y-59547142D01*
X113792142Y-59594761D01*
%TO.C,J4*%
X175434666Y-55422380D02*
X175434666Y-56136666D01*
X175387047Y-56279523D01*
X175291809Y-56374761D01*
X175148952Y-56422380D01*
X175053714Y-56422380D01*
X176339428Y-55755714D02*
X176339428Y-56422380D01*
X176101333Y-55374761D02*
X175863238Y-56089047D01*
X176482285Y-56089047D01*
%TO.C,J3*%
X122515380Y-151209333D02*
X123229666Y-151209333D01*
X123372523Y-151256952D01*
X123467761Y-151352190D01*
X123515380Y-151495047D01*
X123515380Y-151590285D01*
X122515380Y-150828380D02*
X122515380Y-150209333D01*
X122896333Y-150542666D01*
X122896333Y-150399809D01*
X122943952Y-150304571D01*
X122991571Y-150256952D01*
X123086809Y-150209333D01*
X123324904Y-150209333D01*
X123420142Y-150256952D01*
X123467761Y-150304571D01*
X123515380Y-150399809D01*
X123515380Y-150685523D01*
X123467761Y-150780761D01*
X123420142Y-150828380D01*
%TO.C,J2*%
X122515380Y-162893333D02*
X123229666Y-162893333D01*
X123372523Y-162940952D01*
X123467761Y-163036190D01*
X123515380Y-163179047D01*
X123515380Y-163274285D01*
X122610619Y-162464761D02*
X122563000Y-162417142D01*
X122515380Y-162321904D01*
X122515380Y-162083809D01*
X122563000Y-161988571D01*
X122610619Y-161940952D01*
X122705857Y-161893333D01*
X122801095Y-161893333D01*
X122943952Y-161940952D01*
X123515380Y-162512380D01*
X123515380Y-161893333D01*
%TO.C,K1*%
D14*
X173814619Y-149926523D02*
X173814619Y-148656523D01*
X174540333Y-149926523D02*
X173996047Y-149200809D01*
X174540333Y-148656523D02*
X173814619Y-149382238D01*
X175749857Y-149926523D02*
X175024142Y-149926523D01*
X175387000Y-149926523D02*
X175387000Y-148656523D01*
X175266047Y-148837952D01*
X175145095Y-148958904D01*
X175024142Y-149019380D01*
%TO.C,J1*%
D13*
X162734666Y-55422380D02*
X162734666Y-56136666D01*
X162687047Y-56279523D01*
X162591809Y-56374761D01*
X162448952Y-56422380D01*
X162353714Y-56422380D01*
X163734666Y-56422380D02*
X163163238Y-56422380D01*
X163448952Y-56422380D02*
X163448952Y-55422380D01*
X163353714Y-55565238D01*
X163258476Y-55660476D01*
X163163238Y-55708095D01*
%TO.C,J6*%
X149526666Y-55422380D02*
X149526666Y-56136666D01*
X149479047Y-56279523D01*
X149383809Y-56374761D01*
X149240952Y-56422380D01*
X149145714Y-56422380D01*
X150431428Y-55422380D02*
X150240952Y-55422380D01*
X150145714Y-55470000D01*
X150098095Y-55517619D01*
X150002857Y-55660476D01*
X149955238Y-55850952D01*
X149955238Y-56231904D01*
X150002857Y-56327142D01*
X150050476Y-56374761D01*
X150145714Y-56422380D01*
X150336190Y-56422380D01*
X150431428Y-56374761D01*
X150479047Y-56327142D01*
X150526666Y-56231904D01*
X150526666Y-55993809D01*
X150479047Y-55898571D01*
X150431428Y-55850952D01*
X150336190Y-55803333D01*
X150145714Y-55803333D01*
X150050476Y-55850952D01*
X150002857Y-55898571D01*
X149955238Y-55993809D01*
%TO.C,J7*%
X182102380Y-60023333D02*
X182816666Y-60023333D01*
X182959523Y-60070952D01*
X183054761Y-60166190D01*
X183102380Y-60309047D01*
X183102380Y-60404285D01*
X182102380Y-59642380D02*
X182102380Y-58975714D01*
X183102380Y-59404285D01*
%TO.C,H1*%
X114808095Y-63912380D02*
X114808095Y-62912380D01*
X114808095Y-63388571D02*
X115379523Y-63388571D01*
X115379523Y-63912380D02*
X115379523Y-62912380D01*
X116379523Y-63912380D02*
X115808095Y-63912380D01*
X116093809Y-63912380D02*
X116093809Y-62912380D01*
X115998571Y-63055238D01*
X115903333Y-63150476D01*
X115808095Y-63198095D01*
%TO.C,H2*%
X196673095Y-67937380D02*
X196673095Y-66937380D01*
X196673095Y-67413571D02*
X197244523Y-67413571D01*
X197244523Y-67937380D02*
X197244523Y-66937380D01*
X197673095Y-67032619D02*
X197720714Y-66985000D01*
X197815952Y-66937380D01*
X198054047Y-66937380D01*
X198149285Y-66985000D01*
X198196904Y-67032619D01*
X198244523Y-67127857D01*
X198244523Y-67223095D01*
X198196904Y-67365952D01*
X197625476Y-67937380D01*
X198244523Y-67937380D01*
%TO.C,H3*%
X128778095Y-159162380D02*
X128778095Y-158162380D01*
X128778095Y-158638571D02*
X129349523Y-158638571D01*
X129349523Y-159162380D02*
X129349523Y-158162380D01*
X129730476Y-158162380D02*
X130349523Y-158162380D01*
X130016190Y-158543333D01*
X130159047Y-158543333D01*
X130254285Y-158590952D01*
X130301904Y-158638571D01*
X130349523Y-158733809D01*
X130349523Y-158971904D01*
X130301904Y-159067142D01*
X130254285Y-159114761D01*
X130159047Y-159162380D01*
X129873333Y-159162380D01*
X129778095Y-159114761D01*
X129730476Y-159067142D01*
%TO.C,H4*%
X204978095Y-159162380D02*
X204978095Y-158162380D01*
X204978095Y-158638571D02*
X205549523Y-158638571D01*
X205549523Y-159162380D02*
X205549523Y-158162380D01*
X206454285Y-158495714D02*
X206454285Y-159162380D01*
X206216190Y-158114761D02*
X205978095Y-158829047D01*
X206597142Y-158829047D01*
%TO.C,C1*%
X160188333Y-159402142D02*
X160140714Y-159449761D01*
X159997857Y-159497380D01*
X159902619Y-159497380D01*
X159759761Y-159449761D01*
X159664523Y-159354523D01*
X159616904Y-159259285D01*
X159569285Y-159068809D01*
X159569285Y-158925952D01*
X159616904Y-158735476D01*
X159664523Y-158640238D01*
X159759761Y-158545000D01*
X159902619Y-158497380D01*
X159997857Y-158497380D01*
X160140714Y-158545000D01*
X160188333Y-158592619D01*
X161140714Y-159497380D02*
X160569285Y-159497380D01*
X160855000Y-159497380D02*
X160855000Y-158497380D01*
X160759761Y-158640238D01*
X160664523Y-158735476D01*
X160569285Y-158783095D01*
%TO.C,C2*%
X171243333Y-159147142D02*
X171195714Y-159194761D01*
X171052857Y-159242380D01*
X170957619Y-159242380D01*
X170814761Y-159194761D01*
X170719523Y-159099523D01*
X170671904Y-159004285D01*
X170624285Y-158813809D01*
X170624285Y-158670952D01*
X170671904Y-158480476D01*
X170719523Y-158385238D01*
X170814761Y-158290000D01*
X170957619Y-158242380D01*
X171052857Y-158242380D01*
X171195714Y-158290000D01*
X171243333Y-158337619D01*
X171624285Y-158337619D02*
X171671904Y-158290000D01*
X171767142Y-158242380D01*
X172005238Y-158242380D01*
X172100476Y-158290000D01*
X172148095Y-158337619D01*
X172195714Y-158432857D01*
X172195714Y-158528095D01*
X172148095Y-158670952D01*
X171576666Y-159242380D01*
X172195714Y-159242380D01*
%TO.C,L1*%
X147113333Y-158032380D02*
X146637142Y-158032380D01*
X146637142Y-157032380D01*
X147970476Y-158032380D02*
X147399047Y-158032380D01*
X147684761Y-158032380D02*
X147684761Y-157032380D01*
X147589523Y-157175238D01*
X147494285Y-157270476D01*
X147399047Y-157318095D01*
%TD*%
M02*
