%TF.GenerationSoftware,KiCad,Pcbnew,(5.1.6)-1*%
%TF.CreationDate,2021-11-10T15:24:26+01:00*%
%TF.ProjectId,FoxRobot,466f7852-6f62-46f7-942e-6b696361645f,V01*%
%TF.SameCoordinates,Original*%
%TF.FileFunction,Copper,L1,Top*%
%TF.FilePolarity,Positive*%
%FSLAX46Y46*%
G04 Gerber Fmt 4.6, Leading zero omitted, Abs format (unit mm)*
G04 Created by KiCad (PCBNEW (5.1.6)-1) date 2021-11-10 15:24:26*
%MOMM*%
%LPD*%
G01*
G04 APERTURE LIST*
%TA.AperFunction,NonConductor*%
%ADD10C,0.300000*%
%TD*%
%TA.AperFunction,ComponentPad*%
%ADD11C,1.524000*%
%TD*%
%TA.AperFunction,ComponentPad*%
%ADD12O,1.600000X1.600000*%
%TD*%
%TA.AperFunction,ComponentPad*%
%ADD13C,1.600000*%
%TD*%
%TA.AperFunction,ComponentPad*%
%ADD14R,1.500000X1.050000*%
%TD*%
%TA.AperFunction,ComponentPad*%
%ADD15O,1.500000X1.050000*%
%TD*%
%TA.AperFunction,ComponentPad*%
%ADD16R,1.050000X1.500000*%
%TD*%
%TA.AperFunction,ComponentPad*%
%ADD17O,1.050000X1.500000*%
%TD*%
%TA.AperFunction,ComponentPad*%
%ADD18C,1.950000*%
%TD*%
%TA.AperFunction,ComponentPad*%
%ADD19C,4.350000*%
%TD*%
%TA.AperFunction,ComponentPad*%
%ADD20O,1.700000X1.700000*%
%TD*%
%TA.AperFunction,ComponentPad*%
%ADD21R,1.700000X1.700000*%
%TD*%
%TA.AperFunction,ComponentPad*%
%ADD22C,2.600000*%
%TD*%
%TA.AperFunction,ComponentPad*%
%ADD23R,2.600000X2.600000*%
%TD*%
%TA.AperFunction,SMDPad,CuDef*%
%ADD24R,2.500000X2.500000*%
%TD*%
%TA.AperFunction,ComponentPad*%
%ADD25C,2.250000*%
%TD*%
%TA.AperFunction,ComponentPad*%
%ADD26C,3.600000*%
%TD*%
%TA.AperFunction,ConnectorPad*%
%ADD27C,5.700000*%
%TD*%
%TA.AperFunction,ViaPad*%
%ADD28C,0.800000*%
%TD*%
%TA.AperFunction,Conductor*%
%ADD29C,0.300000*%
%TD*%
%TA.AperFunction,Conductor*%
%ADD30C,2.800000*%
%TD*%
G04 APERTURE END LIST*
D10*
X22796571Y-113137142D02*
X23939428Y-113137142D01*
X23368000Y-113708571D02*
X23368000Y-112565714D01*
X22796571Y-101453142D02*
X23939428Y-101453142D01*
X23368000Y-102024571D02*
X23368000Y-100881714D01*
D11*
%TO.P,U1,8*%
%TO.N,N/C*%
X65405000Y-66548000D03*
%TO.P,U1,7*%
%TO.N,+5V*%
X65405000Y-56388000D03*
%TO.P,U1,6*%
%TO.N,GND*%
X65405000Y-46228000D03*
%TO.P,U1,5*%
%TO.N,N/C*%
X65405000Y-36068000D03*
%TO.P,U1,4*%
%TO.N,Net-(K2-Pad5)*%
X19685000Y-53848000D03*
%TO.P,U1,3*%
%TO.N,Net-(J2-Pad1)*%
X19685000Y-48768000D03*
%TO.P,U1,1*%
%TO.N,N/C*%
X19685000Y-38608000D03*
%TD*%
D12*
%TO.P,R13,2*%
%TO.N,+5V*%
X82550000Y-64516000D03*
D13*
%TO.P,R13,1*%
%TO.N,Net-(Q9-Pad2)*%
X92710000Y-64516000D03*
%TD*%
D12*
%TO.P,R12,2*%
%TO.N,+5V*%
X82550000Y-58928000D03*
D13*
%TO.P,R12,1*%
%TO.N,Net-(Q8-Pad2)*%
X92710000Y-58928000D03*
%TD*%
D12*
%TO.P,R11,2*%
%TO.N,+5V*%
X82550000Y-52832000D03*
D13*
%TO.P,R11,1*%
%TO.N,Net-(Q7-Pad2)*%
X92710000Y-52832000D03*
%TD*%
D12*
%TO.P,R10,2*%
%TO.N,+5V*%
X106680000Y-35560000D03*
D13*
%TO.P,R10,1*%
%TO.N,Net-(Q6-Pad2)*%
X96520000Y-35560000D03*
%TD*%
D12*
%TO.P,R9,2*%
%TO.N,+5V*%
X106678000Y-56102000D03*
D13*
%TO.P,R9,1*%
%TO.N,Net-(Q5-Pad2)*%
X96518000Y-56102000D03*
%TD*%
D12*
%TO.P,R8,2*%
%TO.N,+5V*%
X106678000Y-52052000D03*
D13*
%TO.P,R8,1*%
%TO.N,Net-(Q4-Pad2)*%
X96518000Y-52052000D03*
%TD*%
D12*
%TO.P,R7,2*%
%TO.N,+5V*%
X106680000Y-48260000D03*
D13*
%TO.P,R7,1*%
%TO.N,Net-(Q3-Pad2)*%
X96520000Y-48260000D03*
%TD*%
D12*
%TO.P,R6,2*%
%TO.N,+5V*%
X106386000Y-43446000D03*
D13*
%TO.P,R6,1*%
%TO.N,Net-(Q1-Pad2)*%
X96226000Y-43446000D03*
%TD*%
D12*
%TO.P,R5,2*%
%TO.N,+5V*%
X106386000Y-39396000D03*
D13*
%TO.P,R5,1*%
%TO.N,Net-(Q1-Pad2)*%
X96226000Y-39396000D03*
%TD*%
D12*
%TO.P,R4,2*%
%TO.N,GND*%
X92456000Y-39624000D03*
D13*
%TO.P,R4,1*%
%TO.N,/A3*%
X82296000Y-39624000D03*
%TD*%
D12*
%TO.P,R3,2*%
%TO.N,GND*%
X82296000Y-48260000D03*
D13*
%TO.P,R3,1*%
%TO.N,/A4*%
X92456000Y-48260000D03*
%TD*%
D12*
%TO.P,R2,2*%
%TO.N,/A3*%
X82296000Y-35052000D03*
D13*
%TO.P,R2,1*%
%TO.N,Net-(J3-Pad2)*%
X92456000Y-35052000D03*
%TD*%
D12*
%TO.P,R1,2*%
%TO.N,/A4*%
X92456000Y-44196000D03*
D13*
%TO.P,R1,1*%
%TO.N,Net-(J2-Pad2)*%
X82296000Y-44196000D03*
%TD*%
D14*
%TO.P,Q9,1*%
%TO.N,Net-(K4-Pad2)*%
X74676000Y-43688000D03*
D15*
%TO.P,Q9,3*%
%TO.N,GND*%
X74676000Y-46228000D03*
%TO.P,Q9,2*%
%TO.N,Net-(Q9-Pad2)*%
X74676000Y-44958000D03*
%TD*%
D14*
%TO.P,Q8,1*%
%TO.N,Net-(Q7-Pad2)*%
X74676000Y-37592000D03*
D15*
%TO.P,Q8,3*%
%TO.N,GND*%
X74676000Y-40132000D03*
%TO.P,Q8,2*%
%TO.N,Net-(Q8-Pad2)*%
X74676000Y-38862000D03*
%TD*%
D14*
%TO.P,Q7,1*%
%TO.N,Net-(K4-Pad1)*%
X74549000Y-31750000D03*
D15*
%TO.P,Q7,3*%
%TO.N,GND*%
X74549000Y-34290000D03*
%TO.P,Q7,2*%
%TO.N,Net-(Q7-Pad2)*%
X74549000Y-33020000D03*
%TD*%
D14*
%TO.P,Q6,1*%
%TO.N,Net-(K3-Pad2)*%
X74676000Y-53340000D03*
D15*
%TO.P,Q6,3*%
%TO.N,GND*%
X74676000Y-55880000D03*
%TO.P,Q6,2*%
%TO.N,Net-(Q6-Pad2)*%
X74676000Y-54610000D03*
%TD*%
D14*
%TO.P,Q5,1*%
%TO.N,Net-(Q4-Pad2)*%
X74676000Y-59436000D03*
D15*
%TO.P,Q5,3*%
%TO.N,GND*%
X74676000Y-61976000D03*
%TO.P,Q5,2*%
%TO.N,Net-(Q5-Pad2)*%
X74676000Y-60706000D03*
%TD*%
D14*
%TO.P,Q4,1*%
%TO.N,Net-(K3-Pad1)*%
X74676000Y-65532000D03*
D15*
%TO.P,Q4,3*%
%TO.N,GND*%
X74676000Y-68072000D03*
%TO.P,Q4,2*%
%TO.N,Net-(Q4-Pad2)*%
X74676000Y-66802000D03*
%TD*%
D16*
%TO.P,Q3,1*%
%TO.N,Net-(K2-Pad1)*%
X102870000Y-75946000D03*
D17*
%TO.P,Q3,3*%
%TO.N,GND*%
X105410000Y-75946000D03*
%TO.P,Q3,2*%
%TO.N,Net-(Q3-Pad2)*%
X104140000Y-75946000D03*
%TD*%
D16*
%TO.P,Q2,1*%
%TO.N,Net-(Q1-Pad2)*%
X102870000Y-69342000D03*
D17*
%TO.P,Q2,3*%
%TO.N,GND*%
X105410000Y-69342000D03*
%TO.P,Q2,2*%
%TO.N,Net-(Q1-Pad2)*%
X104140000Y-69342000D03*
%TD*%
D16*
%TO.P,Q1,1*%
%TO.N,Net-(K2-Pad2)*%
X102870000Y-62230000D03*
D17*
%TO.P,Q1,3*%
%TO.N,GND*%
X105410000Y-62230000D03*
%TO.P,Q1,2*%
%TO.N,Net-(Q1-Pad2)*%
X104140000Y-62230000D03*
%TD*%
D18*
%TO.P,K4,5*%
%TO.N,+5V*%
X62738000Y-82884000D03*
D19*
%TO.P,K4,4*%
%TO.N,Net-(J6-Pad2)*%
X96988000Y-86634000D03*
%TO.P,K4,3*%
%TO.N,Net-(J2-Pad2)*%
X90238000Y-79134000D03*
D18*
%TO.P,K4,2*%
%TO.N,Net-(K4-Pad2)*%
X62738000Y-77884000D03*
%TO.P,K4,1*%
%TO.N,Net-(K4-Pad1)*%
X62738000Y-87884000D03*
%TD*%
%TO.P,K3,5*%
%TO.N,+5V*%
X20828000Y-82884000D03*
D19*
%TO.P,K3,4*%
%TO.N,Net-(J6-Pad2)*%
X55078000Y-86634000D03*
%TO.P,K3,3*%
%TO.N,Net-(J3-Pad2)*%
X48328000Y-79134000D03*
D18*
%TO.P,K3,2*%
%TO.N,Net-(K3-Pad2)*%
X20828000Y-77884000D03*
%TO.P,K3,1*%
%TO.N,Net-(K3-Pad1)*%
X20828000Y-87884000D03*
%TD*%
%TO.P,K2,7*%
%TO.N,+5V*%
X56896000Y-110116000D03*
%TO.P,K2,6*%
X51896000Y-110116000D03*
%TO.P,K2,5*%
%TO.N,Net-(K2-Pad5)*%
X36896000Y-110116000D03*
%TO.P,K2,4*%
%TO.N,Net-(J3-Pad2)*%
X33396000Y-102616000D03*
%TO.P,K2,3*%
%TO.N,Net-(J2-Pad2)*%
X40396000Y-102616000D03*
%TO.P,K2,2*%
%TO.N,Net-(K2-Pad2)*%
X51896000Y-102616000D03*
%TO.P,K2,1*%
%TO.N,Net-(K2-Pad1)*%
X56896000Y-102616000D03*
%TD*%
D20*
%TO.P,J5,20*%
%TO.N,GND*%
X42545000Y-17780000D03*
%TO.P,J5,19*%
%TO.N,/A19*%
X42545000Y-15240000D03*
%TO.P,J5,18*%
%TO.N,GND*%
X40005000Y-17780000D03*
%TO.P,J5,17*%
%TO.N,/A17*%
X40005000Y-15240000D03*
%TO.P,J5,16*%
%TO.N,GND*%
X37465000Y-17780000D03*
%TO.P,J5,15*%
%TO.N,/A15*%
X37465000Y-15240000D03*
%TO.P,J5,14*%
%TO.N,GND*%
X34925000Y-17780000D03*
%TO.P,J5,13*%
%TO.N,/A13*%
X34925000Y-15240000D03*
%TO.P,J5,12*%
%TO.N,/A12*%
X32385000Y-17780000D03*
%TO.P,J5,11*%
%TO.N,/A11*%
X32385000Y-15240000D03*
%TO.P,J5,10*%
%TO.N,/A10*%
X29845000Y-17780000D03*
%TO.P,J5,9*%
%TO.N,/A9*%
X29845000Y-15240000D03*
%TO.P,J5,8*%
%TO.N,/A8*%
X27305000Y-17780000D03*
%TO.P,J5,7*%
%TO.N,/A7*%
X27305000Y-15240000D03*
%TO.P,J5,6*%
%TO.N,/A6*%
X24765000Y-17780000D03*
%TO.P,J5,5*%
%TO.N,/A5*%
X24765000Y-15240000D03*
%TO.P,J5,4*%
%TO.N,/A4*%
X22225000Y-17780000D03*
%TO.P,J5,3*%
%TO.N,/A3*%
X22225000Y-15240000D03*
%TO.P,J5,2*%
%TO.N,/A2*%
X19685000Y-17780000D03*
D21*
%TO.P,J5,1*%
%TO.N,/A1*%
X19685000Y-15240000D03*
%TD*%
D22*
%TO.P,J4,2*%
%TO.N,Net-(J4-Pad2)*%
X81788000Y-19050000D03*
D23*
%TO.P,J4,1*%
%TO.N,Net-(J4-Pad1)*%
X76708000Y-19050000D03*
%TD*%
D24*
%TO.P,J3,2*%
%TO.N,Net-(J3-Pad2)*%
X20828000Y-110236000D03*
%TO.P,J3,1*%
%TO.N,Net-(J2-Pad1)*%
X20828000Y-105156000D03*
%TD*%
%TO.P,J2,2*%
%TO.N,Net-(J2-Pad2)*%
X20828000Y-121920000D03*
%TO.P,J2,1*%
%TO.N,Net-(J2-Pad1)*%
X20828000Y-116840000D03*
%TD*%
D25*
%TO.P,K1,11*%
%TO.N,Net-(J4-Pad2)*%
X85732000Y-109622000D03*
%TO.P,K1,12*%
%TO.N,GND*%
X80732000Y-109622000D03*
%TO.P,K1,14*%
%TO.N,Net-(J1-Pad1)*%
X90732000Y-109622000D03*
%TO.P,K1,21*%
%TO.N,Net-(J4-Pad1)*%
X85732000Y-102122000D03*
%TO.P,K1,22*%
%TO.N,+5V*%
X80732000Y-102122000D03*
%TO.P,K1,24*%
%TO.N,Net-(J1-Pad2)*%
X90732000Y-102122000D03*
%TO.P,K1,A1*%
%TO.N,Net-(J1-Pad1)*%
X65732000Y-109622000D03*
%TO.P,K1,A2*%
%TO.N,Net-(J1-Pad2)*%
X65732000Y-102122000D03*
%TD*%
D23*
%TO.P,J1,1*%
%TO.N,Net-(J1-Pad1)*%
X64008000Y-19050000D03*
D22*
%TO.P,J1,2*%
%TO.N,Net-(J1-Pad2)*%
X69088000Y-19050000D03*
%TD*%
D23*
%TO.P,J6,1*%
%TO.N,Net-(J2-Pad1)*%
X50800000Y-19050000D03*
D22*
%TO.P,J6,2*%
%TO.N,Net-(J6-Pad2)*%
X55880000Y-19050000D03*
%TD*%
D21*
%TO.P,J7,1*%
%TO.N,/A1*%
X88900000Y-15240000D03*
D20*
%TO.P,J7,2*%
%TO.N,/A2*%
X88900000Y-17780000D03*
%TO.P,J7,3*%
%TO.N,/A3*%
X91440000Y-15240000D03*
%TO.P,J7,4*%
%TO.N,/A4*%
X91440000Y-17780000D03*
%TO.P,J7,5*%
%TO.N,/A5*%
X93980000Y-15240000D03*
%TO.P,J7,6*%
%TO.N,/A6*%
X93980000Y-17780000D03*
%TO.P,J7,7*%
%TO.N,/A7*%
X96520000Y-15240000D03*
%TO.P,J7,8*%
%TO.N,/A8*%
X96520000Y-17780000D03*
%TO.P,J7,9*%
%TO.N,/A9*%
X99060000Y-15240000D03*
%TO.P,J7,10*%
%TO.N,/A10*%
X99060000Y-17780000D03*
%TO.P,J7,11*%
%TO.N,/A11*%
X101600000Y-15240000D03*
%TO.P,J7,12*%
%TO.N,/A12*%
X101600000Y-17780000D03*
%TO.P,J7,13*%
%TO.N,/A13*%
X104140000Y-15240000D03*
%TO.P,J7,14*%
%TO.N,GND*%
X104140000Y-17780000D03*
%TO.P,J7,15*%
%TO.N,/A15*%
X106680000Y-15240000D03*
%TO.P,J7,16*%
%TO.N,GND*%
X106680000Y-17780000D03*
%TO.P,J7,17*%
%TO.N,/A17*%
X109220000Y-15240000D03*
%TO.P,J7,18*%
%TO.N,GND*%
X109220000Y-17780000D03*
%TO.P,J7,19*%
%TO.N,/A19*%
X111760000Y-15240000D03*
%TO.P,J7,20*%
%TO.N,GND*%
X111760000Y-17780000D03*
%TD*%
D26*
%TO.P,H1,1*%
%TO.N,N/C*%
X19050000Y-24130000D03*
D27*
X19050000Y-24130000D03*
%TD*%
%TO.P,H2,1*%
%TO.N,N/C*%
X100915000Y-28155000D03*
D26*
X100915000Y-28155000D03*
%TD*%
%TO.P,H3,1*%
%TO.N,N/C*%
X33020000Y-119380000D03*
D27*
X33020000Y-119380000D03*
%TD*%
%TO.P,H4,1*%
%TO.N,N/C*%
X109220000Y-119380000D03*
D26*
X109220000Y-119380000D03*
%TD*%
D28*
%TO.N,Net-(Q4-Pad2)*%
X78655200Y-63958500D03*
%TO.N,Net-(J2-Pad2)*%
X84799500Y-61736900D03*
%TO.N,Net-(K3-Pad1)*%
X39305500Y-79830000D03*
%TO.N,Net-(Q5-Pad2)*%
X81118500Y-63744000D03*
%TO.N,Net-(Q7-Pad2)*%
X78912300Y-37592000D03*
%TO.N,Net-(K4-Pad1)*%
X70557500Y-80064500D03*
%TO.N,Net-(K3-Pad2)*%
X37208200Y-67082400D03*
%TO.N,Net-(K4-Pad2)*%
X71378900Y-75940800D03*
%TO.N,/A19*%
X106208500Y-13586700D03*
%TO.N,/A15*%
X101933700Y-11655300D03*
%TO.N,/A13*%
X41057000Y-11156000D03*
%TO.N,/A11*%
X46321900Y-14155600D03*
%TO.N,/A10*%
X97609800Y-20853700D03*
%TO.N,/A9*%
X37264500Y-11431400D03*
%TO.N,/A8*%
X93729400Y-21830200D03*
%TO.N,/A7*%
X47885900Y-14207900D03*
%TO.N,/A6*%
X92169600Y-22694900D03*
%TO.N,/A4*%
X91079700Y-23644900D03*
%TO.N,/A2*%
X86986000Y-25560300D03*
%TO.N,/A1*%
X33655700Y-19088000D03*
%TD*%
D29*
%TO.N,GND*%
X74676000Y-55880000D02*
X74676000Y-56855300D01*
X73475700Y-61976000D02*
X73475700Y-58055600D01*
X73475700Y-58055600D02*
X74676000Y-56855300D01*
X73475700Y-68072000D02*
X73475700Y-61976000D01*
X74676000Y-55880000D02*
X75876300Y-55880000D01*
X74676000Y-46228000D02*
X74676000Y-47203300D01*
X74676000Y-47203300D02*
X75876300Y-48403600D01*
X75876300Y-48403600D02*
X75876300Y-55880000D01*
X42545000Y-17780000D02*
X43845300Y-17780000D01*
X65405000Y-46228000D02*
X66632600Y-45000400D01*
X66632600Y-45000400D02*
X66632600Y-18428600D01*
X66632600Y-18428600D02*
X65286700Y-17082700D01*
X65286700Y-17082700D02*
X44542600Y-17082700D01*
X44542600Y-17082700D02*
X43845300Y-17780000D01*
X74676000Y-40132000D02*
X73475700Y-40132000D01*
X73475700Y-40132000D02*
X73475700Y-36338600D01*
X73475700Y-36338600D02*
X74549000Y-35265300D01*
X74676000Y-68072000D02*
X73475700Y-68072000D01*
X80732000Y-109622000D02*
X74676000Y-103566000D01*
X74676000Y-103566000D02*
X74676000Y-68072000D01*
X74676000Y-61976000D02*
X73475700Y-61976000D01*
X74549000Y-34290000D02*
X74549000Y-35265300D01*
X94739400Y-36090300D02*
X92456000Y-38373700D01*
X104140000Y-19080300D02*
X94739400Y-28480900D01*
X94739400Y-28480900D02*
X94739400Y-36090300D01*
X105410000Y-62230000D02*
X105410000Y-46760900D01*
X105410000Y-46760900D02*
X94739400Y-36090300D01*
X105410000Y-69342000D02*
X105410000Y-62230000D01*
X105410000Y-69342000D02*
X105410000Y-75946000D01*
X92456000Y-39624000D02*
X92456000Y-38373700D01*
X104140000Y-17780000D02*
X104140000Y-19080300D01*
%TO.N,Net-(Q1-Pad2)*%
X104140000Y-62230000D02*
X104140000Y-51360000D01*
X104140000Y-51360000D02*
X96226000Y-43446000D01*
X104140000Y-69342000D02*
X104140000Y-62230000D01*
X96226000Y-39396000D02*
X96226000Y-43446000D01*
%TO.N,Net-(Q4-Pad2)*%
X96518000Y-52052000D02*
X94467900Y-54102100D01*
X94467900Y-54102100D02*
X89438800Y-54102100D01*
X89438800Y-54102100D02*
X86860100Y-51523400D01*
X86860100Y-51523400D02*
X82082700Y-51523400D01*
X82082700Y-51523400D02*
X78655200Y-54950900D01*
X78655200Y-54950900D02*
X78655200Y-63958500D01*
X74676000Y-59436000D02*
X75876300Y-59436000D01*
X74676000Y-66802000D02*
X75876300Y-66802000D01*
X75876300Y-66802000D02*
X75876300Y-59436000D01*
%TO.N,+5V*%
X56896000Y-110116000D02*
X59870600Y-107141400D01*
X59870600Y-107141400D02*
X59870600Y-85751400D01*
X59870600Y-85751400D02*
X62738000Y-82884000D01*
X82550000Y-58928000D02*
X82550000Y-60178300D01*
X82550000Y-64516000D02*
X82434200Y-64631800D01*
X82434200Y-64631800D02*
X80742400Y-64631800D01*
X80742400Y-64631800D02*
X80255200Y-64144600D01*
X80255200Y-64144600D02*
X80255200Y-62473100D01*
X80255200Y-62473100D02*
X82550000Y-60178300D01*
X82550000Y-58928000D02*
X82550000Y-52832000D01*
X65405000Y-56388000D02*
X63563100Y-58229900D01*
X63563100Y-58229900D02*
X63563100Y-68557700D01*
X63563100Y-68557700D02*
X64163400Y-69158000D01*
X64163400Y-69158000D02*
X64163400Y-81458600D01*
X64163400Y-81458600D02*
X62738000Y-82884000D01*
X106386000Y-39396000D02*
X106386000Y-38145700D01*
X106386000Y-38145700D02*
X106680000Y-37851700D01*
X106680000Y-37851700D02*
X106680000Y-35560000D01*
X106386000Y-43446000D02*
X106386000Y-39396000D01*
X106678000Y-52052000D02*
X106678000Y-50801700D01*
X106678000Y-50801700D02*
X106680000Y-50799700D01*
X106680000Y-50799700D02*
X106680000Y-48260000D01*
X106386000Y-43446000D02*
X106386000Y-44696300D01*
X106680000Y-48260000D02*
X106680000Y-44990300D01*
X106680000Y-44990300D02*
X106386000Y-44696300D01*
%TO.N,Net-(J1-Pad2)*%
X69088000Y-19050000D02*
X69088000Y-98766000D01*
X69088000Y-98766000D02*
X65732000Y-102122000D01*
%TO.N,Net-(J1-Pad1)*%
X64008000Y-19050000D02*
X64008000Y-50899500D01*
X64008000Y-50899500D02*
X66631800Y-53523300D01*
X66631800Y-53523300D02*
X66631800Y-63606800D01*
X66631800Y-63606800D02*
X64192700Y-66045900D01*
X64192700Y-66045900D02*
X64192700Y-67050100D01*
X64192700Y-67050100D02*
X64790900Y-67648300D01*
X64790900Y-67648300D02*
X64790900Y-99317100D01*
X64790900Y-99317100D02*
X64151600Y-99956400D01*
X64151600Y-99956400D02*
X64151600Y-108041600D01*
X64151600Y-108041600D02*
X65732000Y-109622000D01*
D30*
%TO.N,Net-(J2-Pad2)*%
X84799500Y-61736900D02*
X90238000Y-67175400D01*
X90238000Y-67175400D02*
X90238000Y-79134000D01*
X20828000Y-121920000D02*
X23878300Y-121920000D01*
X23878300Y-121920000D02*
X23878300Y-119133700D01*
X23878300Y-119133700D02*
X40396000Y-102616000D01*
D29*
%TO.N,Net-(J4-Pad1)*%
X76708000Y-19050000D02*
X76708000Y-20800300D01*
X76708000Y-20800300D02*
X76708000Y-93098000D01*
X76708000Y-93098000D02*
X85732000Y-102122000D01*
%TO.N,Net-(J4-Pad2)*%
X85732000Y-109622000D02*
X87321300Y-108032700D01*
X87321300Y-108032700D02*
X87321300Y-74043800D01*
X87321300Y-74043800D02*
X77780900Y-64503400D01*
X77780900Y-64503400D02*
X77780900Y-23057100D01*
X77780900Y-23057100D02*
X81788000Y-19050000D01*
%TO.N,Net-(K3-Pad1)*%
X20828000Y-87884000D02*
X31251500Y-87884000D01*
X31251500Y-87884000D02*
X39305500Y-79830000D01*
%TO.N,Net-(Q3-Pad2)*%
X104140000Y-75946000D02*
X104140000Y-74745700D01*
X104140000Y-74745700D02*
X99061600Y-69667300D01*
X99061600Y-69667300D02*
X99061600Y-50801600D01*
X99061600Y-50801600D02*
X96520000Y-48260000D01*
%TO.N,Net-(Q5-Pad2)*%
X96518000Y-56102000D02*
X87667300Y-56102000D01*
X87667300Y-56102000D02*
X81118500Y-62650800D01*
X81118500Y-62650800D02*
X81118500Y-63744000D01*
%TO.N,Net-(Q7-Pad2)*%
X92710000Y-52832000D02*
X92710000Y-52271400D01*
X92710000Y-52271400D02*
X78912300Y-38473700D01*
X78912300Y-38473700D02*
X78912300Y-37592000D01*
X74676000Y-37592000D02*
X74676000Y-36616700D01*
X74549000Y-33020000D02*
X75749300Y-33020000D01*
X75749300Y-33020000D02*
X75749300Y-35543400D01*
X75749300Y-35543400D02*
X74676000Y-36616700D01*
D30*
%TO.N,Net-(J2-Pad1)*%
X20828000Y-105156000D02*
X20828000Y-102105700D01*
X19685000Y-48768000D02*
X17112900Y-51340100D01*
X17112900Y-51340100D02*
X17112900Y-98390600D01*
X17112900Y-98390600D02*
X20828000Y-102105700D01*
X50800000Y-19050000D02*
X47699700Y-19050000D01*
X47699700Y-19050000D02*
X47699700Y-20753300D01*
X47699700Y-20753300D02*
X19685000Y-48768000D01*
X20828000Y-105156000D02*
X17627700Y-108356300D01*
X17627700Y-108356300D02*
X17627700Y-112114600D01*
X17627700Y-112114600D02*
X19302800Y-113789700D01*
X19302800Y-113789700D02*
X20828000Y-113789700D01*
X20828000Y-116840000D02*
X20828000Y-113789700D01*
%TO.N,Net-(J3-Pad2)*%
X33396000Y-102616000D02*
X33396000Y-94066000D01*
X33396000Y-94066000D02*
X48328000Y-79134000D01*
X23878300Y-110236000D02*
X31498300Y-102616000D01*
X31498300Y-102616000D02*
X33396000Y-102616000D01*
X20828000Y-110236000D02*
X23878300Y-110236000D01*
D29*
%TO.N,Net-(K4-Pad1)*%
X73348700Y-31750000D02*
X70528600Y-34570100D01*
X70528600Y-34570100D02*
X70528600Y-80035600D01*
X70528600Y-80035600D02*
X70557500Y-80064500D01*
X74549000Y-31750000D02*
X73348700Y-31750000D01*
D30*
%TO.N,Net-(J6-Pad2)*%
X55880000Y-19050000D02*
X55880000Y-85832000D01*
X55880000Y-85832000D02*
X55078000Y-86634000D01*
D29*
%TO.N,Net-(K3-Pad2)*%
X20828000Y-77884000D02*
X31629600Y-67082400D01*
X31629600Y-67082400D02*
X37208200Y-67082400D01*
%TO.N,Net-(K4-Pad2)*%
X74676000Y-43688000D02*
X73475700Y-43688000D01*
X71378900Y-75940800D02*
X71378900Y-45784800D01*
X71378900Y-45784800D02*
X73475700Y-43688000D01*
%TO.N,/A19*%
X111760000Y-15240000D02*
X110106700Y-13586700D01*
X110106700Y-13586700D02*
X106208500Y-13586700D01*
%TO.N,/A15*%
X101933700Y-11655300D02*
X103074700Y-11655300D01*
X103074700Y-11655300D02*
X106659400Y-15240000D01*
X106659400Y-15240000D02*
X106680000Y-15240000D01*
%TO.N,/A13*%
X41057000Y-11156000D02*
X100056000Y-11156000D01*
X100056000Y-11156000D02*
X104140000Y-15240000D01*
%TO.N,/A11*%
X46321900Y-14155600D02*
X46097400Y-13931100D01*
X46097400Y-13931100D02*
X33693900Y-13931100D01*
X33693900Y-13931100D02*
X32385000Y-15240000D01*
%TO.N,/A10*%
X99060000Y-17780000D02*
X99060000Y-19080300D01*
X99060000Y-19080300D02*
X97609800Y-20530500D01*
X97609800Y-20530500D02*
X97609800Y-20853700D01*
%TO.N,/A9*%
X37264500Y-11431400D02*
X37875400Y-12042300D01*
X37875400Y-12042300D02*
X95862300Y-12042300D01*
X95862300Y-12042300D02*
X99060000Y-15240000D01*
%TO.N,/A8*%
X96520000Y-17780000D02*
X96520000Y-19080300D01*
X96520000Y-19080300D02*
X96479300Y-19080300D01*
X96479300Y-19080300D02*
X93729400Y-21830200D01*
%TO.N,/A7*%
X27305000Y-15240000D02*
X29265400Y-13279600D01*
X29265400Y-13279600D02*
X46957600Y-13279600D01*
X46957600Y-13279600D02*
X47885900Y-14207900D01*
%TO.N,/A6*%
X93980000Y-19080300D02*
X92169600Y-20890700D01*
X92169600Y-20890700D02*
X92169600Y-22694900D01*
X93980000Y-17780000D02*
X93980000Y-19080300D01*
%TO.N,/A5*%
X93980000Y-15240000D02*
X91419200Y-12679200D01*
X91419200Y-12679200D02*
X27325800Y-12679200D01*
X27325800Y-12679200D02*
X24765000Y-15240000D01*
%TO.N,/A4*%
X91079700Y-23644900D02*
X91079700Y-41569400D01*
X91079700Y-41569400D02*
X92456000Y-42945700D01*
X91440000Y-19080300D02*
X91079700Y-19440600D01*
X91079700Y-19440600D02*
X91079700Y-23644900D01*
X92456000Y-44196000D02*
X92456000Y-42945700D01*
X91440000Y-17780000D02*
X91440000Y-19080300D01*
%TO.N,/A3*%
X82296000Y-35052000D02*
X82296000Y-33801700D01*
X91440000Y-15240000D02*
X90139600Y-13939600D01*
X90139600Y-13939600D02*
X87837700Y-13939600D01*
X87837700Y-13939600D02*
X85867000Y-15910300D01*
X85867000Y-15910300D02*
X85867000Y-30230700D01*
X85867000Y-30230700D02*
X82296000Y-33801700D01*
X82296000Y-39624000D02*
X82296000Y-35052000D01*
%TO.N,/A2*%
X88900000Y-17780000D02*
X88900000Y-19080300D01*
X88900000Y-19080300D02*
X86986000Y-20994300D01*
X86986000Y-20994300D02*
X86986000Y-25560300D01*
%TO.N,/A1*%
X33655700Y-19088000D02*
X19142900Y-19088000D01*
X19142900Y-19088000D02*
X18337400Y-18282500D01*
X18337400Y-18282500D02*
X18337400Y-16587600D01*
X18337400Y-16587600D02*
X19685000Y-15240000D01*
%TD*%
M02*
