%TF.GenerationSoftware,KiCad,Pcbnew,(5.1.6)-1*%
%TF.CreationDate,2021-11-09T13:55:48+01:00*%
%TF.ProjectId,FoxRobot,466f7852-6f62-46f7-942e-6b696361645f,V01*%
%TF.SameCoordinates,Original*%
%TF.FileFunction,Copper,L1,Top*%
%TF.FilePolarity,Positive*%
%FSLAX46Y46*%
G04 Gerber Fmt 4.6, Leading zero omitted, Abs format (unit mm)*
G04 Created by KiCad (PCBNEW (5.1.6)-1) date 2021-11-09 13:55:48*
%MOMM*%
%LPD*%
G01*
G04 APERTURE LIST*
%TA.AperFunction,NonConductor*%
%ADD10C,0.300000*%
%TD*%
%TA.AperFunction,ComponentPad*%
%ADD11C,1.524000*%
%TD*%
%TA.AperFunction,ComponentPad*%
%ADD12O,1.600000X1.600000*%
%TD*%
%TA.AperFunction,ComponentPad*%
%ADD13C,1.600000*%
%TD*%
%TA.AperFunction,ComponentPad*%
%ADD14R,1.500000X1.050000*%
%TD*%
%TA.AperFunction,ComponentPad*%
%ADD15O,1.500000X1.050000*%
%TD*%
%TA.AperFunction,ComponentPad*%
%ADD16R,1.050000X1.500000*%
%TD*%
%TA.AperFunction,ComponentPad*%
%ADD17O,1.050000X1.500000*%
%TD*%
%TA.AperFunction,ComponentPad*%
%ADD18C,1.950000*%
%TD*%
%TA.AperFunction,ComponentPad*%
%ADD19C,4.350000*%
%TD*%
%TA.AperFunction,ComponentPad*%
%ADD20O,1.700000X1.700000*%
%TD*%
%TA.AperFunction,ComponentPad*%
%ADD21R,1.700000X1.700000*%
%TD*%
%TA.AperFunction,ComponentPad*%
%ADD22C,2.600000*%
%TD*%
%TA.AperFunction,ComponentPad*%
%ADD23R,2.600000X2.600000*%
%TD*%
%TA.AperFunction,SMDPad,CuDef*%
%ADD24R,2.500000X2.500000*%
%TD*%
%TA.AperFunction,ComponentPad*%
%ADD25C,2.250000*%
%TD*%
%TA.AperFunction,Conductor*%
%ADD26C,0.250000*%
%TD*%
%TA.AperFunction,Conductor*%
%ADD27C,2.800000*%
%TD*%
G04 APERTURE END LIST*
D10*
X20256571Y-116947142D02*
X21399428Y-116947142D01*
X20828000Y-117518571D02*
X20828000Y-116375714D01*
X20256571Y-105263142D02*
X21399428Y-105263142D01*
X20828000Y-105834571D02*
X20828000Y-104691714D01*
D11*
%TO.P,U1,8*%
%TO.N,N/C*%
X62865000Y-61468000D03*
%TO.P,U1,7*%
%TO.N,+5V*%
X62865000Y-51308000D03*
%TO.P,U1,6*%
%TO.N,GND*%
X62865000Y-41148000D03*
%TO.P,U1,5*%
%TO.N,N/C*%
X62865000Y-30988000D03*
%TO.P,U1,4*%
%TO.N,Net-(K2-Pad5)*%
X17145000Y-48768000D03*
%TO.P,U1,3*%
%TO.N,Net-(J2-Pad1)*%
X17145000Y-43688000D03*
%TO.P,U1,1*%
%TO.N,N/C*%
X17145000Y-33528000D03*
%TD*%
D12*
%TO.P,R13,2*%
%TO.N,+5V*%
X80010000Y-59436000D03*
D13*
%TO.P,R13,1*%
%TO.N,Net-(Q9-Pad2)*%
X90170000Y-59436000D03*
%TD*%
D12*
%TO.P,R12,2*%
%TO.N,+5V*%
X80010000Y-53848000D03*
D13*
%TO.P,R12,1*%
%TO.N,Net-(Q8-Pad2)*%
X90170000Y-53848000D03*
%TD*%
D12*
%TO.P,R11,2*%
%TO.N,+5V*%
X80010000Y-47752000D03*
D13*
%TO.P,R11,1*%
%TO.N,Net-(Q7-Pad2)*%
X90170000Y-47752000D03*
%TD*%
D12*
%TO.P,R10,2*%
%TO.N,+5V*%
X104140000Y-30480000D03*
D13*
%TO.P,R10,1*%
%TO.N,Net-(Q6-Pad2)*%
X93980000Y-30480000D03*
%TD*%
D12*
%TO.P,R9,2*%
%TO.N,+5V*%
X104138000Y-51022000D03*
D13*
%TO.P,R9,1*%
%TO.N,Net-(Q5-Pad2)*%
X93978000Y-51022000D03*
%TD*%
D12*
%TO.P,R8,2*%
%TO.N,+5V*%
X104138000Y-46972000D03*
D13*
%TO.P,R8,1*%
%TO.N,Net-(Q4-Pad2)*%
X93978000Y-46972000D03*
%TD*%
D12*
%TO.P,R7,2*%
%TO.N,+5V*%
X104140000Y-43180000D03*
D13*
%TO.P,R7,1*%
%TO.N,Net-(Q3-Pad2)*%
X93980000Y-43180000D03*
%TD*%
D12*
%TO.P,R6,2*%
%TO.N,+5V*%
X103846000Y-38366000D03*
D13*
%TO.P,R6,1*%
%TO.N,Net-(Q1-Pad2)*%
X93686000Y-38366000D03*
%TD*%
D12*
%TO.P,R5,2*%
%TO.N,+5V*%
X103846000Y-34316000D03*
D13*
%TO.P,R5,1*%
%TO.N,Net-(Q1-Pad2)*%
X93686000Y-34316000D03*
%TD*%
D12*
%TO.P,R4,2*%
%TO.N,GND*%
X89916000Y-34544000D03*
D13*
%TO.P,R4,1*%
%TO.N,Net-(J5-Pad3)*%
X79756000Y-34544000D03*
%TD*%
D12*
%TO.P,R3,2*%
%TO.N,GND*%
X79756000Y-43180000D03*
D13*
%TO.P,R3,1*%
%TO.N,Net-(J5-Pad4)*%
X89916000Y-43180000D03*
%TD*%
D12*
%TO.P,R2,2*%
%TO.N,Net-(J5-Pad3)*%
X79756000Y-29972000D03*
D13*
%TO.P,R2,1*%
%TO.N,Net-(J3-Pad2)*%
X89916000Y-29972000D03*
%TD*%
D12*
%TO.P,R1,2*%
%TO.N,Net-(J5-Pad4)*%
X89916000Y-39116000D03*
D13*
%TO.P,R1,1*%
%TO.N,Net-(J2-Pad2)*%
X79756000Y-39116000D03*
%TD*%
D14*
%TO.P,Q9,1*%
%TO.N,Net-(K4-Pad2)*%
X72136000Y-38608000D03*
D15*
%TO.P,Q9,3*%
%TO.N,GND*%
X72136000Y-41148000D03*
%TO.P,Q9,2*%
%TO.N,Net-(Q9-Pad2)*%
X72136000Y-39878000D03*
%TD*%
D14*
%TO.P,Q8,1*%
%TO.N,Net-(Q7-Pad2)*%
X72136000Y-32512000D03*
D15*
%TO.P,Q8,3*%
%TO.N,GND*%
X72136000Y-35052000D03*
%TO.P,Q8,2*%
%TO.N,Net-(Q8-Pad2)*%
X72136000Y-33782000D03*
%TD*%
D14*
%TO.P,Q7,1*%
%TO.N,Net-(K4-Pad1)*%
X72009000Y-26670000D03*
D15*
%TO.P,Q7,3*%
%TO.N,GND*%
X72009000Y-29210000D03*
%TO.P,Q7,2*%
%TO.N,Net-(Q7-Pad2)*%
X72009000Y-27940000D03*
%TD*%
D14*
%TO.P,Q6,1*%
%TO.N,Net-(K3-Pad2)*%
X72136000Y-48260000D03*
D15*
%TO.P,Q6,3*%
%TO.N,GND*%
X72136000Y-50800000D03*
%TO.P,Q6,2*%
%TO.N,Net-(Q6-Pad2)*%
X72136000Y-49530000D03*
%TD*%
D14*
%TO.P,Q5,1*%
%TO.N,Net-(Q4-Pad2)*%
X72136000Y-54356000D03*
D15*
%TO.P,Q5,3*%
%TO.N,GND*%
X72136000Y-56896000D03*
%TO.P,Q5,2*%
%TO.N,Net-(Q5-Pad2)*%
X72136000Y-55626000D03*
%TD*%
D14*
%TO.P,Q4,1*%
%TO.N,Net-(K3-Pad1)*%
X72136000Y-60452000D03*
D15*
%TO.P,Q4,3*%
%TO.N,GND*%
X72136000Y-62992000D03*
%TO.P,Q4,2*%
%TO.N,Net-(Q4-Pad2)*%
X72136000Y-61722000D03*
%TD*%
D16*
%TO.P,Q3,1*%
%TO.N,Net-(K2-Pad1)*%
X100330000Y-70866000D03*
D17*
%TO.P,Q3,3*%
%TO.N,GND*%
X102870000Y-70866000D03*
%TO.P,Q3,2*%
%TO.N,Net-(Q3-Pad2)*%
X101600000Y-70866000D03*
%TD*%
D16*
%TO.P,Q2,1*%
%TO.N,Net-(Q1-Pad2)*%
X100330000Y-64262000D03*
D17*
%TO.P,Q2,3*%
%TO.N,GND*%
X102870000Y-64262000D03*
%TO.P,Q2,2*%
%TO.N,Net-(Q1-Pad2)*%
X101600000Y-64262000D03*
%TD*%
D16*
%TO.P,Q1,1*%
%TO.N,Net-(K2-Pad2)*%
X100330000Y-57150000D03*
D17*
%TO.P,Q1,3*%
%TO.N,GND*%
X102870000Y-57150000D03*
%TO.P,Q1,2*%
%TO.N,Net-(Q1-Pad2)*%
X101600000Y-57150000D03*
%TD*%
D18*
%TO.P,K4,5*%
%TO.N,+5V*%
X60198000Y-77804000D03*
D19*
%TO.P,K4,4*%
%TO.N,Net-(J6-Pad2)*%
X94448000Y-81554000D03*
%TO.P,K4,3*%
%TO.N,Net-(J2-Pad2)*%
X87698000Y-74054000D03*
D18*
%TO.P,K4,2*%
%TO.N,Net-(K4-Pad2)*%
X60198000Y-72804000D03*
%TO.P,K4,1*%
%TO.N,Net-(K4-Pad1)*%
X60198000Y-82804000D03*
%TD*%
%TO.P,K3,5*%
%TO.N,+5V*%
X18288000Y-77804000D03*
D19*
%TO.P,K3,4*%
%TO.N,Net-(J6-Pad2)*%
X52538000Y-81554000D03*
%TO.P,K3,3*%
%TO.N,Net-(J3-Pad2)*%
X45788000Y-74054000D03*
D18*
%TO.P,K3,2*%
%TO.N,Net-(K3-Pad2)*%
X18288000Y-72804000D03*
%TO.P,K3,1*%
%TO.N,Net-(K3-Pad1)*%
X18288000Y-82804000D03*
%TD*%
%TO.P,K2,7*%
%TO.N,+5V*%
X54356000Y-105036000D03*
%TO.P,K2,6*%
X49356000Y-105036000D03*
%TO.P,K2,5*%
%TO.N,Net-(K2-Pad5)*%
X34356000Y-105036000D03*
%TO.P,K2,4*%
%TO.N,Net-(J3-Pad2)*%
X30856000Y-97536000D03*
%TO.P,K2,3*%
%TO.N,Net-(J2-Pad2)*%
X37856000Y-97536000D03*
%TO.P,K2,2*%
%TO.N,Net-(K2-Pad2)*%
X49356000Y-97536000D03*
%TO.P,K2,1*%
%TO.N,Net-(K2-Pad1)*%
X54356000Y-97536000D03*
%TD*%
D20*
%TO.P,J5,20*%
%TO.N,GND*%
X40005000Y-19939000D03*
%TO.P,J5,19*%
%TO.N,N/C*%
X40005000Y-17399000D03*
%TO.P,J5,18*%
%TO.N,GND*%
X37465000Y-19939000D03*
%TO.P,J5,17*%
%TO.N,N/C*%
X37465000Y-17399000D03*
%TO.P,J5,16*%
%TO.N,GND*%
X34925000Y-19939000D03*
%TO.P,J5,15*%
%TO.N,N/C*%
X34925000Y-17399000D03*
%TO.P,J5,14*%
%TO.N,GND*%
X32385000Y-19939000D03*
%TO.P,J5,13*%
%TO.N,N/C*%
X32385000Y-17399000D03*
%TO.P,J5,12*%
X29845000Y-19939000D03*
%TO.P,J5,11*%
X29845000Y-17399000D03*
%TO.P,J5,10*%
X27305000Y-19939000D03*
%TO.P,J5,9*%
X27305000Y-17399000D03*
%TO.P,J5,8*%
X24765000Y-19939000D03*
%TO.P,J5,7*%
X24765000Y-17399000D03*
%TO.P,J5,6*%
X22225000Y-19939000D03*
%TO.P,J5,5*%
X22225000Y-17399000D03*
%TO.P,J5,4*%
%TO.N,Net-(J5-Pad4)*%
X19685000Y-19939000D03*
%TO.P,J5,3*%
%TO.N,Net-(J5-Pad3)*%
X19685000Y-17399000D03*
%TO.P,J5,2*%
%TO.N,N/C*%
X17145000Y-19939000D03*
D21*
%TO.P,J5,1*%
X17145000Y-17399000D03*
%TD*%
D22*
%TO.P,J4,2*%
%TO.N,Net-(J4-Pad2)*%
X79248000Y-19304000D03*
D23*
%TO.P,J4,1*%
%TO.N,Net-(J4-Pad1)*%
X74168000Y-19304000D03*
%TD*%
D24*
%TO.P,J3,2*%
%TO.N,Net-(J3-Pad2)*%
X18288000Y-105156000D03*
%TO.P,J3,1*%
%TO.N,Net-(J2-Pad1)*%
X18288000Y-100076000D03*
%TD*%
%TO.P,J2,2*%
%TO.N,Net-(J2-Pad2)*%
X18288000Y-116840000D03*
%TO.P,J2,1*%
%TO.N,Net-(J2-Pad1)*%
X18288000Y-111760000D03*
%TD*%
D25*
%TO.P,K1,11*%
%TO.N,Net-(J4-Pad2)*%
X83192000Y-104542000D03*
%TO.P,K1,12*%
%TO.N,GND*%
X78192000Y-104542000D03*
%TO.P,K1,14*%
%TO.N,Net-(J1-Pad1)*%
X88192000Y-104542000D03*
%TO.P,K1,21*%
%TO.N,Net-(J4-Pad1)*%
X83192000Y-97042000D03*
%TO.P,K1,22*%
%TO.N,+5V*%
X78192000Y-97042000D03*
%TO.P,K1,24*%
%TO.N,Net-(J1-Pad2)*%
X88192000Y-97042000D03*
%TO.P,K1,A1*%
%TO.N,Net-(J1-Pad1)*%
X63192000Y-104542000D03*
%TO.P,K1,A2*%
%TO.N,Net-(J1-Pad2)*%
X63192000Y-97042000D03*
%TD*%
D23*
%TO.P,J1,1*%
%TO.N,Net-(J1-Pad1)*%
X61468000Y-18796000D03*
D22*
%TO.P,J1,2*%
%TO.N,Net-(J1-Pad2)*%
X66548000Y-18796000D03*
%TD*%
D23*
%TO.P,J6,1*%
%TO.N,Net-(J2-Pad1)*%
X48260000Y-18796000D03*
D22*
%TO.P,J6,2*%
%TO.N,Net-(J6-Pad2)*%
X53340000Y-18796000D03*
%TD*%
D26*
%TO.N,GND*%
X73311300Y-43180000D02*
X73311300Y-50800000D01*
X72136000Y-41623100D02*
X73311300Y-42798400D01*
X73311300Y-42798400D02*
X73311300Y-43180000D01*
X73311300Y-43180000D02*
X78530700Y-43180000D01*
X72136000Y-50800000D02*
X73311300Y-50800000D01*
X72136000Y-50800000D02*
X72136000Y-51750300D01*
X72136000Y-56896000D02*
X70960700Y-56896000D01*
X70960700Y-56896000D02*
X70960700Y-52925600D01*
X70960700Y-52925600D02*
X72136000Y-51750300D01*
X79756000Y-43180000D02*
X78530700Y-43180000D01*
X72136000Y-41148000D02*
X72136000Y-41623100D01*
X72136000Y-62992000D02*
X72136000Y-63942300D01*
X78192000Y-104542000D02*
X79754500Y-102979500D01*
X79754500Y-102979500D02*
X79754500Y-71560800D01*
X79754500Y-71560800D02*
X72136000Y-63942300D01*
X102870000Y-64262000D02*
X102870000Y-70866000D01*
X102870000Y-57150000D02*
X102870000Y-64262000D01*
%TO.N,Net-(Q1-Pad2)*%
X93686000Y-38366000D02*
X93686000Y-34316000D01*
X101600000Y-57150000D02*
X101600000Y-46280000D01*
X101600000Y-46280000D02*
X93686000Y-38366000D01*
X101600000Y-64262000D02*
X101600000Y-57150000D01*
%TO.N,Net-(Q4-Pad2)*%
X72136000Y-54356000D02*
X73311300Y-54356000D01*
X72136000Y-61722000D02*
X73311300Y-61722000D01*
X73311300Y-61722000D02*
X73311300Y-54356000D01*
%TO.N,+5V*%
X60198000Y-77804000D02*
X61619400Y-76382600D01*
X61619400Y-76382600D02*
X61619400Y-52553600D01*
X61619400Y-52553600D02*
X62865000Y-51308000D01*
X78192000Y-97042000D02*
X60198000Y-79048000D01*
X60198000Y-79048000D02*
X60198000Y-77804000D01*
X103846000Y-38366000D02*
X103846000Y-39591300D01*
X103846000Y-39591300D02*
X104140000Y-39885300D01*
X104140000Y-39885300D02*
X104140000Y-43180000D01*
X103846000Y-38366000D02*
X103846000Y-34316000D01*
X104138000Y-46972000D02*
X104138000Y-45746700D01*
X104138000Y-45746700D02*
X104140000Y-45744700D01*
X104140000Y-45744700D02*
X104140000Y-43180000D01*
X104138000Y-46972000D02*
X104138000Y-51022000D01*
X80010000Y-53848000D02*
X80010000Y-59436000D01*
X80010000Y-47752000D02*
X80010000Y-53848000D01*
X103846000Y-34316000D02*
X103846000Y-33090700D01*
X103846000Y-33090700D02*
X104140000Y-32796700D01*
X104140000Y-32796700D02*
X104140000Y-30480000D01*
%TO.N,Net-(J1-Pad2)*%
X66548000Y-18796000D02*
X58229300Y-27114700D01*
X58229300Y-27114700D02*
X58229300Y-83103700D01*
X58229300Y-83103700D02*
X63192000Y-88066400D01*
X63192000Y-88066400D02*
X63192000Y-97042000D01*
%TO.N,Net-(J1-Pad1)*%
X61468000Y-20521300D02*
X57679000Y-24310300D01*
X57679000Y-24310300D02*
X57679000Y-83763000D01*
X57679000Y-83763000D02*
X60802100Y-86886100D01*
X60802100Y-86886100D02*
X60802100Y-102152100D01*
X60802100Y-102152100D02*
X63192000Y-104542000D01*
X61468000Y-18796000D02*
X61468000Y-20521300D01*
D27*
%TO.N,Net-(J2-Pad2)*%
X79756000Y-39116000D02*
X82832400Y-42192400D01*
X82832400Y-42192400D02*
X82832400Y-69188400D01*
X82832400Y-69188400D02*
X87698000Y-74054000D01*
X18288000Y-116840000D02*
X21338300Y-116840000D01*
X21338300Y-116840000D02*
X21338300Y-114053700D01*
X21338300Y-114053700D02*
X37856000Y-97536000D01*
D26*
%TO.N,Net-(J4-Pad1)*%
X74168000Y-19304000D02*
X74168000Y-21575100D01*
X74168000Y-21575100D02*
X91396100Y-38803200D01*
X91396100Y-38803200D02*
X91396100Y-60676200D01*
X91396100Y-60676200D02*
X90622200Y-61450100D01*
X90622200Y-61450100D02*
X90622200Y-89611800D01*
X90622200Y-89611800D02*
X83192000Y-97042000D01*
%TO.N,Net-(J4-Pad2)*%
X83192000Y-104542000D02*
X91722800Y-96011200D01*
X91722800Y-96011200D02*
X91722800Y-61403100D01*
X91722800Y-61403100D02*
X91985700Y-61140200D01*
X91985700Y-61140200D02*
X91985700Y-38614400D01*
X91985700Y-38614400D02*
X79248000Y-25876700D01*
X79248000Y-25876700D02*
X79248000Y-19304000D01*
%TO.N,Net-(Q3-Pad2)*%
X101600000Y-70866000D02*
X101600000Y-69690700D01*
X101600000Y-69690700D02*
X96546600Y-64637300D01*
X96546600Y-64637300D02*
X96546600Y-45746600D01*
X96546600Y-45746600D02*
X93980000Y-43180000D01*
%TO.N,Net-(Q7-Pad2)*%
X90170000Y-47752000D02*
X90170000Y-45204700D01*
X90170000Y-45204700D02*
X80876100Y-35910800D01*
X80876100Y-35910800D02*
X79319600Y-35910800D01*
X79319600Y-35910800D02*
X75920800Y-32512000D01*
X75920800Y-32512000D02*
X72136000Y-32512000D01*
%TO.N,Net-(Q8-Pad2)*%
X90170000Y-53848000D02*
X85791900Y-49469900D01*
X85791900Y-49469900D02*
X85791900Y-41604900D01*
X85791900Y-41604900D02*
X80827400Y-36640400D01*
X80827400Y-36640400D02*
X78233700Y-36640400D01*
X78233700Y-36640400D02*
X75375300Y-33782000D01*
X75375300Y-33782000D02*
X72136000Y-33782000D01*
%TO.N,Net-(Q9-Pad2)*%
X72136000Y-39878000D02*
X76096700Y-39878000D01*
X76096700Y-39878000D02*
X78784000Y-37190700D01*
X78784000Y-37190700D02*
X80599400Y-37190700D01*
X80599400Y-37190700D02*
X85047000Y-41638300D01*
X85047000Y-41638300D02*
X85047000Y-54313000D01*
X85047000Y-54313000D02*
X90170000Y-59436000D01*
D27*
%TO.N,Net-(J2-Pad1)*%
X18288000Y-100076000D02*
X18288000Y-97025700D01*
X20267700Y-43688000D02*
X17145000Y-43688000D01*
X45159700Y-18796000D02*
X20267700Y-43688000D01*
X18288000Y-97025700D02*
X21079000Y-94234700D01*
X21079000Y-94234700D02*
X21079000Y-44499300D01*
X21079000Y-44499300D02*
X20267700Y-43688000D01*
X18288000Y-108709700D02*
X16762800Y-108709700D01*
X16762800Y-108709700D02*
X15237600Y-107184500D01*
X15237600Y-107184500D02*
X15237600Y-103126400D01*
X15237600Y-103126400D02*
X18288000Y-100076000D01*
X48260000Y-18796000D02*
X45159700Y-18796000D01*
X18288000Y-111760000D02*
X18288000Y-108709700D01*
D26*
%TO.N,Net-(J3-Pad2)*%
X30856000Y-97536000D02*
X30856000Y-88986000D01*
X30856000Y-88986000D02*
X45788000Y-74054000D01*
X19963300Y-105156000D02*
X27583300Y-97536000D01*
X27583300Y-97536000D02*
X30856000Y-97536000D01*
X18288000Y-105156000D02*
X19963300Y-105156000D01*
%TO.N,Net-(J5-Pad4)*%
X89916000Y-39116000D02*
X89916000Y-43180000D01*
%TO.N,Net-(J5-Pad3)*%
X79756000Y-29972000D02*
X79756000Y-34544000D01*
%TO.N,Net-(K4-Pad1)*%
X72009000Y-26670000D02*
X70833700Y-26670000D01*
X60198000Y-82804000D02*
X58779700Y-81385700D01*
X58779700Y-81385700D02*
X58779700Y-38724000D01*
X58779700Y-38724000D02*
X70833700Y-26670000D01*
D27*
%TO.N,Net-(J6-Pad2)*%
X52538000Y-81554000D02*
X57290200Y-86306200D01*
X57290200Y-86306200D02*
X57290200Y-102798400D01*
X57290200Y-102798400D02*
X61992600Y-107500800D01*
X61992600Y-107500800D02*
X89398900Y-107500800D01*
X89398900Y-107500800D02*
X94448000Y-102451700D01*
X94448000Y-102451700D02*
X94448000Y-81554000D01*
X53340000Y-18796000D02*
X53340000Y-80752000D01*
X53340000Y-80752000D02*
X52538000Y-81554000D01*
D26*
%TO.N,Net-(K4-Pad2)*%
X60198000Y-72804000D02*
X60198000Y-49370700D01*
X60198000Y-49370700D02*
X70960700Y-38608000D01*
X72136000Y-38608000D02*
X70960700Y-38608000D01*
%TD*%
M02*
