%TF.GenerationSoftware,KiCad,Pcbnew,(5.1.6)-1*%
%TF.CreationDate,2021-11-19T15:31:24+01:00*%
%TF.ProjectId,FoxRobot,466f7852-6f62-46f7-942e-6b696361645f,V01*%
%TF.SameCoordinates,Original*%
%TF.FileFunction,Soldermask,Top*%
%TF.FilePolarity,Negative*%
%FSLAX46Y46*%
G04 Gerber Fmt 4.6, Leading zero omitted, Abs format (unit mm)*
G04 Created by KiCad (PCBNEW (5.1.6)-1) date 2021-11-19 15:31:24*
%MOMM*%
%LPD*%
G01*
G04 APERTURE LIST*
%ADD10C,1.624000*%
%ADD11O,1.700000X1.700000*%
%ADD12C,1.700000*%
%ADD13R,1.600000X1.150000*%
%ADD14O,1.600000X1.150000*%
%ADD15R,1.150000X1.600000*%
%ADD16O,1.150000X1.600000*%
%ADD17C,2.050000*%
%ADD18C,4.450000*%
%ADD19O,1.800000X1.800000*%
%ADD20R,1.800000X1.800000*%
%ADD21C,2.700000*%
%ADD22R,2.700000X2.700000*%
%ADD23R,2.600000X2.600000*%
%ADD24C,2.350000*%
%ADD25C,3.700000*%
%ADD26C,5.800000*%
%ADD27C,2.100000*%
G04 APERTURE END LIST*
D10*
%TO.C,U1*%
X161925000Y-109728000D03*
X161925000Y-99568000D03*
X161925000Y-89408000D03*
X161925000Y-79248000D03*
X116205000Y-97028000D03*
X116205000Y-91948000D03*
X116205000Y-81788000D03*
%TD*%
D11*
%TO.C,R13*%
X179070000Y-107696000D03*
D12*
X189230000Y-107696000D03*
%TD*%
D11*
%TO.C,R12*%
X179070000Y-102108000D03*
D12*
X189230000Y-102108000D03*
%TD*%
D11*
%TO.C,R11*%
X179070000Y-96012000D03*
D12*
X189230000Y-96012000D03*
%TD*%
D11*
%TO.C,R10*%
X203200000Y-78740000D03*
D12*
X193040000Y-78740000D03*
%TD*%
D11*
%TO.C,R9*%
X203198000Y-99282000D03*
D12*
X193038000Y-99282000D03*
%TD*%
D11*
%TO.C,R8*%
X203198000Y-95232000D03*
D12*
X193038000Y-95232000D03*
%TD*%
D11*
%TO.C,R7*%
X203200000Y-91440000D03*
D12*
X193040000Y-91440000D03*
%TD*%
D11*
%TO.C,R6*%
X202906000Y-86626000D03*
D12*
X192746000Y-86626000D03*
%TD*%
D11*
%TO.C,R5*%
X202906000Y-82576000D03*
D12*
X192746000Y-82576000D03*
%TD*%
D11*
%TO.C,R4*%
X188976000Y-82804000D03*
D12*
X178816000Y-82804000D03*
%TD*%
D11*
%TO.C,R3*%
X178816000Y-91440000D03*
D12*
X188976000Y-91440000D03*
%TD*%
D11*
%TO.C,R2*%
X178816000Y-78232000D03*
D12*
X188976000Y-78232000D03*
%TD*%
D11*
%TO.C,R1*%
X188976000Y-87376000D03*
D12*
X178816000Y-87376000D03*
%TD*%
D13*
%TO.C,Q9*%
X171196000Y-86868000D03*
D14*
X171196000Y-89408000D03*
X171196000Y-88138000D03*
%TD*%
D13*
%TO.C,Q8*%
X171196000Y-80772000D03*
D14*
X171196000Y-83312000D03*
X171196000Y-82042000D03*
%TD*%
D13*
%TO.C,Q7*%
X171069000Y-74930000D03*
D14*
X171069000Y-77470000D03*
X171069000Y-76200000D03*
%TD*%
D13*
%TO.C,Q6*%
X171196000Y-96520000D03*
D14*
X171196000Y-99060000D03*
X171196000Y-97790000D03*
%TD*%
D13*
%TO.C,Q5*%
X171196000Y-102616000D03*
D14*
X171196000Y-105156000D03*
X171196000Y-103886000D03*
%TD*%
D13*
%TO.C,Q4*%
X171196000Y-108712000D03*
D14*
X171196000Y-111252000D03*
X171196000Y-109982000D03*
%TD*%
D15*
%TO.C,Q3*%
X199390000Y-119126000D03*
D16*
X201930000Y-119126000D03*
X200660000Y-119126000D03*
%TD*%
D15*
%TO.C,Q2*%
X199390000Y-112522000D03*
D16*
X201930000Y-112522000D03*
X200660000Y-112522000D03*
%TD*%
D15*
%TO.C,Q1*%
X199390000Y-105410000D03*
D16*
X201930000Y-105410000D03*
X200660000Y-105410000D03*
%TD*%
D17*
%TO.C,K4*%
X159258000Y-126064000D03*
D18*
X193508000Y-129814000D03*
X186758000Y-122314000D03*
D17*
X159258000Y-121064000D03*
X159258000Y-131064000D03*
%TD*%
%TO.C,K3*%
X117348000Y-126064000D03*
D18*
X151598000Y-129814000D03*
X144848000Y-122314000D03*
D17*
X117348000Y-121064000D03*
X117348000Y-131064000D03*
%TD*%
%TO.C,K2*%
X153416000Y-153296000D03*
X148416000Y-153296000D03*
X133416000Y-153296000D03*
X129916000Y-145796000D03*
X136916000Y-145796000D03*
X148416000Y-145796000D03*
X153416000Y-145796000D03*
%TD*%
D19*
%TO.C,J5*%
X139065000Y-60960000D03*
X139065000Y-58420000D03*
X136525000Y-60960000D03*
X136525000Y-58420000D03*
X133985000Y-60960000D03*
X133985000Y-58420000D03*
X131445000Y-60960000D03*
X131445000Y-58420000D03*
X128905000Y-60960000D03*
X128905000Y-58420000D03*
X126365000Y-60960000D03*
X126365000Y-58420000D03*
X123825000Y-60960000D03*
X123825000Y-58420000D03*
X121285000Y-60960000D03*
X121285000Y-58420000D03*
X118745000Y-60960000D03*
X118745000Y-58420000D03*
X116205000Y-60960000D03*
D20*
X116205000Y-58420000D03*
%TD*%
D21*
%TO.C,J4*%
X178308000Y-62230000D03*
D22*
X173228000Y-62230000D03*
%TD*%
D23*
%TO.C,J3*%
X117348000Y-153416000D03*
X117348000Y-148336000D03*
%TD*%
%TO.C,J2*%
X117348000Y-165100000D03*
X117348000Y-160020000D03*
%TD*%
D24*
%TO.C,K1*%
X182252000Y-152802000D03*
X177252000Y-152802000D03*
X187252000Y-152802000D03*
X182252000Y-145302000D03*
X177252000Y-145302000D03*
X187252000Y-145302000D03*
X162252000Y-152802000D03*
X162252000Y-145302000D03*
%TD*%
D22*
%TO.C,J1*%
X160528000Y-62230000D03*
D21*
X165608000Y-62230000D03*
%TD*%
D22*
%TO.C,J6*%
X147320000Y-62230000D03*
D21*
X152400000Y-62230000D03*
%TD*%
D20*
%TO.C,J7*%
X185420000Y-58420000D03*
D19*
X185420000Y-60960000D03*
X187960000Y-58420000D03*
X187960000Y-60960000D03*
X190500000Y-58420000D03*
X190500000Y-60960000D03*
X193040000Y-58420000D03*
X193040000Y-60960000D03*
X195580000Y-58420000D03*
X195580000Y-60960000D03*
X198120000Y-58420000D03*
X198120000Y-60960000D03*
X200660000Y-58420000D03*
X200660000Y-60960000D03*
X203200000Y-58420000D03*
X203200000Y-60960000D03*
X205740000Y-58420000D03*
X205740000Y-60960000D03*
X208280000Y-58420000D03*
X208280000Y-60960000D03*
%TD*%
D25*
%TO.C,H1*%
X115570000Y-67310000D03*
D26*
X115570000Y-67310000D03*
%TD*%
%TO.C,H2*%
X197435000Y-71335000D03*
D25*
X197435000Y-71335000D03*
%TD*%
%TO.C,H3*%
X129540000Y-162560000D03*
D26*
X129540000Y-162560000D03*
%TD*%
%TO.C,H4*%
X205740000Y-162560000D03*
D25*
X205740000Y-162560000D03*
%TD*%
D27*
%TO.C,C1*%
X157855000Y-161545000D03*
X162855000Y-161545000D03*
%TD*%
%TO.C,C2*%
X173910000Y-161290000D03*
X168910000Y-161290000D03*
%TD*%
D21*
%TO.C,L1*%
X144780000Y-163830000D03*
X149780000Y-163830000D03*
%TD*%
M02*
