%TF.GenerationSoftware,KiCad,Pcbnew,(5.1.6)-1*%
%TF.CreationDate,2021-11-10T15:24:26+01:00*%
%TF.ProjectId,FoxRobot,466f7852-6f62-46f7-942e-6b696361645f,V01*%
%TF.SameCoordinates,Original*%
%TF.FileFunction,Copper,L2,Bot*%
%TF.FilePolarity,Positive*%
%FSLAX46Y46*%
G04 Gerber Fmt 4.6, Leading zero omitted, Abs format (unit mm)*
G04 Created by KiCad (PCBNEW (5.1.6)-1) date 2021-11-10 15:24:26*
%MOMM*%
%LPD*%
G01*
G04 APERTURE LIST*
%TA.AperFunction,NonConductor*%
%ADD10C,0.300000*%
%TD*%
%TA.AperFunction,ComponentPad*%
%ADD11C,1.524000*%
%TD*%
%TA.AperFunction,ComponentPad*%
%ADD12O,1.600000X1.600000*%
%TD*%
%TA.AperFunction,ComponentPad*%
%ADD13C,1.600000*%
%TD*%
%TA.AperFunction,ComponentPad*%
%ADD14R,1.500000X1.050000*%
%TD*%
%TA.AperFunction,ComponentPad*%
%ADD15O,1.500000X1.050000*%
%TD*%
%TA.AperFunction,ComponentPad*%
%ADD16R,1.050000X1.500000*%
%TD*%
%TA.AperFunction,ComponentPad*%
%ADD17O,1.050000X1.500000*%
%TD*%
%TA.AperFunction,ComponentPad*%
%ADD18C,1.950000*%
%TD*%
%TA.AperFunction,ComponentPad*%
%ADD19C,4.350000*%
%TD*%
%TA.AperFunction,ComponentPad*%
%ADD20O,1.700000X1.700000*%
%TD*%
%TA.AperFunction,ComponentPad*%
%ADD21R,1.700000X1.700000*%
%TD*%
%TA.AperFunction,ComponentPad*%
%ADD22C,2.600000*%
%TD*%
%TA.AperFunction,ComponentPad*%
%ADD23R,2.600000X2.600000*%
%TD*%
%TA.AperFunction,ComponentPad*%
%ADD24C,2.250000*%
%TD*%
%TA.AperFunction,ComponentPad*%
%ADD25C,3.600000*%
%TD*%
%TA.AperFunction,ConnectorPad*%
%ADD26C,5.700000*%
%TD*%
%TA.AperFunction,ViaPad*%
%ADD27C,0.800000*%
%TD*%
%TA.AperFunction,Conductor*%
%ADD28C,0.300000*%
%TD*%
%TA.AperFunction,Conductor*%
%ADD29C,2.800000*%
%TD*%
G04 APERTURE END LIST*
D10*
X89847142Y-114978571D02*
X90347142Y-114264285D01*
X90704285Y-114978571D02*
X90704285Y-113478571D01*
X90132857Y-113478571D01*
X89990000Y-113550000D01*
X89918571Y-113621428D01*
X89847142Y-113764285D01*
X89847142Y-113978571D01*
X89918571Y-114121428D01*
X89990000Y-114192857D01*
X90132857Y-114264285D01*
X90704285Y-114264285D01*
X88990000Y-114978571D02*
X89132857Y-114907142D01*
X89204285Y-114835714D01*
X89275714Y-114692857D01*
X89275714Y-114264285D01*
X89204285Y-114121428D01*
X89132857Y-114050000D01*
X88990000Y-113978571D01*
X88775714Y-113978571D01*
X88632857Y-114050000D01*
X88561428Y-114121428D01*
X88490000Y-114264285D01*
X88490000Y-114692857D01*
X88561428Y-114835714D01*
X88632857Y-114907142D01*
X88775714Y-114978571D01*
X88990000Y-114978571D01*
X87990000Y-113978571D02*
X87632857Y-114978571D01*
X87275714Y-113978571D01*
X86132857Y-114907142D02*
X86275714Y-114978571D01*
X86561428Y-114978571D01*
X86704285Y-114907142D01*
X86775714Y-114764285D01*
X86775714Y-114192857D01*
X86704285Y-114050000D01*
X86561428Y-113978571D01*
X86275714Y-113978571D01*
X86132857Y-114050000D01*
X86061428Y-114192857D01*
X86061428Y-114335714D01*
X86775714Y-114478571D01*
X85418571Y-114978571D02*
X85418571Y-113978571D01*
X85418571Y-114264285D02*
X85347142Y-114121428D01*
X85275714Y-114050000D01*
X85132857Y-113978571D01*
X84990000Y-113978571D01*
X84847142Y-115121428D02*
X83704285Y-115121428D01*
X83347142Y-114192857D02*
X82847142Y-114192857D01*
X82632857Y-114978571D02*
X83347142Y-114978571D01*
X83347142Y-113478571D01*
X82632857Y-113478571D01*
X81775714Y-114978571D02*
X81918571Y-114907142D01*
X81990000Y-114764285D01*
X81990000Y-113478571D01*
X80632857Y-114907142D02*
X80775714Y-114978571D01*
X81061428Y-114978571D01*
X81204285Y-114907142D01*
X81275714Y-114764285D01*
X81275714Y-114192857D01*
X81204285Y-114050000D01*
X81061428Y-113978571D01*
X80775714Y-113978571D01*
X80632857Y-114050000D01*
X80561428Y-114192857D01*
X80561428Y-114335714D01*
X81275714Y-114478571D01*
X79275714Y-114907142D02*
X79418571Y-114978571D01*
X79704285Y-114978571D01*
X79847142Y-114907142D01*
X79918571Y-114835714D01*
X79990000Y-114692857D01*
X79990000Y-114264285D01*
X79918571Y-114121428D01*
X79847142Y-114050000D01*
X79704285Y-113978571D01*
X79418571Y-113978571D01*
X79275714Y-114050000D01*
X78847142Y-113978571D02*
X78275714Y-113978571D01*
X78632857Y-113478571D02*
X78632857Y-114764285D01*
X78561428Y-114907142D01*
X78418571Y-114978571D01*
X78275714Y-114978571D01*
X77775714Y-114978571D02*
X77775714Y-113978571D01*
X77775714Y-114264285D02*
X77704285Y-114121428D01*
X77632857Y-114050000D01*
X77490000Y-113978571D01*
X77347142Y-113978571D01*
X76632857Y-114978571D02*
X76775714Y-114907142D01*
X76847142Y-114835714D01*
X76918571Y-114692857D01*
X76918571Y-114264285D01*
X76847142Y-114121428D01*
X76775714Y-114050000D01*
X76632857Y-113978571D01*
X76418571Y-113978571D01*
X76275714Y-114050000D01*
X76204285Y-114121428D01*
X76132857Y-114264285D01*
X76132857Y-114692857D01*
X76204285Y-114835714D01*
X76275714Y-114907142D01*
X76418571Y-114978571D01*
X76632857Y-114978571D01*
X75490000Y-113978571D02*
X75490000Y-114978571D01*
X75490000Y-114121428D02*
X75418571Y-114050000D01*
X75275714Y-113978571D01*
X75061428Y-113978571D01*
X74918571Y-114050000D01*
X74847142Y-114192857D01*
X74847142Y-114978571D01*
X74132857Y-114978571D02*
X74132857Y-113978571D01*
X74132857Y-113478571D02*
X74204285Y-113550000D01*
X74132857Y-113621428D01*
X74061428Y-113550000D01*
X74132857Y-113478571D01*
X74132857Y-113621428D01*
X72775714Y-114907142D02*
X72918571Y-114978571D01*
X73204285Y-114978571D01*
X73347142Y-114907142D01*
X73418571Y-114835714D01*
X73490000Y-114692857D01*
X73490000Y-114264285D01*
X73418571Y-114121428D01*
X73347142Y-114050000D01*
X73204285Y-113978571D01*
X72918571Y-113978571D01*
X72775714Y-114050000D01*
X72204285Y-114907142D02*
X72061428Y-114978571D01*
X71775714Y-114978571D01*
X71632857Y-114907142D01*
X71561428Y-114764285D01*
X71561428Y-114692857D01*
X71632857Y-114550000D01*
X71775714Y-114478571D01*
X71990000Y-114478571D01*
X72132857Y-114407142D01*
X72204285Y-114264285D01*
X72204285Y-114192857D01*
X72132857Y-114050000D01*
X71990000Y-113978571D01*
X71775714Y-113978571D01*
X71632857Y-114050000D01*
X71132857Y-113478571D02*
X70632857Y-114978571D01*
X70132857Y-113478571D01*
X68847142Y-114978571D02*
X69704285Y-114978571D01*
X69275714Y-114978571D02*
X69275714Y-113478571D01*
X69418571Y-113692857D01*
X69561428Y-113835714D01*
X69704285Y-113907142D01*
X68204285Y-114835714D02*
X68132857Y-114907142D01*
X68204285Y-114978571D01*
X68275714Y-114907142D01*
X68204285Y-114835714D01*
X68204285Y-114978571D01*
X67204285Y-113478571D02*
X67061428Y-113478571D01*
X66918571Y-113550000D01*
X66847142Y-113621428D01*
X66775714Y-113764285D01*
X66704285Y-114050000D01*
X66704285Y-114407142D01*
X66775714Y-114692857D01*
X66847142Y-114835714D01*
X66918571Y-114907142D01*
X67061428Y-114978571D01*
X67204285Y-114978571D01*
X67347142Y-114907142D01*
X67418571Y-114835714D01*
X67490000Y-114692857D01*
X67561428Y-114407142D01*
X67561428Y-114050000D01*
X67490000Y-113764285D01*
X67418571Y-113621428D01*
X67347142Y-113550000D01*
X67204285Y-113478571D01*
D11*
%TO.P,U1,8*%
%TO.N,N/C*%
X65405000Y-66548000D03*
%TO.P,U1,7*%
%TO.N,+5V*%
X65405000Y-56388000D03*
%TO.P,U1,6*%
%TO.N,GND*%
X65405000Y-46228000D03*
%TO.P,U1,5*%
%TO.N,N/C*%
X65405000Y-36068000D03*
%TO.P,U1,4*%
%TO.N,Net-(K2-Pad5)*%
X19685000Y-53848000D03*
%TO.P,U1,3*%
%TO.N,Net-(J2-Pad1)*%
X19685000Y-48768000D03*
%TO.P,U1,1*%
%TO.N,N/C*%
X19685000Y-38608000D03*
%TD*%
D12*
%TO.P,R13,2*%
%TO.N,+5V*%
X82550000Y-64516000D03*
D13*
%TO.P,R13,1*%
%TO.N,Net-(Q9-Pad2)*%
X92710000Y-64516000D03*
%TD*%
D12*
%TO.P,R12,2*%
%TO.N,+5V*%
X82550000Y-58928000D03*
D13*
%TO.P,R12,1*%
%TO.N,Net-(Q8-Pad2)*%
X92710000Y-58928000D03*
%TD*%
D12*
%TO.P,R11,2*%
%TO.N,+5V*%
X82550000Y-52832000D03*
D13*
%TO.P,R11,1*%
%TO.N,Net-(Q7-Pad2)*%
X92710000Y-52832000D03*
%TD*%
D12*
%TO.P,R10,2*%
%TO.N,+5V*%
X106680000Y-35560000D03*
D13*
%TO.P,R10,1*%
%TO.N,Net-(Q6-Pad2)*%
X96520000Y-35560000D03*
%TD*%
D12*
%TO.P,R9,2*%
%TO.N,+5V*%
X106678000Y-56102000D03*
D13*
%TO.P,R9,1*%
%TO.N,Net-(Q5-Pad2)*%
X96518000Y-56102000D03*
%TD*%
D12*
%TO.P,R8,2*%
%TO.N,+5V*%
X106678000Y-52052000D03*
D13*
%TO.P,R8,1*%
%TO.N,Net-(Q4-Pad2)*%
X96518000Y-52052000D03*
%TD*%
D12*
%TO.P,R7,2*%
%TO.N,+5V*%
X106680000Y-48260000D03*
D13*
%TO.P,R7,1*%
%TO.N,Net-(Q3-Pad2)*%
X96520000Y-48260000D03*
%TD*%
D12*
%TO.P,R6,2*%
%TO.N,+5V*%
X106386000Y-43446000D03*
D13*
%TO.P,R6,1*%
%TO.N,Net-(Q1-Pad2)*%
X96226000Y-43446000D03*
%TD*%
D12*
%TO.P,R5,2*%
%TO.N,+5V*%
X106386000Y-39396000D03*
D13*
%TO.P,R5,1*%
%TO.N,Net-(Q1-Pad2)*%
X96226000Y-39396000D03*
%TD*%
D12*
%TO.P,R4,2*%
%TO.N,GND*%
X92456000Y-39624000D03*
D13*
%TO.P,R4,1*%
%TO.N,/A3*%
X82296000Y-39624000D03*
%TD*%
D12*
%TO.P,R3,2*%
%TO.N,GND*%
X82296000Y-48260000D03*
D13*
%TO.P,R3,1*%
%TO.N,/A4*%
X92456000Y-48260000D03*
%TD*%
D12*
%TO.P,R2,2*%
%TO.N,/A3*%
X82296000Y-35052000D03*
D13*
%TO.P,R2,1*%
%TO.N,Net-(J3-Pad2)*%
X92456000Y-35052000D03*
%TD*%
D12*
%TO.P,R1,2*%
%TO.N,/A4*%
X92456000Y-44196000D03*
D13*
%TO.P,R1,1*%
%TO.N,Net-(J2-Pad2)*%
X82296000Y-44196000D03*
%TD*%
D14*
%TO.P,Q9,1*%
%TO.N,Net-(K4-Pad2)*%
X74676000Y-43688000D03*
D15*
%TO.P,Q9,3*%
%TO.N,GND*%
X74676000Y-46228000D03*
%TO.P,Q9,2*%
%TO.N,Net-(Q9-Pad2)*%
X74676000Y-44958000D03*
%TD*%
D14*
%TO.P,Q8,1*%
%TO.N,Net-(Q7-Pad2)*%
X74676000Y-37592000D03*
D15*
%TO.P,Q8,3*%
%TO.N,GND*%
X74676000Y-40132000D03*
%TO.P,Q8,2*%
%TO.N,Net-(Q8-Pad2)*%
X74676000Y-38862000D03*
%TD*%
D14*
%TO.P,Q7,1*%
%TO.N,Net-(K4-Pad1)*%
X74549000Y-31750000D03*
D15*
%TO.P,Q7,3*%
%TO.N,GND*%
X74549000Y-34290000D03*
%TO.P,Q7,2*%
%TO.N,Net-(Q7-Pad2)*%
X74549000Y-33020000D03*
%TD*%
D14*
%TO.P,Q6,1*%
%TO.N,Net-(K3-Pad2)*%
X74676000Y-53340000D03*
D15*
%TO.P,Q6,3*%
%TO.N,GND*%
X74676000Y-55880000D03*
%TO.P,Q6,2*%
%TO.N,Net-(Q6-Pad2)*%
X74676000Y-54610000D03*
%TD*%
D14*
%TO.P,Q5,1*%
%TO.N,Net-(Q4-Pad2)*%
X74676000Y-59436000D03*
D15*
%TO.P,Q5,3*%
%TO.N,GND*%
X74676000Y-61976000D03*
%TO.P,Q5,2*%
%TO.N,Net-(Q5-Pad2)*%
X74676000Y-60706000D03*
%TD*%
D14*
%TO.P,Q4,1*%
%TO.N,Net-(K3-Pad1)*%
X74676000Y-65532000D03*
D15*
%TO.P,Q4,3*%
%TO.N,GND*%
X74676000Y-68072000D03*
%TO.P,Q4,2*%
%TO.N,Net-(Q4-Pad2)*%
X74676000Y-66802000D03*
%TD*%
D16*
%TO.P,Q3,1*%
%TO.N,Net-(K2-Pad1)*%
X102870000Y-75946000D03*
D17*
%TO.P,Q3,3*%
%TO.N,GND*%
X105410000Y-75946000D03*
%TO.P,Q3,2*%
%TO.N,Net-(Q3-Pad2)*%
X104140000Y-75946000D03*
%TD*%
D16*
%TO.P,Q2,1*%
%TO.N,Net-(Q1-Pad2)*%
X102870000Y-69342000D03*
D17*
%TO.P,Q2,3*%
%TO.N,GND*%
X105410000Y-69342000D03*
%TO.P,Q2,2*%
%TO.N,Net-(Q1-Pad2)*%
X104140000Y-69342000D03*
%TD*%
D16*
%TO.P,Q1,1*%
%TO.N,Net-(K2-Pad2)*%
X102870000Y-62230000D03*
D17*
%TO.P,Q1,3*%
%TO.N,GND*%
X105410000Y-62230000D03*
%TO.P,Q1,2*%
%TO.N,Net-(Q1-Pad2)*%
X104140000Y-62230000D03*
%TD*%
D18*
%TO.P,K4,5*%
%TO.N,+5V*%
X62738000Y-82884000D03*
D19*
%TO.P,K4,4*%
%TO.N,Net-(J6-Pad2)*%
X96988000Y-86634000D03*
%TO.P,K4,3*%
%TO.N,Net-(J2-Pad2)*%
X90238000Y-79134000D03*
D18*
%TO.P,K4,2*%
%TO.N,Net-(K4-Pad2)*%
X62738000Y-77884000D03*
%TO.P,K4,1*%
%TO.N,Net-(K4-Pad1)*%
X62738000Y-87884000D03*
%TD*%
%TO.P,K3,5*%
%TO.N,+5V*%
X20828000Y-82884000D03*
D19*
%TO.P,K3,4*%
%TO.N,Net-(J6-Pad2)*%
X55078000Y-86634000D03*
%TO.P,K3,3*%
%TO.N,Net-(J3-Pad2)*%
X48328000Y-79134000D03*
D18*
%TO.P,K3,2*%
%TO.N,Net-(K3-Pad2)*%
X20828000Y-77884000D03*
%TO.P,K3,1*%
%TO.N,Net-(K3-Pad1)*%
X20828000Y-87884000D03*
%TD*%
%TO.P,K2,7*%
%TO.N,+5V*%
X56896000Y-110116000D03*
%TO.P,K2,6*%
X51896000Y-110116000D03*
%TO.P,K2,5*%
%TO.N,Net-(K2-Pad5)*%
X36896000Y-110116000D03*
%TO.P,K2,4*%
%TO.N,Net-(J3-Pad2)*%
X33396000Y-102616000D03*
%TO.P,K2,3*%
%TO.N,Net-(J2-Pad2)*%
X40396000Y-102616000D03*
%TO.P,K2,2*%
%TO.N,Net-(K2-Pad2)*%
X51896000Y-102616000D03*
%TO.P,K2,1*%
%TO.N,Net-(K2-Pad1)*%
X56896000Y-102616000D03*
%TD*%
D20*
%TO.P,J5,20*%
%TO.N,GND*%
X42545000Y-17780000D03*
%TO.P,J5,19*%
%TO.N,/A19*%
X42545000Y-15240000D03*
%TO.P,J5,18*%
%TO.N,GND*%
X40005000Y-17780000D03*
%TO.P,J5,17*%
%TO.N,/A17*%
X40005000Y-15240000D03*
%TO.P,J5,16*%
%TO.N,GND*%
X37465000Y-17780000D03*
%TO.P,J5,15*%
%TO.N,/A15*%
X37465000Y-15240000D03*
%TO.P,J5,14*%
%TO.N,GND*%
X34925000Y-17780000D03*
%TO.P,J5,13*%
%TO.N,/A13*%
X34925000Y-15240000D03*
%TO.P,J5,12*%
%TO.N,/A12*%
X32385000Y-17780000D03*
%TO.P,J5,11*%
%TO.N,/A11*%
X32385000Y-15240000D03*
%TO.P,J5,10*%
%TO.N,/A10*%
X29845000Y-17780000D03*
%TO.P,J5,9*%
%TO.N,/A9*%
X29845000Y-15240000D03*
%TO.P,J5,8*%
%TO.N,/A8*%
X27305000Y-17780000D03*
%TO.P,J5,7*%
%TO.N,/A7*%
X27305000Y-15240000D03*
%TO.P,J5,6*%
%TO.N,/A6*%
X24765000Y-17780000D03*
%TO.P,J5,5*%
%TO.N,/A5*%
X24765000Y-15240000D03*
%TO.P,J5,4*%
%TO.N,/A4*%
X22225000Y-17780000D03*
%TO.P,J5,3*%
%TO.N,/A3*%
X22225000Y-15240000D03*
%TO.P,J5,2*%
%TO.N,/A2*%
X19685000Y-17780000D03*
D21*
%TO.P,J5,1*%
%TO.N,/A1*%
X19685000Y-15240000D03*
%TD*%
D22*
%TO.P,J4,2*%
%TO.N,Net-(J4-Pad2)*%
X81788000Y-19050000D03*
D23*
%TO.P,J4,1*%
%TO.N,Net-(J4-Pad1)*%
X76708000Y-19050000D03*
%TD*%
D24*
%TO.P,K1,11*%
%TO.N,Net-(J4-Pad2)*%
X85732000Y-109622000D03*
%TO.P,K1,12*%
%TO.N,GND*%
X80732000Y-109622000D03*
%TO.P,K1,14*%
%TO.N,Net-(J1-Pad1)*%
X90732000Y-109622000D03*
%TO.P,K1,21*%
%TO.N,Net-(J4-Pad1)*%
X85732000Y-102122000D03*
%TO.P,K1,22*%
%TO.N,+5V*%
X80732000Y-102122000D03*
%TO.P,K1,24*%
%TO.N,Net-(J1-Pad2)*%
X90732000Y-102122000D03*
%TO.P,K1,A1*%
%TO.N,Net-(J1-Pad1)*%
X65732000Y-109622000D03*
%TO.P,K1,A2*%
%TO.N,Net-(J1-Pad2)*%
X65732000Y-102122000D03*
%TD*%
D23*
%TO.P,J1,1*%
%TO.N,Net-(J1-Pad1)*%
X64008000Y-19050000D03*
D22*
%TO.P,J1,2*%
%TO.N,Net-(J1-Pad2)*%
X69088000Y-19050000D03*
%TD*%
D23*
%TO.P,J6,1*%
%TO.N,Net-(J2-Pad1)*%
X50800000Y-19050000D03*
D22*
%TO.P,J6,2*%
%TO.N,Net-(J6-Pad2)*%
X55880000Y-19050000D03*
%TD*%
D21*
%TO.P,J7,1*%
%TO.N,/A1*%
X88900000Y-15240000D03*
D20*
%TO.P,J7,2*%
%TO.N,/A2*%
X88900000Y-17780000D03*
%TO.P,J7,3*%
%TO.N,/A3*%
X91440000Y-15240000D03*
%TO.P,J7,4*%
%TO.N,/A4*%
X91440000Y-17780000D03*
%TO.P,J7,5*%
%TO.N,/A5*%
X93980000Y-15240000D03*
%TO.P,J7,6*%
%TO.N,/A6*%
X93980000Y-17780000D03*
%TO.P,J7,7*%
%TO.N,/A7*%
X96520000Y-15240000D03*
%TO.P,J7,8*%
%TO.N,/A8*%
X96520000Y-17780000D03*
%TO.P,J7,9*%
%TO.N,/A9*%
X99060000Y-15240000D03*
%TO.P,J7,10*%
%TO.N,/A10*%
X99060000Y-17780000D03*
%TO.P,J7,11*%
%TO.N,/A11*%
X101600000Y-15240000D03*
%TO.P,J7,12*%
%TO.N,/A12*%
X101600000Y-17780000D03*
%TO.P,J7,13*%
%TO.N,/A13*%
X104140000Y-15240000D03*
%TO.P,J7,14*%
%TO.N,GND*%
X104140000Y-17780000D03*
%TO.P,J7,15*%
%TO.N,/A15*%
X106680000Y-15240000D03*
%TO.P,J7,16*%
%TO.N,GND*%
X106680000Y-17780000D03*
%TO.P,J7,17*%
%TO.N,/A17*%
X109220000Y-15240000D03*
%TO.P,J7,18*%
%TO.N,GND*%
X109220000Y-17780000D03*
%TO.P,J7,19*%
%TO.N,/A19*%
X111760000Y-15240000D03*
%TO.P,J7,20*%
%TO.N,GND*%
X111760000Y-17780000D03*
%TD*%
D25*
%TO.P,H1,1*%
%TO.N,N/C*%
X19050000Y-24130000D03*
D26*
X19050000Y-24130000D03*
%TD*%
%TO.P,H2,1*%
%TO.N,N/C*%
X100915000Y-28155000D03*
D25*
X100915000Y-28155000D03*
%TD*%
%TO.P,H3,1*%
%TO.N,N/C*%
X33020000Y-119380000D03*
D26*
X33020000Y-119380000D03*
%TD*%
%TO.P,H4,1*%
%TO.N,N/C*%
X109220000Y-119380000D03*
D25*
X109220000Y-119380000D03*
%TD*%
D27*
%TO.N,Net-(Q4-Pad2)*%
X78655200Y-63958500D03*
%TO.N,Net-(J2-Pad2)*%
X84799500Y-61736900D03*
%TO.N,Net-(K3-Pad1)*%
X39305500Y-79830000D03*
%TO.N,Net-(Q5-Pad2)*%
X81118500Y-63744000D03*
%TO.N,Net-(Q7-Pad2)*%
X78912300Y-37592000D03*
%TO.N,Net-(K4-Pad1)*%
X70557500Y-80064500D03*
%TO.N,Net-(K3-Pad2)*%
X37208200Y-67082400D03*
%TO.N,Net-(K4-Pad2)*%
X71378900Y-75940800D03*
%TO.N,/A19*%
X106208500Y-13586700D03*
%TO.N,/A15*%
X101933700Y-11655300D03*
%TO.N,/A13*%
X41057000Y-11156000D03*
%TO.N,/A11*%
X46321900Y-14155600D03*
%TO.N,/A10*%
X97609800Y-20853700D03*
%TO.N,/A9*%
X37264500Y-11431400D03*
%TO.N,/A8*%
X93729400Y-21830200D03*
%TO.N,/A7*%
X47885900Y-14207900D03*
%TO.N,/A6*%
X92169600Y-22694900D03*
%TO.N,/A4*%
X91079700Y-23644900D03*
%TO.N,/A2*%
X86986000Y-25560300D03*
%TO.N,/A1*%
X33655700Y-19088000D03*
%TD*%
D28*
%TO.N,GND*%
X74676000Y-40132000D02*
X74676000Y-41107300D01*
X73420100Y-46228000D02*
X65405000Y-46228000D01*
X74676000Y-46228000D02*
X73420100Y-46228000D01*
X73420100Y-46228000D02*
X73420100Y-42363200D01*
X73420100Y-42363200D02*
X74676000Y-41107300D01*
X92456000Y-39624000D02*
X93706300Y-39624000D01*
X95269700Y-36810300D02*
X97037900Y-36810300D01*
X97037900Y-36810300D02*
X97770300Y-36077900D01*
X97770300Y-36077900D02*
X97770300Y-35042100D01*
X97770300Y-35042100D02*
X94555500Y-31827300D01*
X94555500Y-31827300D02*
X91142400Y-31827300D01*
X91142400Y-31827300D02*
X85708000Y-37261700D01*
X85708000Y-37261700D02*
X85708000Y-38072300D01*
X85708000Y-38072300D02*
X82144100Y-41636200D01*
X82144100Y-41636200D02*
X80916700Y-41636200D01*
X80916700Y-41636200D02*
X76324900Y-46228000D01*
X76324900Y-46228000D02*
X74676000Y-46228000D01*
X93706300Y-39624000D02*
X93706300Y-38373700D01*
X93706300Y-38373700D02*
X95269700Y-36810300D01*
X82296000Y-47009700D02*
X87120900Y-42184800D01*
X87120900Y-42184800D02*
X87120900Y-37623900D01*
X87120900Y-37623900D02*
X91696200Y-33048600D01*
X91696200Y-33048600D02*
X93214700Y-33048600D01*
X93214700Y-33048600D02*
X95269700Y-35103600D01*
X95269700Y-35103600D02*
X95269700Y-36810300D01*
X82296000Y-48260000D02*
X82296000Y-47009700D01*
X40005000Y-17780000D02*
X42545000Y-17780000D01*
X37465000Y-17780000D02*
X40005000Y-17780000D01*
X34925000Y-17780000D02*
X37465000Y-17780000D01*
X106680000Y-17780000D02*
X104140000Y-17780000D01*
X109220000Y-17780000D02*
X106680000Y-17780000D01*
X111760000Y-17780000D02*
X109220000Y-17780000D01*
%TO.N,Net-(Q1-Pad2)*%
X104140000Y-69342000D02*
X102870000Y-69342000D01*
%TO.N,Net-(Q4-Pad2)*%
X74676000Y-66802000D02*
X75876300Y-66802000D01*
X75876300Y-66802000D02*
X75876300Y-66737400D01*
X75876300Y-66737400D02*
X78655200Y-63958500D01*
%TO.N,+5V*%
X104682800Y-55357100D02*
X105427700Y-56102000D01*
X105427700Y-56102000D02*
X106052900Y-56102000D01*
X106678000Y-53302300D02*
X104682800Y-55297500D01*
X104682800Y-55297500D02*
X104682800Y-55357100D01*
X104682800Y-55357100D02*
X81555500Y-78484400D01*
X81555500Y-78484400D02*
X67137600Y-78484400D01*
X67137600Y-78484400D02*
X62738000Y-82884000D01*
X106678000Y-56102000D02*
X106052900Y-56102000D01*
X106678000Y-52052000D02*
X106678000Y-53302300D01*
X80732000Y-102122000D02*
X75490200Y-107363800D01*
X75490200Y-107363800D02*
X59648200Y-107363800D01*
X59648200Y-107363800D02*
X56896000Y-110116000D01*
X82550000Y-64516000D02*
X82435700Y-64630300D01*
X82435700Y-64630300D02*
X80726100Y-64630300D01*
X80726100Y-64630300D02*
X79160100Y-63064300D01*
X79160100Y-63064300D02*
X72081300Y-63064300D01*
X72081300Y-63064300D02*
X65405000Y-56388000D01*
X51896000Y-110116000D02*
X49937400Y-112074600D01*
X49937400Y-112074600D02*
X36084700Y-112074600D01*
X36084700Y-112074600D02*
X24264600Y-100254500D01*
X24264600Y-100254500D02*
X24264600Y-86320600D01*
X24264600Y-86320600D02*
X20828000Y-82884000D01*
X56896000Y-110116000D02*
X51896000Y-110116000D01*
%TO.N,Net-(J1-Pad2)*%
X65732000Y-102122000D02*
X67326400Y-100527600D01*
X67326400Y-100527600D02*
X89137600Y-100527600D01*
X89137600Y-100527600D02*
X90732000Y-102122000D01*
%TO.N,Net-(J1-Pad1)*%
X65732000Y-109622000D02*
X67339700Y-111229700D01*
X67339700Y-111229700D02*
X89124300Y-111229700D01*
X89124300Y-111229700D02*
X90732000Y-109622000D01*
D29*
%TO.N,Net-(J2-Pad2)*%
X90238000Y-79134000D02*
X95181400Y-79134000D01*
X95181400Y-79134000D02*
X101003600Y-84956200D01*
X101003600Y-84956200D02*
X101003600Y-88313300D01*
X101003600Y-88313300D02*
X94198200Y-95118700D01*
X94198200Y-95118700D02*
X47893300Y-95118700D01*
X47893300Y-95118700D02*
X40396000Y-102616000D01*
X82296000Y-44196000D02*
X79679500Y-46812500D01*
X79679500Y-46812500D02*
X79679500Y-59822800D01*
X79679500Y-59822800D02*
X81400400Y-61543700D01*
X81400400Y-61543700D02*
X84606300Y-61543700D01*
X84606300Y-61543700D02*
X84799500Y-61736900D01*
D28*
%TO.N,Net-(K2-Pad1)*%
X102870000Y-77146300D02*
X103017300Y-77293600D01*
X103017300Y-77293600D02*
X103017300Y-89072700D01*
X103017300Y-89072700D02*
X94568400Y-97521600D01*
X94568400Y-97521600D02*
X61990400Y-97521600D01*
X61990400Y-97521600D02*
X56896000Y-102616000D01*
X102870000Y-75946000D02*
X102870000Y-77146300D01*
%TO.N,Net-(K2-Pad2)*%
X51896000Y-102616000D02*
X53378800Y-104098800D01*
X53378800Y-104098800D02*
X59513500Y-104098800D01*
X59513500Y-104098800D02*
X64954100Y-98658200D01*
X64954100Y-98658200D02*
X94282900Y-98658200D01*
X94282900Y-98658200D02*
X106391700Y-86549400D01*
X106391700Y-86549400D02*
X106391700Y-68665400D01*
X106391700Y-68665400D02*
X102870000Y-65143700D01*
X102870000Y-65143700D02*
X102870000Y-62230000D01*
D29*
%TO.N,Net-(K2-Pad5)*%
X19685000Y-53848000D02*
X36896000Y-71059000D01*
X36896000Y-71059000D02*
X36896000Y-110116000D01*
D28*
%TO.N,Net-(K3-Pad1)*%
X39305500Y-79830000D02*
X49998800Y-69136700D01*
X49998800Y-69136700D02*
X68128600Y-69136700D01*
X68128600Y-69136700D02*
X71733300Y-65532000D01*
X71733300Y-65532000D02*
X74676000Y-65532000D01*
%TO.N,Net-(Q5-Pad2)*%
X81118500Y-63744000D02*
X80688900Y-63744000D01*
X80688900Y-63744000D02*
X77650900Y-60706000D01*
X77650900Y-60706000D02*
X75876300Y-60706000D01*
X74676000Y-60706000D02*
X75876300Y-60706000D01*
%TO.N,Net-(Q6-Pad2)*%
X74676000Y-54610000D02*
X75876300Y-54610000D01*
X75876300Y-54610000D02*
X75876300Y-47825500D01*
X75876300Y-47825500D02*
X81465300Y-42236500D01*
X81465300Y-42236500D02*
X82441100Y-42236500D01*
X82441100Y-42236500D02*
X86520500Y-38157100D01*
X86520500Y-38157100D02*
X86520500Y-37329700D01*
X86520500Y-37329700D02*
X91402000Y-32448200D01*
X91402000Y-32448200D02*
X93507400Y-32448200D01*
X93507400Y-32448200D02*
X96520000Y-35460800D01*
X96520000Y-35460800D02*
X96520000Y-35560000D01*
%TO.N,Net-(Q7-Pad2)*%
X74676000Y-37592000D02*
X78912300Y-37592000D01*
%TO.N,Net-(Q8-Pad2)*%
X92710000Y-58928000D02*
X94292100Y-57345900D01*
X94292100Y-57345900D02*
X94292100Y-52293800D01*
X94292100Y-52293800D02*
X98970900Y-47615000D01*
X98970900Y-47615000D02*
X98970900Y-34544900D01*
X98970900Y-34544900D02*
X95052700Y-30626700D01*
X95052700Y-30626700D02*
X88489700Y-30626700D01*
X88489700Y-30626700D02*
X80254400Y-38862000D01*
X80254400Y-38862000D02*
X74676000Y-38862000D01*
%TO.N,Net-(Q9-Pad2)*%
X92710000Y-64516000D02*
X91429800Y-63235800D01*
X91429800Y-63235800D02*
X91429800Y-51078600D01*
X91429800Y-51078600D02*
X98370600Y-44137800D01*
X98370600Y-44137800D02*
X98370600Y-34793500D01*
X98370600Y-34793500D02*
X94804100Y-31227000D01*
X94804100Y-31227000D02*
X88906200Y-31227000D01*
X88906200Y-31227000D02*
X75876300Y-44256900D01*
X75876300Y-44256900D02*
X75876300Y-44958000D01*
X74676000Y-44958000D02*
X75876300Y-44958000D01*
D29*
%TO.N,Net-(J3-Pad2)*%
X48328000Y-79134000D02*
X55237500Y-72224500D01*
X55237500Y-72224500D02*
X78837800Y-72224500D01*
X78837800Y-72224500D02*
X89477600Y-61584700D01*
X89477600Y-61584700D02*
X89477600Y-38030400D01*
X89477600Y-38030400D02*
X92456000Y-35052000D01*
D28*
%TO.N,Net-(K4-Pad1)*%
X62738000Y-87884000D02*
X70557500Y-80064500D01*
D29*
%TO.N,Net-(J6-Pad2)*%
X55078000Y-86634000D02*
X59109000Y-90665000D01*
X59109000Y-90665000D02*
X92957000Y-90665000D01*
X92957000Y-90665000D02*
X96988000Y-86634000D01*
D28*
%TO.N,Net-(K3-Pad2)*%
X37208200Y-67082400D02*
X50950600Y-53340000D01*
X50950600Y-53340000D02*
X74676000Y-53340000D01*
%TO.N,Net-(K4-Pad2)*%
X62738000Y-77884000D02*
X69435700Y-77884000D01*
X69435700Y-77884000D02*
X71378900Y-75940800D01*
%TO.N,/A19*%
X42545000Y-15240000D02*
X43845300Y-15240000D01*
X106208500Y-13586700D02*
X101230000Y-13586700D01*
X101230000Y-13586700D02*
X100364900Y-12721600D01*
X100364900Y-12721600D02*
X46363700Y-12721600D01*
X46363700Y-12721600D02*
X43845300Y-15240000D01*
%TO.N,/A17*%
X109220000Y-15240000D02*
X106701600Y-12721600D01*
X106701600Y-12721600D02*
X101213800Y-12721600D01*
X101213800Y-12721600D02*
X100613500Y-12121300D01*
X100613500Y-12121300D02*
X43123700Y-12121300D01*
X43123700Y-12121300D02*
X40005000Y-15240000D01*
%TO.N,/A15*%
X101933700Y-11655300D02*
X101799400Y-11521000D01*
X101799400Y-11521000D02*
X42874900Y-11521000D01*
X42874900Y-11521000D02*
X41190800Y-13205100D01*
X41190800Y-13205100D02*
X39499900Y-13205100D01*
X39499900Y-13205100D02*
X37465000Y-15240000D01*
%TO.N,/A13*%
X41057000Y-11156000D02*
X39009000Y-11156000D01*
X39009000Y-11156000D02*
X34925000Y-15240000D01*
%TO.N,/A12*%
X101600000Y-17780000D02*
X99386700Y-19993300D01*
X99386700Y-19993300D02*
X84630400Y-19993300D01*
X84630400Y-19993300D02*
X83723400Y-20900300D01*
X83723400Y-20900300D02*
X34205000Y-20900300D01*
X34205000Y-20900300D02*
X32385000Y-19080300D01*
X32385000Y-17780000D02*
X32385000Y-19080300D01*
%TO.N,/A11*%
X101600000Y-15240000D02*
X99682100Y-13322100D01*
X99682100Y-13322100D02*
X47155400Y-13322100D01*
X47155400Y-13322100D02*
X46321900Y-14155600D01*
%TO.N,/A10*%
X29845000Y-17780000D02*
X33587400Y-21522400D01*
X33587400Y-21522400D02*
X84374400Y-21522400D01*
X84374400Y-21522400D02*
X85043000Y-20853800D01*
X85043000Y-20853800D02*
X97609800Y-20853800D01*
X97609800Y-20853800D02*
X97609800Y-20853700D01*
%TO.N,/A9*%
X29845000Y-15240000D02*
X33653600Y-11431400D01*
X33653600Y-11431400D02*
X37264500Y-11431400D01*
%TO.N,/A8*%
X27305000Y-17780000D02*
X31669500Y-22144500D01*
X31669500Y-22144500D02*
X84601400Y-22144500D01*
X84601400Y-22144500D02*
X84915600Y-21830300D01*
X84915600Y-21830300D02*
X93729400Y-21830300D01*
X93729400Y-21830300D02*
X93729400Y-21830200D01*
%TO.N,/A7*%
X96520000Y-15240000D02*
X95219600Y-13939600D01*
X95219600Y-13939600D02*
X48154200Y-13939600D01*
X48154200Y-13939600D02*
X47885900Y-14207900D01*
%TO.N,/A6*%
X24765000Y-17780000D02*
X29729900Y-22744900D01*
X29729900Y-22744900D02*
X92119600Y-22744900D01*
X92119600Y-22744900D02*
X92169600Y-22694900D01*
%TO.N,/A4*%
X22225000Y-17780000D02*
X28089900Y-23644900D01*
X28089900Y-23644900D02*
X91079700Y-23644900D01*
X92456000Y-44196000D02*
X92456000Y-48260000D01*
%TO.N,/A3*%
X82296000Y-35052000D02*
X81045700Y-35052000D01*
X81045700Y-35052000D02*
X76620100Y-30626400D01*
X76620100Y-30626400D02*
X30692300Y-30626400D01*
X30692300Y-30626400D02*
X18379800Y-18313900D01*
X18379800Y-18313900D02*
X18379800Y-14163900D01*
X18379800Y-14163900D02*
X18604100Y-13939600D01*
X18604100Y-13939600D02*
X20924600Y-13939600D01*
X20924600Y-13939600D02*
X22225000Y-15240000D01*
%TO.N,/A2*%
X86986000Y-25560300D02*
X27465300Y-25560300D01*
X27465300Y-25560300D02*
X19685000Y-17780000D01*
%TO.N,/A1*%
X87599700Y-15240000D02*
X50237900Y-15240000D01*
X50237900Y-15240000D02*
X46389900Y-19088000D01*
X46389900Y-19088000D02*
X33655700Y-19088000D01*
X88900000Y-15240000D02*
X87599700Y-15240000D01*
%TD*%
M02*
