M48
; DRILL file {KiCad (5.1.6)-1} date 11/09/21 13:55:54
; FORMAT={-:-/ absolute / metric / decimal}
; #@! TF.CreationDate,2021-11-09T13:55:54+01:00
; #@! TF.GenerationSoftware,Kicad,Pcbnew,(5.1.6)-1
FMAT,2
METRIC
T1C0.750
T2C0.762
T3C0.800
T4C1.000
T5C1.300
T6C1.400
T7C1.500
T8C2.900
%
G90
G05
T1
X101.6Y-57.15
X72.136Y-32.512
X72.136Y-33.782
X72.136Y-35.052
X72.136Y-38.608
X72.136Y-39.878
X72.136Y-41.148
X100.33Y-70.866
X101.6Y-70.866
X102.87Y-70.866
X72.136Y-48.26
X72.136Y-49.53
X72.136Y-50.8
X72.136Y-60.452
X72.136Y-61.722
X72.136Y-62.992
X72.009Y-26.67
X72.009Y-27.94
X72.009Y-29.21
X100.33Y-57.15
X102.87Y-57.15
X100.33Y-64.262
X101.6Y-64.262
X102.87Y-64.262
X72.136Y-54.356
X72.136Y-55.626
X72.136Y-56.896
T2
X17.145Y-33.528
X17.145Y-43.688
X17.145Y-48.768
X62.865Y-30.988
X62.865Y-41.148
X62.865Y-51.308
X62.865Y-61.468
T3
X80.01Y-47.752
X90.17Y-47.752
X93.686Y-34.316
X103.846Y-34.316
X79.756Y-39.116
X89.916Y-39.116
X93.98Y-30.48
X104.14Y-30.48
X79.756Y-43.18
X89.916Y-43.18
X93.686Y-38.366
X103.846Y-38.366
X93.978Y-51.022
X104.138Y-51.022
X93.98Y-43.18
X104.14Y-43.18
X80.01Y-59.436
X90.17Y-59.436
X79.756Y-29.972
X89.916Y-29.972
X93.978Y-46.972
X104.138Y-46.972
X79.756Y-34.544
X89.916Y-34.544
X80.01Y-53.848
X90.17Y-53.848
T4
X17.145Y-17.399
X17.145Y-19.939
X19.685Y-17.399
X19.685Y-19.939
X22.225Y-17.399
X22.225Y-19.939
X24.765Y-17.399
X24.765Y-19.939
X27.305Y-17.399
X27.305Y-19.939
X29.845Y-17.399
X29.845Y-19.939
X32.385Y-17.399
X32.385Y-19.939
X34.925Y-17.399
X34.925Y-19.939
X37.465Y-17.399
X37.465Y-19.939
X40.005Y-17.399
X40.005Y-19.939
T5
X74.168Y-19.304
X79.248Y-19.304
X48.26Y-18.796
X53.34Y-18.796
X60.198Y-72.804
X60.198Y-77.804
X60.198Y-82.804
X61.468Y-18.796
X66.548Y-18.796
X18.288Y-72.804
X18.288Y-77.804
X18.288Y-82.804
T6
X30.856Y-97.536
X34.356Y-105.036
X37.856Y-97.536
X49.356Y-97.536
X49.356Y-105.036
X54.356Y-97.536
X54.356Y-105.036
T7
X63.192Y-97.042
X63.192Y-104.542
X78.192Y-97.042
X78.192Y-104.542
X83.192Y-97.042
X83.192Y-104.542
X88.192Y-97.042
X88.192Y-104.542
T8
X87.698Y-74.054
X94.448Y-81.554
X45.788Y-74.054
X52.538Y-81.554
T0
M30
