%FSLAX45Y45*%
G04 Gerber Fmt 4.5, Leading zero omitted, Abs format (unit mm)*
G04 Created by KiCad (PCBNEW (5.1.6)-1) date 2021-11-10 15:24:18*
%MOMM*%
%LPD*%
G01*
G04 APERTURE LIST*
%ADD10C,0.200000*%
%ADD11C,0.300000*%
G04 APERTURE END LIST*
D10*
X3345570Y-1888800D02*
X3385570Y-1928800D01*
X3385570Y-1888800D02*
X3345570Y-1928800D01*
X3700820Y-6688240D02*
X3740820Y-6728240D01*
X3740820Y-6688240D02*
X3700820Y-6728240D01*
X3706450Y-1123140D02*
X3746450Y-1163140D01*
X3746450Y-1123140D02*
X3706450Y-1163140D01*
X3910550Y-7963000D02*
X3950550Y-8003000D01*
X3950550Y-7963000D02*
X3910550Y-8003000D01*
X4085700Y-1095600D02*
X4125700Y-1135600D01*
X4125700Y-1095600D02*
X4085700Y-1135600D01*
X4612190Y-1395560D02*
X4652190Y-1435560D01*
X4652190Y-1395560D02*
X4612190Y-1435560D01*
X4768590Y-1400790D02*
X4808590Y-1440790D01*
X4808590Y-1400790D02*
X4768590Y-1440790D01*
X7035750Y-7986450D02*
X7075750Y-8026450D01*
X7075750Y-7986450D02*
X7035750Y-8026450D01*
X7117890Y-7574080D02*
X7157890Y-7614080D01*
X7157890Y-7574080D02*
X7117890Y-7614080D01*
X7845520Y-6375850D02*
X7885520Y-6415850D01*
X7885520Y-6375850D02*
X7845520Y-6415850D01*
X7871230Y-3739200D02*
X7911230Y-3779200D01*
X7911230Y-3739200D02*
X7871230Y-3779200D01*
X8091850Y-6354400D02*
X8131850Y-6394400D01*
X8131850Y-6354400D02*
X8091850Y-6394400D01*
X8459950Y-6153690D02*
X8499950Y-6193690D01*
X8499950Y-6153690D02*
X8459950Y-6193690D01*
X8678600Y-2536030D02*
X8718600Y-2576030D01*
X8718600Y-2536030D02*
X8678600Y-2576030D01*
X9087970Y-2344490D02*
X9127970Y-2384490D01*
X9127970Y-2344490D02*
X9087970Y-2384490D01*
X9196960Y-2249490D02*
X9236960Y-2289490D01*
X9236960Y-2249490D02*
X9196960Y-2289490D01*
X9352940Y-2163020D02*
X9392940Y-2203020D01*
X9392940Y-2163020D02*
X9352940Y-2203020D01*
X9740980Y-2065370D02*
X9780980Y-2105370D01*
X9780980Y-2065370D02*
X9740980Y-2105370D01*
X10173370Y-1145530D02*
X10213370Y-1185530D01*
X10213370Y-1145530D02*
X10173370Y-1185530D01*
X10600850Y-1338670D02*
X10640850Y-1378670D01*
X10640850Y-1338670D02*
X10600850Y-1378670D01*
X7505100Y-4368800D02*
G75*
G03*
X7505100Y-4368800I-37500J0D01*
G01*
X7505100Y-4495800D02*
G75*
G03*
X7505100Y-4495800I-37500J0D01*
G01*
X7505100Y-4622800D02*
G75*
G03*
X7505100Y-4622800I-37500J0D01*
G01*
X10324500Y-6934200D02*
G75*
G03*
X10324500Y-6934200I-37500J0D01*
G01*
X10451500Y-6934200D02*
G75*
G03*
X10451500Y-6934200I-37500J0D01*
G01*
X10578500Y-6934200D02*
G75*
G03*
X10578500Y-6934200I-37500J0D01*
G01*
X7492400Y-3175000D02*
G75*
G03*
X7492400Y-3175000I-37500J0D01*
G01*
X7492400Y-3302000D02*
G75*
G03*
X7492400Y-3302000I-37500J0D01*
G01*
X7492400Y-3429000D02*
G75*
G03*
X7492400Y-3429000I-37500J0D01*
G01*
X7505100Y-5334000D02*
G75*
G03*
X7505100Y-5334000I-37500J0D01*
G01*
X7505100Y-5461000D02*
G75*
G03*
X7505100Y-5461000I-37500J0D01*
G01*
X7505100Y-5588000D02*
G75*
G03*
X7505100Y-5588000I-37500J0D01*
G01*
X7505100Y-6553200D02*
G75*
G03*
X7505100Y-6553200I-37500J0D01*
G01*
X7505100Y-6680200D02*
G75*
G03*
X7505100Y-6680200I-37500J0D01*
G01*
X7505100Y-6807200D02*
G75*
G03*
X7505100Y-6807200I-37500J0D01*
G01*
X10324500Y-7594600D02*
G75*
G03*
X10324500Y-7594600I-37500J0D01*
G01*
X10451500Y-7594600D02*
G75*
G03*
X10451500Y-7594600I-37500J0D01*
G01*
X10578500Y-7594600D02*
G75*
G03*
X10578500Y-7594600I-37500J0D01*
G01*
X10324500Y-6223000D02*
G75*
G03*
X10324500Y-6223000I-37500J0D01*
G01*
X10451500Y-6223000D02*
G75*
G03*
X10451500Y-6223000I-37500J0D01*
G01*
X10578500Y-6223000D02*
G75*
G03*
X10578500Y-6223000I-37500J0D01*
G01*
X7505100Y-5943600D02*
G75*
G03*
X7505100Y-5943600I-37500J0D01*
G01*
X7505100Y-6070600D02*
G75*
G03*
X7505100Y-6070600I-37500J0D01*
G01*
X7505100Y-6197600D02*
G75*
G03*
X7505100Y-6197600I-37500J0D01*
G01*
X7505100Y-3759200D02*
G75*
G03*
X7505100Y-3759200I-37500J0D01*
G01*
X7505100Y-3886200D02*
G75*
G03*
X7505100Y-3886200I-37500J0D01*
G01*
X7505100Y-4013200D02*
G75*
G03*
X7505100Y-4013200I-37500J0D01*
G01*
X1968500Y-3822700D02*
X1968500Y-3898900D01*
X1930400Y-3860800D02*
X2006600Y-3860800D01*
X1968500Y-4838700D02*
X1968500Y-4914900D01*
X1930400Y-4876800D02*
X2006600Y-4876800D01*
X1968500Y-5346700D02*
X1968500Y-5422900D01*
X1930400Y-5384800D02*
X2006600Y-5384800D01*
X6540500Y-3568700D02*
X6540500Y-3644900D01*
X6502400Y-3606800D02*
X6578600Y-3606800D01*
X6540500Y-4584700D02*
X6540500Y-4660900D01*
X6502400Y-4622800D02*
X6578600Y-4622800D01*
X6540500Y-5600700D02*
X6540500Y-5676900D01*
X6502400Y-5638800D02*
X6578600Y-5638800D01*
X6540500Y-6616700D02*
X6540500Y-6692900D01*
X6502400Y-6654800D02*
X6578600Y-6654800D01*
X9680085Y-5233485D02*
X9680085Y-5176916D01*
X9623516Y-5176916D01*
X9623516Y-5233485D01*
X9680085Y-5233485D01*
X10696085Y-5233485D02*
X10696085Y-5176916D01*
X10639516Y-5176916D01*
X10639516Y-5233485D01*
X10696085Y-5233485D01*
X8257884Y-4447885D02*
X8257884Y-4391316D01*
X8201315Y-4391316D01*
X8201315Y-4447885D01*
X8257884Y-4447885D01*
X9273885Y-4447885D02*
X9273885Y-4391316D01*
X9217316Y-4391316D01*
X9217316Y-4447885D01*
X9273885Y-4447885D01*
X9650885Y-4372885D02*
X9650885Y-4316316D01*
X9594316Y-4316316D01*
X9594316Y-4372885D01*
X9650885Y-4372885D01*
X10666885Y-4372885D02*
X10666885Y-4316316D01*
X10610316Y-4316316D01*
X10610316Y-4372885D01*
X10666885Y-4372885D01*
X9680085Y-5638484D02*
X9680085Y-5581916D01*
X9623516Y-5581916D01*
X9623516Y-5638484D01*
X9680085Y-5638484D01*
X10696085Y-5638484D02*
X10696085Y-5581916D01*
X10639516Y-5581916D01*
X10639516Y-5638484D01*
X10696085Y-5638484D01*
X8257884Y-4854285D02*
X8257884Y-4797716D01*
X8201315Y-4797716D01*
X8201315Y-4854285D01*
X8257884Y-4854285D01*
X9273885Y-4854285D02*
X9273885Y-4797716D01*
X9217316Y-4797716D01*
X9217316Y-4854285D01*
X9273885Y-4854285D01*
X8257884Y-3533484D02*
X8257884Y-3476915D01*
X8201315Y-3476915D01*
X8201315Y-3533484D01*
X8257884Y-3533484D01*
X9273885Y-3533484D02*
X9273885Y-3476915D01*
X9217316Y-3476915D01*
X9217316Y-3533484D01*
X9273885Y-3533484D01*
X8257884Y-3990684D02*
X8257884Y-3934115D01*
X8201315Y-3934115D01*
X8201315Y-3990684D01*
X8257884Y-3990684D01*
X9273885Y-3990684D02*
X9273885Y-3934115D01*
X9217316Y-3934115D01*
X9217316Y-3990684D01*
X9273885Y-3990684D01*
X9680285Y-3584284D02*
X9680285Y-3527715D01*
X9623716Y-3527715D01*
X9623716Y-3584284D01*
X9680285Y-3584284D01*
X10696285Y-3584284D02*
X10696285Y-3527715D01*
X10639716Y-3527715D01*
X10639716Y-3584284D01*
X10696285Y-3584284D01*
X9680285Y-4854285D02*
X9680285Y-4797716D01*
X9623716Y-4797716D01*
X9623716Y-4854285D01*
X9680285Y-4854285D01*
X10696285Y-4854285D02*
X10696285Y-4797716D01*
X10639716Y-4797716D01*
X10639716Y-4854285D01*
X10696285Y-4854285D01*
X8283284Y-5311485D02*
X8283284Y-5254916D01*
X8226715Y-5254916D01*
X8226715Y-5311485D01*
X8283284Y-5311485D01*
X9299285Y-5311485D02*
X9299285Y-5254916D01*
X9242716Y-5254916D01*
X9242716Y-5311485D01*
X9299285Y-5311485D01*
X8283284Y-5921084D02*
X8283284Y-5864515D01*
X8226715Y-5864515D01*
X8226715Y-5921084D01*
X8283284Y-5921084D01*
X9299285Y-5921084D02*
X9299285Y-5864515D01*
X9242716Y-5864515D01*
X9242716Y-5921084D01*
X9299285Y-5921084D01*
X9650885Y-3967884D02*
X9650885Y-3911315D01*
X9594316Y-3911315D01*
X9594316Y-3967884D01*
X9650885Y-3967884D01*
X10666885Y-3967884D02*
X10666885Y-3911315D01*
X10610316Y-3911315D01*
X10610316Y-3967884D01*
X10666885Y-3967884D01*
X8283284Y-6479884D02*
X8283284Y-6423315D01*
X8226715Y-6423315D01*
X8226715Y-6479884D01*
X8283284Y-6479884D01*
X9299285Y-6479884D02*
X9299285Y-6423315D01*
X9242716Y-6423315D01*
X9242716Y-6479884D01*
X9299285Y-6479884D01*
X8890000Y-1574000D02*
X8940000Y-1524000D01*
X8890000Y-1474000D01*
X8840000Y-1524000D01*
X8890000Y-1574000D01*
X8890000Y-1828000D02*
X8940000Y-1778000D01*
X8890000Y-1728000D01*
X8840000Y-1778000D01*
X8890000Y-1828000D01*
X9144000Y-1574000D02*
X9194000Y-1524000D01*
X9144000Y-1474000D01*
X9094000Y-1524000D01*
X9144000Y-1574000D01*
X9144000Y-1828000D02*
X9194000Y-1778000D01*
X9144000Y-1728000D01*
X9094000Y-1778000D01*
X9144000Y-1828000D01*
X9398000Y-1574000D02*
X9448000Y-1524000D01*
X9398000Y-1474000D01*
X9348000Y-1524000D01*
X9398000Y-1574000D01*
X9398000Y-1828000D02*
X9448000Y-1778000D01*
X9398000Y-1728000D01*
X9348000Y-1778000D01*
X9398000Y-1828000D01*
X9652000Y-1574000D02*
X9702000Y-1524000D01*
X9652000Y-1474000D01*
X9602000Y-1524000D01*
X9652000Y-1574000D01*
X9652000Y-1828000D02*
X9702000Y-1778000D01*
X9652000Y-1728000D01*
X9602000Y-1778000D01*
X9652000Y-1828000D01*
X9906000Y-1574000D02*
X9956000Y-1524000D01*
X9906000Y-1474000D01*
X9856000Y-1524000D01*
X9906000Y-1574000D01*
X9906000Y-1828000D02*
X9956000Y-1778000D01*
X9906000Y-1728000D01*
X9856000Y-1778000D01*
X9906000Y-1828000D01*
X10160000Y-1574000D02*
X10210000Y-1524000D01*
X10160000Y-1474000D01*
X10110000Y-1524000D01*
X10160000Y-1574000D01*
X10160000Y-1828000D02*
X10210000Y-1778000D01*
X10160000Y-1728000D01*
X10110000Y-1778000D01*
X10160000Y-1828000D01*
X10414000Y-1574000D02*
X10464000Y-1524000D01*
X10414000Y-1474000D01*
X10364000Y-1524000D01*
X10414000Y-1574000D01*
X10414000Y-1828000D02*
X10464000Y-1778000D01*
X10414000Y-1728000D01*
X10364000Y-1778000D01*
X10414000Y-1828000D01*
X10668000Y-1574000D02*
X10718000Y-1524000D01*
X10668000Y-1474000D01*
X10618000Y-1524000D01*
X10668000Y-1574000D01*
X10668000Y-1828000D02*
X10718000Y-1778000D01*
X10668000Y-1728000D01*
X10618000Y-1778000D01*
X10668000Y-1828000D01*
X10922000Y-1574000D02*
X10972000Y-1524000D01*
X10922000Y-1474000D01*
X10872000Y-1524000D01*
X10922000Y-1574000D01*
X10922000Y-1828000D02*
X10972000Y-1778000D01*
X10922000Y-1728000D01*
X10872000Y-1778000D01*
X10922000Y-1828000D01*
X11176000Y-1574000D02*
X11226000Y-1524000D01*
X11176000Y-1474000D01*
X11126000Y-1524000D01*
X11176000Y-1574000D01*
X11176000Y-1828000D02*
X11226000Y-1778000D01*
X11176000Y-1728000D01*
X11126000Y-1778000D01*
X11176000Y-1828000D01*
X1968500Y-1574000D02*
X2018500Y-1524000D01*
X1968500Y-1474000D01*
X1918500Y-1524000D01*
X1968500Y-1574000D01*
X1968500Y-1828000D02*
X2018500Y-1778000D01*
X1968500Y-1728000D01*
X1918500Y-1778000D01*
X1968500Y-1828000D01*
X2222500Y-1574000D02*
X2272500Y-1524000D01*
X2222500Y-1474000D01*
X2172500Y-1524000D01*
X2222500Y-1574000D01*
X2222500Y-1828000D02*
X2272500Y-1778000D01*
X2222500Y-1728000D01*
X2172500Y-1778000D01*
X2222500Y-1828000D01*
X2476500Y-1574000D02*
X2526500Y-1524000D01*
X2476500Y-1474000D01*
X2426500Y-1524000D01*
X2476500Y-1574000D01*
X2476500Y-1828000D02*
X2526500Y-1778000D01*
X2476500Y-1728000D01*
X2426500Y-1778000D01*
X2476500Y-1828000D01*
X2730500Y-1574000D02*
X2780500Y-1524000D01*
X2730500Y-1474000D01*
X2680500Y-1524000D01*
X2730500Y-1574000D01*
X2730500Y-1828000D02*
X2780500Y-1778000D01*
X2730500Y-1728000D01*
X2680500Y-1778000D01*
X2730500Y-1828000D01*
X2984500Y-1574000D02*
X3034500Y-1524000D01*
X2984500Y-1474000D01*
X2934500Y-1524000D01*
X2984500Y-1574000D01*
X2984500Y-1828000D02*
X3034500Y-1778000D01*
X2984500Y-1728000D01*
X2934500Y-1778000D01*
X2984500Y-1828000D01*
X3238500Y-1574000D02*
X3288500Y-1524000D01*
X3238500Y-1474000D01*
X3188500Y-1524000D01*
X3238500Y-1574000D01*
X3238500Y-1828000D02*
X3288500Y-1778000D01*
X3238500Y-1728000D01*
X3188500Y-1778000D01*
X3238500Y-1828000D01*
X3492500Y-1574000D02*
X3542500Y-1524000D01*
X3492500Y-1474000D01*
X3442500Y-1524000D01*
X3492500Y-1574000D01*
X3492500Y-1828000D02*
X3542500Y-1778000D01*
X3492500Y-1728000D01*
X3442500Y-1778000D01*
X3492500Y-1828000D01*
X3746500Y-1574000D02*
X3796500Y-1524000D01*
X3746500Y-1474000D01*
X3696500Y-1524000D01*
X3746500Y-1574000D01*
X3746500Y-1828000D02*
X3796500Y-1778000D01*
X3746500Y-1728000D01*
X3696500Y-1778000D01*
X3746500Y-1828000D01*
X4000500Y-1574000D02*
X4050500Y-1524000D01*
X4000500Y-1474000D01*
X3950500Y-1524000D01*
X4000500Y-1574000D01*
X4000500Y-1828000D02*
X4050500Y-1778000D01*
X4000500Y-1728000D01*
X3950500Y-1778000D01*
X4000500Y-1828000D01*
X4254500Y-1574000D02*
X4304500Y-1524000D01*
X4254500Y-1474000D01*
X4204500Y-1524000D01*
X4254500Y-1574000D01*
X4254500Y-1828000D02*
X4304500Y-1778000D01*
X4254500Y-1728000D01*
X4204500Y-1778000D01*
X4254500Y-1828000D01*
X6208800Y-7723400D02*
X6338800Y-7853400D01*
X6338800Y-7723400D02*
X6208800Y-7853400D01*
X6338800Y-7788400D02*
G75*
G03*
X6338800Y-7788400I-65000J0D01*
G01*
X6208800Y-8223400D02*
X6338800Y-8353400D01*
X6338800Y-8223400D02*
X6208800Y-8353400D01*
X6338800Y-8288400D02*
G75*
G03*
X6338800Y-8288400I-65000J0D01*
G01*
X6208800Y-8723400D02*
X6338800Y-8853400D01*
X6338800Y-8723400D02*
X6208800Y-8853400D01*
X6338800Y-8788400D02*
G75*
G03*
X6338800Y-8788400I-65000J0D01*
G01*
X5015000Y-1840000D02*
X5145000Y-1970000D01*
X5145000Y-1840000D02*
X5015000Y-1970000D01*
X5145000Y-1905000D02*
G75*
G03*
X5145000Y-1905000I-65000J0D01*
G01*
X5523000Y-1840000D02*
X5653000Y-1970000D01*
X5653000Y-1840000D02*
X5523000Y-1970000D01*
X5653000Y-1905000D02*
G75*
G03*
X5653000Y-1905000I-65000J0D01*
G01*
X7605800Y-1840000D02*
X7735800Y-1970000D01*
X7735800Y-1840000D02*
X7605800Y-1970000D01*
X7735800Y-1905000D02*
G75*
G03*
X7735800Y-1905000I-65000J0D01*
G01*
X8113800Y-1840000D02*
X8243800Y-1970000D01*
X8243800Y-1840000D02*
X8113800Y-1970000D01*
X8243800Y-1905000D02*
G75*
G03*
X8243800Y-1905000I-65000J0D01*
G01*
X6335800Y-1840000D02*
X6465800Y-1970000D01*
X6465800Y-1840000D02*
X6335800Y-1970000D01*
X6465800Y-1905000D02*
G75*
G03*
X6465800Y-1905000I-65000J0D01*
G01*
X6843800Y-1840000D02*
X6973800Y-1970000D01*
X6973800Y-1840000D02*
X6843800Y-1970000D01*
X6973800Y-1905000D02*
G75*
G03*
X6973800Y-1905000I-65000J0D01*
G01*
X2017800Y-7723400D02*
X2147800Y-7853400D01*
X2147800Y-7723400D02*
X2017800Y-7853400D01*
X2147800Y-7788400D02*
G75*
G03*
X2147800Y-7788400I-65000J0D01*
G01*
X2017800Y-8223400D02*
X2147800Y-8353400D01*
X2147800Y-8223400D02*
X2017800Y-8353400D01*
X2147800Y-8288400D02*
G75*
G03*
X2147800Y-8288400I-65000J0D01*
G01*
X2017800Y-8723400D02*
X2147800Y-8853400D01*
X2147800Y-8723400D02*
X2017800Y-8853400D01*
X2147800Y-8788400D02*
G75*
G03*
X2147800Y-8788400I-65000J0D01*
G01*
X3269600Y-10191600D02*
X3409600Y-10331600D01*
X3409600Y-10191600D02*
X3269600Y-10331600D01*
X3339600Y-10191600D02*
X3339600Y-10331600D01*
X3269600Y-10261600D02*
X3409600Y-10261600D01*
X3619600Y-10941600D02*
X3759600Y-11081600D01*
X3759600Y-10941600D02*
X3619600Y-11081600D01*
X3689600Y-10941600D02*
X3689600Y-11081600D01*
X3619600Y-11011600D02*
X3759600Y-11011600D01*
X3969600Y-10191600D02*
X4109600Y-10331600D01*
X4109600Y-10191600D02*
X3969600Y-10331600D01*
X4039600Y-10191600D02*
X4039600Y-10331600D01*
X3969600Y-10261600D02*
X4109600Y-10261600D01*
X5119600Y-10191600D02*
X5259600Y-10331600D01*
X5259600Y-10191600D02*
X5119600Y-10331600D01*
X5189600Y-10191600D02*
X5189600Y-10331600D01*
X5119600Y-10261600D02*
X5259600Y-10261600D01*
X5119600Y-10941600D02*
X5259600Y-11081600D01*
X5259600Y-10941600D02*
X5119600Y-11081600D01*
X5189600Y-10941600D02*
X5189600Y-11081600D01*
X5119600Y-11011600D02*
X5259600Y-11011600D01*
X5619600Y-10191600D02*
X5759600Y-10331600D01*
X5759600Y-10191600D02*
X5619600Y-10331600D01*
X5689600Y-10191600D02*
X5689600Y-10331600D01*
X5619600Y-10261600D02*
X5759600Y-10261600D01*
X5619600Y-10941600D02*
X5759600Y-11081600D01*
X5759600Y-10941600D02*
X5619600Y-11081600D01*
X5689600Y-10941600D02*
X5689600Y-11081600D01*
X5619600Y-11011600D02*
X5759600Y-11011600D01*
X6498200Y-10137200D02*
X6648200Y-10287200D01*
X6648200Y-10137200D02*
X6498200Y-10287200D01*
X6626233Y-10265234D02*
X6626233Y-10159167D01*
X6520166Y-10159167D01*
X6520166Y-10265234D01*
X6626233Y-10265234D01*
X6498200Y-10887200D02*
X6648200Y-11037200D01*
X6648200Y-10887200D02*
X6498200Y-11037200D01*
X6626233Y-11015234D02*
X6626233Y-10909167D01*
X6520166Y-10909167D01*
X6520166Y-11015234D01*
X6626233Y-11015234D01*
X7998200Y-10137200D02*
X8148200Y-10287200D01*
X8148200Y-10137200D02*
X7998200Y-10287200D01*
X8126233Y-10265234D02*
X8126233Y-10159167D01*
X8020166Y-10159167D01*
X8020166Y-10265234D01*
X8126233Y-10265234D01*
X7998200Y-10887200D02*
X8148200Y-11037200D01*
X8148200Y-10887200D02*
X7998200Y-11037200D01*
X8126233Y-11015234D02*
X8126233Y-10909167D01*
X8020166Y-10909167D01*
X8020166Y-11015234D01*
X8126233Y-11015234D01*
X8498200Y-10137200D02*
X8648200Y-10287200D01*
X8648200Y-10137200D02*
X8498200Y-10287200D01*
X8626234Y-10265234D02*
X8626234Y-10159167D01*
X8520167Y-10159167D01*
X8520167Y-10265234D01*
X8626234Y-10265234D01*
X8498200Y-10887200D02*
X8648200Y-11037200D01*
X8648200Y-10887200D02*
X8498200Y-11037200D01*
X8626234Y-11015234D02*
X8626234Y-10909167D01*
X8520167Y-10909167D01*
X8520167Y-11015234D01*
X8626234Y-11015234D01*
X8998200Y-10137200D02*
X9148200Y-10287200D01*
X9148200Y-10137200D02*
X8998200Y-10287200D01*
X9126234Y-10265234D02*
X9126234Y-10159167D01*
X9020167Y-10159167D01*
X9020167Y-10265234D01*
X9126234Y-10265234D01*
X8998200Y-10887200D02*
X9148200Y-11037200D01*
X9148200Y-10887200D02*
X8998200Y-11037200D01*
X9126234Y-11015234D02*
X9126234Y-10909167D01*
X9020167Y-10909167D01*
X9020167Y-11015234D01*
X9126234Y-11015234D01*
X4687800Y-7768400D02*
X4977800Y-8058400D01*
X4977800Y-7768400D02*
X4687800Y-8058400D01*
X4832800Y-8058400D02*
X4977800Y-7913400D01*
X4832800Y-7768400D01*
X4687800Y-7913400D01*
X4832800Y-8058400D01*
X5362800Y-8518400D02*
X5652800Y-8808400D01*
X5652800Y-8518400D02*
X5362800Y-8808400D01*
X5507800Y-8808400D02*
X5652800Y-8663400D01*
X5507800Y-8518400D01*
X5362800Y-8663400D01*
X5507800Y-8808400D01*
X8878800Y-7768400D02*
X9168800Y-8058400D01*
X9168800Y-7768400D02*
X8878800Y-8058400D01*
X9023800Y-8058400D02*
X9168800Y-7913400D01*
X9023800Y-7768400D01*
X8878800Y-7913400D01*
X9023800Y-8058400D01*
X9553800Y-8518400D02*
X9843800Y-8808400D01*
X9843800Y-8518400D02*
X9553800Y-8808400D01*
X9698800Y-8808400D02*
X9843800Y-8663400D01*
X9698800Y-8518400D01*
X9553800Y-8663400D01*
X9698800Y-8808400D01*
X3302000Y-11778000D02*
X3302000Y-12098000D01*
X3142000Y-11938000D02*
X3462000Y-11938000D01*
X3462000Y-11938000D02*
G75*
G03*
X3462000Y-11938000I-160000J0D01*
G01*
X1905000Y-2253000D02*
X1905000Y-2573000D01*
X1745000Y-2413000D02*
X2065000Y-2413000D01*
X2065000Y-2413000D02*
G75*
G03*
X2065000Y-2413000I-160000J0D01*
G01*
X10091500Y-2655500D02*
X10091500Y-2975500D01*
X9931500Y-2815500D02*
X10251500Y-2815500D01*
X10251500Y-2815500D02*
G75*
G03*
X10251500Y-2815500I-160000J0D01*
G01*
X10922000Y-11778000D02*
X10922000Y-12098000D01*
X10762000Y-11938000D02*
X11082000Y-11938000D01*
X11082000Y-11938000D02*
G75*
G03*
X11082000Y-11938000I-160000J0D01*
G01*
D11*
X286429Y-465714D02*
X286429Y-165714D01*
X357857Y-165714D01*
X400714Y-180000D01*
X429286Y-208571D01*
X443571Y-237143D01*
X457857Y-294286D01*
X457857Y-337143D01*
X443571Y-394286D01*
X429286Y-422857D01*
X400714Y-451428D01*
X357857Y-465714D01*
X286429Y-465714D01*
X586429Y-465714D02*
X586429Y-265714D01*
X586429Y-322857D02*
X600714Y-294286D01*
X615000Y-280000D01*
X643571Y-265714D01*
X672143Y-265714D01*
X772143Y-465714D02*
X772143Y-265714D01*
X772143Y-165714D02*
X757857Y-180000D01*
X772143Y-194286D01*
X786428Y-180000D01*
X772143Y-165714D01*
X772143Y-194286D01*
X957857Y-465714D02*
X929286Y-451428D01*
X915000Y-422857D01*
X915000Y-165714D01*
X1115000Y-465714D02*
X1086429Y-451428D01*
X1072143Y-422857D01*
X1072143Y-165714D01*
X1457857Y-465714D02*
X1457857Y-165714D01*
X1557857Y-380000D01*
X1657857Y-165714D01*
X1657857Y-465714D01*
X1929286Y-465714D02*
X1929286Y-308571D01*
X1915000Y-280000D01*
X1886428Y-265714D01*
X1829286Y-265714D01*
X1800714Y-280000D01*
X1929286Y-451428D02*
X1900714Y-465714D01*
X1829286Y-465714D01*
X1800714Y-451428D01*
X1786428Y-422857D01*
X1786428Y-394286D01*
X1800714Y-365714D01*
X1829286Y-351428D01*
X1900714Y-351428D01*
X1929286Y-337143D01*
X2072143Y-265714D02*
X2072143Y-565714D01*
X2072143Y-280000D02*
X2100714Y-265714D01*
X2157857Y-265714D01*
X2186429Y-280000D01*
X2200714Y-294286D01*
X2215000Y-322857D01*
X2215000Y-408571D01*
X2200714Y-437143D01*
X2186429Y-451428D01*
X2157857Y-465714D01*
X2100714Y-465714D01*
X2072143Y-451428D01*
X2343571Y-437143D02*
X2357857Y-451428D01*
X2343571Y-465714D01*
X2329286Y-451428D01*
X2343571Y-437143D01*
X2343571Y-465714D01*
X2343571Y-280000D02*
X2357857Y-294286D01*
X2343571Y-308571D01*
X2329286Y-294286D01*
X2343571Y-280000D01*
X2343571Y-308571D01*
X-40000Y-940000D02*
X0Y-980000D01*
X0Y-940000D02*
X-40000Y-980000D01*
X343571Y-795714D02*
X372143Y-795714D01*
X400714Y-810000D01*
X415000Y-824286D01*
X429286Y-852857D01*
X443571Y-910000D01*
X443571Y-981428D01*
X429286Y-1038571D01*
X415000Y-1067143D01*
X400714Y-1081429D01*
X372143Y-1095714D01*
X343571Y-1095714D01*
X315000Y-1081429D01*
X300714Y-1067143D01*
X286429Y-1038571D01*
X272143Y-981428D01*
X272143Y-910000D01*
X286429Y-852857D01*
X300714Y-824286D01*
X315000Y-810000D01*
X343571Y-795714D01*
X572143Y-1067143D02*
X586429Y-1081429D01*
X572143Y-1095714D01*
X557857Y-1081429D01*
X572143Y-1067143D01*
X572143Y-1095714D01*
X843571Y-895714D02*
X843571Y-1095714D01*
X772143Y-781428D02*
X700714Y-995714D01*
X886428Y-995714D01*
X1057857Y-795714D02*
X1086429Y-795714D01*
X1115000Y-810000D01*
X1129286Y-824286D01*
X1143571Y-852857D01*
X1157857Y-910000D01*
X1157857Y-981428D01*
X1143571Y-1038571D01*
X1129286Y-1067143D01*
X1115000Y-1081429D01*
X1086429Y-1095714D01*
X1057857Y-1095714D01*
X1029286Y-1081429D01*
X1015000Y-1067143D01*
X1000714Y-1038571D01*
X986428Y-981428D01*
X986428Y-910000D01*
X1000714Y-852857D01*
X1015000Y-824286D01*
X1029286Y-810000D01*
X1057857Y-795714D01*
X1286429Y-1095714D02*
X1286429Y-895714D01*
X1286429Y-924286D02*
X1300714Y-910000D01*
X1329286Y-895714D01*
X1372143Y-895714D01*
X1400714Y-910000D01*
X1415000Y-938571D01*
X1415000Y-1095714D01*
X1415000Y-938571D02*
X1429286Y-910000D01*
X1457857Y-895714D01*
X1500714Y-895714D01*
X1529286Y-910000D01*
X1543571Y-938571D01*
X1543571Y-1095714D01*
X1686428Y-1095714D02*
X1686428Y-895714D01*
X1686428Y-924286D02*
X1700714Y-910000D01*
X1729286Y-895714D01*
X1772143Y-895714D01*
X1800714Y-910000D01*
X1815000Y-938571D01*
X1815000Y-1095714D01*
X1815000Y-938571D02*
X1829286Y-910000D01*
X1857857Y-895714D01*
X1900714Y-895714D01*
X1929286Y-910000D01*
X1943571Y-938571D01*
X1943571Y-1095714D01*
X2529286Y-781428D02*
X2272143Y-1167143D01*
X2915000Y-795714D02*
X2943571Y-795714D01*
X2972143Y-810000D01*
X2986428Y-824286D01*
X3000714Y-852857D01*
X3015000Y-910000D01*
X3015000Y-981428D01*
X3000714Y-1038571D01*
X2986428Y-1067143D01*
X2972143Y-1081429D01*
X2943571Y-1095714D01*
X2915000Y-1095714D01*
X2886428Y-1081429D01*
X2872143Y-1067143D01*
X2857857Y-1038571D01*
X2843571Y-981428D01*
X2843571Y-910000D01*
X2857857Y-852857D01*
X2872143Y-824286D01*
X2886428Y-810000D01*
X2915000Y-795714D01*
X3143571Y-1067143D02*
X3157857Y-1081429D01*
X3143571Y-1095714D01*
X3129286Y-1081429D01*
X3143571Y-1067143D01*
X3143571Y-1095714D01*
X3343571Y-795714D02*
X3372143Y-795714D01*
X3400714Y-810000D01*
X3415000Y-824286D01*
X3429286Y-852857D01*
X3443571Y-910000D01*
X3443571Y-981428D01*
X3429286Y-1038571D01*
X3415000Y-1067143D01*
X3400714Y-1081429D01*
X3372143Y-1095714D01*
X3343571Y-1095714D01*
X3315000Y-1081429D01*
X3300714Y-1067143D01*
X3286428Y-1038571D01*
X3272143Y-981428D01*
X3272143Y-910000D01*
X3286428Y-852857D01*
X3300714Y-824286D01*
X3315000Y-810000D01*
X3343571Y-795714D01*
X3729286Y-1095714D02*
X3557857Y-1095714D01*
X3643571Y-1095714D02*
X3643571Y-795714D01*
X3615000Y-838571D01*
X3586428Y-867143D01*
X3557857Y-881428D01*
X3986428Y-795714D02*
X3929286Y-795714D01*
X3900714Y-810000D01*
X3886428Y-824286D01*
X3857857Y-867143D01*
X3843571Y-924286D01*
X3843571Y-1038571D01*
X3857857Y-1067143D01*
X3872143Y-1081429D01*
X3900714Y-1095714D01*
X3957857Y-1095714D01*
X3986428Y-1081429D01*
X4000714Y-1067143D01*
X4015000Y-1038571D01*
X4015000Y-967143D01*
X4000714Y-938571D01*
X3986428Y-924286D01*
X3957857Y-910000D01*
X3900714Y-910000D01*
X3872143Y-924286D01*
X3857857Y-938571D01*
X3843571Y-967143D01*
X4129286Y-795714D02*
X4129286Y-852857D01*
X4243571Y-795714D02*
X4243571Y-852857D01*
X4686429Y-1210000D02*
X4672143Y-1195714D01*
X4643571Y-1152857D01*
X4629286Y-1124286D01*
X4615000Y-1081429D01*
X4600714Y-1010000D01*
X4600714Y-952857D01*
X4615000Y-881428D01*
X4629286Y-838571D01*
X4643571Y-810000D01*
X4672143Y-767143D01*
X4686429Y-752857D01*
X4786429Y-824286D02*
X4800714Y-810000D01*
X4829286Y-795714D01*
X4900714Y-795714D01*
X4929286Y-810000D01*
X4943571Y-824286D01*
X4957857Y-852857D01*
X4957857Y-881428D01*
X4943571Y-924286D01*
X4772143Y-1095714D01*
X4957857Y-1095714D01*
X5143571Y-795714D02*
X5172143Y-795714D01*
X5200714Y-810000D01*
X5215000Y-824286D01*
X5229286Y-852857D01*
X5243571Y-910000D01*
X5243571Y-981428D01*
X5229286Y-1038571D01*
X5215000Y-1067143D01*
X5200714Y-1081429D01*
X5172143Y-1095714D01*
X5143571Y-1095714D01*
X5115000Y-1081429D01*
X5100714Y-1067143D01*
X5086429Y-1038571D01*
X5072143Y-981428D01*
X5072143Y-910000D01*
X5086429Y-852857D01*
X5100714Y-824286D01*
X5115000Y-810000D01*
X5143571Y-795714D01*
X5600714Y-1095714D02*
X5600714Y-795714D01*
X5729286Y-1095714D02*
X5729286Y-938571D01*
X5715000Y-910000D01*
X5686428Y-895714D01*
X5643571Y-895714D01*
X5615000Y-910000D01*
X5600714Y-924286D01*
X5915000Y-1095714D02*
X5886428Y-1081429D01*
X5872143Y-1067143D01*
X5857857Y-1038571D01*
X5857857Y-952857D01*
X5872143Y-924286D01*
X5886428Y-910000D01*
X5915000Y-895714D01*
X5957857Y-895714D01*
X5986428Y-910000D01*
X6000714Y-924286D01*
X6015000Y-952857D01*
X6015000Y-1038571D01*
X6000714Y-1067143D01*
X5986428Y-1081429D01*
X5957857Y-1095714D01*
X5915000Y-1095714D01*
X6186428Y-1095714D02*
X6157857Y-1081429D01*
X6143571Y-1052857D01*
X6143571Y-795714D01*
X6415000Y-1081429D02*
X6386428Y-1095714D01*
X6329286Y-1095714D01*
X6300714Y-1081429D01*
X6286428Y-1052857D01*
X6286428Y-938571D01*
X6300714Y-910000D01*
X6329286Y-895714D01*
X6386428Y-895714D01*
X6415000Y-910000D01*
X6429286Y-938571D01*
X6429286Y-967143D01*
X6286428Y-995714D01*
X6543571Y-1081429D02*
X6572143Y-1095714D01*
X6629286Y-1095714D01*
X6657857Y-1081429D01*
X6672143Y-1052857D01*
X6672143Y-1038571D01*
X6657857Y-1010000D01*
X6629286Y-995714D01*
X6586428Y-995714D01*
X6557857Y-981428D01*
X6543571Y-952857D01*
X6543571Y-938571D01*
X6557857Y-910000D01*
X6586428Y-895714D01*
X6629286Y-895714D01*
X6657857Y-910000D01*
X6772143Y-1210000D02*
X6786428Y-1195714D01*
X6815000Y-1152857D01*
X6829286Y-1124286D01*
X6843571Y-1081429D01*
X6857857Y-1010000D01*
X6857857Y-952857D01*
X6843571Y-881428D01*
X6829286Y-838571D01*
X6815000Y-810000D01*
X6786428Y-767143D01*
X6772143Y-752857D01*
X0Y-1356000D02*
G75*
G03*
X0Y-1356000I-37500J0D01*
G01*
X343571Y-1191714D02*
X372143Y-1191714D01*
X400714Y-1206000D01*
X415000Y-1220286D01*
X429286Y-1248857D01*
X443571Y-1306000D01*
X443571Y-1377429D01*
X429286Y-1434571D01*
X415000Y-1463143D01*
X400714Y-1477428D01*
X372143Y-1491714D01*
X343571Y-1491714D01*
X315000Y-1477428D01*
X300714Y-1463143D01*
X286429Y-1434571D01*
X272143Y-1377429D01*
X272143Y-1306000D01*
X286429Y-1248857D01*
X300714Y-1220286D01*
X315000Y-1206000D01*
X343571Y-1191714D01*
X572143Y-1463143D02*
X586429Y-1477428D01*
X572143Y-1491714D01*
X557857Y-1477428D01*
X572143Y-1463143D01*
X572143Y-1491714D01*
X686429Y-1191714D02*
X886428Y-1191714D01*
X757857Y-1491714D01*
X1143571Y-1191714D02*
X1000714Y-1191714D01*
X986428Y-1334571D01*
X1000714Y-1320286D01*
X1029286Y-1306000D01*
X1100714Y-1306000D01*
X1129286Y-1320286D01*
X1143571Y-1334571D01*
X1157857Y-1363143D01*
X1157857Y-1434571D01*
X1143571Y-1463143D01*
X1129286Y-1477428D01*
X1100714Y-1491714D01*
X1029286Y-1491714D01*
X1000714Y-1477428D01*
X986428Y-1463143D01*
X1286429Y-1491714D02*
X1286429Y-1291714D01*
X1286429Y-1320286D02*
X1300714Y-1306000D01*
X1329286Y-1291714D01*
X1372143Y-1291714D01*
X1400714Y-1306000D01*
X1415000Y-1334571D01*
X1415000Y-1491714D01*
X1415000Y-1334571D02*
X1429286Y-1306000D01*
X1457857Y-1291714D01*
X1500714Y-1291714D01*
X1529286Y-1306000D01*
X1543571Y-1334571D01*
X1543571Y-1491714D01*
X1686428Y-1491714D02*
X1686428Y-1291714D01*
X1686428Y-1320286D02*
X1700714Y-1306000D01*
X1729286Y-1291714D01*
X1772143Y-1291714D01*
X1800714Y-1306000D01*
X1815000Y-1334571D01*
X1815000Y-1491714D01*
X1815000Y-1334571D02*
X1829286Y-1306000D01*
X1857857Y-1291714D01*
X1900714Y-1291714D01*
X1929286Y-1306000D01*
X1943571Y-1334571D01*
X1943571Y-1491714D01*
X2529286Y-1177429D02*
X2272143Y-1563143D01*
X2915000Y-1191714D02*
X2943571Y-1191714D01*
X2972143Y-1206000D01*
X2986428Y-1220286D01*
X3000714Y-1248857D01*
X3015000Y-1306000D01*
X3015000Y-1377429D01*
X3000714Y-1434571D01*
X2986428Y-1463143D01*
X2972143Y-1477428D01*
X2943571Y-1491714D01*
X2915000Y-1491714D01*
X2886428Y-1477428D01*
X2872143Y-1463143D01*
X2857857Y-1434571D01*
X2843571Y-1377429D01*
X2843571Y-1306000D01*
X2857857Y-1248857D01*
X2872143Y-1220286D01*
X2886428Y-1206000D01*
X2915000Y-1191714D01*
X3143571Y-1463143D02*
X3157857Y-1477428D01*
X3143571Y-1491714D01*
X3129286Y-1477428D01*
X3143571Y-1463143D01*
X3143571Y-1491714D01*
X3343571Y-1191714D02*
X3372143Y-1191714D01*
X3400714Y-1206000D01*
X3415000Y-1220286D01*
X3429286Y-1248857D01*
X3443571Y-1306000D01*
X3443571Y-1377429D01*
X3429286Y-1434571D01*
X3415000Y-1463143D01*
X3400714Y-1477428D01*
X3372143Y-1491714D01*
X3343571Y-1491714D01*
X3315000Y-1477428D01*
X3300714Y-1463143D01*
X3286428Y-1434571D01*
X3272143Y-1377429D01*
X3272143Y-1306000D01*
X3286428Y-1248857D01*
X3300714Y-1220286D01*
X3315000Y-1206000D01*
X3343571Y-1191714D01*
X3543571Y-1191714D02*
X3729286Y-1191714D01*
X3629286Y-1306000D01*
X3672143Y-1306000D01*
X3700714Y-1320286D01*
X3715000Y-1334571D01*
X3729286Y-1363143D01*
X3729286Y-1434571D01*
X3715000Y-1463143D01*
X3700714Y-1477428D01*
X3672143Y-1491714D01*
X3586428Y-1491714D01*
X3557857Y-1477428D01*
X3543571Y-1463143D01*
X3915000Y-1191714D02*
X3943571Y-1191714D01*
X3972143Y-1206000D01*
X3986428Y-1220286D01*
X4000714Y-1248857D01*
X4015000Y-1306000D01*
X4015000Y-1377429D01*
X4000714Y-1434571D01*
X3986428Y-1463143D01*
X3972143Y-1477428D01*
X3943571Y-1491714D01*
X3915000Y-1491714D01*
X3886428Y-1477428D01*
X3872143Y-1463143D01*
X3857857Y-1434571D01*
X3843571Y-1377429D01*
X3843571Y-1306000D01*
X3857857Y-1248857D01*
X3872143Y-1220286D01*
X3886428Y-1206000D01*
X3915000Y-1191714D01*
X4129286Y-1191714D02*
X4129286Y-1248857D01*
X4243571Y-1191714D02*
X4243571Y-1248857D01*
X4686429Y-1606000D02*
X4672143Y-1591714D01*
X4643571Y-1548857D01*
X4629286Y-1520286D01*
X4615000Y-1477428D01*
X4600714Y-1406000D01*
X4600714Y-1348857D01*
X4615000Y-1277429D01*
X4629286Y-1234571D01*
X4643571Y-1206000D01*
X4672143Y-1163143D01*
X4686429Y-1148857D01*
X4786429Y-1220286D02*
X4800714Y-1206000D01*
X4829286Y-1191714D01*
X4900714Y-1191714D01*
X4929286Y-1206000D01*
X4943571Y-1220286D01*
X4957857Y-1248857D01*
X4957857Y-1277429D01*
X4943571Y-1320286D01*
X4772143Y-1491714D01*
X4957857Y-1491714D01*
X5057857Y-1191714D02*
X5257857Y-1191714D01*
X5129286Y-1491714D01*
X5600714Y-1491714D02*
X5600714Y-1191714D01*
X5729286Y-1491714D02*
X5729286Y-1334571D01*
X5715000Y-1306000D01*
X5686428Y-1291714D01*
X5643571Y-1291714D01*
X5615000Y-1306000D01*
X5600714Y-1320286D01*
X5915000Y-1491714D02*
X5886428Y-1477428D01*
X5872143Y-1463143D01*
X5857857Y-1434571D01*
X5857857Y-1348857D01*
X5872143Y-1320286D01*
X5886428Y-1306000D01*
X5915000Y-1291714D01*
X5957857Y-1291714D01*
X5986428Y-1306000D01*
X6000714Y-1320286D01*
X6015000Y-1348857D01*
X6015000Y-1434571D01*
X6000714Y-1463143D01*
X5986428Y-1477428D01*
X5957857Y-1491714D01*
X5915000Y-1491714D01*
X6186428Y-1491714D02*
X6157857Y-1477428D01*
X6143571Y-1448857D01*
X6143571Y-1191714D01*
X6415000Y-1477428D02*
X6386428Y-1491714D01*
X6329286Y-1491714D01*
X6300714Y-1477428D01*
X6286428Y-1448857D01*
X6286428Y-1334571D01*
X6300714Y-1306000D01*
X6329286Y-1291714D01*
X6386428Y-1291714D01*
X6415000Y-1306000D01*
X6429286Y-1334571D01*
X6429286Y-1363143D01*
X6286428Y-1391714D01*
X6543571Y-1477428D02*
X6572143Y-1491714D01*
X6629286Y-1491714D01*
X6657857Y-1477428D01*
X6672143Y-1448857D01*
X6672143Y-1434571D01*
X6657857Y-1406000D01*
X6629286Y-1391714D01*
X6586428Y-1391714D01*
X6557857Y-1377429D01*
X6543571Y-1348857D01*
X6543571Y-1334571D01*
X6557857Y-1306000D01*
X6586428Y-1291714D01*
X6629286Y-1291714D01*
X6657857Y-1306000D01*
X6772143Y-1606000D02*
X6786428Y-1591714D01*
X6815000Y-1548857D01*
X6829286Y-1520286D01*
X6843571Y-1477428D01*
X6857857Y-1406000D01*
X6857857Y-1348857D01*
X6843571Y-1277429D01*
X6829286Y-1234571D01*
X6815000Y-1206000D01*
X6786428Y-1163143D01*
X6772143Y-1148857D01*
X-38100Y-1713900D02*
X-38100Y-1790100D01*
X-76200Y-1752000D02*
X0Y-1752000D01*
X343571Y-1587714D02*
X372143Y-1587714D01*
X400714Y-1602000D01*
X415000Y-1616286D01*
X429286Y-1644857D01*
X443571Y-1702000D01*
X443571Y-1773428D01*
X429286Y-1830571D01*
X415000Y-1859143D01*
X400714Y-1873428D01*
X372143Y-1887714D01*
X343571Y-1887714D01*
X315000Y-1873428D01*
X300714Y-1859143D01*
X286429Y-1830571D01*
X272143Y-1773428D01*
X272143Y-1702000D01*
X286429Y-1644857D01*
X300714Y-1616286D01*
X315000Y-1602000D01*
X343571Y-1587714D01*
X572143Y-1859143D02*
X586429Y-1873428D01*
X572143Y-1887714D01*
X557857Y-1873428D01*
X572143Y-1859143D01*
X572143Y-1887714D01*
X686429Y-1587714D02*
X886428Y-1587714D01*
X757857Y-1887714D01*
X1129286Y-1587714D02*
X1072143Y-1587714D01*
X1043571Y-1602000D01*
X1029286Y-1616286D01*
X1000714Y-1659143D01*
X986428Y-1716286D01*
X986428Y-1830571D01*
X1000714Y-1859143D01*
X1015000Y-1873428D01*
X1043571Y-1887714D01*
X1100714Y-1887714D01*
X1129286Y-1873428D01*
X1143571Y-1859143D01*
X1157857Y-1830571D01*
X1157857Y-1759143D01*
X1143571Y-1730571D01*
X1129286Y-1716286D01*
X1100714Y-1702000D01*
X1043571Y-1702000D01*
X1015000Y-1716286D01*
X1000714Y-1730571D01*
X986428Y-1759143D01*
X1286429Y-1887714D02*
X1286429Y-1687714D01*
X1286429Y-1716286D02*
X1300714Y-1702000D01*
X1329286Y-1687714D01*
X1372143Y-1687714D01*
X1400714Y-1702000D01*
X1415000Y-1730571D01*
X1415000Y-1887714D01*
X1415000Y-1730571D02*
X1429286Y-1702000D01*
X1457857Y-1687714D01*
X1500714Y-1687714D01*
X1529286Y-1702000D01*
X1543571Y-1730571D01*
X1543571Y-1887714D01*
X1686428Y-1887714D02*
X1686428Y-1687714D01*
X1686428Y-1716286D02*
X1700714Y-1702000D01*
X1729286Y-1687714D01*
X1772143Y-1687714D01*
X1800714Y-1702000D01*
X1815000Y-1730571D01*
X1815000Y-1887714D01*
X1815000Y-1730571D02*
X1829286Y-1702000D01*
X1857857Y-1687714D01*
X1900714Y-1687714D01*
X1929286Y-1702000D01*
X1943571Y-1730571D01*
X1943571Y-1887714D01*
X2529286Y-1573428D02*
X2272143Y-1959143D01*
X2915000Y-1587714D02*
X2943571Y-1587714D01*
X2972143Y-1602000D01*
X2986428Y-1616286D01*
X3000714Y-1644857D01*
X3015000Y-1702000D01*
X3015000Y-1773428D01*
X3000714Y-1830571D01*
X2986428Y-1859143D01*
X2972143Y-1873428D01*
X2943571Y-1887714D01*
X2915000Y-1887714D01*
X2886428Y-1873428D01*
X2872143Y-1859143D01*
X2857857Y-1830571D01*
X2843571Y-1773428D01*
X2843571Y-1702000D01*
X2857857Y-1644857D01*
X2872143Y-1616286D01*
X2886428Y-1602000D01*
X2915000Y-1587714D01*
X3143571Y-1859143D02*
X3157857Y-1873428D01*
X3143571Y-1887714D01*
X3129286Y-1873428D01*
X3143571Y-1859143D01*
X3143571Y-1887714D01*
X3343571Y-1587714D02*
X3372143Y-1587714D01*
X3400714Y-1602000D01*
X3415000Y-1616286D01*
X3429286Y-1644857D01*
X3443571Y-1702000D01*
X3443571Y-1773428D01*
X3429286Y-1830571D01*
X3415000Y-1859143D01*
X3400714Y-1873428D01*
X3372143Y-1887714D01*
X3343571Y-1887714D01*
X3315000Y-1873428D01*
X3300714Y-1859143D01*
X3286428Y-1830571D01*
X3272143Y-1773428D01*
X3272143Y-1702000D01*
X3286428Y-1644857D01*
X3300714Y-1616286D01*
X3315000Y-1602000D01*
X3343571Y-1587714D01*
X3543571Y-1587714D02*
X3729286Y-1587714D01*
X3629286Y-1702000D01*
X3672143Y-1702000D01*
X3700714Y-1716286D01*
X3715000Y-1730571D01*
X3729286Y-1759143D01*
X3729286Y-1830571D01*
X3715000Y-1859143D01*
X3700714Y-1873428D01*
X3672143Y-1887714D01*
X3586428Y-1887714D01*
X3557857Y-1873428D01*
X3543571Y-1859143D01*
X3915000Y-1587714D02*
X3943571Y-1587714D01*
X3972143Y-1602000D01*
X3986428Y-1616286D01*
X4000714Y-1644857D01*
X4015000Y-1702000D01*
X4015000Y-1773428D01*
X4000714Y-1830571D01*
X3986428Y-1859143D01*
X3972143Y-1873428D01*
X3943571Y-1887714D01*
X3915000Y-1887714D01*
X3886428Y-1873428D01*
X3872143Y-1859143D01*
X3857857Y-1830571D01*
X3843571Y-1773428D01*
X3843571Y-1702000D01*
X3857857Y-1644857D01*
X3872143Y-1616286D01*
X3886428Y-1602000D01*
X3915000Y-1587714D01*
X4129286Y-1587714D02*
X4129286Y-1644857D01*
X4243571Y-1587714D02*
X4243571Y-1644857D01*
X4686429Y-2002000D02*
X4672143Y-1987714D01*
X4643571Y-1944857D01*
X4629286Y-1916286D01*
X4615000Y-1873428D01*
X4600714Y-1802000D01*
X4600714Y-1744857D01*
X4615000Y-1673428D01*
X4629286Y-1630571D01*
X4643571Y-1602000D01*
X4672143Y-1559143D01*
X4686429Y-1544857D01*
X4772143Y-1587714D02*
X4972143Y-1587714D01*
X4843571Y-1887714D01*
X5315000Y-1887714D02*
X5315000Y-1587714D01*
X5443571Y-1887714D02*
X5443571Y-1730571D01*
X5429286Y-1702000D01*
X5400714Y-1687714D01*
X5357857Y-1687714D01*
X5329286Y-1702000D01*
X5315000Y-1716286D01*
X5629286Y-1887714D02*
X5600714Y-1873428D01*
X5586429Y-1859143D01*
X5572143Y-1830571D01*
X5572143Y-1744857D01*
X5586429Y-1716286D01*
X5600714Y-1702000D01*
X5629286Y-1687714D01*
X5672143Y-1687714D01*
X5700714Y-1702000D01*
X5715000Y-1716286D01*
X5729286Y-1744857D01*
X5729286Y-1830571D01*
X5715000Y-1859143D01*
X5700714Y-1873428D01*
X5672143Y-1887714D01*
X5629286Y-1887714D01*
X5900714Y-1887714D02*
X5872143Y-1873428D01*
X5857857Y-1844857D01*
X5857857Y-1587714D01*
X6129286Y-1873428D02*
X6100714Y-1887714D01*
X6043571Y-1887714D01*
X6015000Y-1873428D01*
X6000714Y-1844857D01*
X6000714Y-1730571D01*
X6015000Y-1702000D01*
X6043571Y-1687714D01*
X6100714Y-1687714D01*
X6129286Y-1702000D01*
X6143571Y-1730571D01*
X6143571Y-1759143D01*
X6000714Y-1787714D01*
X6257857Y-1873428D02*
X6286428Y-1887714D01*
X6343571Y-1887714D01*
X6372143Y-1873428D01*
X6386428Y-1844857D01*
X6386428Y-1830571D01*
X6372143Y-1802000D01*
X6343571Y-1787714D01*
X6300714Y-1787714D01*
X6272143Y-1773428D01*
X6257857Y-1744857D01*
X6257857Y-1730571D01*
X6272143Y-1702000D01*
X6300714Y-1687714D01*
X6343571Y-1687714D01*
X6372143Y-1702000D01*
X6486428Y-2002000D02*
X6500714Y-1987714D01*
X6529286Y-1944857D01*
X6543571Y-1916286D01*
X6557857Y-1873428D01*
X6572143Y-1802000D01*
X6572143Y-1744857D01*
X6557857Y-1673428D01*
X6543571Y-1630571D01*
X6529286Y-1602000D01*
X6500714Y-1559143D01*
X6486428Y-1544857D01*
X-11715Y-2176285D02*
X-11715Y-2119716D01*
X-68285Y-2119716D01*
X-68285Y-2176285D01*
X-11715Y-2176285D01*
X343571Y-1983714D02*
X372143Y-1983714D01*
X400714Y-1998000D01*
X415000Y-2012286D01*
X429286Y-2040857D01*
X443571Y-2098000D01*
X443571Y-2169429D01*
X429286Y-2226571D01*
X415000Y-2255143D01*
X400714Y-2269429D01*
X372143Y-2283714D01*
X343571Y-2283714D01*
X315000Y-2269429D01*
X300714Y-2255143D01*
X286429Y-2226571D01*
X272143Y-2169429D01*
X272143Y-2098000D01*
X286429Y-2040857D01*
X300714Y-2012286D01*
X315000Y-1998000D01*
X343571Y-1983714D01*
X572143Y-2255143D02*
X586429Y-2269429D01*
X572143Y-2283714D01*
X557857Y-2269429D01*
X572143Y-2255143D01*
X572143Y-2283714D01*
X757857Y-2112286D02*
X729286Y-2098000D01*
X715000Y-2083714D01*
X700714Y-2055143D01*
X700714Y-2040857D01*
X715000Y-2012286D01*
X729286Y-1998000D01*
X757857Y-1983714D01*
X815000Y-1983714D01*
X843571Y-1998000D01*
X857857Y-2012286D01*
X872143Y-2040857D01*
X872143Y-2055143D01*
X857857Y-2083714D01*
X843571Y-2098000D01*
X815000Y-2112286D01*
X757857Y-2112286D01*
X729286Y-2126571D01*
X715000Y-2140857D01*
X700714Y-2169429D01*
X700714Y-2226571D01*
X715000Y-2255143D01*
X729286Y-2269429D01*
X757857Y-2283714D01*
X815000Y-2283714D01*
X843571Y-2269429D01*
X857857Y-2255143D01*
X872143Y-2226571D01*
X872143Y-2169429D01*
X857857Y-2140857D01*
X843571Y-2126571D01*
X815000Y-2112286D01*
X1057857Y-1983714D02*
X1086429Y-1983714D01*
X1115000Y-1998000D01*
X1129286Y-2012286D01*
X1143571Y-2040857D01*
X1157857Y-2098000D01*
X1157857Y-2169429D01*
X1143571Y-2226571D01*
X1129286Y-2255143D01*
X1115000Y-2269429D01*
X1086429Y-2283714D01*
X1057857Y-2283714D01*
X1029286Y-2269429D01*
X1015000Y-2255143D01*
X1000714Y-2226571D01*
X986428Y-2169429D01*
X986428Y-2098000D01*
X1000714Y-2040857D01*
X1015000Y-2012286D01*
X1029286Y-1998000D01*
X1057857Y-1983714D01*
X1286429Y-2283714D02*
X1286429Y-2083714D01*
X1286429Y-2112286D02*
X1300714Y-2098000D01*
X1329286Y-2083714D01*
X1372143Y-2083714D01*
X1400714Y-2098000D01*
X1415000Y-2126571D01*
X1415000Y-2283714D01*
X1415000Y-2126571D02*
X1429286Y-2098000D01*
X1457857Y-2083714D01*
X1500714Y-2083714D01*
X1529286Y-2098000D01*
X1543571Y-2126571D01*
X1543571Y-2283714D01*
X1686428Y-2283714D02*
X1686428Y-2083714D01*
X1686428Y-2112286D02*
X1700714Y-2098000D01*
X1729286Y-2083714D01*
X1772143Y-2083714D01*
X1800714Y-2098000D01*
X1815000Y-2126571D01*
X1815000Y-2283714D01*
X1815000Y-2126571D02*
X1829286Y-2098000D01*
X1857857Y-2083714D01*
X1900714Y-2083714D01*
X1929286Y-2098000D01*
X1943571Y-2126571D01*
X1943571Y-2283714D01*
X2529286Y-1969428D02*
X2272143Y-2355143D01*
X2915000Y-1983714D02*
X2943571Y-1983714D01*
X2972143Y-1998000D01*
X2986428Y-2012286D01*
X3000714Y-2040857D01*
X3015000Y-2098000D01*
X3015000Y-2169429D01*
X3000714Y-2226571D01*
X2986428Y-2255143D01*
X2972143Y-2269429D01*
X2943571Y-2283714D01*
X2915000Y-2283714D01*
X2886428Y-2269429D01*
X2872143Y-2255143D01*
X2857857Y-2226571D01*
X2843571Y-2169429D01*
X2843571Y-2098000D01*
X2857857Y-2040857D01*
X2872143Y-2012286D01*
X2886428Y-1998000D01*
X2915000Y-1983714D01*
X3143571Y-2255143D02*
X3157857Y-2269429D01*
X3143571Y-2283714D01*
X3129286Y-2269429D01*
X3143571Y-2255143D01*
X3143571Y-2283714D01*
X3343571Y-1983714D02*
X3372143Y-1983714D01*
X3400714Y-1998000D01*
X3415000Y-2012286D01*
X3429286Y-2040857D01*
X3443571Y-2098000D01*
X3443571Y-2169429D01*
X3429286Y-2226571D01*
X3415000Y-2255143D01*
X3400714Y-2269429D01*
X3372143Y-2283714D01*
X3343571Y-2283714D01*
X3315000Y-2269429D01*
X3300714Y-2255143D01*
X3286428Y-2226571D01*
X3272143Y-2169429D01*
X3272143Y-2098000D01*
X3286428Y-2040857D01*
X3300714Y-2012286D01*
X3315000Y-1998000D01*
X3343571Y-1983714D01*
X3543571Y-1983714D02*
X3729286Y-1983714D01*
X3629286Y-2098000D01*
X3672143Y-2098000D01*
X3700714Y-2112286D01*
X3715000Y-2126571D01*
X3729286Y-2155143D01*
X3729286Y-2226571D01*
X3715000Y-2255143D01*
X3700714Y-2269429D01*
X3672143Y-2283714D01*
X3586428Y-2283714D01*
X3557857Y-2269429D01*
X3543571Y-2255143D01*
X4015000Y-2283714D02*
X3843571Y-2283714D01*
X3929286Y-2283714D02*
X3929286Y-1983714D01*
X3900714Y-2026571D01*
X3872143Y-2055143D01*
X3843571Y-2069428D01*
X4129286Y-1983714D02*
X4129286Y-2040857D01*
X4243571Y-1983714D02*
X4243571Y-2040857D01*
X4686429Y-2398000D02*
X4672143Y-2383714D01*
X4643571Y-2340857D01*
X4629286Y-2312286D01*
X4615000Y-2269429D01*
X4600714Y-2198000D01*
X4600714Y-2140857D01*
X4615000Y-2069428D01*
X4629286Y-2026571D01*
X4643571Y-1998000D01*
X4672143Y-1955143D01*
X4686429Y-1940857D01*
X4786429Y-2012286D02*
X4800714Y-1998000D01*
X4829286Y-1983714D01*
X4900714Y-1983714D01*
X4929286Y-1998000D01*
X4943571Y-2012286D01*
X4957857Y-2040857D01*
X4957857Y-2069428D01*
X4943571Y-2112286D01*
X4772143Y-2283714D01*
X4957857Y-2283714D01*
X5215000Y-1983714D02*
X5157857Y-1983714D01*
X5129286Y-1998000D01*
X5115000Y-2012286D01*
X5086429Y-2055143D01*
X5072143Y-2112286D01*
X5072143Y-2226571D01*
X5086429Y-2255143D01*
X5100714Y-2269429D01*
X5129286Y-2283714D01*
X5186429Y-2283714D01*
X5215000Y-2269429D01*
X5229286Y-2255143D01*
X5243571Y-2226571D01*
X5243571Y-2155143D01*
X5229286Y-2126571D01*
X5215000Y-2112286D01*
X5186429Y-2098000D01*
X5129286Y-2098000D01*
X5100714Y-2112286D01*
X5086429Y-2126571D01*
X5072143Y-2155143D01*
X5600714Y-2283714D02*
X5600714Y-1983714D01*
X5729286Y-2283714D02*
X5729286Y-2126571D01*
X5715000Y-2098000D01*
X5686428Y-2083714D01*
X5643571Y-2083714D01*
X5615000Y-2098000D01*
X5600714Y-2112286D01*
X5915000Y-2283714D02*
X5886428Y-2269429D01*
X5872143Y-2255143D01*
X5857857Y-2226571D01*
X5857857Y-2140857D01*
X5872143Y-2112286D01*
X5886428Y-2098000D01*
X5915000Y-2083714D01*
X5957857Y-2083714D01*
X5986428Y-2098000D01*
X6000714Y-2112286D01*
X6015000Y-2140857D01*
X6015000Y-2226571D01*
X6000714Y-2255143D01*
X5986428Y-2269429D01*
X5957857Y-2283714D01*
X5915000Y-2283714D01*
X6186428Y-2283714D02*
X6157857Y-2269429D01*
X6143571Y-2240857D01*
X6143571Y-1983714D01*
X6415000Y-2269429D02*
X6386428Y-2283714D01*
X6329286Y-2283714D01*
X6300714Y-2269429D01*
X6286428Y-2240857D01*
X6286428Y-2126571D01*
X6300714Y-2098000D01*
X6329286Y-2083714D01*
X6386428Y-2083714D01*
X6415000Y-2098000D01*
X6429286Y-2126571D01*
X6429286Y-2155143D01*
X6286428Y-2183714D01*
X6543571Y-2269429D02*
X6572143Y-2283714D01*
X6629286Y-2283714D01*
X6657857Y-2269429D01*
X6672143Y-2240857D01*
X6672143Y-2226571D01*
X6657857Y-2198000D01*
X6629286Y-2183714D01*
X6586428Y-2183714D01*
X6557857Y-2169429D01*
X6543571Y-2140857D01*
X6543571Y-2126571D01*
X6557857Y-2098000D01*
X6586428Y-2083714D01*
X6629286Y-2083714D01*
X6657857Y-2098000D01*
X6772143Y-2398000D02*
X6786428Y-2383714D01*
X6815000Y-2340857D01*
X6829286Y-2312286D01*
X6843571Y-2269429D01*
X6857857Y-2198000D01*
X6857857Y-2140857D01*
X6843571Y-2069428D01*
X6829286Y-2026571D01*
X6815000Y-1998000D01*
X6786428Y-1955143D01*
X6772143Y-1940857D01*
X-50000Y-2594000D02*
X0Y-2544000D01*
X-50000Y-2494000D01*
X-100000Y-2544000D01*
X-50000Y-2594000D01*
X443571Y-2679714D02*
X272143Y-2679714D01*
X357857Y-2679714D02*
X357857Y-2379714D01*
X329286Y-2422571D01*
X300714Y-2451143D01*
X272143Y-2465429D01*
X572143Y-2651143D02*
X586429Y-2665429D01*
X572143Y-2679714D01*
X557857Y-2665429D01*
X572143Y-2651143D01*
X572143Y-2679714D01*
X772143Y-2379714D02*
X800714Y-2379714D01*
X829286Y-2394000D01*
X843571Y-2408286D01*
X857857Y-2436857D01*
X872143Y-2494000D01*
X872143Y-2565429D01*
X857857Y-2622571D01*
X843571Y-2651143D01*
X829286Y-2665429D01*
X800714Y-2679714D01*
X772143Y-2679714D01*
X743571Y-2665429D01*
X729286Y-2651143D01*
X715000Y-2622571D01*
X700714Y-2565429D01*
X700714Y-2494000D01*
X715000Y-2436857D01*
X729286Y-2408286D01*
X743571Y-2394000D01*
X772143Y-2379714D01*
X1057857Y-2379714D02*
X1086429Y-2379714D01*
X1115000Y-2394000D01*
X1129286Y-2408286D01*
X1143571Y-2436857D01*
X1157857Y-2494000D01*
X1157857Y-2565429D01*
X1143571Y-2622571D01*
X1129286Y-2651143D01*
X1115000Y-2665429D01*
X1086429Y-2679714D01*
X1057857Y-2679714D01*
X1029286Y-2665429D01*
X1015000Y-2651143D01*
X1000714Y-2622571D01*
X986428Y-2565429D01*
X986428Y-2494000D01*
X1000714Y-2436857D01*
X1015000Y-2408286D01*
X1029286Y-2394000D01*
X1057857Y-2379714D01*
X1286429Y-2679714D02*
X1286429Y-2479714D01*
X1286429Y-2508286D02*
X1300714Y-2494000D01*
X1329286Y-2479714D01*
X1372143Y-2479714D01*
X1400714Y-2494000D01*
X1415000Y-2522571D01*
X1415000Y-2679714D01*
X1415000Y-2522571D02*
X1429286Y-2494000D01*
X1457857Y-2479714D01*
X1500714Y-2479714D01*
X1529286Y-2494000D01*
X1543571Y-2522571D01*
X1543571Y-2679714D01*
X1686428Y-2679714D02*
X1686428Y-2479714D01*
X1686428Y-2508286D02*
X1700714Y-2494000D01*
X1729286Y-2479714D01*
X1772143Y-2479714D01*
X1800714Y-2494000D01*
X1815000Y-2522571D01*
X1815000Y-2679714D01*
X1815000Y-2522571D02*
X1829286Y-2494000D01*
X1857857Y-2479714D01*
X1900714Y-2479714D01*
X1929286Y-2494000D01*
X1943571Y-2522571D01*
X1943571Y-2679714D01*
X2529286Y-2365429D02*
X2272143Y-2751143D01*
X2915000Y-2379714D02*
X2943571Y-2379714D01*
X2972143Y-2394000D01*
X2986428Y-2408286D01*
X3000714Y-2436857D01*
X3015000Y-2494000D01*
X3015000Y-2565429D01*
X3000714Y-2622571D01*
X2986428Y-2651143D01*
X2972143Y-2665429D01*
X2943571Y-2679714D01*
X2915000Y-2679714D01*
X2886428Y-2665429D01*
X2872143Y-2651143D01*
X2857857Y-2622571D01*
X2843571Y-2565429D01*
X2843571Y-2494000D01*
X2857857Y-2436857D01*
X2872143Y-2408286D01*
X2886428Y-2394000D01*
X2915000Y-2379714D01*
X3143571Y-2651143D02*
X3157857Y-2665429D01*
X3143571Y-2679714D01*
X3129286Y-2665429D01*
X3143571Y-2651143D01*
X3143571Y-2679714D01*
X3343571Y-2379714D02*
X3372143Y-2379714D01*
X3400714Y-2394000D01*
X3415000Y-2408286D01*
X3429286Y-2436857D01*
X3443571Y-2494000D01*
X3443571Y-2565429D01*
X3429286Y-2622571D01*
X3415000Y-2651143D01*
X3400714Y-2665429D01*
X3372143Y-2679714D01*
X3343571Y-2679714D01*
X3315000Y-2665429D01*
X3300714Y-2651143D01*
X3286428Y-2622571D01*
X3272143Y-2565429D01*
X3272143Y-2494000D01*
X3286428Y-2436857D01*
X3300714Y-2408286D01*
X3315000Y-2394000D01*
X3343571Y-2379714D01*
X3543571Y-2379714D02*
X3729286Y-2379714D01*
X3629286Y-2494000D01*
X3672143Y-2494000D01*
X3700714Y-2508286D01*
X3715000Y-2522571D01*
X3729286Y-2551143D01*
X3729286Y-2622571D01*
X3715000Y-2651143D01*
X3700714Y-2665429D01*
X3672143Y-2679714D01*
X3586428Y-2679714D01*
X3557857Y-2665429D01*
X3543571Y-2651143D01*
X3872143Y-2679714D02*
X3929286Y-2679714D01*
X3957857Y-2665429D01*
X3972143Y-2651143D01*
X4000714Y-2608286D01*
X4015000Y-2551143D01*
X4015000Y-2436857D01*
X4000714Y-2408286D01*
X3986428Y-2394000D01*
X3957857Y-2379714D01*
X3900714Y-2379714D01*
X3872143Y-2394000D01*
X3857857Y-2408286D01*
X3843571Y-2436857D01*
X3843571Y-2508286D01*
X3857857Y-2536857D01*
X3872143Y-2551143D01*
X3900714Y-2565429D01*
X3957857Y-2565429D01*
X3986428Y-2551143D01*
X4000714Y-2536857D01*
X4015000Y-2508286D01*
X4129286Y-2379714D02*
X4129286Y-2436857D01*
X4243571Y-2379714D02*
X4243571Y-2436857D01*
X4686429Y-2794000D02*
X4672143Y-2779714D01*
X4643571Y-2736857D01*
X4629286Y-2708286D01*
X4615000Y-2665429D01*
X4600714Y-2594000D01*
X4600714Y-2536857D01*
X4615000Y-2465429D01*
X4629286Y-2422571D01*
X4643571Y-2394000D01*
X4672143Y-2351143D01*
X4686429Y-2336857D01*
X4929286Y-2479714D02*
X4929286Y-2679714D01*
X4857857Y-2365429D02*
X4786429Y-2579714D01*
X4972143Y-2579714D01*
X5143571Y-2379714D02*
X5172143Y-2379714D01*
X5200714Y-2394000D01*
X5215000Y-2408286D01*
X5229286Y-2436857D01*
X5243571Y-2494000D01*
X5243571Y-2565429D01*
X5229286Y-2622571D01*
X5215000Y-2651143D01*
X5200714Y-2665429D01*
X5172143Y-2679714D01*
X5143571Y-2679714D01*
X5115000Y-2665429D01*
X5100714Y-2651143D01*
X5086429Y-2622571D01*
X5072143Y-2565429D01*
X5072143Y-2494000D01*
X5086429Y-2436857D01*
X5100714Y-2408286D01*
X5115000Y-2394000D01*
X5143571Y-2379714D01*
X5600714Y-2679714D02*
X5600714Y-2379714D01*
X5729286Y-2679714D02*
X5729286Y-2522571D01*
X5715000Y-2494000D01*
X5686428Y-2479714D01*
X5643571Y-2479714D01*
X5615000Y-2494000D01*
X5600714Y-2508286D01*
X5915000Y-2679714D02*
X5886428Y-2665429D01*
X5872143Y-2651143D01*
X5857857Y-2622571D01*
X5857857Y-2536857D01*
X5872143Y-2508286D01*
X5886428Y-2494000D01*
X5915000Y-2479714D01*
X5957857Y-2479714D01*
X5986428Y-2494000D01*
X6000714Y-2508286D01*
X6015000Y-2536857D01*
X6015000Y-2622571D01*
X6000714Y-2651143D01*
X5986428Y-2665429D01*
X5957857Y-2679714D01*
X5915000Y-2679714D01*
X6186428Y-2679714D02*
X6157857Y-2665429D01*
X6143571Y-2636857D01*
X6143571Y-2379714D01*
X6415000Y-2665429D02*
X6386428Y-2679714D01*
X6329286Y-2679714D01*
X6300714Y-2665429D01*
X6286428Y-2636857D01*
X6286428Y-2522571D01*
X6300714Y-2494000D01*
X6329286Y-2479714D01*
X6386428Y-2479714D01*
X6415000Y-2494000D01*
X6429286Y-2522571D01*
X6429286Y-2551143D01*
X6286428Y-2579714D01*
X6543571Y-2665429D02*
X6572143Y-2679714D01*
X6629286Y-2679714D01*
X6657857Y-2665429D01*
X6672143Y-2636857D01*
X6672143Y-2622571D01*
X6657857Y-2594000D01*
X6629286Y-2579714D01*
X6586428Y-2579714D01*
X6557857Y-2565429D01*
X6543571Y-2536857D01*
X6543571Y-2522571D01*
X6557857Y-2494000D01*
X6586428Y-2479714D01*
X6629286Y-2479714D01*
X6657857Y-2494000D01*
X6772143Y-2794000D02*
X6786428Y-2779714D01*
X6815000Y-2736857D01*
X6829286Y-2708286D01*
X6843571Y-2665429D01*
X6857857Y-2594000D01*
X6857857Y-2536857D01*
X6843571Y-2465429D01*
X6829286Y-2422571D01*
X6815000Y-2394000D01*
X6786428Y-2351143D01*
X6772143Y-2336857D01*
X-130000Y-2875000D02*
X0Y-3005000D01*
X0Y-2875000D02*
X-130000Y-3005000D01*
X0Y-2940000D02*
G75*
G03*
X0Y-2940000I-65000J0D01*
G01*
X443571Y-3075714D02*
X272143Y-3075714D01*
X357857Y-3075714D02*
X357857Y-2775714D01*
X329286Y-2818571D01*
X300714Y-2847143D01*
X272143Y-2861428D01*
X572143Y-3047143D02*
X586429Y-3061428D01*
X572143Y-3075714D01*
X557857Y-3061428D01*
X572143Y-3047143D01*
X572143Y-3075714D01*
X686429Y-2775714D02*
X872143Y-2775714D01*
X772143Y-2890000D01*
X815000Y-2890000D01*
X843571Y-2904286D01*
X857857Y-2918571D01*
X872143Y-2947143D01*
X872143Y-3018571D01*
X857857Y-3047143D01*
X843571Y-3061428D01*
X815000Y-3075714D01*
X729286Y-3075714D01*
X700714Y-3061428D01*
X686429Y-3047143D01*
X1057857Y-2775714D02*
X1086429Y-2775714D01*
X1115000Y-2790000D01*
X1129286Y-2804286D01*
X1143571Y-2832857D01*
X1157857Y-2890000D01*
X1157857Y-2961428D01*
X1143571Y-3018571D01*
X1129286Y-3047143D01*
X1115000Y-3061428D01*
X1086429Y-3075714D01*
X1057857Y-3075714D01*
X1029286Y-3061428D01*
X1015000Y-3047143D01*
X1000714Y-3018571D01*
X986428Y-2961428D01*
X986428Y-2890000D01*
X1000714Y-2832857D01*
X1015000Y-2804286D01*
X1029286Y-2790000D01*
X1057857Y-2775714D01*
X1286429Y-3075714D02*
X1286429Y-2875714D01*
X1286429Y-2904286D02*
X1300714Y-2890000D01*
X1329286Y-2875714D01*
X1372143Y-2875714D01*
X1400714Y-2890000D01*
X1415000Y-2918571D01*
X1415000Y-3075714D01*
X1415000Y-2918571D02*
X1429286Y-2890000D01*
X1457857Y-2875714D01*
X1500714Y-2875714D01*
X1529286Y-2890000D01*
X1543571Y-2918571D01*
X1543571Y-3075714D01*
X1686428Y-3075714D02*
X1686428Y-2875714D01*
X1686428Y-2904286D02*
X1700714Y-2890000D01*
X1729286Y-2875714D01*
X1772143Y-2875714D01*
X1800714Y-2890000D01*
X1815000Y-2918571D01*
X1815000Y-3075714D01*
X1815000Y-2918571D02*
X1829286Y-2890000D01*
X1857857Y-2875714D01*
X1900714Y-2875714D01*
X1929286Y-2890000D01*
X1943571Y-2918571D01*
X1943571Y-3075714D01*
X2529286Y-2761429D02*
X2272143Y-3147143D01*
X2915000Y-2775714D02*
X2943571Y-2775714D01*
X2972143Y-2790000D01*
X2986428Y-2804286D01*
X3000714Y-2832857D01*
X3015000Y-2890000D01*
X3015000Y-2961428D01*
X3000714Y-3018571D01*
X2986428Y-3047143D01*
X2972143Y-3061428D01*
X2943571Y-3075714D01*
X2915000Y-3075714D01*
X2886428Y-3061428D01*
X2872143Y-3047143D01*
X2857857Y-3018571D01*
X2843571Y-2961428D01*
X2843571Y-2890000D01*
X2857857Y-2832857D01*
X2872143Y-2804286D01*
X2886428Y-2790000D01*
X2915000Y-2775714D01*
X3143571Y-3047143D02*
X3157857Y-3061428D01*
X3143571Y-3075714D01*
X3129286Y-3061428D01*
X3143571Y-3047143D01*
X3143571Y-3075714D01*
X3343571Y-2775714D02*
X3372143Y-2775714D01*
X3400714Y-2790000D01*
X3415000Y-2804286D01*
X3429286Y-2832857D01*
X3443571Y-2890000D01*
X3443571Y-2961428D01*
X3429286Y-3018571D01*
X3415000Y-3047143D01*
X3400714Y-3061428D01*
X3372143Y-3075714D01*
X3343571Y-3075714D01*
X3315000Y-3061428D01*
X3300714Y-3047143D01*
X3286428Y-3018571D01*
X3272143Y-2961428D01*
X3272143Y-2890000D01*
X3286428Y-2832857D01*
X3300714Y-2804286D01*
X3315000Y-2790000D01*
X3343571Y-2775714D01*
X3715000Y-2775714D02*
X3572143Y-2775714D01*
X3557857Y-2918571D01*
X3572143Y-2904286D01*
X3600714Y-2890000D01*
X3672143Y-2890000D01*
X3700714Y-2904286D01*
X3715000Y-2918571D01*
X3729286Y-2947143D01*
X3729286Y-3018571D01*
X3715000Y-3047143D01*
X3700714Y-3061428D01*
X3672143Y-3075714D01*
X3600714Y-3075714D01*
X3572143Y-3061428D01*
X3557857Y-3047143D01*
X4015000Y-3075714D02*
X3843571Y-3075714D01*
X3929286Y-3075714D02*
X3929286Y-2775714D01*
X3900714Y-2818571D01*
X3872143Y-2847143D01*
X3843571Y-2861428D01*
X4129286Y-2775714D02*
X4129286Y-2832857D01*
X4243571Y-2775714D02*
X4243571Y-2832857D01*
X4686429Y-3190000D02*
X4672143Y-3175714D01*
X4643571Y-3132857D01*
X4629286Y-3104286D01*
X4615000Y-3061428D01*
X4600714Y-2990000D01*
X4600714Y-2932857D01*
X4615000Y-2861428D01*
X4629286Y-2818571D01*
X4643571Y-2790000D01*
X4672143Y-2747143D01*
X4686429Y-2732857D01*
X4957857Y-3075714D02*
X4786429Y-3075714D01*
X4872143Y-3075714D02*
X4872143Y-2775714D01*
X4843571Y-2818571D01*
X4815000Y-2847143D01*
X4786429Y-2861428D01*
X5072143Y-2804286D02*
X5086429Y-2790000D01*
X5115000Y-2775714D01*
X5186429Y-2775714D01*
X5215000Y-2790000D01*
X5229286Y-2804286D01*
X5243571Y-2832857D01*
X5243571Y-2861428D01*
X5229286Y-2904286D01*
X5057857Y-3075714D01*
X5243571Y-3075714D01*
X5600714Y-3075714D02*
X5600714Y-2775714D01*
X5729286Y-3075714D02*
X5729286Y-2918571D01*
X5715000Y-2890000D01*
X5686428Y-2875714D01*
X5643571Y-2875714D01*
X5615000Y-2890000D01*
X5600714Y-2904286D01*
X5915000Y-3075714D02*
X5886428Y-3061428D01*
X5872143Y-3047143D01*
X5857857Y-3018571D01*
X5857857Y-2932857D01*
X5872143Y-2904286D01*
X5886428Y-2890000D01*
X5915000Y-2875714D01*
X5957857Y-2875714D01*
X5986428Y-2890000D01*
X6000714Y-2904286D01*
X6015000Y-2932857D01*
X6015000Y-3018571D01*
X6000714Y-3047143D01*
X5986428Y-3061428D01*
X5957857Y-3075714D01*
X5915000Y-3075714D01*
X6186428Y-3075714D02*
X6157857Y-3061428D01*
X6143571Y-3032857D01*
X6143571Y-2775714D01*
X6415000Y-3061428D02*
X6386428Y-3075714D01*
X6329286Y-3075714D01*
X6300714Y-3061428D01*
X6286428Y-3032857D01*
X6286428Y-2918571D01*
X6300714Y-2890000D01*
X6329286Y-2875714D01*
X6386428Y-2875714D01*
X6415000Y-2890000D01*
X6429286Y-2918571D01*
X6429286Y-2947143D01*
X6286428Y-2975714D01*
X6543571Y-3061428D02*
X6572143Y-3075714D01*
X6629286Y-3075714D01*
X6657857Y-3061428D01*
X6672143Y-3032857D01*
X6672143Y-3018571D01*
X6657857Y-2990000D01*
X6629286Y-2975714D01*
X6586428Y-2975714D01*
X6557857Y-2961428D01*
X6543571Y-2932857D01*
X6543571Y-2918571D01*
X6557857Y-2890000D01*
X6586428Y-2875714D01*
X6629286Y-2875714D01*
X6657857Y-2890000D01*
X6772143Y-3190000D02*
X6786428Y-3175714D01*
X6815000Y-3132857D01*
X6829286Y-3104286D01*
X6843571Y-3061428D01*
X6857857Y-2990000D01*
X6857857Y-2932857D01*
X6843571Y-2861428D01*
X6829286Y-2818571D01*
X6815000Y-2790000D01*
X6786428Y-2747143D01*
X6772143Y-2732857D01*
X-140000Y-3266000D02*
X0Y-3406000D01*
X0Y-3266000D02*
X-140000Y-3406000D01*
X-70000Y-3266000D02*
X-70000Y-3406000D01*
X-140000Y-3336000D02*
X0Y-3336000D01*
X443571Y-3471714D02*
X272143Y-3471714D01*
X357857Y-3471714D02*
X357857Y-3171714D01*
X329286Y-3214571D01*
X300714Y-3243143D01*
X272143Y-3257428D01*
X572143Y-3443143D02*
X586429Y-3457428D01*
X572143Y-3471714D01*
X557857Y-3457428D01*
X572143Y-3443143D01*
X572143Y-3471714D01*
X843571Y-3271714D02*
X843571Y-3471714D01*
X772143Y-3157428D02*
X700714Y-3371714D01*
X886428Y-3371714D01*
X1057857Y-3171714D02*
X1086429Y-3171714D01*
X1115000Y-3186000D01*
X1129286Y-3200286D01*
X1143571Y-3228857D01*
X1157857Y-3286000D01*
X1157857Y-3357428D01*
X1143571Y-3414571D01*
X1129286Y-3443143D01*
X1115000Y-3457428D01*
X1086429Y-3471714D01*
X1057857Y-3471714D01*
X1029286Y-3457428D01*
X1015000Y-3443143D01*
X1000714Y-3414571D01*
X986428Y-3357428D01*
X986428Y-3286000D01*
X1000714Y-3228857D01*
X1015000Y-3200286D01*
X1029286Y-3186000D01*
X1057857Y-3171714D01*
X1286429Y-3471714D02*
X1286429Y-3271714D01*
X1286429Y-3300286D02*
X1300714Y-3286000D01*
X1329286Y-3271714D01*
X1372143Y-3271714D01*
X1400714Y-3286000D01*
X1415000Y-3314571D01*
X1415000Y-3471714D01*
X1415000Y-3314571D02*
X1429286Y-3286000D01*
X1457857Y-3271714D01*
X1500714Y-3271714D01*
X1529286Y-3286000D01*
X1543571Y-3314571D01*
X1543571Y-3471714D01*
X1686428Y-3471714D02*
X1686428Y-3271714D01*
X1686428Y-3300286D02*
X1700714Y-3286000D01*
X1729286Y-3271714D01*
X1772143Y-3271714D01*
X1800714Y-3286000D01*
X1815000Y-3314571D01*
X1815000Y-3471714D01*
X1815000Y-3314571D02*
X1829286Y-3286000D01*
X1857857Y-3271714D01*
X1900714Y-3271714D01*
X1929286Y-3286000D01*
X1943571Y-3314571D01*
X1943571Y-3471714D01*
X2529286Y-3157428D02*
X2272143Y-3543143D01*
X2915000Y-3171714D02*
X2943571Y-3171714D01*
X2972143Y-3186000D01*
X2986428Y-3200286D01*
X3000714Y-3228857D01*
X3015000Y-3286000D01*
X3015000Y-3357428D01*
X3000714Y-3414571D01*
X2986428Y-3443143D01*
X2972143Y-3457428D01*
X2943571Y-3471714D01*
X2915000Y-3471714D01*
X2886428Y-3457428D01*
X2872143Y-3443143D01*
X2857857Y-3414571D01*
X2843571Y-3357428D01*
X2843571Y-3286000D01*
X2857857Y-3228857D01*
X2872143Y-3200286D01*
X2886428Y-3186000D01*
X2915000Y-3171714D01*
X3143571Y-3443143D02*
X3157857Y-3457428D01*
X3143571Y-3471714D01*
X3129286Y-3457428D01*
X3143571Y-3443143D01*
X3143571Y-3471714D01*
X3343571Y-3171714D02*
X3372143Y-3171714D01*
X3400714Y-3186000D01*
X3415000Y-3200286D01*
X3429286Y-3228857D01*
X3443571Y-3286000D01*
X3443571Y-3357428D01*
X3429286Y-3414571D01*
X3415000Y-3443143D01*
X3400714Y-3457428D01*
X3372143Y-3471714D01*
X3343571Y-3471714D01*
X3315000Y-3457428D01*
X3300714Y-3443143D01*
X3286428Y-3414571D01*
X3272143Y-3357428D01*
X3272143Y-3286000D01*
X3286428Y-3228857D01*
X3300714Y-3200286D01*
X3315000Y-3186000D01*
X3343571Y-3171714D01*
X3715000Y-3171714D02*
X3572143Y-3171714D01*
X3557857Y-3314571D01*
X3572143Y-3300286D01*
X3600714Y-3286000D01*
X3672143Y-3286000D01*
X3700714Y-3300286D01*
X3715000Y-3314571D01*
X3729286Y-3343143D01*
X3729286Y-3414571D01*
X3715000Y-3443143D01*
X3700714Y-3457428D01*
X3672143Y-3471714D01*
X3600714Y-3471714D01*
X3572143Y-3457428D01*
X3557857Y-3443143D01*
X4000714Y-3171714D02*
X3857857Y-3171714D01*
X3843571Y-3314571D01*
X3857857Y-3300286D01*
X3886428Y-3286000D01*
X3957857Y-3286000D01*
X3986428Y-3300286D01*
X4000714Y-3314571D01*
X4015000Y-3343143D01*
X4015000Y-3414571D01*
X4000714Y-3443143D01*
X3986428Y-3457428D01*
X3957857Y-3471714D01*
X3886428Y-3471714D01*
X3857857Y-3457428D01*
X3843571Y-3443143D01*
X4129286Y-3171714D02*
X4129286Y-3228857D01*
X4243571Y-3171714D02*
X4243571Y-3228857D01*
X4686429Y-3586000D02*
X4672143Y-3571714D01*
X4643571Y-3528857D01*
X4629286Y-3500286D01*
X4615000Y-3457428D01*
X4600714Y-3386000D01*
X4600714Y-3328857D01*
X4615000Y-3257428D01*
X4629286Y-3214571D01*
X4643571Y-3186000D01*
X4672143Y-3143143D01*
X4686429Y-3128857D01*
X4772143Y-3171714D02*
X4972143Y-3171714D01*
X4843571Y-3471714D01*
X5315000Y-3471714D02*
X5315000Y-3171714D01*
X5443571Y-3471714D02*
X5443571Y-3314571D01*
X5429286Y-3286000D01*
X5400714Y-3271714D01*
X5357857Y-3271714D01*
X5329286Y-3286000D01*
X5315000Y-3300286D01*
X5629286Y-3471714D02*
X5600714Y-3457428D01*
X5586429Y-3443143D01*
X5572143Y-3414571D01*
X5572143Y-3328857D01*
X5586429Y-3300286D01*
X5600714Y-3286000D01*
X5629286Y-3271714D01*
X5672143Y-3271714D01*
X5700714Y-3286000D01*
X5715000Y-3300286D01*
X5729286Y-3328857D01*
X5729286Y-3414571D01*
X5715000Y-3443143D01*
X5700714Y-3457428D01*
X5672143Y-3471714D01*
X5629286Y-3471714D01*
X5900714Y-3471714D02*
X5872143Y-3457428D01*
X5857857Y-3428857D01*
X5857857Y-3171714D01*
X6129286Y-3457428D02*
X6100714Y-3471714D01*
X6043571Y-3471714D01*
X6015000Y-3457428D01*
X6000714Y-3428857D01*
X6000714Y-3314571D01*
X6015000Y-3286000D01*
X6043571Y-3271714D01*
X6100714Y-3271714D01*
X6129286Y-3286000D01*
X6143571Y-3314571D01*
X6143571Y-3343143D01*
X6000714Y-3371714D01*
X6257857Y-3457428D02*
X6286428Y-3471714D01*
X6343571Y-3471714D01*
X6372143Y-3457428D01*
X6386428Y-3428857D01*
X6386428Y-3414571D01*
X6372143Y-3386000D01*
X6343571Y-3371714D01*
X6300714Y-3371714D01*
X6272143Y-3357428D01*
X6257857Y-3328857D01*
X6257857Y-3314571D01*
X6272143Y-3286000D01*
X6300714Y-3271714D01*
X6343571Y-3271714D01*
X6372143Y-3286000D01*
X6486428Y-3586000D02*
X6500714Y-3571714D01*
X6529286Y-3528857D01*
X6543571Y-3500286D01*
X6557857Y-3457428D01*
X6572143Y-3386000D01*
X6572143Y-3328857D01*
X6557857Y-3257428D01*
X6543571Y-3214571D01*
X6529286Y-3186000D01*
X6500714Y-3143143D01*
X6486428Y-3128857D01*
X-150000Y-3657000D02*
X0Y-3807000D01*
X0Y-3657000D02*
X-150000Y-3807000D01*
X-21966Y-3785033D02*
X-21966Y-3678966D01*
X-128033Y-3678966D01*
X-128033Y-3785033D01*
X-21966Y-3785033D01*
X443571Y-3867714D02*
X272143Y-3867714D01*
X357857Y-3867714D02*
X357857Y-3567714D01*
X329286Y-3610571D01*
X300714Y-3639143D01*
X272143Y-3653428D01*
X572143Y-3839143D02*
X586429Y-3853428D01*
X572143Y-3867714D01*
X557857Y-3853428D01*
X572143Y-3839143D01*
X572143Y-3867714D01*
X857857Y-3567714D02*
X715000Y-3567714D01*
X700714Y-3710571D01*
X715000Y-3696286D01*
X743571Y-3682000D01*
X815000Y-3682000D01*
X843571Y-3696286D01*
X857857Y-3710571D01*
X872143Y-3739143D01*
X872143Y-3810571D01*
X857857Y-3839143D01*
X843571Y-3853428D01*
X815000Y-3867714D01*
X743571Y-3867714D01*
X715000Y-3853428D01*
X700714Y-3839143D01*
X1057857Y-3567714D02*
X1086429Y-3567714D01*
X1115000Y-3582000D01*
X1129286Y-3596286D01*
X1143571Y-3624857D01*
X1157857Y-3682000D01*
X1157857Y-3753428D01*
X1143571Y-3810571D01*
X1129286Y-3839143D01*
X1115000Y-3853428D01*
X1086429Y-3867714D01*
X1057857Y-3867714D01*
X1029286Y-3853428D01*
X1015000Y-3839143D01*
X1000714Y-3810571D01*
X986428Y-3753428D01*
X986428Y-3682000D01*
X1000714Y-3624857D01*
X1015000Y-3596286D01*
X1029286Y-3582000D01*
X1057857Y-3567714D01*
X1286429Y-3867714D02*
X1286429Y-3667714D01*
X1286429Y-3696286D02*
X1300714Y-3682000D01*
X1329286Y-3667714D01*
X1372143Y-3667714D01*
X1400714Y-3682000D01*
X1415000Y-3710571D01*
X1415000Y-3867714D01*
X1415000Y-3710571D02*
X1429286Y-3682000D01*
X1457857Y-3667714D01*
X1500714Y-3667714D01*
X1529286Y-3682000D01*
X1543571Y-3710571D01*
X1543571Y-3867714D01*
X1686428Y-3867714D02*
X1686428Y-3667714D01*
X1686428Y-3696286D02*
X1700714Y-3682000D01*
X1729286Y-3667714D01*
X1772143Y-3667714D01*
X1800714Y-3682000D01*
X1815000Y-3710571D01*
X1815000Y-3867714D01*
X1815000Y-3710571D02*
X1829286Y-3682000D01*
X1857857Y-3667714D01*
X1900714Y-3667714D01*
X1929286Y-3682000D01*
X1943571Y-3710571D01*
X1943571Y-3867714D01*
X2529286Y-3553428D02*
X2272143Y-3939143D01*
X2915000Y-3567714D02*
X2943571Y-3567714D01*
X2972143Y-3582000D01*
X2986428Y-3596286D01*
X3000714Y-3624857D01*
X3015000Y-3682000D01*
X3015000Y-3753428D01*
X3000714Y-3810571D01*
X2986428Y-3839143D01*
X2972143Y-3853428D01*
X2943571Y-3867714D01*
X2915000Y-3867714D01*
X2886428Y-3853428D01*
X2872143Y-3839143D01*
X2857857Y-3810571D01*
X2843571Y-3753428D01*
X2843571Y-3682000D01*
X2857857Y-3624857D01*
X2872143Y-3596286D01*
X2886428Y-3582000D01*
X2915000Y-3567714D01*
X3143571Y-3839143D02*
X3157857Y-3853428D01*
X3143571Y-3867714D01*
X3129286Y-3853428D01*
X3143571Y-3839143D01*
X3143571Y-3867714D01*
X3343571Y-3567714D02*
X3372143Y-3567714D01*
X3400714Y-3582000D01*
X3415000Y-3596286D01*
X3429286Y-3624857D01*
X3443571Y-3682000D01*
X3443571Y-3753428D01*
X3429286Y-3810571D01*
X3415000Y-3839143D01*
X3400714Y-3853428D01*
X3372143Y-3867714D01*
X3343571Y-3867714D01*
X3315000Y-3853428D01*
X3300714Y-3839143D01*
X3286428Y-3810571D01*
X3272143Y-3753428D01*
X3272143Y-3682000D01*
X3286428Y-3624857D01*
X3300714Y-3596286D01*
X3315000Y-3582000D01*
X3343571Y-3567714D01*
X3715000Y-3567714D02*
X3572143Y-3567714D01*
X3557857Y-3710571D01*
X3572143Y-3696286D01*
X3600714Y-3682000D01*
X3672143Y-3682000D01*
X3700714Y-3696286D01*
X3715000Y-3710571D01*
X3729286Y-3739143D01*
X3729286Y-3810571D01*
X3715000Y-3839143D01*
X3700714Y-3853428D01*
X3672143Y-3867714D01*
X3600714Y-3867714D01*
X3572143Y-3853428D01*
X3557857Y-3839143D01*
X3872143Y-3867714D02*
X3929286Y-3867714D01*
X3957857Y-3853428D01*
X3972143Y-3839143D01*
X4000714Y-3796286D01*
X4015000Y-3739143D01*
X4015000Y-3624857D01*
X4000714Y-3596286D01*
X3986428Y-3582000D01*
X3957857Y-3567714D01*
X3900714Y-3567714D01*
X3872143Y-3582000D01*
X3857857Y-3596286D01*
X3843571Y-3624857D01*
X3843571Y-3696286D01*
X3857857Y-3724857D01*
X3872143Y-3739143D01*
X3900714Y-3753428D01*
X3957857Y-3753428D01*
X3986428Y-3739143D01*
X4000714Y-3724857D01*
X4015000Y-3696286D01*
X4129286Y-3567714D02*
X4129286Y-3624857D01*
X4243571Y-3567714D02*
X4243571Y-3624857D01*
X4686429Y-3982000D02*
X4672143Y-3967714D01*
X4643571Y-3924857D01*
X4629286Y-3896286D01*
X4615000Y-3853428D01*
X4600714Y-3782000D01*
X4600714Y-3724857D01*
X4615000Y-3653428D01*
X4629286Y-3610571D01*
X4643571Y-3582000D01*
X4672143Y-3539143D01*
X4686429Y-3524857D01*
X4843571Y-3696286D02*
X4815000Y-3682000D01*
X4800714Y-3667714D01*
X4786429Y-3639143D01*
X4786429Y-3624857D01*
X4800714Y-3596286D01*
X4815000Y-3582000D01*
X4843571Y-3567714D01*
X4900714Y-3567714D01*
X4929286Y-3582000D01*
X4943571Y-3596286D01*
X4957857Y-3624857D01*
X4957857Y-3639143D01*
X4943571Y-3667714D01*
X4929286Y-3682000D01*
X4900714Y-3696286D01*
X4843571Y-3696286D01*
X4815000Y-3710571D01*
X4800714Y-3724857D01*
X4786429Y-3753428D01*
X4786429Y-3810571D01*
X4800714Y-3839143D01*
X4815000Y-3853428D01*
X4843571Y-3867714D01*
X4900714Y-3867714D01*
X4929286Y-3853428D01*
X4943571Y-3839143D01*
X4957857Y-3810571D01*
X4957857Y-3753428D01*
X4943571Y-3724857D01*
X4929286Y-3710571D01*
X4900714Y-3696286D01*
X5315000Y-3867714D02*
X5315000Y-3567714D01*
X5443571Y-3867714D02*
X5443571Y-3710571D01*
X5429286Y-3682000D01*
X5400714Y-3667714D01*
X5357857Y-3667714D01*
X5329286Y-3682000D01*
X5315000Y-3696286D01*
X5629286Y-3867714D02*
X5600714Y-3853428D01*
X5586429Y-3839143D01*
X5572143Y-3810571D01*
X5572143Y-3724857D01*
X5586429Y-3696286D01*
X5600714Y-3682000D01*
X5629286Y-3667714D01*
X5672143Y-3667714D01*
X5700714Y-3682000D01*
X5715000Y-3696286D01*
X5729286Y-3724857D01*
X5729286Y-3810571D01*
X5715000Y-3839143D01*
X5700714Y-3853428D01*
X5672143Y-3867714D01*
X5629286Y-3867714D01*
X5900714Y-3867714D02*
X5872143Y-3853428D01*
X5857857Y-3824857D01*
X5857857Y-3567714D01*
X6129286Y-3853428D02*
X6100714Y-3867714D01*
X6043571Y-3867714D01*
X6015000Y-3853428D01*
X6000714Y-3824857D01*
X6000714Y-3710571D01*
X6015000Y-3682000D01*
X6043571Y-3667714D01*
X6100714Y-3667714D01*
X6129286Y-3682000D01*
X6143571Y-3710571D01*
X6143571Y-3739143D01*
X6000714Y-3767714D01*
X6257857Y-3853428D02*
X6286428Y-3867714D01*
X6343571Y-3867714D01*
X6372143Y-3853428D01*
X6386428Y-3824857D01*
X6386428Y-3810571D01*
X6372143Y-3782000D01*
X6343571Y-3767714D01*
X6300714Y-3767714D01*
X6272143Y-3753428D01*
X6257857Y-3724857D01*
X6257857Y-3710571D01*
X6272143Y-3682000D01*
X6300714Y-3667714D01*
X6343571Y-3667714D01*
X6372143Y-3682000D01*
X6486428Y-3982000D02*
X6500714Y-3967714D01*
X6529286Y-3924857D01*
X6543571Y-3896286D01*
X6557857Y-3853428D01*
X6572143Y-3782000D01*
X6572143Y-3724857D01*
X6557857Y-3653428D01*
X6543571Y-3610571D01*
X6529286Y-3582000D01*
X6500714Y-3539143D01*
X6486428Y-3524857D01*
X-290000Y-3983000D02*
X0Y-4273000D01*
X0Y-3983000D02*
X-290000Y-4273000D01*
X-145000Y-4273000D02*
X0Y-4128000D01*
X-145000Y-3983000D01*
X-290000Y-4128000D01*
X-145000Y-4273000D01*
X272143Y-3992286D02*
X286429Y-3978000D01*
X315000Y-3963714D01*
X386428Y-3963714D01*
X415000Y-3978000D01*
X429286Y-3992286D01*
X443571Y-4020857D01*
X443571Y-4049428D01*
X429286Y-4092286D01*
X257857Y-4263714D01*
X443571Y-4263714D01*
X572143Y-4235143D02*
X586429Y-4249429D01*
X572143Y-4263714D01*
X557857Y-4249429D01*
X572143Y-4235143D01*
X572143Y-4263714D01*
X729286Y-4263714D02*
X786428Y-4263714D01*
X815000Y-4249429D01*
X829286Y-4235143D01*
X857857Y-4192286D01*
X872143Y-4135143D01*
X872143Y-4020857D01*
X857857Y-3992286D01*
X843571Y-3978000D01*
X815000Y-3963714D01*
X757857Y-3963714D01*
X729286Y-3978000D01*
X715000Y-3992286D01*
X700714Y-4020857D01*
X700714Y-4092286D01*
X715000Y-4120857D01*
X729286Y-4135143D01*
X757857Y-4149428D01*
X815000Y-4149428D01*
X843571Y-4135143D01*
X857857Y-4120857D01*
X872143Y-4092286D01*
X1057857Y-3963714D02*
X1086429Y-3963714D01*
X1115000Y-3978000D01*
X1129286Y-3992286D01*
X1143571Y-4020857D01*
X1157857Y-4078000D01*
X1157857Y-4149428D01*
X1143571Y-4206571D01*
X1129286Y-4235143D01*
X1115000Y-4249429D01*
X1086429Y-4263714D01*
X1057857Y-4263714D01*
X1029286Y-4249429D01*
X1015000Y-4235143D01*
X1000714Y-4206571D01*
X986428Y-4149428D01*
X986428Y-4078000D01*
X1000714Y-4020857D01*
X1015000Y-3992286D01*
X1029286Y-3978000D01*
X1057857Y-3963714D01*
X1286429Y-4263714D02*
X1286429Y-4063714D01*
X1286429Y-4092286D02*
X1300714Y-4078000D01*
X1329286Y-4063714D01*
X1372143Y-4063714D01*
X1400714Y-4078000D01*
X1415000Y-4106571D01*
X1415000Y-4263714D01*
X1415000Y-4106571D02*
X1429286Y-4078000D01*
X1457857Y-4063714D01*
X1500714Y-4063714D01*
X1529286Y-4078000D01*
X1543571Y-4106571D01*
X1543571Y-4263714D01*
X1686428Y-4263714D02*
X1686428Y-4063714D01*
X1686428Y-4092286D02*
X1700714Y-4078000D01*
X1729286Y-4063714D01*
X1772143Y-4063714D01*
X1800714Y-4078000D01*
X1815000Y-4106571D01*
X1815000Y-4263714D01*
X1815000Y-4106571D02*
X1829286Y-4078000D01*
X1857857Y-4063714D01*
X1900714Y-4063714D01*
X1929286Y-4078000D01*
X1943571Y-4106571D01*
X1943571Y-4263714D01*
X2529286Y-3949428D02*
X2272143Y-4335143D01*
X2915000Y-3963714D02*
X2943571Y-3963714D01*
X2972143Y-3978000D01*
X2986428Y-3992286D01*
X3000714Y-4020857D01*
X3015000Y-4078000D01*
X3015000Y-4149428D01*
X3000714Y-4206571D01*
X2986428Y-4235143D01*
X2972143Y-4249429D01*
X2943571Y-4263714D01*
X2915000Y-4263714D01*
X2886428Y-4249429D01*
X2872143Y-4235143D01*
X2857857Y-4206571D01*
X2843571Y-4149428D01*
X2843571Y-4078000D01*
X2857857Y-4020857D01*
X2872143Y-3992286D01*
X2886428Y-3978000D01*
X2915000Y-3963714D01*
X3143571Y-4235143D02*
X3157857Y-4249429D01*
X3143571Y-4263714D01*
X3129286Y-4249429D01*
X3143571Y-4235143D01*
X3143571Y-4263714D01*
X3443571Y-4263714D02*
X3272143Y-4263714D01*
X3357857Y-4263714D02*
X3357857Y-3963714D01*
X3329286Y-4006571D01*
X3300714Y-4035143D01*
X3272143Y-4049428D01*
X3729286Y-4263714D02*
X3557857Y-4263714D01*
X3643571Y-4263714D02*
X3643571Y-3963714D01*
X3615000Y-4006571D01*
X3586428Y-4035143D01*
X3557857Y-4049428D01*
X3986428Y-4063714D02*
X3986428Y-4263714D01*
X3915000Y-3949428D02*
X3843571Y-4163714D01*
X4029286Y-4163714D01*
X4129286Y-3963714D02*
X4129286Y-4020857D01*
X4243571Y-3963714D02*
X4243571Y-4020857D01*
X4686429Y-4378000D02*
X4672143Y-4363714D01*
X4643571Y-4320857D01*
X4629286Y-4292286D01*
X4615000Y-4249429D01*
X4600714Y-4178000D01*
X4600714Y-4120857D01*
X4615000Y-4049428D01*
X4629286Y-4006571D01*
X4643571Y-3978000D01*
X4672143Y-3935143D01*
X4686429Y-3920857D01*
X4929286Y-4063714D02*
X4929286Y-4263714D01*
X4857857Y-3949428D02*
X4786429Y-4163714D01*
X4972143Y-4163714D01*
X5315000Y-4263714D02*
X5315000Y-3963714D01*
X5443571Y-4263714D02*
X5443571Y-4106571D01*
X5429286Y-4078000D01*
X5400714Y-4063714D01*
X5357857Y-4063714D01*
X5329286Y-4078000D01*
X5315000Y-4092286D01*
X5629286Y-4263714D02*
X5600714Y-4249429D01*
X5586429Y-4235143D01*
X5572143Y-4206571D01*
X5572143Y-4120857D01*
X5586429Y-4092286D01*
X5600714Y-4078000D01*
X5629286Y-4063714D01*
X5672143Y-4063714D01*
X5700714Y-4078000D01*
X5715000Y-4092286D01*
X5729286Y-4120857D01*
X5729286Y-4206571D01*
X5715000Y-4235143D01*
X5700714Y-4249429D01*
X5672143Y-4263714D01*
X5629286Y-4263714D01*
X5900714Y-4263714D02*
X5872143Y-4249429D01*
X5857857Y-4220857D01*
X5857857Y-3963714D01*
X6129286Y-4249429D02*
X6100714Y-4263714D01*
X6043571Y-4263714D01*
X6015000Y-4249429D01*
X6000714Y-4220857D01*
X6000714Y-4106571D01*
X6015000Y-4078000D01*
X6043571Y-4063714D01*
X6100714Y-4063714D01*
X6129286Y-4078000D01*
X6143571Y-4106571D01*
X6143571Y-4135143D01*
X6000714Y-4163714D01*
X6257857Y-4249429D02*
X6286428Y-4263714D01*
X6343571Y-4263714D01*
X6372143Y-4249429D01*
X6386428Y-4220857D01*
X6386428Y-4206571D01*
X6372143Y-4178000D01*
X6343571Y-4163714D01*
X6300714Y-4163714D01*
X6272143Y-4149428D01*
X6257857Y-4120857D01*
X6257857Y-4106571D01*
X6272143Y-4078000D01*
X6300714Y-4063714D01*
X6343571Y-4063714D01*
X6372143Y-4078000D01*
X6486428Y-4378000D02*
X6500714Y-4363714D01*
X6529286Y-4320857D01*
X6543571Y-4292286D01*
X6557857Y-4249429D01*
X6572143Y-4178000D01*
X6572143Y-4120857D01*
X6557857Y-4049428D01*
X6543571Y-4006571D01*
X6529286Y-3978000D01*
X6500714Y-3935143D01*
X6486428Y-3920857D01*
X-160000Y-4388000D02*
X-160000Y-4708000D01*
X-320000Y-4548000D02*
X0Y-4548000D01*
X0Y-4548000D02*
G75*
G03*
X0Y-4548000I-160000J0D01*
G01*
X257857Y-4383714D02*
X443571Y-4383714D01*
X343571Y-4498000D01*
X386428Y-4498000D01*
X415000Y-4512286D01*
X429286Y-4526571D01*
X443571Y-4555143D01*
X443571Y-4626571D01*
X429286Y-4655143D01*
X415000Y-4669429D01*
X386428Y-4683714D01*
X300714Y-4683714D01*
X272143Y-4669429D01*
X257857Y-4655143D01*
X572143Y-4655143D02*
X586429Y-4669429D01*
X572143Y-4683714D01*
X557857Y-4669429D01*
X572143Y-4655143D01*
X572143Y-4683714D01*
X700714Y-4412286D02*
X715000Y-4398000D01*
X743571Y-4383714D01*
X815000Y-4383714D01*
X843571Y-4398000D01*
X857857Y-4412286D01*
X872143Y-4440857D01*
X872143Y-4469429D01*
X857857Y-4512286D01*
X686429Y-4683714D01*
X872143Y-4683714D01*
X1057857Y-4383714D02*
X1086429Y-4383714D01*
X1115000Y-4398000D01*
X1129286Y-4412286D01*
X1143571Y-4440857D01*
X1157857Y-4498000D01*
X1157857Y-4569429D01*
X1143571Y-4626571D01*
X1129286Y-4655143D01*
X1115000Y-4669429D01*
X1086429Y-4683714D01*
X1057857Y-4683714D01*
X1029286Y-4669429D01*
X1015000Y-4655143D01*
X1000714Y-4626571D01*
X986428Y-4569429D01*
X986428Y-4498000D01*
X1000714Y-4440857D01*
X1015000Y-4412286D01*
X1029286Y-4398000D01*
X1057857Y-4383714D01*
X1286429Y-4683714D02*
X1286429Y-4483714D01*
X1286429Y-4512286D02*
X1300714Y-4498000D01*
X1329286Y-4483714D01*
X1372143Y-4483714D01*
X1400714Y-4498000D01*
X1415000Y-4526571D01*
X1415000Y-4683714D01*
X1415000Y-4526571D02*
X1429286Y-4498000D01*
X1457857Y-4483714D01*
X1500714Y-4483714D01*
X1529286Y-4498000D01*
X1543571Y-4526571D01*
X1543571Y-4683714D01*
X1686428Y-4683714D02*
X1686428Y-4483714D01*
X1686428Y-4512286D02*
X1700714Y-4498000D01*
X1729286Y-4483714D01*
X1772143Y-4483714D01*
X1800714Y-4498000D01*
X1815000Y-4526571D01*
X1815000Y-4683714D01*
X1815000Y-4526571D02*
X1829286Y-4498000D01*
X1857857Y-4483714D01*
X1900714Y-4483714D01*
X1929286Y-4498000D01*
X1943571Y-4526571D01*
X1943571Y-4683714D01*
X2529286Y-4369429D02*
X2272143Y-4755143D01*
X2915000Y-4383714D02*
X2943571Y-4383714D01*
X2972143Y-4398000D01*
X2986428Y-4412286D01*
X3000714Y-4440857D01*
X3015000Y-4498000D01*
X3015000Y-4569429D01*
X3000714Y-4626571D01*
X2986428Y-4655143D01*
X2972143Y-4669429D01*
X2943571Y-4683714D01*
X2915000Y-4683714D01*
X2886428Y-4669429D01*
X2872143Y-4655143D01*
X2857857Y-4626571D01*
X2843571Y-4569429D01*
X2843571Y-4498000D01*
X2857857Y-4440857D01*
X2872143Y-4412286D01*
X2886428Y-4398000D01*
X2915000Y-4383714D01*
X3143571Y-4655143D02*
X3157857Y-4669429D01*
X3143571Y-4683714D01*
X3129286Y-4669429D01*
X3143571Y-4655143D01*
X3143571Y-4683714D01*
X3443571Y-4683714D02*
X3272143Y-4683714D01*
X3357857Y-4683714D02*
X3357857Y-4383714D01*
X3329286Y-4426571D01*
X3300714Y-4455143D01*
X3272143Y-4469429D01*
X3557857Y-4412286D02*
X3572143Y-4398000D01*
X3600714Y-4383714D01*
X3672143Y-4383714D01*
X3700714Y-4398000D01*
X3715000Y-4412286D01*
X3729286Y-4440857D01*
X3729286Y-4469429D01*
X3715000Y-4512286D01*
X3543571Y-4683714D01*
X3729286Y-4683714D01*
X3986428Y-4383714D02*
X3929286Y-4383714D01*
X3900714Y-4398000D01*
X3886428Y-4412286D01*
X3857857Y-4455143D01*
X3843571Y-4512286D01*
X3843571Y-4626571D01*
X3857857Y-4655143D01*
X3872143Y-4669429D01*
X3900714Y-4683714D01*
X3957857Y-4683714D01*
X3986428Y-4669429D01*
X4000714Y-4655143D01*
X4015000Y-4626571D01*
X4015000Y-4555143D01*
X4000714Y-4526571D01*
X3986428Y-4512286D01*
X3957857Y-4498000D01*
X3900714Y-4498000D01*
X3872143Y-4512286D01*
X3857857Y-4526571D01*
X3843571Y-4555143D01*
X4129286Y-4383714D02*
X4129286Y-4440857D01*
X4243571Y-4383714D02*
X4243571Y-4440857D01*
X4686429Y-4798000D02*
X4672143Y-4783714D01*
X4643571Y-4740857D01*
X4629286Y-4712286D01*
X4615000Y-4669429D01*
X4600714Y-4598000D01*
X4600714Y-4540857D01*
X4615000Y-4469429D01*
X4629286Y-4426571D01*
X4643571Y-4398000D01*
X4672143Y-4355143D01*
X4686429Y-4340857D01*
X4929286Y-4483714D02*
X4929286Y-4683714D01*
X4857857Y-4369429D02*
X4786429Y-4583714D01*
X4972143Y-4583714D01*
X5315000Y-4683714D02*
X5315000Y-4383714D01*
X5443571Y-4683714D02*
X5443571Y-4526571D01*
X5429286Y-4498000D01*
X5400714Y-4483714D01*
X5357857Y-4483714D01*
X5329286Y-4498000D01*
X5315000Y-4512286D01*
X5629286Y-4683714D02*
X5600714Y-4669429D01*
X5586429Y-4655143D01*
X5572143Y-4626571D01*
X5572143Y-4540857D01*
X5586429Y-4512286D01*
X5600714Y-4498000D01*
X5629286Y-4483714D01*
X5672143Y-4483714D01*
X5700714Y-4498000D01*
X5715000Y-4512286D01*
X5729286Y-4540857D01*
X5729286Y-4626571D01*
X5715000Y-4655143D01*
X5700714Y-4669429D01*
X5672143Y-4683714D01*
X5629286Y-4683714D01*
X5900714Y-4683714D02*
X5872143Y-4669429D01*
X5857857Y-4640857D01*
X5857857Y-4383714D01*
X6129286Y-4669429D02*
X6100714Y-4683714D01*
X6043571Y-4683714D01*
X6015000Y-4669429D01*
X6000714Y-4640857D01*
X6000714Y-4526571D01*
X6015000Y-4498000D01*
X6043571Y-4483714D01*
X6100714Y-4483714D01*
X6129286Y-4498000D01*
X6143571Y-4526571D01*
X6143571Y-4555143D01*
X6000714Y-4583714D01*
X6257857Y-4669429D02*
X6286428Y-4683714D01*
X6343571Y-4683714D01*
X6372143Y-4669429D01*
X6386428Y-4640857D01*
X6386428Y-4626571D01*
X6372143Y-4598000D01*
X6343571Y-4583714D01*
X6300714Y-4583714D01*
X6272143Y-4569429D01*
X6257857Y-4540857D01*
X6257857Y-4526571D01*
X6272143Y-4498000D01*
X6300714Y-4483714D01*
X6343571Y-4483714D01*
X6372143Y-4498000D01*
X6486428Y-4798000D02*
X6500714Y-4783714D01*
X6529286Y-4740857D01*
X6543571Y-4712286D01*
X6557857Y-4669429D01*
X6572143Y-4598000D01*
X6572143Y-4540857D01*
X6557857Y-4469429D01*
X6543571Y-4426571D01*
X6529286Y-4398000D01*
X6500714Y-4355143D01*
X6486428Y-4340857D01*
M02*
