M48
; DRILL file {KiCad (5.1.6)-1} date 11/08/21 17:08:32
; FORMAT={-:-/ absolute / metric / decimal}
; #@! TF.CreationDate,2021-11-08T17:08:32+01:00
; #@! TF.GenerationSoftware,Kicad,Pcbnew,(5.1.6)-1
FMAT,2
METRIC
T1C0.750
T2C0.762
T3C0.800
T4C1.000
T5C1.300
T6C1.400
T7C1.500
T8C2.900
%
G90
G05
T1
X89.408Y-89.408
X90.678Y-89.408
X91.948Y-89.408
X89.408Y-82.804
X90.678Y-82.804
X91.948Y-82.804
X89.408Y-75.692
X90.678Y-75.692
X91.948Y-75.692
X90.932Y-62.992
X90.932Y-64.262
X90.932Y-65.532
X90.805Y-29.21
X90.805Y-30.48
X90.805Y-31.75
X90.932Y-50.8
X90.932Y-52.07
X90.932Y-53.34
X90.932Y-41.148
X90.932Y-42.418
X90.932Y-43.688
X90.932Y-35.052
X90.932Y-36.322
X90.932Y-37.592
X90.932Y-56.896
X90.932Y-58.166
X90.932Y-59.436
T2
X17.145Y-31.115
X17.145Y-41.275
X17.145Y-46.355
X62.865Y-28.575
X62.865Y-38.735
X62.865Y-48.895
X62.865Y-59.055
T3
X23.876Y-74.676
X34.036Y-74.676
X75.184Y-70.612
X85.344Y-70.612
X74.676Y-42.672
X84.836Y-42.672
X74.89Y-74.448
X85.05Y-74.448
X74.676Y-30.988
X84.836Y-30.988
X23.876Y-70.104
X34.036Y-70.104
X75.184Y-83.312
X85.344Y-83.312
X23.876Y-79.248
X34.036Y-79.248
X23.876Y-83.312
X34.036Y-83.312
X74.676Y-37.084
X84.836Y-37.084
X74.89Y-78.498
X85.05Y-78.498
X74.674Y-51.544
X84.834Y-51.544
X74.674Y-55.594
X84.834Y-55.594
T4
X15.113Y-67.945
X15.113Y-70.485
X15.113Y-73.025
X15.113Y-75.565
X15.113Y-78.105
X15.113Y-80.645
X15.113Y-83.185
X15.113Y-85.725
X15.113Y-88.265
X15.113Y-90.805
X17.653Y-67.945
X17.653Y-70.485
X17.653Y-73.025
X17.653Y-75.565
X17.653Y-78.105
X17.653Y-80.645
X17.653Y-83.185
X17.653Y-85.725
X17.653Y-88.265
X17.653Y-90.805
T5
X105.156Y-18.796
X110.236Y-18.796
X86.36Y-18.796
X91.44Y-18.796
X101.6Y-54.135
X101.6Y-59.135
X101.6Y-64.135
X101.6Y-31.91
X101.6Y-36.91
X101.6Y-41.91
X124.968Y-18.796
X130.048Y-18.796
T6
X101.976Y-98.552
X105.476Y-106.052
X108.976Y-98.552
X120.476Y-98.552
X120.476Y-106.052
X125.476Y-98.552
X125.476Y-106.052
T7
X100.784Y-78.246
X100.784Y-85.746
X115.784Y-78.246
X115.784Y-85.746
X120.784Y-78.246
X120.784Y-85.746
X125.784Y-78.246
X125.784Y-85.746
T8
X129.1Y-55.385
X135.85Y-62.885
X129.1Y-33.16
X135.85Y-40.66
T0
M30
