%FSLAX45Y45*%
G04 Gerber Fmt 4.5, Leading zero omitted, Abs format (unit mm)*
G04 Created by KiCad (PCBNEW (5.1.6)-1) date 2021-11-09 13:55:55*
%MOMM*%
%LPD*%
G01*
G04 APERTURE LIST*
%ADD10C,0.200000*%
%ADD11C,0.300000*%
G04 APERTURE END LIST*
D10*
X10122500Y-5677500D02*
X10197500Y-5752500D01*
X10197500Y-5677500D02*
X10122500Y-5752500D01*
X7176100Y-3213700D02*
X7251100Y-3288700D01*
X7251100Y-3213700D02*
X7176100Y-3288700D01*
X7176100Y-3340700D02*
X7251100Y-3415700D01*
X7251100Y-3340700D02*
X7176100Y-3415700D01*
X7176100Y-3467700D02*
X7251100Y-3542700D01*
X7251100Y-3467700D02*
X7176100Y-3542700D01*
X7176100Y-3823300D02*
X7251100Y-3898300D01*
X7251100Y-3823300D02*
X7176100Y-3898300D01*
X7176100Y-3950300D02*
X7251100Y-4025300D01*
X7251100Y-3950300D02*
X7176100Y-4025300D01*
X7176100Y-4077300D02*
X7251100Y-4152300D01*
X7251100Y-4077300D02*
X7176100Y-4152300D01*
X9995500Y-7049100D02*
X10070500Y-7124100D01*
X10070500Y-7049100D02*
X9995500Y-7124100D01*
X10122500Y-7049100D02*
X10197500Y-7124100D01*
X10197500Y-7049100D02*
X10122500Y-7124100D01*
X10249500Y-7049100D02*
X10324500Y-7124100D01*
X10324500Y-7049100D02*
X10249500Y-7124100D01*
X7176100Y-4788500D02*
X7251100Y-4863500D01*
X7251100Y-4788500D02*
X7176100Y-4863500D01*
X7176100Y-4915500D02*
X7251100Y-4990500D01*
X7251100Y-4915500D02*
X7176100Y-4990500D01*
X7176100Y-5042500D02*
X7251100Y-5117500D01*
X7251100Y-5042500D02*
X7176100Y-5117500D01*
X7176100Y-6007700D02*
X7251100Y-6082700D01*
X7251100Y-6007700D02*
X7176100Y-6082700D01*
X7176100Y-6134700D02*
X7251100Y-6209700D01*
X7251100Y-6134700D02*
X7176100Y-6209700D01*
X7176100Y-6261700D02*
X7251100Y-6336700D01*
X7251100Y-6261700D02*
X7176100Y-6336700D01*
X7163400Y-2629500D02*
X7238400Y-2704500D01*
X7238400Y-2629500D02*
X7163400Y-2704500D01*
X7163400Y-2756500D02*
X7238400Y-2831500D01*
X7238400Y-2756500D02*
X7163400Y-2831500D01*
X7163400Y-2883500D02*
X7238400Y-2958500D01*
X7238400Y-2883500D02*
X7163400Y-2958500D01*
X9995500Y-5677500D02*
X10070500Y-5752500D01*
X10070500Y-5677500D02*
X9995500Y-5752500D01*
X10249500Y-5677500D02*
X10324500Y-5752500D01*
X10324500Y-5677500D02*
X10249500Y-5752500D01*
X9995500Y-6388700D02*
X10070500Y-6463700D01*
X10070500Y-6388700D02*
X9995500Y-6463700D01*
X10122500Y-6388700D02*
X10197500Y-6463700D01*
X10197500Y-6388700D02*
X10122500Y-6463700D01*
X10249500Y-6388700D02*
X10324500Y-6463700D01*
X10324500Y-6388700D02*
X10249500Y-6463700D01*
X7176100Y-5398100D02*
X7251100Y-5473100D01*
X7251100Y-5398100D02*
X7176100Y-5473100D01*
X7176100Y-5525100D02*
X7251100Y-5600100D01*
X7251100Y-5525100D02*
X7176100Y-5600100D01*
X7176100Y-5652100D02*
X7251100Y-5727100D01*
X7251100Y-5652100D02*
X7176100Y-5727100D01*
X1752600Y-3352800D02*
G75*
G03*
X1752600Y-3352800I-38100J0D01*
G01*
X1752600Y-4368800D02*
G75*
G03*
X1752600Y-4368800I-38100J0D01*
G01*
X1752600Y-4876800D02*
G75*
G03*
X1752600Y-4876800I-38100J0D01*
G01*
X6324600Y-3098800D02*
G75*
G03*
X6324600Y-3098800I-38100J0D01*
G01*
X6324600Y-4114800D02*
G75*
G03*
X6324600Y-4114800I-38100J0D01*
G01*
X6324600Y-5130800D02*
G75*
G03*
X6324600Y-5130800I-38100J0D01*
G01*
X6324600Y-6146800D02*
G75*
G03*
X6324600Y-6146800I-38100J0D01*
G01*
X8001000Y-4735200D02*
X8001000Y-4815200D01*
X7961000Y-4775200D02*
X8041000Y-4775200D01*
X9017000Y-4735200D02*
X9017000Y-4815200D01*
X8977000Y-4775200D02*
X9057000Y-4775200D01*
X9368600Y-3391600D02*
X9368600Y-3471600D01*
X9328600Y-3431600D02*
X9408600Y-3431600D01*
X10384600Y-3391600D02*
X10384600Y-3471600D01*
X10344600Y-3431600D02*
X10424600Y-3431600D01*
X7975600Y-3871600D02*
X7975600Y-3951600D01*
X7935600Y-3911600D02*
X8015600Y-3911600D01*
X8991600Y-3871600D02*
X8991600Y-3951600D01*
X8951600Y-3911600D02*
X9031600Y-3911600D01*
X9398000Y-3008000D02*
X9398000Y-3088000D01*
X9358000Y-3048000D02*
X9438000Y-3048000D01*
X10414000Y-3008000D02*
X10414000Y-3088000D01*
X10374000Y-3048000D02*
X10454000Y-3048000D01*
X7975600Y-4278000D02*
X7975600Y-4358000D01*
X7935600Y-4318000D02*
X8015600Y-4318000D01*
X8991600Y-4278000D02*
X8991600Y-4358000D01*
X8951600Y-4318000D02*
X9031600Y-4318000D01*
X9368600Y-3796600D02*
X9368600Y-3876600D01*
X9328600Y-3836600D02*
X9408600Y-3836600D01*
X10384600Y-3796600D02*
X10384600Y-3876600D01*
X10344600Y-3836600D02*
X10424600Y-3836600D01*
X9397800Y-5062200D02*
X9397800Y-5142200D01*
X9357800Y-5102200D02*
X9437800Y-5102200D01*
X10413800Y-5062200D02*
X10413800Y-5142200D01*
X10373800Y-5102200D02*
X10453800Y-5102200D01*
X9398000Y-4278000D02*
X9398000Y-4358000D01*
X9358000Y-4318000D02*
X9438000Y-4318000D01*
X10414000Y-4278000D02*
X10414000Y-4358000D01*
X10374000Y-4318000D02*
X10454000Y-4318000D01*
X8001000Y-5903600D02*
X8001000Y-5983600D01*
X7961000Y-5943600D02*
X8041000Y-5943600D01*
X9017000Y-5903600D02*
X9017000Y-5983600D01*
X8977000Y-5943600D02*
X9057000Y-5943600D01*
X7975600Y-2957200D02*
X7975600Y-3037200D01*
X7935600Y-2997200D02*
X8015600Y-2997200D01*
X8991600Y-2957200D02*
X8991600Y-3037200D01*
X8951600Y-2997200D02*
X9031600Y-2997200D01*
X9397800Y-4657200D02*
X9397800Y-4737200D01*
X9357800Y-4697200D02*
X9437800Y-4697200D01*
X10413800Y-4657200D02*
X10413800Y-4737200D01*
X10373800Y-4697200D02*
X10453800Y-4697200D01*
X7975600Y-3414400D02*
X7975600Y-3494400D01*
X7935600Y-3454400D02*
X8015600Y-3454400D01*
X8991600Y-3414400D02*
X8991600Y-3494400D01*
X8951600Y-3454400D02*
X9031600Y-3454400D01*
X8001000Y-5344800D02*
X8001000Y-5424800D01*
X7961000Y-5384800D02*
X8041000Y-5384800D01*
X9017000Y-5344800D02*
X9017000Y-5424800D01*
X8977000Y-5384800D02*
X9057000Y-5384800D01*
X1749856Y-1775256D02*
X1749856Y-1704544D01*
X1679144Y-1704544D01*
X1679144Y-1775256D01*
X1749856Y-1775256D01*
X1749856Y-2029256D02*
X1749856Y-1958544D01*
X1679144Y-1958544D01*
X1679144Y-2029256D01*
X1749856Y-2029256D01*
X2003856Y-1775256D02*
X2003856Y-1704544D01*
X1933144Y-1704544D01*
X1933144Y-1775256D01*
X2003856Y-1775256D01*
X2003856Y-2029256D02*
X2003856Y-1958544D01*
X1933144Y-1958544D01*
X1933144Y-2029256D01*
X2003856Y-2029256D01*
X2257856Y-1775256D02*
X2257856Y-1704544D01*
X2187144Y-1704544D01*
X2187144Y-1775256D01*
X2257856Y-1775256D01*
X2257856Y-2029256D02*
X2257856Y-1958544D01*
X2187144Y-1958544D01*
X2187144Y-2029256D01*
X2257856Y-2029256D01*
X2511856Y-1775256D02*
X2511856Y-1704544D01*
X2441144Y-1704544D01*
X2441144Y-1775256D01*
X2511856Y-1775256D01*
X2511856Y-2029256D02*
X2511856Y-1958544D01*
X2441144Y-1958544D01*
X2441144Y-2029256D01*
X2511856Y-2029256D01*
X2765856Y-1775256D02*
X2765856Y-1704544D01*
X2695144Y-1704544D01*
X2695144Y-1775256D01*
X2765856Y-1775256D01*
X2765856Y-2029256D02*
X2765856Y-1958544D01*
X2695144Y-1958544D01*
X2695144Y-2029256D01*
X2765856Y-2029256D01*
X3019856Y-1775256D02*
X3019856Y-1704544D01*
X2949144Y-1704544D01*
X2949144Y-1775256D01*
X3019856Y-1775256D01*
X3019856Y-2029256D02*
X3019856Y-1958544D01*
X2949144Y-1958544D01*
X2949144Y-2029256D01*
X3019856Y-2029256D01*
X3273856Y-1775256D02*
X3273856Y-1704544D01*
X3203144Y-1704544D01*
X3203144Y-1775256D01*
X3273856Y-1775256D01*
X3273856Y-2029256D02*
X3273856Y-1958544D01*
X3203144Y-1958544D01*
X3203144Y-2029256D01*
X3273856Y-2029256D01*
X3527856Y-1775256D02*
X3527856Y-1704544D01*
X3457144Y-1704544D01*
X3457144Y-1775256D01*
X3527856Y-1775256D01*
X3527856Y-2029256D02*
X3527856Y-1958544D01*
X3457144Y-1958544D01*
X3457144Y-2029256D01*
X3527856Y-2029256D01*
X3781856Y-1775256D02*
X3781856Y-1704544D01*
X3711144Y-1704544D01*
X3711144Y-1775256D01*
X3781856Y-1775256D01*
X3781856Y-2029256D02*
X3781856Y-1958544D01*
X3711144Y-1958544D01*
X3711144Y-2029256D01*
X3781856Y-2029256D01*
X4035856Y-1775256D02*
X4035856Y-1704544D01*
X3965144Y-1704544D01*
X3965144Y-1775256D01*
X4035856Y-1775256D01*
X4035856Y-2029256D02*
X4035856Y-1958544D01*
X3965144Y-1958544D01*
X3965144Y-2029256D01*
X4035856Y-2029256D01*
X7416800Y-1995400D02*
X7481800Y-1930400D01*
X7416800Y-1865400D01*
X7351800Y-1930400D01*
X7416800Y-1995400D01*
X7924800Y-1995400D02*
X7989800Y-1930400D01*
X7924800Y-1865400D01*
X7859800Y-1930400D01*
X7924800Y-1995400D01*
X4826000Y-1944600D02*
X4891000Y-1879600D01*
X4826000Y-1814600D01*
X4761000Y-1879600D01*
X4826000Y-1944600D01*
X5334000Y-1944600D02*
X5399000Y-1879600D01*
X5334000Y-1814600D01*
X5269000Y-1879600D01*
X5334000Y-1944600D01*
X6019800Y-7345400D02*
X6084800Y-7280400D01*
X6019800Y-7215400D01*
X5954800Y-7280400D01*
X6019800Y-7345400D01*
X6019800Y-7845400D02*
X6084800Y-7780400D01*
X6019800Y-7715400D01*
X5954800Y-7780400D01*
X6019800Y-7845400D01*
X6019800Y-8345400D02*
X6084800Y-8280400D01*
X6019800Y-8215400D01*
X5954800Y-8280400D01*
X6019800Y-8345400D01*
X6146800Y-1944600D02*
X6211800Y-1879600D01*
X6146800Y-1814600D01*
X6081800Y-1879600D01*
X6146800Y-1944600D01*
X6654800Y-1944600D02*
X6719800Y-1879600D01*
X6654800Y-1814600D01*
X6589800Y-1879600D01*
X6654800Y-1944600D01*
X1828800Y-7345400D02*
X1893800Y-7280400D01*
X1828800Y-7215400D01*
X1763800Y-7280400D01*
X1828800Y-7345400D01*
X1828800Y-7845400D02*
X1893800Y-7780400D01*
X1828800Y-7715400D01*
X1763800Y-7780400D01*
X1828800Y-7845400D01*
X1828800Y-8345400D02*
X1893800Y-8280400D01*
X1828800Y-8215400D01*
X1763800Y-8280400D01*
X1828800Y-8345400D01*
X3015600Y-9683600D02*
X3155600Y-9823600D01*
X3155600Y-9683600D02*
X3015600Y-9823600D01*
X3155600Y-9753600D02*
G75*
G03*
X3155600Y-9753600I-70000J0D01*
G01*
X3365600Y-10433600D02*
X3505600Y-10573600D01*
X3505600Y-10433600D02*
X3365600Y-10573600D01*
X3505600Y-10503600D02*
G75*
G03*
X3505600Y-10503600I-70000J0D01*
G01*
X3715600Y-9683600D02*
X3855600Y-9823600D01*
X3855600Y-9683600D02*
X3715600Y-9823600D01*
X3855600Y-9753600D02*
G75*
G03*
X3855600Y-9753600I-70000J0D01*
G01*
X4865600Y-9683600D02*
X5005600Y-9823600D01*
X5005600Y-9683600D02*
X4865600Y-9823600D01*
X5005600Y-9753600D02*
G75*
G03*
X5005600Y-9753600I-70000J0D01*
G01*
X4865600Y-10433600D02*
X5005600Y-10573600D01*
X5005600Y-10433600D02*
X4865600Y-10573600D01*
X5005600Y-10503600D02*
G75*
G03*
X5005600Y-10503600I-70000J0D01*
G01*
X5365600Y-9683600D02*
X5505600Y-9823600D01*
X5505600Y-9683600D02*
X5365600Y-9823600D01*
X5505600Y-9753600D02*
G75*
G03*
X5505600Y-9753600I-70000J0D01*
G01*
X5365600Y-10433600D02*
X5505600Y-10573600D01*
X5505600Y-10433600D02*
X5365600Y-10573600D01*
X5505600Y-10503600D02*
G75*
G03*
X5505600Y-10503600I-70000J0D01*
G01*
X6244200Y-9629200D02*
X6394200Y-9779200D01*
X6394200Y-9629200D02*
X6244200Y-9779200D01*
X6319200Y-9629200D02*
X6319200Y-9779200D01*
X6244200Y-9704200D02*
X6394200Y-9704200D01*
X6244200Y-10379200D02*
X6394200Y-10529200D01*
X6394200Y-10379200D02*
X6244200Y-10529200D01*
X6319200Y-10379200D02*
X6319200Y-10529200D01*
X6244200Y-10454200D02*
X6394200Y-10454200D01*
X7744200Y-9629200D02*
X7894200Y-9779200D01*
X7894200Y-9629200D02*
X7744200Y-9779200D01*
X7819200Y-9629200D02*
X7819200Y-9779200D01*
X7744200Y-9704200D02*
X7894200Y-9704200D01*
X7744200Y-10379200D02*
X7894200Y-10529200D01*
X7894200Y-10379200D02*
X7744200Y-10529200D01*
X7819200Y-10379200D02*
X7819200Y-10529200D01*
X7744200Y-10454200D02*
X7894200Y-10454200D01*
X8244200Y-9629200D02*
X8394200Y-9779200D01*
X8394200Y-9629200D02*
X8244200Y-9779200D01*
X8319200Y-9629200D02*
X8319200Y-9779200D01*
X8244200Y-9704200D02*
X8394200Y-9704200D01*
X8244200Y-10379200D02*
X8394200Y-10529200D01*
X8394200Y-10379200D02*
X8244200Y-10529200D01*
X8319200Y-10379200D02*
X8319200Y-10529200D01*
X8244200Y-10454200D02*
X8394200Y-10454200D01*
X8744200Y-9629200D02*
X8894200Y-9779200D01*
X8894200Y-9629200D02*
X8744200Y-9779200D01*
X8819200Y-9629200D02*
X8819200Y-9779200D01*
X8744200Y-9704200D02*
X8894200Y-9704200D01*
X8744200Y-10379200D02*
X8894200Y-10529200D01*
X8894200Y-10379200D02*
X8744200Y-10529200D01*
X8819200Y-10379200D02*
X8819200Y-10529200D01*
X8744200Y-10454200D02*
X8894200Y-10454200D01*
X8624800Y-7260400D02*
X8914800Y-7550400D01*
X8914800Y-7260400D02*
X8624800Y-7550400D01*
X8872332Y-7507931D02*
X8872332Y-7302868D01*
X8667269Y-7302868D01*
X8667269Y-7507931D01*
X8872332Y-7507931D01*
X9299800Y-8010400D02*
X9589800Y-8300400D01*
X9589800Y-8010400D02*
X9299800Y-8300400D01*
X9547332Y-8257931D02*
X9547332Y-8052868D01*
X9342269Y-8052868D01*
X9342269Y-8257931D01*
X9547332Y-8257931D01*
X4433800Y-7260400D02*
X4723800Y-7550400D01*
X4723800Y-7260400D02*
X4433800Y-7550400D01*
X4681332Y-7507931D02*
X4681332Y-7302868D01*
X4476269Y-7302868D01*
X4476269Y-7507931D01*
X4681332Y-7507931D01*
X5108800Y-8010400D02*
X5398800Y-8300400D01*
X5398800Y-8010400D02*
X5108800Y-8300400D01*
X5356332Y-8257931D02*
X5356332Y-8052868D01*
X5151269Y-8052868D01*
X5151269Y-8257931D01*
X5356332Y-8257931D01*
D11*
X286429Y-465714D02*
X286429Y-165714D01*
X357857Y-165714D01*
X400714Y-180000D01*
X429286Y-208571D01*
X443571Y-237143D01*
X457857Y-294286D01*
X457857Y-337143D01*
X443571Y-394286D01*
X429286Y-422857D01*
X400714Y-451428D01*
X357857Y-465714D01*
X286429Y-465714D01*
X586429Y-465714D02*
X586429Y-265714D01*
X586429Y-322857D02*
X600714Y-294286D01*
X615000Y-280000D01*
X643571Y-265714D01*
X672143Y-265714D01*
X772143Y-465714D02*
X772143Y-265714D01*
X772143Y-165714D02*
X757857Y-180000D01*
X772143Y-194286D01*
X786428Y-180000D01*
X772143Y-165714D01*
X772143Y-194286D01*
X957857Y-465714D02*
X929286Y-451428D01*
X915000Y-422857D01*
X915000Y-165714D01*
X1115000Y-465714D02*
X1086429Y-451428D01*
X1072143Y-422857D01*
X1072143Y-165714D01*
X1457857Y-465714D02*
X1457857Y-165714D01*
X1557857Y-380000D01*
X1657857Y-165714D01*
X1657857Y-465714D01*
X1929286Y-465714D02*
X1929286Y-308571D01*
X1915000Y-280000D01*
X1886428Y-265714D01*
X1829286Y-265714D01*
X1800714Y-280000D01*
X1929286Y-451428D02*
X1900714Y-465714D01*
X1829286Y-465714D01*
X1800714Y-451428D01*
X1786428Y-422857D01*
X1786428Y-394286D01*
X1800714Y-365714D01*
X1829286Y-351428D01*
X1900714Y-351428D01*
X1929286Y-337143D01*
X2072143Y-265714D02*
X2072143Y-565714D01*
X2072143Y-280000D02*
X2100714Y-265714D01*
X2157857Y-265714D01*
X2186429Y-280000D01*
X2200714Y-294286D01*
X2215000Y-322857D01*
X2215000Y-408571D01*
X2200714Y-437143D01*
X2186429Y-451428D01*
X2157857Y-465714D01*
X2100714Y-465714D01*
X2072143Y-451428D01*
X2343571Y-437143D02*
X2357857Y-451428D01*
X2343571Y-465714D01*
X2329286Y-451428D01*
X2343571Y-437143D01*
X2343571Y-465714D01*
X2343571Y-280000D02*
X2357857Y-294286D01*
X2343571Y-308571D01*
X2329286Y-294286D01*
X2343571Y-280000D01*
X2343571Y-308571D01*
X-75000Y-922500D02*
X0Y-997500D01*
X0Y-922500D02*
X-75000Y-997500D01*
X343571Y-795714D02*
X372143Y-795714D01*
X400714Y-810000D01*
X415000Y-824286D01*
X429286Y-852857D01*
X443571Y-910000D01*
X443571Y-981428D01*
X429286Y-1038571D01*
X415000Y-1067143D01*
X400714Y-1081429D01*
X372143Y-1095714D01*
X343571Y-1095714D01*
X315000Y-1081429D01*
X300714Y-1067143D01*
X286429Y-1038571D01*
X272143Y-981428D01*
X272143Y-910000D01*
X286429Y-852857D01*
X300714Y-824286D01*
X315000Y-810000D01*
X343571Y-795714D01*
X572143Y-1067143D02*
X586429Y-1081429D01*
X572143Y-1095714D01*
X557857Y-1081429D01*
X572143Y-1067143D01*
X572143Y-1095714D01*
X686429Y-795714D02*
X886428Y-795714D01*
X757857Y-1095714D01*
X1143571Y-795714D02*
X1000714Y-795714D01*
X986428Y-938571D01*
X1000714Y-924286D01*
X1029286Y-910000D01*
X1100714Y-910000D01*
X1129286Y-924286D01*
X1143571Y-938571D01*
X1157857Y-967143D01*
X1157857Y-1038571D01*
X1143571Y-1067143D01*
X1129286Y-1081429D01*
X1100714Y-1095714D01*
X1029286Y-1095714D01*
X1000714Y-1081429D01*
X986428Y-1067143D01*
X1286429Y-1095714D02*
X1286429Y-895714D01*
X1286429Y-924286D02*
X1300714Y-910000D01*
X1329286Y-895714D01*
X1372143Y-895714D01*
X1400714Y-910000D01*
X1415000Y-938571D01*
X1415000Y-1095714D01*
X1415000Y-938571D02*
X1429286Y-910000D01*
X1457857Y-895714D01*
X1500714Y-895714D01*
X1529286Y-910000D01*
X1543571Y-938571D01*
X1543571Y-1095714D01*
X1686428Y-1095714D02*
X1686428Y-895714D01*
X1686428Y-924286D02*
X1700714Y-910000D01*
X1729286Y-895714D01*
X1772143Y-895714D01*
X1800714Y-910000D01*
X1815000Y-938571D01*
X1815000Y-1095714D01*
X1815000Y-938571D02*
X1829286Y-910000D01*
X1857857Y-895714D01*
X1900714Y-895714D01*
X1929286Y-910000D01*
X1943571Y-938571D01*
X1943571Y-1095714D01*
X2529286Y-781428D02*
X2272143Y-1167143D01*
X2915000Y-795714D02*
X2943571Y-795714D01*
X2972143Y-810000D01*
X2986428Y-824286D01*
X3000714Y-852857D01*
X3015000Y-910000D01*
X3015000Y-981428D01*
X3000714Y-1038571D01*
X2986428Y-1067143D01*
X2972143Y-1081429D01*
X2943571Y-1095714D01*
X2915000Y-1095714D01*
X2886428Y-1081429D01*
X2872143Y-1067143D01*
X2857857Y-1038571D01*
X2843571Y-981428D01*
X2843571Y-910000D01*
X2857857Y-852857D01*
X2872143Y-824286D01*
X2886428Y-810000D01*
X2915000Y-795714D01*
X3143571Y-1067143D02*
X3157857Y-1081429D01*
X3143571Y-1095714D01*
X3129286Y-1081429D01*
X3143571Y-1067143D01*
X3143571Y-1095714D01*
X3343571Y-795714D02*
X3372143Y-795714D01*
X3400714Y-810000D01*
X3415000Y-824286D01*
X3429286Y-852857D01*
X3443571Y-910000D01*
X3443571Y-981428D01*
X3429286Y-1038571D01*
X3415000Y-1067143D01*
X3400714Y-1081429D01*
X3372143Y-1095714D01*
X3343571Y-1095714D01*
X3315000Y-1081429D01*
X3300714Y-1067143D01*
X3286428Y-1038571D01*
X3272143Y-981428D01*
X3272143Y-910000D01*
X3286428Y-852857D01*
X3300714Y-824286D01*
X3315000Y-810000D01*
X3343571Y-795714D01*
X3543571Y-795714D02*
X3729286Y-795714D01*
X3629286Y-910000D01*
X3672143Y-910000D01*
X3700714Y-924286D01*
X3715000Y-938571D01*
X3729286Y-967143D01*
X3729286Y-1038571D01*
X3715000Y-1067143D01*
X3700714Y-1081429D01*
X3672143Y-1095714D01*
X3586428Y-1095714D01*
X3557857Y-1081429D01*
X3543571Y-1067143D01*
X3915000Y-795714D02*
X3943571Y-795714D01*
X3972143Y-810000D01*
X3986428Y-824286D01*
X4000714Y-852857D01*
X4015000Y-910000D01*
X4015000Y-981428D01*
X4000714Y-1038571D01*
X3986428Y-1067143D01*
X3972143Y-1081429D01*
X3943571Y-1095714D01*
X3915000Y-1095714D01*
X3886428Y-1081429D01*
X3872143Y-1067143D01*
X3857857Y-1038571D01*
X3843571Y-981428D01*
X3843571Y-910000D01*
X3857857Y-852857D01*
X3872143Y-824286D01*
X3886428Y-810000D01*
X3915000Y-795714D01*
X4129286Y-795714D02*
X4129286Y-852857D01*
X4243571Y-795714D02*
X4243571Y-852857D01*
X4686429Y-1210000D02*
X4672143Y-1195714D01*
X4643571Y-1152857D01*
X4629286Y-1124286D01*
X4615000Y-1081429D01*
X4600714Y-1010000D01*
X4600714Y-952857D01*
X4615000Y-881428D01*
X4629286Y-838571D01*
X4643571Y-810000D01*
X4672143Y-767143D01*
X4686429Y-752857D01*
X4786429Y-824286D02*
X4800714Y-810000D01*
X4829286Y-795714D01*
X4900714Y-795714D01*
X4929286Y-810000D01*
X4943571Y-824286D01*
X4957857Y-852857D01*
X4957857Y-881428D01*
X4943571Y-924286D01*
X4772143Y-1095714D01*
X4957857Y-1095714D01*
X5057857Y-795714D02*
X5257857Y-795714D01*
X5129286Y-1095714D01*
X5600714Y-1095714D02*
X5600714Y-795714D01*
X5729286Y-1095714D02*
X5729286Y-938571D01*
X5715000Y-910000D01*
X5686428Y-895714D01*
X5643571Y-895714D01*
X5615000Y-910000D01*
X5600714Y-924286D01*
X5915000Y-1095714D02*
X5886428Y-1081429D01*
X5872143Y-1067143D01*
X5857857Y-1038571D01*
X5857857Y-952857D01*
X5872143Y-924286D01*
X5886428Y-910000D01*
X5915000Y-895714D01*
X5957857Y-895714D01*
X5986428Y-910000D01*
X6000714Y-924286D01*
X6015000Y-952857D01*
X6015000Y-1038571D01*
X6000714Y-1067143D01*
X5986428Y-1081429D01*
X5957857Y-1095714D01*
X5915000Y-1095714D01*
X6186428Y-1095714D02*
X6157857Y-1081429D01*
X6143571Y-1052857D01*
X6143571Y-795714D01*
X6415000Y-1081429D02*
X6386428Y-1095714D01*
X6329286Y-1095714D01*
X6300714Y-1081429D01*
X6286428Y-1052857D01*
X6286428Y-938571D01*
X6300714Y-910000D01*
X6329286Y-895714D01*
X6386428Y-895714D01*
X6415000Y-910000D01*
X6429286Y-938571D01*
X6429286Y-967143D01*
X6286428Y-995714D01*
X6543571Y-1081429D02*
X6572143Y-1095714D01*
X6629286Y-1095714D01*
X6657857Y-1081429D01*
X6672143Y-1052857D01*
X6672143Y-1038571D01*
X6657857Y-1010000D01*
X6629286Y-995714D01*
X6586428Y-995714D01*
X6557857Y-981428D01*
X6543571Y-952857D01*
X6543571Y-938571D01*
X6557857Y-910000D01*
X6586428Y-895714D01*
X6629286Y-895714D01*
X6657857Y-910000D01*
X6772143Y-1210000D02*
X6786428Y-1195714D01*
X6815000Y-1152857D01*
X6829286Y-1124286D01*
X6843571Y-1081429D01*
X6857857Y-1010000D01*
X6857857Y-952857D01*
X6843571Y-881428D01*
X6829286Y-838571D01*
X6815000Y-810000D01*
X6786428Y-767143D01*
X6772143Y-752857D01*
X0Y-1356000D02*
G75*
G03*
X0Y-1356000I-38100J0D01*
G01*
X343571Y-1191714D02*
X372143Y-1191714D01*
X400714Y-1206000D01*
X415000Y-1220286D01*
X429286Y-1248857D01*
X443571Y-1306000D01*
X443571Y-1377429D01*
X429286Y-1434571D01*
X415000Y-1463143D01*
X400714Y-1477428D01*
X372143Y-1491714D01*
X343571Y-1491714D01*
X315000Y-1477428D01*
X300714Y-1463143D01*
X286429Y-1434571D01*
X272143Y-1377429D01*
X272143Y-1306000D01*
X286429Y-1248857D01*
X300714Y-1220286D01*
X315000Y-1206000D01*
X343571Y-1191714D01*
X572143Y-1463143D02*
X586429Y-1477428D01*
X572143Y-1491714D01*
X557857Y-1477428D01*
X572143Y-1463143D01*
X572143Y-1491714D01*
X686429Y-1191714D02*
X886428Y-1191714D01*
X757857Y-1491714D01*
X1129286Y-1191714D02*
X1072143Y-1191714D01*
X1043571Y-1206000D01*
X1029286Y-1220286D01*
X1000714Y-1263143D01*
X986428Y-1320286D01*
X986428Y-1434571D01*
X1000714Y-1463143D01*
X1015000Y-1477428D01*
X1043571Y-1491714D01*
X1100714Y-1491714D01*
X1129286Y-1477428D01*
X1143571Y-1463143D01*
X1157857Y-1434571D01*
X1157857Y-1363143D01*
X1143571Y-1334571D01*
X1129286Y-1320286D01*
X1100714Y-1306000D01*
X1043571Y-1306000D01*
X1015000Y-1320286D01*
X1000714Y-1334571D01*
X986428Y-1363143D01*
X1286429Y-1491714D02*
X1286429Y-1291714D01*
X1286429Y-1320286D02*
X1300714Y-1306000D01*
X1329286Y-1291714D01*
X1372143Y-1291714D01*
X1400714Y-1306000D01*
X1415000Y-1334571D01*
X1415000Y-1491714D01*
X1415000Y-1334571D02*
X1429286Y-1306000D01*
X1457857Y-1291714D01*
X1500714Y-1291714D01*
X1529286Y-1306000D01*
X1543571Y-1334571D01*
X1543571Y-1491714D01*
X1686428Y-1491714D02*
X1686428Y-1291714D01*
X1686428Y-1320286D02*
X1700714Y-1306000D01*
X1729286Y-1291714D01*
X1772143Y-1291714D01*
X1800714Y-1306000D01*
X1815000Y-1334571D01*
X1815000Y-1491714D01*
X1815000Y-1334571D02*
X1829286Y-1306000D01*
X1857857Y-1291714D01*
X1900714Y-1291714D01*
X1929286Y-1306000D01*
X1943571Y-1334571D01*
X1943571Y-1491714D01*
X2529286Y-1177429D02*
X2272143Y-1563143D01*
X2915000Y-1191714D02*
X2943571Y-1191714D01*
X2972143Y-1206000D01*
X2986428Y-1220286D01*
X3000714Y-1248857D01*
X3015000Y-1306000D01*
X3015000Y-1377429D01*
X3000714Y-1434571D01*
X2986428Y-1463143D01*
X2972143Y-1477428D01*
X2943571Y-1491714D01*
X2915000Y-1491714D01*
X2886428Y-1477428D01*
X2872143Y-1463143D01*
X2857857Y-1434571D01*
X2843571Y-1377429D01*
X2843571Y-1306000D01*
X2857857Y-1248857D01*
X2872143Y-1220286D01*
X2886428Y-1206000D01*
X2915000Y-1191714D01*
X3143571Y-1463143D02*
X3157857Y-1477428D01*
X3143571Y-1491714D01*
X3129286Y-1477428D01*
X3143571Y-1463143D01*
X3143571Y-1491714D01*
X3343571Y-1191714D02*
X3372143Y-1191714D01*
X3400714Y-1206000D01*
X3415000Y-1220286D01*
X3429286Y-1248857D01*
X3443571Y-1306000D01*
X3443571Y-1377429D01*
X3429286Y-1434571D01*
X3415000Y-1463143D01*
X3400714Y-1477428D01*
X3372143Y-1491714D01*
X3343571Y-1491714D01*
X3315000Y-1477428D01*
X3300714Y-1463143D01*
X3286428Y-1434571D01*
X3272143Y-1377429D01*
X3272143Y-1306000D01*
X3286428Y-1248857D01*
X3300714Y-1220286D01*
X3315000Y-1206000D01*
X3343571Y-1191714D01*
X3543571Y-1191714D02*
X3729286Y-1191714D01*
X3629286Y-1306000D01*
X3672143Y-1306000D01*
X3700714Y-1320286D01*
X3715000Y-1334571D01*
X3729286Y-1363143D01*
X3729286Y-1434571D01*
X3715000Y-1463143D01*
X3700714Y-1477428D01*
X3672143Y-1491714D01*
X3586428Y-1491714D01*
X3557857Y-1477428D01*
X3543571Y-1463143D01*
X3915000Y-1191714D02*
X3943571Y-1191714D01*
X3972143Y-1206000D01*
X3986428Y-1220286D01*
X4000714Y-1248857D01*
X4015000Y-1306000D01*
X4015000Y-1377429D01*
X4000714Y-1434571D01*
X3986428Y-1463143D01*
X3972143Y-1477428D01*
X3943571Y-1491714D01*
X3915000Y-1491714D01*
X3886428Y-1477428D01*
X3872143Y-1463143D01*
X3857857Y-1434571D01*
X3843571Y-1377429D01*
X3843571Y-1306000D01*
X3857857Y-1248857D01*
X3872143Y-1220286D01*
X3886428Y-1206000D01*
X3915000Y-1191714D01*
X4129286Y-1191714D02*
X4129286Y-1248857D01*
X4243571Y-1191714D02*
X4243571Y-1248857D01*
X4686429Y-1606000D02*
X4672143Y-1591714D01*
X4643571Y-1548857D01*
X4629286Y-1520286D01*
X4615000Y-1477428D01*
X4600714Y-1406000D01*
X4600714Y-1348857D01*
X4615000Y-1277429D01*
X4629286Y-1234571D01*
X4643571Y-1206000D01*
X4672143Y-1163143D01*
X4686429Y-1148857D01*
X4772143Y-1191714D02*
X4972143Y-1191714D01*
X4843571Y-1491714D01*
X5315000Y-1491714D02*
X5315000Y-1191714D01*
X5443571Y-1491714D02*
X5443571Y-1334571D01*
X5429286Y-1306000D01*
X5400714Y-1291714D01*
X5357857Y-1291714D01*
X5329286Y-1306000D01*
X5315000Y-1320286D01*
X5629286Y-1491714D02*
X5600714Y-1477428D01*
X5586429Y-1463143D01*
X5572143Y-1434571D01*
X5572143Y-1348857D01*
X5586429Y-1320286D01*
X5600714Y-1306000D01*
X5629286Y-1291714D01*
X5672143Y-1291714D01*
X5700714Y-1306000D01*
X5715000Y-1320286D01*
X5729286Y-1348857D01*
X5729286Y-1434571D01*
X5715000Y-1463143D01*
X5700714Y-1477428D01*
X5672143Y-1491714D01*
X5629286Y-1491714D01*
X5900714Y-1491714D02*
X5872143Y-1477428D01*
X5857857Y-1448857D01*
X5857857Y-1191714D01*
X6129286Y-1477428D02*
X6100714Y-1491714D01*
X6043571Y-1491714D01*
X6015000Y-1477428D01*
X6000714Y-1448857D01*
X6000714Y-1334571D01*
X6015000Y-1306000D01*
X6043571Y-1291714D01*
X6100714Y-1291714D01*
X6129286Y-1306000D01*
X6143571Y-1334571D01*
X6143571Y-1363143D01*
X6000714Y-1391714D01*
X6257857Y-1477428D02*
X6286428Y-1491714D01*
X6343571Y-1491714D01*
X6372143Y-1477428D01*
X6386428Y-1448857D01*
X6386428Y-1434571D01*
X6372143Y-1406000D01*
X6343571Y-1391714D01*
X6300714Y-1391714D01*
X6272143Y-1377429D01*
X6257857Y-1348857D01*
X6257857Y-1334571D01*
X6272143Y-1306000D01*
X6300714Y-1291714D01*
X6343571Y-1291714D01*
X6372143Y-1306000D01*
X6486428Y-1606000D02*
X6500714Y-1591714D01*
X6529286Y-1548857D01*
X6543571Y-1520286D01*
X6557857Y-1477428D01*
X6572143Y-1406000D01*
X6572143Y-1348857D01*
X6557857Y-1277429D01*
X6543571Y-1234571D01*
X6529286Y-1206000D01*
X6500714Y-1163143D01*
X6486428Y-1148857D01*
X-40000Y-1712000D02*
X-40000Y-1792000D01*
X-80000Y-1752000D02*
X0Y-1752000D01*
X343571Y-1587714D02*
X372143Y-1587714D01*
X400714Y-1602000D01*
X415000Y-1616286D01*
X429286Y-1644857D01*
X443571Y-1702000D01*
X443571Y-1773428D01*
X429286Y-1830571D01*
X415000Y-1859143D01*
X400714Y-1873428D01*
X372143Y-1887714D01*
X343571Y-1887714D01*
X315000Y-1873428D01*
X300714Y-1859143D01*
X286429Y-1830571D01*
X272143Y-1773428D01*
X272143Y-1702000D01*
X286429Y-1644857D01*
X300714Y-1616286D01*
X315000Y-1602000D01*
X343571Y-1587714D01*
X572143Y-1859143D02*
X586429Y-1873428D01*
X572143Y-1887714D01*
X557857Y-1873428D01*
X572143Y-1859143D01*
X572143Y-1887714D01*
X757857Y-1716286D02*
X729286Y-1702000D01*
X715000Y-1687714D01*
X700714Y-1659143D01*
X700714Y-1644857D01*
X715000Y-1616286D01*
X729286Y-1602000D01*
X757857Y-1587714D01*
X815000Y-1587714D01*
X843571Y-1602000D01*
X857857Y-1616286D01*
X872143Y-1644857D01*
X872143Y-1659143D01*
X857857Y-1687714D01*
X843571Y-1702000D01*
X815000Y-1716286D01*
X757857Y-1716286D01*
X729286Y-1730571D01*
X715000Y-1744857D01*
X700714Y-1773428D01*
X700714Y-1830571D01*
X715000Y-1859143D01*
X729286Y-1873428D01*
X757857Y-1887714D01*
X815000Y-1887714D01*
X843571Y-1873428D01*
X857857Y-1859143D01*
X872143Y-1830571D01*
X872143Y-1773428D01*
X857857Y-1744857D01*
X843571Y-1730571D01*
X815000Y-1716286D01*
X1057857Y-1587714D02*
X1086429Y-1587714D01*
X1115000Y-1602000D01*
X1129286Y-1616286D01*
X1143571Y-1644857D01*
X1157857Y-1702000D01*
X1157857Y-1773428D01*
X1143571Y-1830571D01*
X1129286Y-1859143D01*
X1115000Y-1873428D01*
X1086429Y-1887714D01*
X1057857Y-1887714D01*
X1029286Y-1873428D01*
X1015000Y-1859143D01*
X1000714Y-1830571D01*
X986428Y-1773428D01*
X986428Y-1702000D01*
X1000714Y-1644857D01*
X1015000Y-1616286D01*
X1029286Y-1602000D01*
X1057857Y-1587714D01*
X1286429Y-1887714D02*
X1286429Y-1687714D01*
X1286429Y-1716286D02*
X1300714Y-1702000D01*
X1329286Y-1687714D01*
X1372143Y-1687714D01*
X1400714Y-1702000D01*
X1415000Y-1730571D01*
X1415000Y-1887714D01*
X1415000Y-1730571D02*
X1429286Y-1702000D01*
X1457857Y-1687714D01*
X1500714Y-1687714D01*
X1529286Y-1702000D01*
X1543571Y-1730571D01*
X1543571Y-1887714D01*
X1686428Y-1887714D02*
X1686428Y-1687714D01*
X1686428Y-1716286D02*
X1700714Y-1702000D01*
X1729286Y-1687714D01*
X1772143Y-1687714D01*
X1800714Y-1702000D01*
X1815000Y-1730571D01*
X1815000Y-1887714D01*
X1815000Y-1730571D02*
X1829286Y-1702000D01*
X1857857Y-1687714D01*
X1900714Y-1687714D01*
X1929286Y-1702000D01*
X1943571Y-1730571D01*
X1943571Y-1887714D01*
X2529286Y-1573428D02*
X2272143Y-1959143D01*
X2915000Y-1587714D02*
X2943571Y-1587714D01*
X2972143Y-1602000D01*
X2986428Y-1616286D01*
X3000714Y-1644857D01*
X3015000Y-1702000D01*
X3015000Y-1773428D01*
X3000714Y-1830571D01*
X2986428Y-1859143D01*
X2972143Y-1873428D01*
X2943571Y-1887714D01*
X2915000Y-1887714D01*
X2886428Y-1873428D01*
X2872143Y-1859143D01*
X2857857Y-1830571D01*
X2843571Y-1773428D01*
X2843571Y-1702000D01*
X2857857Y-1644857D01*
X2872143Y-1616286D01*
X2886428Y-1602000D01*
X2915000Y-1587714D01*
X3143571Y-1859143D02*
X3157857Y-1873428D01*
X3143571Y-1887714D01*
X3129286Y-1873428D01*
X3143571Y-1859143D01*
X3143571Y-1887714D01*
X3343571Y-1587714D02*
X3372143Y-1587714D01*
X3400714Y-1602000D01*
X3415000Y-1616286D01*
X3429286Y-1644857D01*
X3443571Y-1702000D01*
X3443571Y-1773428D01*
X3429286Y-1830571D01*
X3415000Y-1859143D01*
X3400714Y-1873428D01*
X3372143Y-1887714D01*
X3343571Y-1887714D01*
X3315000Y-1873428D01*
X3300714Y-1859143D01*
X3286428Y-1830571D01*
X3272143Y-1773428D01*
X3272143Y-1702000D01*
X3286428Y-1644857D01*
X3300714Y-1616286D01*
X3315000Y-1602000D01*
X3343571Y-1587714D01*
X3543571Y-1587714D02*
X3729286Y-1587714D01*
X3629286Y-1702000D01*
X3672143Y-1702000D01*
X3700714Y-1716286D01*
X3715000Y-1730571D01*
X3729286Y-1759143D01*
X3729286Y-1830571D01*
X3715000Y-1859143D01*
X3700714Y-1873428D01*
X3672143Y-1887714D01*
X3586428Y-1887714D01*
X3557857Y-1873428D01*
X3543571Y-1859143D01*
X4015000Y-1887714D02*
X3843571Y-1887714D01*
X3929286Y-1887714D02*
X3929286Y-1587714D01*
X3900714Y-1630571D01*
X3872143Y-1659143D01*
X3843571Y-1673428D01*
X4129286Y-1587714D02*
X4129286Y-1644857D01*
X4243571Y-1587714D02*
X4243571Y-1644857D01*
X4686429Y-2002000D02*
X4672143Y-1987714D01*
X4643571Y-1944857D01*
X4629286Y-1916286D01*
X4615000Y-1873428D01*
X4600714Y-1802000D01*
X4600714Y-1744857D01*
X4615000Y-1673428D01*
X4629286Y-1630571D01*
X4643571Y-1602000D01*
X4672143Y-1559143D01*
X4686429Y-1544857D01*
X4786429Y-1616286D02*
X4800714Y-1602000D01*
X4829286Y-1587714D01*
X4900714Y-1587714D01*
X4929286Y-1602000D01*
X4943571Y-1616286D01*
X4957857Y-1644857D01*
X4957857Y-1673428D01*
X4943571Y-1716286D01*
X4772143Y-1887714D01*
X4957857Y-1887714D01*
X5215000Y-1587714D02*
X5157857Y-1587714D01*
X5129286Y-1602000D01*
X5115000Y-1616286D01*
X5086429Y-1659143D01*
X5072143Y-1716286D01*
X5072143Y-1830571D01*
X5086429Y-1859143D01*
X5100714Y-1873428D01*
X5129286Y-1887714D01*
X5186429Y-1887714D01*
X5215000Y-1873428D01*
X5229286Y-1859143D01*
X5243571Y-1830571D01*
X5243571Y-1759143D01*
X5229286Y-1730571D01*
X5215000Y-1716286D01*
X5186429Y-1702000D01*
X5129286Y-1702000D01*
X5100714Y-1716286D01*
X5086429Y-1730571D01*
X5072143Y-1759143D01*
X5600714Y-1887714D02*
X5600714Y-1587714D01*
X5729286Y-1887714D02*
X5729286Y-1730571D01*
X5715000Y-1702000D01*
X5686428Y-1687714D01*
X5643571Y-1687714D01*
X5615000Y-1702000D01*
X5600714Y-1716286D01*
X5915000Y-1887714D02*
X5886428Y-1873428D01*
X5872143Y-1859143D01*
X5857857Y-1830571D01*
X5857857Y-1744857D01*
X5872143Y-1716286D01*
X5886428Y-1702000D01*
X5915000Y-1687714D01*
X5957857Y-1687714D01*
X5986428Y-1702000D01*
X6000714Y-1716286D01*
X6015000Y-1744857D01*
X6015000Y-1830571D01*
X6000714Y-1859143D01*
X5986428Y-1873428D01*
X5957857Y-1887714D01*
X5915000Y-1887714D01*
X6186428Y-1887714D02*
X6157857Y-1873428D01*
X6143571Y-1844857D01*
X6143571Y-1587714D01*
X6415000Y-1873428D02*
X6386428Y-1887714D01*
X6329286Y-1887714D01*
X6300714Y-1873428D01*
X6286428Y-1844857D01*
X6286428Y-1730571D01*
X6300714Y-1702000D01*
X6329286Y-1687714D01*
X6386428Y-1687714D01*
X6415000Y-1702000D01*
X6429286Y-1730571D01*
X6429286Y-1759143D01*
X6286428Y-1787714D01*
X6543571Y-1873428D02*
X6572143Y-1887714D01*
X6629286Y-1887714D01*
X6657857Y-1873428D01*
X6672143Y-1844857D01*
X6672143Y-1830571D01*
X6657857Y-1802000D01*
X6629286Y-1787714D01*
X6586428Y-1787714D01*
X6557857Y-1773428D01*
X6543571Y-1744857D01*
X6543571Y-1730571D01*
X6557857Y-1702000D01*
X6586428Y-1687714D01*
X6629286Y-1687714D01*
X6657857Y-1702000D01*
X6772143Y-2002000D02*
X6786428Y-1987714D01*
X6815000Y-1944857D01*
X6829286Y-1916286D01*
X6843571Y-1873428D01*
X6857857Y-1802000D01*
X6857857Y-1744857D01*
X6843571Y-1673428D01*
X6829286Y-1630571D01*
X6815000Y-1602000D01*
X6786428Y-1559143D01*
X6772143Y-1544857D01*
X-14644Y-2183356D02*
X-14644Y-2112644D01*
X-85356Y-2112644D01*
X-85356Y-2183356D01*
X-14644Y-2183356D01*
X443571Y-2283714D02*
X272143Y-2283714D01*
X357857Y-2283714D02*
X357857Y-1983714D01*
X329286Y-2026571D01*
X300714Y-2055143D01*
X272143Y-2069428D01*
X572143Y-2255143D02*
X586429Y-2269429D01*
X572143Y-2283714D01*
X557857Y-2269429D01*
X572143Y-2255143D01*
X572143Y-2283714D01*
X772143Y-1983714D02*
X800714Y-1983714D01*
X829286Y-1998000D01*
X843571Y-2012286D01*
X857857Y-2040857D01*
X872143Y-2098000D01*
X872143Y-2169429D01*
X857857Y-2226571D01*
X843571Y-2255143D01*
X829286Y-2269429D01*
X800714Y-2283714D01*
X772143Y-2283714D01*
X743571Y-2269429D01*
X729286Y-2255143D01*
X715000Y-2226571D01*
X700714Y-2169429D01*
X700714Y-2098000D01*
X715000Y-2040857D01*
X729286Y-2012286D01*
X743571Y-1998000D01*
X772143Y-1983714D01*
X1057857Y-1983714D02*
X1086429Y-1983714D01*
X1115000Y-1998000D01*
X1129286Y-2012286D01*
X1143571Y-2040857D01*
X1157857Y-2098000D01*
X1157857Y-2169429D01*
X1143571Y-2226571D01*
X1129286Y-2255143D01*
X1115000Y-2269429D01*
X1086429Y-2283714D01*
X1057857Y-2283714D01*
X1029286Y-2269429D01*
X1015000Y-2255143D01*
X1000714Y-2226571D01*
X986428Y-2169429D01*
X986428Y-2098000D01*
X1000714Y-2040857D01*
X1015000Y-2012286D01*
X1029286Y-1998000D01*
X1057857Y-1983714D01*
X1286429Y-2283714D02*
X1286429Y-2083714D01*
X1286429Y-2112286D02*
X1300714Y-2098000D01*
X1329286Y-2083714D01*
X1372143Y-2083714D01*
X1400714Y-2098000D01*
X1415000Y-2126571D01*
X1415000Y-2283714D01*
X1415000Y-2126571D02*
X1429286Y-2098000D01*
X1457857Y-2083714D01*
X1500714Y-2083714D01*
X1529286Y-2098000D01*
X1543571Y-2126571D01*
X1543571Y-2283714D01*
X1686428Y-2283714D02*
X1686428Y-2083714D01*
X1686428Y-2112286D02*
X1700714Y-2098000D01*
X1729286Y-2083714D01*
X1772143Y-2083714D01*
X1800714Y-2098000D01*
X1815000Y-2126571D01*
X1815000Y-2283714D01*
X1815000Y-2126571D02*
X1829286Y-2098000D01*
X1857857Y-2083714D01*
X1900714Y-2083714D01*
X1929286Y-2098000D01*
X1943571Y-2126571D01*
X1943571Y-2283714D01*
X2529286Y-1969428D02*
X2272143Y-2355143D01*
X2915000Y-1983714D02*
X2943571Y-1983714D01*
X2972143Y-1998000D01*
X2986428Y-2012286D01*
X3000714Y-2040857D01*
X3015000Y-2098000D01*
X3015000Y-2169429D01*
X3000714Y-2226571D01*
X2986428Y-2255143D01*
X2972143Y-2269429D01*
X2943571Y-2283714D01*
X2915000Y-2283714D01*
X2886428Y-2269429D01*
X2872143Y-2255143D01*
X2857857Y-2226571D01*
X2843571Y-2169429D01*
X2843571Y-2098000D01*
X2857857Y-2040857D01*
X2872143Y-2012286D01*
X2886428Y-1998000D01*
X2915000Y-1983714D01*
X3143571Y-2255143D02*
X3157857Y-2269429D01*
X3143571Y-2283714D01*
X3129286Y-2269429D01*
X3143571Y-2255143D01*
X3143571Y-2283714D01*
X3343571Y-1983714D02*
X3372143Y-1983714D01*
X3400714Y-1998000D01*
X3415000Y-2012286D01*
X3429286Y-2040857D01*
X3443571Y-2098000D01*
X3443571Y-2169429D01*
X3429286Y-2226571D01*
X3415000Y-2255143D01*
X3400714Y-2269429D01*
X3372143Y-2283714D01*
X3343571Y-2283714D01*
X3315000Y-2269429D01*
X3300714Y-2255143D01*
X3286428Y-2226571D01*
X3272143Y-2169429D01*
X3272143Y-2098000D01*
X3286428Y-2040857D01*
X3300714Y-2012286D01*
X3315000Y-1998000D01*
X3343571Y-1983714D01*
X3543571Y-1983714D02*
X3729286Y-1983714D01*
X3629286Y-2098000D01*
X3672143Y-2098000D01*
X3700714Y-2112286D01*
X3715000Y-2126571D01*
X3729286Y-2155143D01*
X3729286Y-2226571D01*
X3715000Y-2255143D01*
X3700714Y-2269429D01*
X3672143Y-2283714D01*
X3586428Y-2283714D01*
X3557857Y-2269429D01*
X3543571Y-2255143D01*
X3872143Y-2283714D02*
X3929286Y-2283714D01*
X3957857Y-2269429D01*
X3972143Y-2255143D01*
X4000714Y-2212286D01*
X4015000Y-2155143D01*
X4015000Y-2040857D01*
X4000714Y-2012286D01*
X3986428Y-1998000D01*
X3957857Y-1983714D01*
X3900714Y-1983714D01*
X3872143Y-1998000D01*
X3857857Y-2012286D01*
X3843571Y-2040857D01*
X3843571Y-2112286D01*
X3857857Y-2140857D01*
X3872143Y-2155143D01*
X3900714Y-2169429D01*
X3957857Y-2169429D01*
X3986428Y-2155143D01*
X4000714Y-2140857D01*
X4015000Y-2112286D01*
X4129286Y-1983714D02*
X4129286Y-2040857D01*
X4243571Y-1983714D02*
X4243571Y-2040857D01*
X4686429Y-2398000D02*
X4672143Y-2383714D01*
X4643571Y-2340857D01*
X4629286Y-2312286D01*
X4615000Y-2269429D01*
X4600714Y-2198000D01*
X4600714Y-2140857D01*
X4615000Y-2069428D01*
X4629286Y-2026571D01*
X4643571Y-1998000D01*
X4672143Y-1955143D01*
X4686429Y-1940857D01*
X4786429Y-2012286D02*
X4800714Y-1998000D01*
X4829286Y-1983714D01*
X4900714Y-1983714D01*
X4929286Y-1998000D01*
X4943571Y-2012286D01*
X4957857Y-2040857D01*
X4957857Y-2069428D01*
X4943571Y-2112286D01*
X4772143Y-2283714D01*
X4957857Y-2283714D01*
X5143571Y-1983714D02*
X5172143Y-1983714D01*
X5200714Y-1998000D01*
X5215000Y-2012286D01*
X5229286Y-2040857D01*
X5243571Y-2098000D01*
X5243571Y-2169429D01*
X5229286Y-2226571D01*
X5215000Y-2255143D01*
X5200714Y-2269429D01*
X5172143Y-2283714D01*
X5143571Y-2283714D01*
X5115000Y-2269429D01*
X5100714Y-2255143D01*
X5086429Y-2226571D01*
X5072143Y-2169429D01*
X5072143Y-2098000D01*
X5086429Y-2040857D01*
X5100714Y-2012286D01*
X5115000Y-1998000D01*
X5143571Y-1983714D01*
X5600714Y-2283714D02*
X5600714Y-1983714D01*
X5729286Y-2283714D02*
X5729286Y-2126571D01*
X5715000Y-2098000D01*
X5686428Y-2083714D01*
X5643571Y-2083714D01*
X5615000Y-2098000D01*
X5600714Y-2112286D01*
X5915000Y-2283714D02*
X5886428Y-2269429D01*
X5872143Y-2255143D01*
X5857857Y-2226571D01*
X5857857Y-2140857D01*
X5872143Y-2112286D01*
X5886428Y-2098000D01*
X5915000Y-2083714D01*
X5957857Y-2083714D01*
X5986428Y-2098000D01*
X6000714Y-2112286D01*
X6015000Y-2140857D01*
X6015000Y-2226571D01*
X6000714Y-2255143D01*
X5986428Y-2269429D01*
X5957857Y-2283714D01*
X5915000Y-2283714D01*
X6186428Y-2283714D02*
X6157857Y-2269429D01*
X6143571Y-2240857D01*
X6143571Y-1983714D01*
X6415000Y-2269429D02*
X6386428Y-2283714D01*
X6329286Y-2283714D01*
X6300714Y-2269429D01*
X6286428Y-2240857D01*
X6286428Y-2126571D01*
X6300714Y-2098000D01*
X6329286Y-2083714D01*
X6386428Y-2083714D01*
X6415000Y-2098000D01*
X6429286Y-2126571D01*
X6429286Y-2155143D01*
X6286428Y-2183714D01*
X6543571Y-2269429D02*
X6572143Y-2283714D01*
X6629286Y-2283714D01*
X6657857Y-2269429D01*
X6672143Y-2240857D01*
X6672143Y-2226571D01*
X6657857Y-2198000D01*
X6629286Y-2183714D01*
X6586428Y-2183714D01*
X6557857Y-2169429D01*
X6543571Y-2140857D01*
X6543571Y-2126571D01*
X6557857Y-2098000D01*
X6586428Y-2083714D01*
X6629286Y-2083714D01*
X6657857Y-2098000D01*
X6772143Y-2398000D02*
X6786428Y-2383714D01*
X6815000Y-2340857D01*
X6829286Y-2312286D01*
X6843571Y-2269429D01*
X6857857Y-2198000D01*
X6857857Y-2140857D01*
X6843571Y-2069428D01*
X6829286Y-2026571D01*
X6815000Y-1998000D01*
X6786428Y-1955143D01*
X6772143Y-1940857D01*
X-65000Y-2609000D02*
X0Y-2544000D01*
X-65000Y-2479000D01*
X-130000Y-2544000D01*
X-65000Y-2609000D01*
X443571Y-2679714D02*
X272143Y-2679714D01*
X357857Y-2679714D02*
X357857Y-2379714D01*
X329286Y-2422571D01*
X300714Y-2451143D01*
X272143Y-2465429D01*
X572143Y-2651143D02*
X586429Y-2665429D01*
X572143Y-2679714D01*
X557857Y-2665429D01*
X572143Y-2651143D01*
X572143Y-2679714D01*
X686429Y-2379714D02*
X872143Y-2379714D01*
X772143Y-2494000D01*
X815000Y-2494000D01*
X843571Y-2508286D01*
X857857Y-2522571D01*
X872143Y-2551143D01*
X872143Y-2622571D01*
X857857Y-2651143D01*
X843571Y-2665429D01*
X815000Y-2679714D01*
X729286Y-2679714D01*
X700714Y-2665429D01*
X686429Y-2651143D01*
X1057857Y-2379714D02*
X1086429Y-2379714D01*
X1115000Y-2394000D01*
X1129286Y-2408286D01*
X1143571Y-2436857D01*
X1157857Y-2494000D01*
X1157857Y-2565429D01*
X1143571Y-2622571D01*
X1129286Y-2651143D01*
X1115000Y-2665429D01*
X1086429Y-2679714D01*
X1057857Y-2679714D01*
X1029286Y-2665429D01*
X1015000Y-2651143D01*
X1000714Y-2622571D01*
X986428Y-2565429D01*
X986428Y-2494000D01*
X1000714Y-2436857D01*
X1015000Y-2408286D01*
X1029286Y-2394000D01*
X1057857Y-2379714D01*
X1286429Y-2679714D02*
X1286429Y-2479714D01*
X1286429Y-2508286D02*
X1300714Y-2494000D01*
X1329286Y-2479714D01*
X1372143Y-2479714D01*
X1400714Y-2494000D01*
X1415000Y-2522571D01*
X1415000Y-2679714D01*
X1415000Y-2522571D02*
X1429286Y-2494000D01*
X1457857Y-2479714D01*
X1500714Y-2479714D01*
X1529286Y-2494000D01*
X1543571Y-2522571D01*
X1543571Y-2679714D01*
X1686428Y-2679714D02*
X1686428Y-2479714D01*
X1686428Y-2508286D02*
X1700714Y-2494000D01*
X1729286Y-2479714D01*
X1772143Y-2479714D01*
X1800714Y-2494000D01*
X1815000Y-2522571D01*
X1815000Y-2679714D01*
X1815000Y-2522571D02*
X1829286Y-2494000D01*
X1857857Y-2479714D01*
X1900714Y-2479714D01*
X1929286Y-2494000D01*
X1943571Y-2522571D01*
X1943571Y-2679714D01*
X2529286Y-2365429D02*
X2272143Y-2751143D01*
X2915000Y-2379714D02*
X2943571Y-2379714D01*
X2972143Y-2394000D01*
X2986428Y-2408286D01*
X3000714Y-2436857D01*
X3015000Y-2494000D01*
X3015000Y-2565429D01*
X3000714Y-2622571D01*
X2986428Y-2651143D01*
X2972143Y-2665429D01*
X2943571Y-2679714D01*
X2915000Y-2679714D01*
X2886428Y-2665429D01*
X2872143Y-2651143D01*
X2857857Y-2622571D01*
X2843571Y-2565429D01*
X2843571Y-2494000D01*
X2857857Y-2436857D01*
X2872143Y-2408286D01*
X2886428Y-2394000D01*
X2915000Y-2379714D01*
X3143571Y-2651143D02*
X3157857Y-2665429D01*
X3143571Y-2679714D01*
X3129286Y-2665429D01*
X3143571Y-2651143D01*
X3143571Y-2679714D01*
X3343571Y-2379714D02*
X3372143Y-2379714D01*
X3400714Y-2394000D01*
X3415000Y-2408286D01*
X3429286Y-2436857D01*
X3443571Y-2494000D01*
X3443571Y-2565429D01*
X3429286Y-2622571D01*
X3415000Y-2651143D01*
X3400714Y-2665429D01*
X3372143Y-2679714D01*
X3343571Y-2679714D01*
X3315000Y-2665429D01*
X3300714Y-2651143D01*
X3286428Y-2622571D01*
X3272143Y-2565429D01*
X3272143Y-2494000D01*
X3286428Y-2436857D01*
X3300714Y-2408286D01*
X3315000Y-2394000D01*
X3343571Y-2379714D01*
X3715000Y-2379714D02*
X3572143Y-2379714D01*
X3557857Y-2522571D01*
X3572143Y-2508286D01*
X3600714Y-2494000D01*
X3672143Y-2494000D01*
X3700714Y-2508286D01*
X3715000Y-2522571D01*
X3729286Y-2551143D01*
X3729286Y-2622571D01*
X3715000Y-2651143D01*
X3700714Y-2665429D01*
X3672143Y-2679714D01*
X3600714Y-2679714D01*
X3572143Y-2665429D01*
X3557857Y-2651143D01*
X4015000Y-2679714D02*
X3843571Y-2679714D01*
X3929286Y-2679714D02*
X3929286Y-2379714D01*
X3900714Y-2422571D01*
X3872143Y-2451143D01*
X3843571Y-2465429D01*
X4129286Y-2379714D02*
X4129286Y-2436857D01*
X4243571Y-2379714D02*
X4243571Y-2436857D01*
X4686429Y-2794000D02*
X4672143Y-2779714D01*
X4643571Y-2736857D01*
X4629286Y-2708286D01*
X4615000Y-2665429D01*
X4600714Y-2594000D01*
X4600714Y-2536857D01*
X4615000Y-2465429D01*
X4629286Y-2422571D01*
X4643571Y-2394000D01*
X4672143Y-2351143D01*
X4686429Y-2336857D01*
X4957857Y-2679714D02*
X4786429Y-2679714D01*
X4872143Y-2679714D02*
X4872143Y-2379714D01*
X4843571Y-2422571D01*
X4815000Y-2451143D01*
X4786429Y-2465429D01*
X5072143Y-2408286D02*
X5086429Y-2394000D01*
X5115000Y-2379714D01*
X5186429Y-2379714D01*
X5215000Y-2394000D01*
X5229286Y-2408286D01*
X5243571Y-2436857D01*
X5243571Y-2465429D01*
X5229286Y-2508286D01*
X5057857Y-2679714D01*
X5243571Y-2679714D01*
X5600714Y-2679714D02*
X5600714Y-2379714D01*
X5729286Y-2679714D02*
X5729286Y-2522571D01*
X5715000Y-2494000D01*
X5686428Y-2479714D01*
X5643571Y-2479714D01*
X5615000Y-2494000D01*
X5600714Y-2508286D01*
X5915000Y-2679714D02*
X5886428Y-2665429D01*
X5872143Y-2651143D01*
X5857857Y-2622571D01*
X5857857Y-2536857D01*
X5872143Y-2508286D01*
X5886428Y-2494000D01*
X5915000Y-2479714D01*
X5957857Y-2479714D01*
X5986428Y-2494000D01*
X6000714Y-2508286D01*
X6015000Y-2536857D01*
X6015000Y-2622571D01*
X6000714Y-2651143D01*
X5986428Y-2665429D01*
X5957857Y-2679714D01*
X5915000Y-2679714D01*
X6186428Y-2679714D02*
X6157857Y-2665429D01*
X6143571Y-2636857D01*
X6143571Y-2379714D01*
X6415000Y-2665429D02*
X6386428Y-2679714D01*
X6329286Y-2679714D01*
X6300714Y-2665429D01*
X6286428Y-2636857D01*
X6286428Y-2522571D01*
X6300714Y-2494000D01*
X6329286Y-2479714D01*
X6386428Y-2479714D01*
X6415000Y-2494000D01*
X6429286Y-2522571D01*
X6429286Y-2551143D01*
X6286428Y-2579714D01*
X6543571Y-2665429D02*
X6572143Y-2679714D01*
X6629286Y-2679714D01*
X6657857Y-2665429D01*
X6672143Y-2636857D01*
X6672143Y-2622571D01*
X6657857Y-2594000D01*
X6629286Y-2579714D01*
X6586428Y-2579714D01*
X6557857Y-2565429D01*
X6543571Y-2536857D01*
X6543571Y-2522571D01*
X6557857Y-2494000D01*
X6586428Y-2479714D01*
X6629286Y-2479714D01*
X6657857Y-2494000D01*
X6772143Y-2794000D02*
X6786428Y-2779714D01*
X6815000Y-2736857D01*
X6829286Y-2708286D01*
X6843571Y-2665429D01*
X6857857Y-2594000D01*
X6857857Y-2536857D01*
X6843571Y-2465429D01*
X6829286Y-2422571D01*
X6815000Y-2394000D01*
X6786428Y-2351143D01*
X6772143Y-2336857D01*
X-140000Y-2870000D02*
X0Y-3010000D01*
X0Y-2870000D02*
X-140000Y-3010000D01*
X0Y-2940000D02*
G75*
G03*
X0Y-2940000I-70000J0D01*
G01*
X443571Y-3075714D02*
X272143Y-3075714D01*
X357857Y-3075714D02*
X357857Y-2775714D01*
X329286Y-2818571D01*
X300714Y-2847143D01*
X272143Y-2861428D01*
X572143Y-3047143D02*
X586429Y-3061428D01*
X572143Y-3075714D01*
X557857Y-3061428D01*
X572143Y-3047143D01*
X572143Y-3075714D01*
X843571Y-2875714D02*
X843571Y-3075714D01*
X772143Y-2761429D02*
X700714Y-2975714D01*
X886428Y-2975714D01*
X1057857Y-2775714D02*
X1086429Y-2775714D01*
X1115000Y-2790000D01*
X1129286Y-2804286D01*
X1143571Y-2832857D01*
X1157857Y-2890000D01*
X1157857Y-2961428D01*
X1143571Y-3018571D01*
X1129286Y-3047143D01*
X1115000Y-3061428D01*
X1086429Y-3075714D01*
X1057857Y-3075714D01*
X1029286Y-3061428D01*
X1015000Y-3047143D01*
X1000714Y-3018571D01*
X986428Y-2961428D01*
X986428Y-2890000D01*
X1000714Y-2832857D01*
X1015000Y-2804286D01*
X1029286Y-2790000D01*
X1057857Y-2775714D01*
X1286429Y-3075714D02*
X1286429Y-2875714D01*
X1286429Y-2904286D02*
X1300714Y-2890000D01*
X1329286Y-2875714D01*
X1372143Y-2875714D01*
X1400714Y-2890000D01*
X1415000Y-2918571D01*
X1415000Y-3075714D01*
X1415000Y-2918571D02*
X1429286Y-2890000D01*
X1457857Y-2875714D01*
X1500714Y-2875714D01*
X1529286Y-2890000D01*
X1543571Y-2918571D01*
X1543571Y-3075714D01*
X1686428Y-3075714D02*
X1686428Y-2875714D01*
X1686428Y-2904286D02*
X1700714Y-2890000D01*
X1729286Y-2875714D01*
X1772143Y-2875714D01*
X1800714Y-2890000D01*
X1815000Y-2918571D01*
X1815000Y-3075714D01*
X1815000Y-2918571D02*
X1829286Y-2890000D01*
X1857857Y-2875714D01*
X1900714Y-2875714D01*
X1929286Y-2890000D01*
X1943571Y-2918571D01*
X1943571Y-3075714D01*
X2529286Y-2761429D02*
X2272143Y-3147143D01*
X2915000Y-2775714D02*
X2943571Y-2775714D01*
X2972143Y-2790000D01*
X2986428Y-2804286D01*
X3000714Y-2832857D01*
X3015000Y-2890000D01*
X3015000Y-2961428D01*
X3000714Y-3018571D01*
X2986428Y-3047143D01*
X2972143Y-3061428D01*
X2943571Y-3075714D01*
X2915000Y-3075714D01*
X2886428Y-3061428D01*
X2872143Y-3047143D01*
X2857857Y-3018571D01*
X2843571Y-2961428D01*
X2843571Y-2890000D01*
X2857857Y-2832857D01*
X2872143Y-2804286D01*
X2886428Y-2790000D01*
X2915000Y-2775714D01*
X3143571Y-3047143D02*
X3157857Y-3061428D01*
X3143571Y-3075714D01*
X3129286Y-3061428D01*
X3143571Y-3047143D01*
X3143571Y-3075714D01*
X3343571Y-2775714D02*
X3372143Y-2775714D01*
X3400714Y-2790000D01*
X3415000Y-2804286D01*
X3429286Y-2832857D01*
X3443571Y-2890000D01*
X3443571Y-2961428D01*
X3429286Y-3018571D01*
X3415000Y-3047143D01*
X3400714Y-3061428D01*
X3372143Y-3075714D01*
X3343571Y-3075714D01*
X3315000Y-3061428D01*
X3300714Y-3047143D01*
X3286428Y-3018571D01*
X3272143Y-2961428D01*
X3272143Y-2890000D01*
X3286428Y-2832857D01*
X3300714Y-2804286D01*
X3315000Y-2790000D01*
X3343571Y-2775714D01*
X3715000Y-2775714D02*
X3572143Y-2775714D01*
X3557857Y-2918571D01*
X3572143Y-2904286D01*
X3600714Y-2890000D01*
X3672143Y-2890000D01*
X3700714Y-2904286D01*
X3715000Y-2918571D01*
X3729286Y-2947143D01*
X3729286Y-3018571D01*
X3715000Y-3047143D01*
X3700714Y-3061428D01*
X3672143Y-3075714D01*
X3600714Y-3075714D01*
X3572143Y-3061428D01*
X3557857Y-3047143D01*
X4000714Y-2775714D02*
X3857857Y-2775714D01*
X3843571Y-2918571D01*
X3857857Y-2904286D01*
X3886428Y-2890000D01*
X3957857Y-2890000D01*
X3986428Y-2904286D01*
X4000714Y-2918571D01*
X4015000Y-2947143D01*
X4015000Y-3018571D01*
X4000714Y-3047143D01*
X3986428Y-3061428D01*
X3957857Y-3075714D01*
X3886428Y-3075714D01*
X3857857Y-3061428D01*
X3843571Y-3047143D01*
X4129286Y-2775714D02*
X4129286Y-2832857D01*
X4243571Y-2775714D02*
X4243571Y-2832857D01*
X4686429Y-3190000D02*
X4672143Y-3175714D01*
X4643571Y-3132857D01*
X4629286Y-3104286D01*
X4615000Y-3061428D01*
X4600714Y-2990000D01*
X4600714Y-2932857D01*
X4615000Y-2861428D01*
X4629286Y-2818571D01*
X4643571Y-2790000D01*
X4672143Y-2747143D01*
X4686429Y-2732857D01*
X4772143Y-2775714D02*
X4972143Y-2775714D01*
X4843571Y-3075714D01*
X5315000Y-3075714D02*
X5315000Y-2775714D01*
X5443571Y-3075714D02*
X5443571Y-2918571D01*
X5429286Y-2890000D01*
X5400714Y-2875714D01*
X5357857Y-2875714D01*
X5329286Y-2890000D01*
X5315000Y-2904286D01*
X5629286Y-3075714D02*
X5600714Y-3061428D01*
X5586429Y-3047143D01*
X5572143Y-3018571D01*
X5572143Y-2932857D01*
X5586429Y-2904286D01*
X5600714Y-2890000D01*
X5629286Y-2875714D01*
X5672143Y-2875714D01*
X5700714Y-2890000D01*
X5715000Y-2904286D01*
X5729286Y-2932857D01*
X5729286Y-3018571D01*
X5715000Y-3047143D01*
X5700714Y-3061428D01*
X5672143Y-3075714D01*
X5629286Y-3075714D01*
X5900714Y-3075714D02*
X5872143Y-3061428D01*
X5857857Y-3032857D01*
X5857857Y-2775714D01*
X6129286Y-3061428D02*
X6100714Y-3075714D01*
X6043571Y-3075714D01*
X6015000Y-3061428D01*
X6000714Y-3032857D01*
X6000714Y-2918571D01*
X6015000Y-2890000D01*
X6043571Y-2875714D01*
X6100714Y-2875714D01*
X6129286Y-2890000D01*
X6143571Y-2918571D01*
X6143571Y-2947143D01*
X6000714Y-2975714D01*
X6257857Y-3061428D02*
X6286428Y-3075714D01*
X6343571Y-3075714D01*
X6372143Y-3061428D01*
X6386428Y-3032857D01*
X6386428Y-3018571D01*
X6372143Y-2990000D01*
X6343571Y-2975714D01*
X6300714Y-2975714D01*
X6272143Y-2961428D01*
X6257857Y-2932857D01*
X6257857Y-2918571D01*
X6272143Y-2890000D01*
X6300714Y-2875714D01*
X6343571Y-2875714D01*
X6372143Y-2890000D01*
X6486428Y-3190000D02*
X6500714Y-3175714D01*
X6529286Y-3132857D01*
X6543571Y-3104286D01*
X6557857Y-3061428D01*
X6572143Y-2990000D01*
X6572143Y-2932857D01*
X6557857Y-2861428D01*
X6543571Y-2818571D01*
X6529286Y-2790000D01*
X6500714Y-2747143D01*
X6486428Y-2732857D01*
X-150000Y-3261000D02*
X0Y-3411000D01*
X0Y-3261000D02*
X-150000Y-3411000D01*
X-75000Y-3261000D02*
X-75000Y-3411000D01*
X-150000Y-3336000D02*
X0Y-3336000D01*
X443571Y-3471714D02*
X272143Y-3471714D01*
X357857Y-3471714D02*
X357857Y-3171714D01*
X329286Y-3214571D01*
X300714Y-3243143D01*
X272143Y-3257428D01*
X572143Y-3443143D02*
X586429Y-3457428D01*
X572143Y-3471714D01*
X557857Y-3457428D01*
X572143Y-3443143D01*
X572143Y-3471714D01*
X857857Y-3171714D02*
X715000Y-3171714D01*
X700714Y-3314571D01*
X715000Y-3300286D01*
X743571Y-3286000D01*
X815000Y-3286000D01*
X843571Y-3300286D01*
X857857Y-3314571D01*
X872143Y-3343143D01*
X872143Y-3414571D01*
X857857Y-3443143D01*
X843571Y-3457428D01*
X815000Y-3471714D01*
X743571Y-3471714D01*
X715000Y-3457428D01*
X700714Y-3443143D01*
X1057857Y-3171714D02*
X1086429Y-3171714D01*
X1115000Y-3186000D01*
X1129286Y-3200286D01*
X1143571Y-3228857D01*
X1157857Y-3286000D01*
X1157857Y-3357428D01*
X1143571Y-3414571D01*
X1129286Y-3443143D01*
X1115000Y-3457428D01*
X1086429Y-3471714D01*
X1057857Y-3471714D01*
X1029286Y-3457428D01*
X1015000Y-3443143D01*
X1000714Y-3414571D01*
X986428Y-3357428D01*
X986428Y-3286000D01*
X1000714Y-3228857D01*
X1015000Y-3200286D01*
X1029286Y-3186000D01*
X1057857Y-3171714D01*
X1286429Y-3471714D02*
X1286429Y-3271714D01*
X1286429Y-3300286D02*
X1300714Y-3286000D01*
X1329286Y-3271714D01*
X1372143Y-3271714D01*
X1400714Y-3286000D01*
X1415000Y-3314571D01*
X1415000Y-3471714D01*
X1415000Y-3314571D02*
X1429286Y-3286000D01*
X1457857Y-3271714D01*
X1500714Y-3271714D01*
X1529286Y-3286000D01*
X1543571Y-3314571D01*
X1543571Y-3471714D01*
X1686428Y-3471714D02*
X1686428Y-3271714D01*
X1686428Y-3300286D02*
X1700714Y-3286000D01*
X1729286Y-3271714D01*
X1772143Y-3271714D01*
X1800714Y-3286000D01*
X1815000Y-3314571D01*
X1815000Y-3471714D01*
X1815000Y-3314571D02*
X1829286Y-3286000D01*
X1857857Y-3271714D01*
X1900714Y-3271714D01*
X1929286Y-3286000D01*
X1943571Y-3314571D01*
X1943571Y-3471714D01*
X2529286Y-3157428D02*
X2272143Y-3543143D01*
X2915000Y-3171714D02*
X2943571Y-3171714D01*
X2972143Y-3186000D01*
X2986428Y-3200286D01*
X3000714Y-3228857D01*
X3015000Y-3286000D01*
X3015000Y-3357428D01*
X3000714Y-3414571D01*
X2986428Y-3443143D01*
X2972143Y-3457428D01*
X2943571Y-3471714D01*
X2915000Y-3471714D01*
X2886428Y-3457428D01*
X2872143Y-3443143D01*
X2857857Y-3414571D01*
X2843571Y-3357428D01*
X2843571Y-3286000D01*
X2857857Y-3228857D01*
X2872143Y-3200286D01*
X2886428Y-3186000D01*
X2915000Y-3171714D01*
X3143571Y-3443143D02*
X3157857Y-3457428D01*
X3143571Y-3471714D01*
X3129286Y-3457428D01*
X3143571Y-3443143D01*
X3143571Y-3471714D01*
X3343571Y-3171714D02*
X3372143Y-3171714D01*
X3400714Y-3186000D01*
X3415000Y-3200286D01*
X3429286Y-3228857D01*
X3443571Y-3286000D01*
X3443571Y-3357428D01*
X3429286Y-3414571D01*
X3415000Y-3443143D01*
X3400714Y-3457428D01*
X3372143Y-3471714D01*
X3343571Y-3471714D01*
X3315000Y-3457428D01*
X3300714Y-3443143D01*
X3286428Y-3414571D01*
X3272143Y-3357428D01*
X3272143Y-3286000D01*
X3286428Y-3228857D01*
X3300714Y-3200286D01*
X3315000Y-3186000D01*
X3343571Y-3171714D01*
X3715000Y-3171714D02*
X3572143Y-3171714D01*
X3557857Y-3314571D01*
X3572143Y-3300286D01*
X3600714Y-3286000D01*
X3672143Y-3286000D01*
X3700714Y-3300286D01*
X3715000Y-3314571D01*
X3729286Y-3343143D01*
X3729286Y-3414571D01*
X3715000Y-3443143D01*
X3700714Y-3457428D01*
X3672143Y-3471714D01*
X3600714Y-3471714D01*
X3572143Y-3457428D01*
X3557857Y-3443143D01*
X3872143Y-3471714D02*
X3929286Y-3471714D01*
X3957857Y-3457428D01*
X3972143Y-3443143D01*
X4000714Y-3400286D01*
X4015000Y-3343143D01*
X4015000Y-3228857D01*
X4000714Y-3200286D01*
X3986428Y-3186000D01*
X3957857Y-3171714D01*
X3900714Y-3171714D01*
X3872143Y-3186000D01*
X3857857Y-3200286D01*
X3843571Y-3228857D01*
X3843571Y-3300286D01*
X3857857Y-3328857D01*
X3872143Y-3343143D01*
X3900714Y-3357428D01*
X3957857Y-3357428D01*
X3986428Y-3343143D01*
X4000714Y-3328857D01*
X4015000Y-3300286D01*
X4129286Y-3171714D02*
X4129286Y-3228857D01*
X4243571Y-3171714D02*
X4243571Y-3228857D01*
X4686429Y-3586000D02*
X4672143Y-3571714D01*
X4643571Y-3528857D01*
X4629286Y-3500286D01*
X4615000Y-3457428D01*
X4600714Y-3386000D01*
X4600714Y-3328857D01*
X4615000Y-3257428D01*
X4629286Y-3214571D01*
X4643571Y-3186000D01*
X4672143Y-3143143D01*
X4686429Y-3128857D01*
X4843571Y-3300286D02*
X4815000Y-3286000D01*
X4800714Y-3271714D01*
X4786429Y-3243143D01*
X4786429Y-3228857D01*
X4800714Y-3200286D01*
X4815000Y-3186000D01*
X4843571Y-3171714D01*
X4900714Y-3171714D01*
X4929286Y-3186000D01*
X4943571Y-3200286D01*
X4957857Y-3228857D01*
X4957857Y-3243143D01*
X4943571Y-3271714D01*
X4929286Y-3286000D01*
X4900714Y-3300286D01*
X4843571Y-3300286D01*
X4815000Y-3314571D01*
X4800714Y-3328857D01*
X4786429Y-3357428D01*
X4786429Y-3414571D01*
X4800714Y-3443143D01*
X4815000Y-3457428D01*
X4843571Y-3471714D01*
X4900714Y-3471714D01*
X4929286Y-3457428D01*
X4943571Y-3443143D01*
X4957857Y-3414571D01*
X4957857Y-3357428D01*
X4943571Y-3328857D01*
X4929286Y-3314571D01*
X4900714Y-3300286D01*
X5315000Y-3471714D02*
X5315000Y-3171714D01*
X5443571Y-3471714D02*
X5443571Y-3314571D01*
X5429286Y-3286000D01*
X5400714Y-3271714D01*
X5357857Y-3271714D01*
X5329286Y-3286000D01*
X5315000Y-3300286D01*
X5629286Y-3471714D02*
X5600714Y-3457428D01*
X5586429Y-3443143D01*
X5572143Y-3414571D01*
X5572143Y-3328857D01*
X5586429Y-3300286D01*
X5600714Y-3286000D01*
X5629286Y-3271714D01*
X5672143Y-3271714D01*
X5700714Y-3286000D01*
X5715000Y-3300286D01*
X5729286Y-3328857D01*
X5729286Y-3414571D01*
X5715000Y-3443143D01*
X5700714Y-3457428D01*
X5672143Y-3471714D01*
X5629286Y-3471714D01*
X5900714Y-3471714D02*
X5872143Y-3457428D01*
X5857857Y-3428857D01*
X5857857Y-3171714D01*
X6129286Y-3457428D02*
X6100714Y-3471714D01*
X6043571Y-3471714D01*
X6015000Y-3457428D01*
X6000714Y-3428857D01*
X6000714Y-3314571D01*
X6015000Y-3286000D01*
X6043571Y-3271714D01*
X6100714Y-3271714D01*
X6129286Y-3286000D01*
X6143571Y-3314571D01*
X6143571Y-3343143D01*
X6000714Y-3371714D01*
X6257857Y-3457428D02*
X6286428Y-3471714D01*
X6343571Y-3471714D01*
X6372143Y-3457428D01*
X6386428Y-3428857D01*
X6386428Y-3414571D01*
X6372143Y-3386000D01*
X6343571Y-3371714D01*
X6300714Y-3371714D01*
X6272143Y-3357428D01*
X6257857Y-3328857D01*
X6257857Y-3314571D01*
X6272143Y-3286000D01*
X6300714Y-3271714D01*
X6343571Y-3271714D01*
X6372143Y-3286000D01*
X6486428Y-3586000D02*
X6500714Y-3571714D01*
X6529286Y-3528857D01*
X6543571Y-3500286D01*
X6557857Y-3457428D01*
X6572143Y-3386000D01*
X6572143Y-3328857D01*
X6557857Y-3257428D01*
X6543571Y-3214571D01*
X6529286Y-3186000D01*
X6500714Y-3143143D01*
X6486428Y-3128857D01*
X-290000Y-3587000D02*
X0Y-3877000D01*
X0Y-3587000D02*
X-290000Y-3877000D01*
X-42469Y-3834531D02*
X-42469Y-3629468D01*
X-247531Y-3629468D01*
X-247531Y-3834531D01*
X-42469Y-3834531D01*
X272143Y-3596286D02*
X286429Y-3582000D01*
X315000Y-3567714D01*
X386428Y-3567714D01*
X415000Y-3582000D01*
X429286Y-3596286D01*
X443571Y-3624857D01*
X443571Y-3653428D01*
X429286Y-3696286D01*
X257857Y-3867714D01*
X443571Y-3867714D01*
X572143Y-3839143D02*
X586429Y-3853428D01*
X572143Y-3867714D01*
X557857Y-3853428D01*
X572143Y-3839143D01*
X572143Y-3867714D01*
X729286Y-3867714D02*
X786428Y-3867714D01*
X815000Y-3853428D01*
X829286Y-3839143D01*
X857857Y-3796286D01*
X872143Y-3739143D01*
X872143Y-3624857D01*
X857857Y-3596286D01*
X843571Y-3582000D01*
X815000Y-3567714D01*
X757857Y-3567714D01*
X729286Y-3582000D01*
X715000Y-3596286D01*
X700714Y-3624857D01*
X700714Y-3696286D01*
X715000Y-3724857D01*
X729286Y-3739143D01*
X757857Y-3753428D01*
X815000Y-3753428D01*
X843571Y-3739143D01*
X857857Y-3724857D01*
X872143Y-3696286D01*
X1057857Y-3567714D02*
X1086429Y-3567714D01*
X1115000Y-3582000D01*
X1129286Y-3596286D01*
X1143571Y-3624857D01*
X1157857Y-3682000D01*
X1157857Y-3753428D01*
X1143571Y-3810571D01*
X1129286Y-3839143D01*
X1115000Y-3853428D01*
X1086429Y-3867714D01*
X1057857Y-3867714D01*
X1029286Y-3853428D01*
X1015000Y-3839143D01*
X1000714Y-3810571D01*
X986428Y-3753428D01*
X986428Y-3682000D01*
X1000714Y-3624857D01*
X1015000Y-3596286D01*
X1029286Y-3582000D01*
X1057857Y-3567714D01*
X1286429Y-3867714D02*
X1286429Y-3667714D01*
X1286429Y-3696286D02*
X1300714Y-3682000D01*
X1329286Y-3667714D01*
X1372143Y-3667714D01*
X1400714Y-3682000D01*
X1415000Y-3710571D01*
X1415000Y-3867714D01*
X1415000Y-3710571D02*
X1429286Y-3682000D01*
X1457857Y-3667714D01*
X1500714Y-3667714D01*
X1529286Y-3682000D01*
X1543571Y-3710571D01*
X1543571Y-3867714D01*
X1686428Y-3867714D02*
X1686428Y-3667714D01*
X1686428Y-3696286D02*
X1700714Y-3682000D01*
X1729286Y-3667714D01*
X1772143Y-3667714D01*
X1800714Y-3682000D01*
X1815000Y-3710571D01*
X1815000Y-3867714D01*
X1815000Y-3710571D02*
X1829286Y-3682000D01*
X1857857Y-3667714D01*
X1900714Y-3667714D01*
X1929286Y-3682000D01*
X1943571Y-3710571D01*
X1943571Y-3867714D01*
X2529286Y-3553428D02*
X2272143Y-3939143D01*
X2915000Y-3567714D02*
X2943571Y-3567714D01*
X2972143Y-3582000D01*
X2986428Y-3596286D01*
X3000714Y-3624857D01*
X3015000Y-3682000D01*
X3015000Y-3753428D01*
X3000714Y-3810571D01*
X2986428Y-3839143D01*
X2972143Y-3853428D01*
X2943571Y-3867714D01*
X2915000Y-3867714D01*
X2886428Y-3853428D01*
X2872143Y-3839143D01*
X2857857Y-3810571D01*
X2843571Y-3753428D01*
X2843571Y-3682000D01*
X2857857Y-3624857D01*
X2872143Y-3596286D01*
X2886428Y-3582000D01*
X2915000Y-3567714D01*
X3143571Y-3839143D02*
X3157857Y-3853428D01*
X3143571Y-3867714D01*
X3129286Y-3853428D01*
X3143571Y-3839143D01*
X3143571Y-3867714D01*
X3443571Y-3867714D02*
X3272143Y-3867714D01*
X3357857Y-3867714D02*
X3357857Y-3567714D01*
X3329286Y-3610571D01*
X3300714Y-3639143D01*
X3272143Y-3653428D01*
X3729286Y-3867714D02*
X3557857Y-3867714D01*
X3643571Y-3867714D02*
X3643571Y-3567714D01*
X3615000Y-3610571D01*
X3586428Y-3639143D01*
X3557857Y-3653428D01*
X3986428Y-3667714D02*
X3986428Y-3867714D01*
X3915000Y-3553428D02*
X3843571Y-3767714D01*
X4029286Y-3767714D01*
X4129286Y-3567714D02*
X4129286Y-3624857D01*
X4243571Y-3567714D02*
X4243571Y-3624857D01*
X4686429Y-3982000D02*
X4672143Y-3967714D01*
X4643571Y-3924857D01*
X4629286Y-3896286D01*
X4615000Y-3853428D01*
X4600714Y-3782000D01*
X4600714Y-3724857D01*
X4615000Y-3653428D01*
X4629286Y-3610571D01*
X4643571Y-3582000D01*
X4672143Y-3539143D01*
X4686429Y-3524857D01*
X4929286Y-3667714D02*
X4929286Y-3867714D01*
X4857857Y-3553428D02*
X4786429Y-3767714D01*
X4972143Y-3767714D01*
X5315000Y-3867714D02*
X5315000Y-3567714D01*
X5443571Y-3867714D02*
X5443571Y-3710571D01*
X5429286Y-3682000D01*
X5400714Y-3667714D01*
X5357857Y-3667714D01*
X5329286Y-3682000D01*
X5315000Y-3696286D01*
X5629286Y-3867714D02*
X5600714Y-3853428D01*
X5586429Y-3839143D01*
X5572143Y-3810571D01*
X5572143Y-3724857D01*
X5586429Y-3696286D01*
X5600714Y-3682000D01*
X5629286Y-3667714D01*
X5672143Y-3667714D01*
X5700714Y-3682000D01*
X5715000Y-3696286D01*
X5729286Y-3724857D01*
X5729286Y-3810571D01*
X5715000Y-3839143D01*
X5700714Y-3853428D01*
X5672143Y-3867714D01*
X5629286Y-3867714D01*
X5900714Y-3867714D02*
X5872143Y-3853428D01*
X5857857Y-3824857D01*
X5857857Y-3567714D01*
X6129286Y-3853428D02*
X6100714Y-3867714D01*
X6043571Y-3867714D01*
X6015000Y-3853428D01*
X6000714Y-3824857D01*
X6000714Y-3710571D01*
X6015000Y-3682000D01*
X6043571Y-3667714D01*
X6100714Y-3667714D01*
X6129286Y-3682000D01*
X6143571Y-3710571D01*
X6143571Y-3739143D01*
X6000714Y-3767714D01*
X6257857Y-3853428D02*
X6286428Y-3867714D01*
X6343571Y-3867714D01*
X6372143Y-3853428D01*
X6386428Y-3824857D01*
X6386428Y-3810571D01*
X6372143Y-3782000D01*
X6343571Y-3767714D01*
X6300714Y-3767714D01*
X6272143Y-3753428D01*
X6257857Y-3724857D01*
X6257857Y-3710571D01*
X6272143Y-3682000D01*
X6300714Y-3667714D01*
X6343571Y-3667714D01*
X6372143Y-3682000D01*
X6486428Y-3982000D02*
X6500714Y-3967714D01*
X6529286Y-3924857D01*
X6543571Y-3896286D01*
X6557857Y-3853428D01*
X6572143Y-3782000D01*
X6572143Y-3724857D01*
X6557857Y-3653428D01*
X6543571Y-3610571D01*
X6529286Y-3582000D01*
X6500714Y-3539143D01*
X6486428Y-3524857D01*
M02*
