%TF.GenerationSoftware,KiCad,Pcbnew,(5.1.6)-1*%
%TF.CreationDate,2021-11-19T15:30:18+01:00*%
%TF.ProjectId,FoxRobot,466f7852-6f62-46f7-942e-6b696361645f,V01*%
%TF.SameCoordinates,Original*%
%TF.FileFunction,Copper,L1,Top*%
%TF.FilePolarity,Positive*%
%FSLAX46Y46*%
G04 Gerber Fmt 4.6, Leading zero omitted, Abs format (unit mm)*
G04 Created by KiCad (PCBNEW (5.1.6)-1) date 2021-11-19 15:30:18*
%MOMM*%
%LPD*%
G01*
G04 APERTURE LIST*
%TA.AperFunction,NonConductor*%
%ADD10C,0.300000*%
%TD*%
%TA.AperFunction,ComponentPad*%
%ADD11C,1.524000*%
%TD*%
%TA.AperFunction,ComponentPad*%
%ADD12O,1.600000X1.600000*%
%TD*%
%TA.AperFunction,ComponentPad*%
%ADD13C,1.600000*%
%TD*%
%TA.AperFunction,ComponentPad*%
%ADD14R,1.500000X1.050000*%
%TD*%
%TA.AperFunction,ComponentPad*%
%ADD15O,1.500000X1.050000*%
%TD*%
%TA.AperFunction,ComponentPad*%
%ADD16C,1.950000*%
%TD*%
%TA.AperFunction,ComponentPad*%
%ADD17C,4.350000*%
%TD*%
%TA.AperFunction,ComponentPad*%
%ADD18O,1.700000X1.700000*%
%TD*%
%TA.AperFunction,ComponentPad*%
%ADD19R,1.700000X1.700000*%
%TD*%
%TA.AperFunction,ComponentPad*%
%ADD20C,2.600000*%
%TD*%
%TA.AperFunction,ComponentPad*%
%ADD21R,2.600000X2.600000*%
%TD*%
%TA.AperFunction,SMDPad,CuDef*%
%ADD22R,2.500000X2.500000*%
%TD*%
%TA.AperFunction,ComponentPad*%
%ADD23C,2.250000*%
%TD*%
%TA.AperFunction,ComponentPad*%
%ADD24C,3.600000*%
%TD*%
%TA.AperFunction,ConnectorPad*%
%ADD25C,5.700000*%
%TD*%
%TA.AperFunction,ComponentPad*%
%ADD26C,2.000000*%
%TD*%
%TA.AperFunction,ViaPad*%
%ADD27C,0.800000*%
%TD*%
%TA.AperFunction,Conductor*%
%ADD28C,0.300000*%
%TD*%
%TA.AperFunction,Conductor*%
%ADD29C,2.800000*%
%TD*%
G04 APERTURE END LIST*
D10*
X72887142Y-122368571D02*
X73172857Y-122368571D01*
X73315714Y-122440000D01*
X73458571Y-122582857D01*
X73530000Y-122868571D01*
X73530000Y-123368571D01*
X73458571Y-123654285D01*
X73315714Y-123797142D01*
X73172857Y-123868571D01*
X72887142Y-123868571D01*
X72744285Y-123797142D01*
X72601428Y-123654285D01*
X72530000Y-123368571D01*
X72530000Y-122868571D01*
X72601428Y-122582857D01*
X72744285Y-122440000D01*
X72887142Y-122368571D01*
X74172857Y-123868571D02*
X74172857Y-122868571D01*
X74172857Y-123154285D02*
X74244285Y-123011428D01*
X74315714Y-122940000D01*
X74458571Y-122868571D01*
X74601428Y-122868571D01*
X75101428Y-123868571D02*
X75101428Y-122868571D01*
X75101428Y-122368571D02*
X75030000Y-122440000D01*
X75101428Y-122511428D01*
X75172857Y-122440000D01*
X75101428Y-122368571D01*
X75101428Y-122511428D01*
X76458571Y-122868571D02*
X76458571Y-124082857D01*
X76387142Y-124225714D01*
X76315714Y-124297142D01*
X76172857Y-124368571D01*
X75958571Y-124368571D01*
X75815714Y-124297142D01*
X76458571Y-123797142D02*
X76315714Y-123868571D01*
X76030000Y-123868571D01*
X75887142Y-123797142D01*
X75815714Y-123725714D01*
X75744285Y-123582857D01*
X75744285Y-123154285D01*
X75815714Y-123011428D01*
X75887142Y-122940000D01*
X76030000Y-122868571D01*
X76315714Y-122868571D01*
X76458571Y-122940000D01*
X77172857Y-123868571D02*
X77172857Y-122868571D01*
X77172857Y-122368571D02*
X77101428Y-122440000D01*
X77172857Y-122511428D01*
X77244285Y-122440000D01*
X77172857Y-122368571D01*
X77172857Y-122511428D01*
X77887142Y-122868571D02*
X77887142Y-123868571D01*
X77887142Y-123011428D02*
X77958571Y-122940000D01*
X78101428Y-122868571D01*
X78315714Y-122868571D01*
X78458571Y-122940000D01*
X78530000Y-123082857D01*
X78530000Y-123868571D01*
X79887142Y-123868571D02*
X79887142Y-123082857D01*
X79815714Y-122940000D01*
X79672857Y-122868571D01*
X79387142Y-122868571D01*
X79244285Y-122940000D01*
X79887142Y-123797142D02*
X79744285Y-123868571D01*
X79387142Y-123868571D01*
X79244285Y-123797142D01*
X79172857Y-123654285D01*
X79172857Y-123511428D01*
X79244285Y-123368571D01*
X79387142Y-123297142D01*
X79744285Y-123297142D01*
X79887142Y-123225714D01*
X80815714Y-123868571D02*
X80672857Y-123797142D01*
X80601428Y-123654285D01*
X80601428Y-122368571D01*
X82315714Y-122368571D02*
X82815714Y-123868571D01*
X83315714Y-122368571D01*
X84387142Y-123797142D02*
X84244285Y-123868571D01*
X83958571Y-123868571D01*
X83815714Y-123797142D01*
X83744285Y-123654285D01*
X83744285Y-123082857D01*
X83815714Y-122940000D01*
X83958571Y-122868571D01*
X84244285Y-122868571D01*
X84387142Y-122940000D01*
X84458571Y-123082857D01*
X84458571Y-123225714D01*
X83744285Y-123368571D01*
X85101428Y-123868571D02*
X85101428Y-122868571D01*
X85101428Y-123154285D02*
X85172857Y-123011428D01*
X85244285Y-122940000D01*
X85387142Y-122868571D01*
X85530000Y-122868571D01*
X85958571Y-123797142D02*
X86101428Y-123868571D01*
X86387142Y-123868571D01*
X86530000Y-123797142D01*
X86601428Y-123654285D01*
X86601428Y-123582857D01*
X86530000Y-123440000D01*
X86387142Y-123368571D01*
X86172857Y-123368571D01*
X86030000Y-123297142D01*
X85958571Y-123154285D01*
X85958571Y-123082857D01*
X86030000Y-122940000D01*
X86172857Y-122868571D01*
X86387142Y-122868571D01*
X86530000Y-122940000D01*
X87244285Y-123868571D02*
X87244285Y-122868571D01*
X87244285Y-122368571D02*
X87172857Y-122440000D01*
X87244285Y-122511428D01*
X87315714Y-122440000D01*
X87244285Y-122368571D01*
X87244285Y-122511428D01*
X88172857Y-123868571D02*
X88030000Y-123797142D01*
X87958571Y-123725714D01*
X87887142Y-123582857D01*
X87887142Y-123154285D01*
X87958571Y-123011428D01*
X88030000Y-122940000D01*
X88172857Y-122868571D01*
X88387142Y-122868571D01*
X88530000Y-122940000D01*
X88601428Y-123011428D01*
X88672857Y-123154285D01*
X88672857Y-123582857D01*
X88601428Y-123725714D01*
X88530000Y-123797142D01*
X88387142Y-123868571D01*
X88172857Y-123868571D01*
X89315714Y-122868571D02*
X89315714Y-123868571D01*
X89315714Y-123011428D02*
X89387142Y-122940000D01*
X89530000Y-122868571D01*
X89744285Y-122868571D01*
X89887142Y-122940000D01*
X89958571Y-123082857D01*
X89958571Y-123868571D01*
X22923571Y-122027142D02*
X24066428Y-122027142D01*
X23495000Y-122598571D02*
X23495000Y-121455714D01*
X22796571Y-110597142D02*
X23939428Y-110597142D01*
X23368000Y-111168571D02*
X23368000Y-110025714D01*
D11*
%TO.P,U1,8*%
%TO.N,N/C*%
X65405000Y-66548000D03*
%TO.P,U1,7*%
%TO.N,+5V*%
X65405000Y-56388000D03*
%TO.P,U1,6*%
%TO.N,Net-(C1-Pad2)*%
X65405000Y-46228000D03*
%TO.P,U1,5*%
%TO.N,N/C*%
X65405000Y-36068000D03*
%TO.P,U1,4*%
%TO.N,+24V*%
X19685000Y-53848000D03*
%TO.P,U1,3*%
%TO.N,Net-(C1-Pad2)*%
X19685000Y-48768000D03*
%TO.P,U1,1*%
%TO.N,N/C*%
X19685000Y-38608000D03*
%TD*%
D12*
%TO.P,R13,2*%
%TO.N,+5V*%
X89535000Y-60325000D03*
D13*
%TO.P,R13,1*%
%TO.N,Net-(Q12-Pad1)*%
X99695000Y-60325000D03*
%TD*%
D12*
%TO.P,R12,2*%
%TO.N,+5V*%
X89535000Y-57023000D03*
D13*
%TO.P,R12,1*%
%TO.N,/A5*%
X99695000Y-57023000D03*
%TD*%
D12*
%TO.P,R11,2*%
%TO.N,+5V*%
X89535000Y-53467000D03*
D13*
%TO.P,R11,1*%
%TO.N,Net-(Q7-Pad2)*%
X99695000Y-53467000D03*
%TD*%
D12*
%TO.P,R4,2*%
%TO.N,GND*%
X68961000Y-122174000D03*
D13*
%TO.P,R4,1*%
%TO.N,/A3*%
X58801000Y-122174000D03*
%TD*%
D12*
%TO.P,R3,2*%
%TO.N,GND*%
X44450000Y-122555000D03*
D13*
%TO.P,R3,1*%
%TO.N,/A4*%
X54610000Y-122555000D03*
%TD*%
D12*
%TO.P,R2,2*%
%TO.N,/A3*%
X58801000Y-117602000D03*
D13*
%TO.P,R2,1*%
%TO.N,Net-(J3-Pad2)*%
X68961000Y-117602000D03*
%TD*%
D12*
%TO.P,R1,2*%
%TO.N,/A4*%
X54610000Y-117475000D03*
D13*
%TO.P,R1,1*%
%TO.N,Net-(J2-Pad2)*%
X44450000Y-117475000D03*
%TD*%
D14*
%TO.P,Q9,1*%
%TO.N,Net-(K4-Pad2)*%
X73406000Y-39370000D03*
D15*
%TO.P,Q9,3*%
%TO.N,Net-(C1-Pad2)*%
X73406000Y-41910000D03*
%TO.P,Q9,2*%
%TO.N,Net-(Q12-Pad1)*%
X73406000Y-40640000D03*
%TD*%
D14*
%TO.P,Q8,1*%
%TO.N,Net-(Q7-Pad2)*%
X73406000Y-33782000D03*
D15*
%TO.P,Q8,3*%
%TO.N,Net-(C1-Pad2)*%
X73406000Y-36322000D03*
%TO.P,Q8,2*%
%TO.N,/A5*%
X73406000Y-35052000D03*
%TD*%
D14*
%TO.P,Q7,1*%
%TO.N,Net-(K4-Pad1)*%
X73279000Y-27940000D03*
D15*
%TO.P,Q7,3*%
%TO.N,Net-(C1-Pad2)*%
X73279000Y-30480000D03*
%TO.P,Q7,2*%
%TO.N,Net-(Q7-Pad2)*%
X73279000Y-29210000D03*
%TD*%
D16*
%TO.P,K4,5*%
%TO.N,+5V*%
X62738000Y-88599000D03*
D17*
%TO.P,K4,4*%
%TO.N,Net-(J6-Pad2)*%
X96988000Y-92349000D03*
%TO.P,K4,3*%
%TO.N,Net-(J2-Pad2)*%
X90238000Y-84849000D03*
D16*
%TO.P,K4,2*%
%TO.N,Net-(K4-Pad2)*%
X62738000Y-83599000D03*
%TO.P,K4,1*%
%TO.N,Net-(K4-Pad1)*%
X62738000Y-93599000D03*
%TD*%
%TO.P,K3,5*%
%TO.N,+5V*%
X20828000Y-88599000D03*
D17*
%TO.P,K3,4*%
%TO.N,Net-(J6-Pad2)*%
X55078000Y-92349000D03*
%TO.P,K3,3*%
%TO.N,Net-(J3-Pad2)*%
X48328000Y-84849000D03*
D16*
%TO.P,K3,2*%
%TO.N,Net-(K3-Pad2)*%
X20828000Y-83599000D03*
%TO.P,K3,1*%
%TO.N,Net-(K3-Pad1)*%
X20828000Y-93599000D03*
%TD*%
%TO.P,K2,7*%
%TO.N,+5V*%
X56896000Y-110116000D03*
%TO.P,K2,6*%
X51896000Y-110116000D03*
%TO.P,K2,5*%
%TO.N,Net-(C1-Pad1)*%
X36896000Y-110116000D03*
%TO.P,K2,4*%
%TO.N,Net-(J3-Pad2)*%
X33396000Y-102616000D03*
%TO.P,K2,3*%
%TO.N,Net-(J2-Pad2)*%
X40396000Y-102616000D03*
%TO.P,K2,2*%
%TO.N,Net-(K2-Pad2)*%
X51896000Y-102616000D03*
%TO.P,K2,1*%
%TO.N,Net-(K2-Pad1)*%
X56896000Y-102616000D03*
%TD*%
D18*
%TO.P,J5,20*%
%TO.N,GND*%
X42545000Y-17780000D03*
%TO.P,J5,19*%
%TO.N,/A19*%
X42545000Y-15240000D03*
%TO.P,J5,18*%
%TO.N,GND*%
X40005000Y-17780000D03*
%TO.P,J5,17*%
%TO.N,/A17*%
X40005000Y-15240000D03*
%TO.P,J5,16*%
%TO.N,GND*%
X37465000Y-17780000D03*
%TO.P,J5,15*%
%TO.N,/A15*%
X37465000Y-15240000D03*
%TO.P,J5,14*%
%TO.N,GND*%
X34925000Y-17780000D03*
%TO.P,J5,13*%
%TO.N,/A13*%
X34925000Y-15240000D03*
%TO.P,J5,12*%
%TO.N,/A12*%
X32385000Y-17780000D03*
%TO.P,J5,11*%
%TO.N,/A11*%
X32385000Y-15240000D03*
%TO.P,J5,10*%
%TO.N,/A10*%
X29845000Y-17780000D03*
%TO.P,J5,9*%
%TO.N,/A9*%
X29845000Y-15240000D03*
%TO.P,J5,8*%
%TO.N,/A8*%
X27305000Y-17780000D03*
%TO.P,J5,7*%
%TO.N,/A7*%
X27305000Y-15240000D03*
%TO.P,J5,6*%
%TO.N,/A6*%
X24765000Y-17780000D03*
%TO.P,J5,5*%
%TO.N,/A5*%
X24765000Y-15240000D03*
%TO.P,J5,4*%
%TO.N,/A4*%
X22225000Y-17780000D03*
%TO.P,J5,3*%
%TO.N,/A3*%
X22225000Y-15240000D03*
%TO.P,J5,2*%
%TO.N,/A2*%
X19685000Y-17780000D03*
D19*
%TO.P,J5,1*%
%TO.N,/A1*%
X19685000Y-15240000D03*
%TD*%
D20*
%TO.P,J4,2*%
%TO.N,Net-(J4-Pad2)*%
X81788000Y-19050000D03*
D21*
%TO.P,J4,1*%
%TO.N,Net-(J4-Pad1)*%
X76708000Y-19050000D03*
%TD*%
D22*
%TO.P,J3,2*%
%TO.N,Net-(J3-Pad2)*%
X20828000Y-110236000D03*
%TO.P,J3,1*%
%TO.N,Net-(C1-Pad2)*%
X20828000Y-105156000D03*
%TD*%
%TO.P,J2,2*%
%TO.N,Net-(J2-Pad2)*%
X20828000Y-121920000D03*
%TO.P,J2,1*%
%TO.N,Net-(C1-Pad2)*%
X20828000Y-116840000D03*
%TD*%
D23*
%TO.P,K1,11*%
%TO.N,Net-(J4-Pad2)*%
X85732000Y-109622000D03*
%TO.P,K1,12*%
%TO.N,Net-(C1-Pad2)*%
X80732000Y-109622000D03*
%TO.P,K1,14*%
%TO.N,Net-(J1-Pad1)*%
X90732000Y-109622000D03*
%TO.P,K1,21*%
%TO.N,Net-(J4-Pad1)*%
X85732000Y-102122000D03*
%TO.P,K1,22*%
%TO.N,+5V*%
X80732000Y-102122000D03*
%TO.P,K1,24*%
%TO.N,Net-(J1-Pad2)*%
X90732000Y-102122000D03*
%TO.P,K1,A1*%
%TO.N,Net-(J1-Pad1)*%
X65732000Y-109622000D03*
%TO.P,K1,A2*%
%TO.N,Net-(J1-Pad2)*%
X65732000Y-102122000D03*
%TD*%
D21*
%TO.P,J1,1*%
%TO.N,Net-(J1-Pad1)*%
X64008000Y-19050000D03*
D20*
%TO.P,J1,2*%
%TO.N,Net-(J1-Pad2)*%
X69088000Y-19050000D03*
%TD*%
D21*
%TO.P,J6,1*%
%TO.N,Net-(C1-Pad2)*%
X50800000Y-19050000D03*
D20*
%TO.P,J6,2*%
%TO.N,Net-(J6-Pad2)*%
X55880000Y-19050000D03*
%TD*%
D19*
%TO.P,J7,1*%
%TO.N,/A1*%
X88900000Y-15240000D03*
D18*
%TO.P,J7,2*%
%TO.N,/A2*%
X88900000Y-17780000D03*
%TO.P,J7,3*%
%TO.N,/A3*%
X91440000Y-15240000D03*
%TO.P,J7,4*%
%TO.N,/A4*%
X91440000Y-17780000D03*
%TO.P,J7,5*%
%TO.N,/A5*%
X93980000Y-15240000D03*
%TO.P,J7,6*%
%TO.N,/A6*%
X93980000Y-17780000D03*
%TO.P,J7,7*%
%TO.N,/A7*%
X96520000Y-15240000D03*
%TO.P,J7,8*%
%TO.N,/A8*%
X96520000Y-17780000D03*
%TO.P,J7,9*%
%TO.N,/A9*%
X99060000Y-15240000D03*
%TO.P,J7,10*%
%TO.N,/A10*%
X99060000Y-17780000D03*
%TO.P,J7,11*%
%TO.N,/A11*%
X101600000Y-15240000D03*
%TO.P,J7,12*%
%TO.N,/A12*%
X101600000Y-17780000D03*
%TO.P,J7,13*%
%TO.N,/A13*%
X104140000Y-15240000D03*
%TO.P,J7,14*%
%TO.N,GND*%
X104140000Y-17780000D03*
%TO.P,J7,15*%
%TO.N,/A15*%
X106680000Y-15240000D03*
%TO.P,J7,16*%
%TO.N,GND*%
X106680000Y-17780000D03*
%TO.P,J7,17*%
%TO.N,/A17*%
X109220000Y-15240000D03*
%TO.P,J7,18*%
%TO.N,GND*%
X109220000Y-17780000D03*
%TO.P,J7,19*%
%TO.N,/A19*%
X111760000Y-15240000D03*
%TO.P,J7,20*%
%TO.N,GND*%
X111760000Y-17780000D03*
%TD*%
D24*
%TO.P,H1,1*%
%TO.N,N/C*%
X19050000Y-24130000D03*
D25*
X19050000Y-24130000D03*
%TD*%
%TO.P,H2,1*%
%TO.N,N/C*%
X107950000Y-25400000D03*
D24*
X107950000Y-25400000D03*
%TD*%
%TO.P,H3,1*%
%TO.N,N/C*%
X33020000Y-119380000D03*
D25*
X33020000Y-119380000D03*
%TD*%
%TO.P,H4,1*%
%TO.N,N/C*%
X109220000Y-119380000D03*
D24*
X109220000Y-119380000D03*
%TD*%
D26*
%TO.P,C1,2*%
%TO.N,Net-(C1-Pad2)*%
X105490000Y-43815000D03*
%TO.P,C1,1*%
%TO.N,Net-(C1-Pad1)*%
X110490000Y-43815000D03*
%TD*%
%TO.P,C2,1*%
%TO.N,+24V*%
X110490000Y-36830000D03*
%TO.P,C2,2*%
%TO.N,Net-(C1-Pad2)*%
X105490000Y-36830000D03*
%TD*%
D20*
%TO.P,L1,1*%
%TO.N,+24V*%
X105410000Y-52070000D03*
%TO.P,L1,2*%
%TO.N,Net-(C1-Pad1)*%
X110410000Y-52070000D03*
%TD*%
D15*
%TO.P,Q1,2*%
%TO.N,Net-(Q1-Pad2)*%
X82550000Y-46355000D03*
%TO.P,Q1,3*%
%TO.N,Net-(C1-Pad2)*%
X82550000Y-47625000D03*
D14*
%TO.P,Q1,1*%
%TO.N,Net-(K2-Pad2)*%
X82550000Y-45085000D03*
%TD*%
D15*
%TO.P,Q2,2*%
%TO.N,/A9*%
X82550000Y-52070000D03*
%TO.P,Q2,3*%
%TO.N,Net-(C1-Pad2)*%
X82550000Y-53340000D03*
D14*
%TO.P,Q2,1*%
%TO.N,Net-(Q1-Pad2)*%
X82550000Y-50800000D03*
%TD*%
D15*
%TO.P,Q3,2*%
%TO.N,Net-(Q3-Pad2)*%
X82550000Y-57785000D03*
%TO.P,Q3,3*%
%TO.N,Net-(C1-Pad2)*%
X82550000Y-59055000D03*
D14*
%TO.P,Q3,1*%
%TO.N,Net-(K2-Pad1)*%
X82550000Y-56515000D03*
%TD*%
D15*
%TO.P,Q4,2*%
%TO.N,/A10*%
X73406000Y-57785000D03*
%TO.P,Q4,3*%
%TO.N,Net-(C1-Pad2)*%
X73406000Y-59055000D03*
D14*
%TO.P,Q4,1*%
%TO.N,Net-(Q3-Pad2)*%
X73406000Y-56515000D03*
%TD*%
%TO.P,Q5,1*%
%TO.N,Net-(K3-Pad1)*%
X73406000Y-50800000D03*
D15*
%TO.P,Q5,3*%
%TO.N,Net-(C1-Pad2)*%
X73406000Y-53340000D03*
%TO.P,Q5,2*%
%TO.N,Net-(Q5-Pad2)*%
X73406000Y-52070000D03*
%TD*%
%TO.P,Q6,2*%
%TO.N,/A7*%
X73406000Y-46355000D03*
%TO.P,Q6,3*%
%TO.N,Net-(C1-Pad2)*%
X73406000Y-47625000D03*
D14*
%TO.P,Q6,1*%
%TO.N,Net-(Q5-Pad2)*%
X73406000Y-45085000D03*
%TD*%
%TO.P,Q10,1*%
%TO.N,Net-(K3-Pad2)*%
X82550000Y-27940000D03*
D15*
%TO.P,Q10,3*%
%TO.N,Net-(C1-Pad2)*%
X82550000Y-30480000D03*
%TO.P,Q10,2*%
%TO.N,Net-(Q10-Pad2)*%
X82550000Y-29210000D03*
%TD*%
D14*
%TO.P,Q11,1*%
%TO.N,Net-(Q10-Pad2)*%
X82550000Y-33655000D03*
D15*
%TO.P,Q11,3*%
%TO.N,Net-(C1-Pad2)*%
X82550000Y-36195000D03*
%TO.P,Q11,2*%
%TO.N,/A8*%
X82550000Y-34925000D03*
%TD*%
D14*
%TO.P,Q12,1*%
%TO.N,Net-(Q12-Pad1)*%
X82550000Y-39370000D03*
D15*
%TO.P,Q12,3*%
%TO.N,Net-(C1-Pad2)*%
X82550000Y-41910000D03*
%TO.P,Q12,2*%
%TO.N,/A6*%
X82550000Y-40640000D03*
%TD*%
D12*
%TO.P,R5,2*%
%TO.N,+5V*%
X99401000Y-30506000D03*
D13*
%TO.P,R5,1*%
%TO.N,Net-(Q1-Pad2)*%
X89241000Y-30506000D03*
%TD*%
%TO.P,R6,1*%
%TO.N,/A9*%
X89241000Y-34556000D03*
D12*
%TO.P,R6,2*%
%TO.N,+5V*%
X99401000Y-34556000D03*
%TD*%
%TO.P,R7,2*%
%TO.N,+5V*%
X99695000Y-38735000D03*
D13*
%TO.P,R7,1*%
%TO.N,Net-(Q3-Pad2)*%
X89535000Y-38735000D03*
%TD*%
%TO.P,R8,1*%
%TO.N,/A10*%
X89533000Y-42527000D03*
D12*
%TO.P,R8,2*%
%TO.N,+5V*%
X99693000Y-42527000D03*
%TD*%
D13*
%TO.P,R9,1*%
%TO.N,Net-(Q5-Pad2)*%
X89533000Y-46577000D03*
D12*
%TO.P,R9,2*%
%TO.N,Net-(R10-Pad2)*%
X99693000Y-46577000D03*
%TD*%
%TO.P,R10,2*%
%TO.N,Net-(R10-Pad2)*%
X99695000Y-50165000D03*
D13*
%TO.P,R10,1*%
%TO.N,/A7*%
X89535000Y-50165000D03*
%TD*%
%TO.P,R14,1*%
%TO.N,Net-(Q10-Pad2)*%
X89535000Y-64135000D03*
D12*
%TO.P,R14,2*%
%TO.N,Net-(R10-Pad2)*%
X99695000Y-64135000D03*
%TD*%
D13*
%TO.P,R15,1*%
%TO.N,/A8*%
X89535000Y-67945000D03*
D12*
%TO.P,R15,2*%
%TO.N,Net-(R10-Pad2)*%
X99695000Y-67945000D03*
%TD*%
%TO.P,R16,2*%
%TO.N,+5V*%
X99695000Y-71755000D03*
D13*
%TO.P,R16,1*%
%TO.N,/A6*%
X89535000Y-71755000D03*
%TD*%
D27*
%TO.N,GND*%
X71501400Y-16821700D03*
%TO.N,Net-(K2-Pad1)*%
X79174100Y-83110700D03*
%TO.N,Net-(K2-Pad2)*%
X78037300Y-83045000D03*
%TO.N,Net-(K3-Pad1)*%
X70368700Y-61996600D03*
%TO.N,Net-(Q7-Pad2)*%
X94682500Y-34627000D03*
%TO.N,Net-(K4-Pad1)*%
X69551100Y-86785900D03*
%TO.N,Net-(K3-Pad2)*%
X87430700Y-61046300D03*
%TO.N,Net-(K4-Pad2)*%
X65785400Y-43468800D03*
%TO.N,/A17*%
X98784400Y-13683300D03*
%TO.N,/A15*%
X47161300Y-17702800D03*
%TO.N,/A13*%
X48411300Y-17701900D03*
%TO.N,/A10*%
X49617300Y-37900000D03*
%TO.N,/A9*%
X101829100Y-12823000D03*
X87117100Y-49641700D03*
%TO.N,/A8*%
X91081600Y-25866300D03*
%TO.N,/A6*%
X89548400Y-40630700D03*
X80044000Y-31926600D03*
%TO.N,/A5*%
X87809800Y-27564200D03*
%TO.N,/A4*%
X84442700Y-17275400D03*
X58104000Y-32360400D03*
%TO.N,/A3*%
X87804900Y-26463800D03*
X59249900Y-33563300D03*
%TO.N,/A2*%
X77812000Y-15326400D03*
%TO.N,/A1*%
X47637800Y-14473400D03*
%TD*%
D28*
%TO.N,GND*%
X49145700Y-24832100D02*
X53727800Y-20250000D01*
X53727800Y-20250000D02*
X53727800Y-18434900D01*
X53727800Y-18434900D02*
X55467500Y-16695200D01*
X55467500Y-16695200D02*
X71374900Y-16695200D01*
X71374900Y-16695200D02*
X71501400Y-16821700D01*
X42545000Y-19080300D02*
X48296800Y-24832100D01*
X48296800Y-24832100D02*
X49145700Y-24832100D01*
X49145700Y-24832100D02*
X51105900Y-26792300D01*
X51105900Y-26792300D02*
X51105900Y-87392800D01*
X51105900Y-87392800D02*
X48017600Y-90481100D01*
X48017600Y-90481100D02*
X48017600Y-117737100D01*
X48017600Y-117737100D02*
X44450000Y-121304700D01*
X48017600Y-117737100D02*
X54119800Y-123839300D01*
X54119800Y-123839300D02*
X66045400Y-123839300D01*
X66045400Y-123839300D02*
X67710700Y-122174000D01*
X68961000Y-122174000D02*
X67710700Y-122174000D01*
X42545000Y-17780000D02*
X42545000Y-19080300D01*
X44450000Y-122555000D02*
X44450000Y-121304700D01*
%TO.N,Net-(Q1-Pad2)*%
X83750300Y-46355000D02*
X83750300Y-44339600D01*
X83750300Y-44339600D02*
X83444500Y-44033800D01*
X83444500Y-44033800D02*
X82998800Y-44033800D01*
X82998800Y-44033800D02*
X79193500Y-40228500D01*
X79193500Y-40228500D02*
X79193500Y-29344800D01*
X79193500Y-29344800D02*
X81573700Y-26964600D01*
X81573700Y-26964600D02*
X84954400Y-26964600D01*
X84954400Y-26964600D02*
X88495800Y-30506000D01*
X88495800Y-30506000D02*
X89241000Y-30506000D01*
X83600200Y-46355000D02*
X83750300Y-46355000D01*
X82550000Y-46355000D02*
X83600200Y-46355000D01*
X82550000Y-50800000D02*
X82550000Y-49824700D01*
X82550000Y-49824700D02*
X83750300Y-48624400D01*
X83750300Y-48624400D02*
X83750300Y-46355000D01*
%TO.N,+5V*%
X99401000Y-34556000D02*
X99401000Y-30506000D01*
X99695000Y-37484700D02*
X99401000Y-37190700D01*
X99401000Y-37190700D02*
X99401000Y-34556000D01*
X99695000Y-71755000D02*
X99695000Y-70504700D01*
X89535000Y-60325000D02*
X89535000Y-61575300D01*
X89535000Y-61575300D02*
X98464400Y-70504700D01*
X98464400Y-70504700D02*
X99695000Y-70504700D01*
X89535000Y-57023000D02*
X89535000Y-60325000D01*
X62738000Y-88599000D02*
X61312600Y-90024400D01*
X61312600Y-90024400D02*
X61312600Y-105699400D01*
X61312600Y-105699400D02*
X56896000Y-110116000D01*
X65405000Y-56388000D02*
X64163400Y-57629600D01*
X64163400Y-57629600D02*
X64163400Y-87173600D01*
X64163400Y-87173600D02*
X62738000Y-88599000D01*
X99695000Y-38735000D02*
X99695000Y-37484700D01*
X99695000Y-38735000D02*
X99695000Y-41274700D01*
X99695000Y-41274700D02*
X99693000Y-41276700D01*
X99693000Y-42527000D02*
X99693000Y-41276700D01*
X89535000Y-53467000D02*
X89535000Y-57023000D01*
%TO.N,Net-(J1-Pad2)*%
X69088000Y-19050000D02*
X68669700Y-19468300D01*
X68669700Y-19468300D02*
X68669700Y-99184300D01*
X68669700Y-99184300D02*
X65732000Y-102122000D01*
%TO.N,Net-(J1-Pad1)*%
X64008000Y-19050000D02*
X64008000Y-20800300D01*
X64008000Y-20800300D02*
X66639100Y-23431400D01*
X66639100Y-23431400D02*
X66639100Y-98795300D01*
X66639100Y-98795300D02*
X64134500Y-101299900D01*
X64134500Y-101299900D02*
X64134500Y-108024500D01*
X64134500Y-108024500D02*
X65732000Y-109622000D01*
D29*
%TO.N,Net-(J2-Pad2)*%
X20828000Y-121920000D02*
X23878300Y-121920000D01*
X23878300Y-121920000D02*
X26033700Y-124075400D01*
X26033700Y-124075400D02*
X37849600Y-124075400D01*
X37849600Y-124075400D02*
X44450000Y-117475000D01*
X40396000Y-102616000D02*
X44450000Y-106670000D01*
X44450000Y-106670000D02*
X44450000Y-117475000D01*
D28*
%TO.N,Net-(J4-Pad1)*%
X76708000Y-19050000D02*
X76708000Y-20800300D01*
X85732000Y-102122000D02*
X76580100Y-92970100D01*
X76580100Y-92970100D02*
X76580100Y-20928200D01*
X76580100Y-20928200D02*
X76708000Y-20800300D01*
%TO.N,Net-(J4-Pad2)*%
X85732000Y-109622000D02*
X87321300Y-108032700D01*
X87321300Y-108032700D02*
X87321300Y-96102300D01*
X87321300Y-96102300D02*
X77180500Y-85961500D01*
X77180500Y-85961500D02*
X77180500Y-23657500D01*
X77180500Y-23657500D02*
X81788000Y-19050000D01*
%TO.N,Net-(K2-Pad1)*%
X81349700Y-56515000D02*
X81349700Y-80935100D01*
X81349700Y-80935100D02*
X79174100Y-83110700D01*
X82550000Y-56515000D02*
X81349700Y-56515000D01*
%TO.N,Net-(K2-Pad2)*%
X78037300Y-83045000D02*
X78037300Y-48397400D01*
X78037300Y-48397400D02*
X81349700Y-45085000D01*
X82550000Y-45085000D02*
X81349700Y-45085000D01*
%TO.N,Net-(K3-Pad1)*%
X72205700Y-50800000D02*
X72205700Y-60159600D01*
X72205700Y-60159600D02*
X70368700Y-61996600D01*
X73406000Y-50800000D02*
X72205700Y-50800000D01*
%TO.N,Net-(Q5-Pad2)*%
X73406000Y-52070000D02*
X74606300Y-52070000D01*
X73406000Y-45085000D02*
X74606300Y-45085000D01*
X74606300Y-45085000D02*
X74606300Y-52070000D01*
%TO.N,Net-(Q7-Pad2)*%
X99695000Y-53467000D02*
X94682500Y-48454500D01*
X94682500Y-48454500D02*
X94682500Y-34627000D01*
X73406000Y-33782000D02*
X73406000Y-32806700D01*
X73279000Y-29210000D02*
X72078700Y-29210000D01*
X72078700Y-29210000D02*
X72078700Y-31479400D01*
X72078700Y-31479400D02*
X73406000Y-32806700D01*
D29*
%TO.N,Net-(J3-Pad2)*%
X33396000Y-102616000D02*
X33396000Y-99781000D01*
X33396000Y-99781000D02*
X48328000Y-84849000D01*
X20828000Y-110236000D02*
X25776000Y-110236000D01*
X25776000Y-110236000D02*
X33396000Y-102616000D01*
D28*
%TO.N,Net-(K4-Pad1)*%
X72078700Y-27940000D02*
X69518400Y-30500300D01*
X69518400Y-30500300D02*
X69518400Y-86753200D01*
X69518400Y-86753200D02*
X69551100Y-86785900D01*
X73279000Y-27940000D02*
X72078700Y-27940000D01*
D29*
%TO.N,Net-(J6-Pad2)*%
X55078000Y-92349000D02*
X55880000Y-91547000D01*
X55880000Y-91547000D02*
X55880000Y-19050000D01*
D28*
%TO.N,Net-(K3-Pad2)*%
X87430700Y-61046300D02*
X86266700Y-59882300D01*
X86266700Y-59882300D02*
X86266700Y-30456400D01*
X86266700Y-30456400D02*
X83750300Y-27940000D01*
X82550000Y-27940000D02*
X83750300Y-27940000D01*
%TO.N,Net-(K4-Pad2)*%
X62738000Y-83599000D02*
X62738000Y-46516200D01*
X62738000Y-46516200D02*
X65785400Y-43468800D01*
%TO.N,/A19*%
X43845300Y-15240000D02*
X43845300Y-15650700D01*
X43845300Y-15650700D02*
X49033200Y-20838600D01*
X49033200Y-20838600D02*
X52290300Y-20838600D01*
X52290300Y-20838600D02*
X52915500Y-20213400D01*
X52915500Y-20213400D02*
X52915500Y-18398100D01*
X52915500Y-18398100D02*
X55342200Y-15971400D01*
X55342200Y-15971400D02*
X77254600Y-15971400D01*
X77254600Y-15971400D02*
X77507300Y-16224100D01*
X77507300Y-16224100D02*
X82897000Y-16224100D01*
X82897000Y-16224100D02*
X87148400Y-11972700D01*
X87148400Y-11972700D02*
X108492700Y-11972700D01*
X108492700Y-11972700D02*
X111760000Y-15240000D01*
X42545000Y-15240000D02*
X43845300Y-15240000D01*
%TO.N,/A17*%
X109220000Y-15240000D02*
X107663300Y-13683300D01*
X107663300Y-13683300D02*
X98784400Y-13683300D01*
%TO.N,/A15*%
X37465000Y-15240000D02*
X38823400Y-13881600D01*
X38823400Y-13881600D02*
X43340100Y-13881600D01*
X43340100Y-13881600D02*
X47161300Y-17702800D01*
%TO.N,/A13*%
X34925000Y-15240000D02*
X36929400Y-13235600D01*
X36929400Y-13235600D02*
X43945000Y-13235600D01*
X43945000Y-13235600D02*
X48411300Y-17701900D01*
%TO.N,/A10*%
X99060000Y-17780000D02*
X99060000Y-19080300D01*
X89533000Y-42527000D02*
X93364600Y-38695400D01*
X93364600Y-38695400D02*
X93364600Y-24775700D01*
X93364600Y-24775700D02*
X99060000Y-19080300D01*
X29845000Y-17780000D02*
X29845000Y-19080300D01*
X49617300Y-37900000D02*
X30797600Y-19080300D01*
X30797600Y-19080300D02*
X29845000Y-19080300D01*
%TO.N,/A9*%
X89241000Y-34556000D02*
X87064400Y-36732600D01*
X87064400Y-36732600D02*
X87064400Y-49589000D01*
X87064400Y-49589000D02*
X87117100Y-49641700D01*
X101829100Y-12823000D02*
X98431400Y-12823000D01*
X98431400Y-12823000D02*
X97925400Y-13329000D01*
X97925400Y-13329000D02*
X97925400Y-14105400D01*
X97925400Y-14105400D02*
X99060000Y-15240000D01*
%TO.N,/A8*%
X91081600Y-25866300D02*
X91081600Y-24518700D01*
X91081600Y-24518700D02*
X96520000Y-19080300D01*
X96520000Y-17780000D02*
X96520000Y-19080300D01*
X89535000Y-67945000D02*
X85066100Y-63476100D01*
X85066100Y-63476100D02*
X85066100Y-36240800D01*
X85066100Y-36240800D02*
X83750300Y-34925000D01*
X82550000Y-34925000D02*
X83750300Y-34925000D01*
%TO.N,/A7*%
X89535000Y-50165000D02*
X87664800Y-48294800D01*
X87664800Y-48294800D02*
X87664800Y-37926700D01*
X87664800Y-37926700D02*
X90509700Y-35081800D01*
X90509700Y-35081800D02*
X90509700Y-29978200D01*
X90509700Y-29978200D02*
X89546300Y-29014800D01*
X89546300Y-29014800D02*
X87993000Y-29014800D01*
X87993000Y-29014800D02*
X86299200Y-27321000D01*
X86299200Y-27321000D02*
X86299200Y-13671000D01*
X86299200Y-13671000D02*
X87248400Y-12721800D01*
X87248400Y-12721800D02*
X94001800Y-12721800D01*
X94001800Y-12721800D02*
X96520000Y-15240000D01*
%TO.N,/A6*%
X93980000Y-17780000D02*
X93980000Y-19080300D01*
X93980000Y-19080300D02*
X90231200Y-22829100D01*
X90231200Y-22829100D02*
X90231200Y-26266200D01*
X90231200Y-26266200D02*
X91717600Y-27752600D01*
X91717600Y-27752600D02*
X91717600Y-38461500D01*
X91717600Y-38461500D02*
X89548400Y-40630700D01*
X81349700Y-40640000D02*
X80044000Y-39334300D01*
X80044000Y-39334300D02*
X80044000Y-31926600D01*
X82550000Y-40640000D02*
X83750300Y-40640000D01*
X83750300Y-40640000D02*
X84377900Y-41267600D01*
X84377900Y-41267600D02*
X84377900Y-66597900D01*
X84377900Y-66597900D02*
X89535000Y-71755000D01*
X82504900Y-40640000D02*
X82550000Y-40640000D01*
X82504900Y-40640000D02*
X81349700Y-40640000D01*
%TO.N,/A5*%
X87809800Y-27564200D02*
X88944800Y-27564200D01*
X88944800Y-27564200D02*
X91110100Y-29729500D01*
X91110100Y-29729500D02*
X91110100Y-35330500D01*
X91110100Y-35330500D02*
X88276800Y-38163800D01*
X88276800Y-38163800D02*
X88276800Y-43099800D01*
X88276800Y-43099800D02*
X97389400Y-52212400D01*
X97389400Y-52212400D02*
X97389400Y-54717400D01*
X97389400Y-54717400D02*
X99695000Y-57023000D01*
X93980000Y-15240000D02*
X92071000Y-13331000D01*
X92071000Y-13331000D02*
X87501100Y-13331000D01*
X87501100Y-13331000D02*
X86917900Y-13914200D01*
X86917900Y-13914200D02*
X86917900Y-26779200D01*
X86917900Y-26779200D02*
X87702900Y-27564200D01*
X87702900Y-27564200D02*
X87809800Y-27564200D01*
%TO.N,/A4*%
X84442700Y-17275400D02*
X74441200Y-17275400D01*
X74441200Y-17275400D02*
X73998700Y-17717900D01*
X73998700Y-17717900D02*
X70317900Y-17717900D01*
X70317900Y-17717900D02*
X69899600Y-17299600D01*
X69899600Y-17299600D02*
X62469200Y-17299600D01*
X62469200Y-17299600D02*
X58104000Y-21664800D01*
X58104000Y-21664800D02*
X58104000Y-32360400D01*
X54610000Y-117475000D02*
X54610000Y-100451900D01*
X54610000Y-100451900D02*
X58104000Y-96957900D01*
X58104000Y-96957900D02*
X58104000Y-32360400D01*
X54610000Y-117475000D02*
X54610000Y-122555000D01*
%TO.N,/A3*%
X91440000Y-15240000D02*
X90139600Y-13939600D01*
X90139600Y-13939600D02*
X87799700Y-13939600D01*
X87799700Y-13939600D02*
X87571600Y-14167700D01*
X87571600Y-14167700D02*
X87571600Y-26230500D01*
X87571600Y-26230500D02*
X87804900Y-26463800D01*
X58801000Y-116351700D02*
X55454100Y-113004800D01*
X55454100Y-113004800D02*
X55454100Y-108191100D01*
X55454100Y-108191100D02*
X59249900Y-104395300D01*
X59249900Y-104395300D02*
X59249900Y-33563300D01*
X58801000Y-117602000D02*
X58801000Y-116351700D01*
X58801000Y-117602000D02*
X58801000Y-122174000D01*
%TO.N,/A2*%
X77812000Y-15326400D02*
X74520400Y-12034800D01*
X74520400Y-12034800D02*
X20550900Y-12034800D01*
X20550900Y-12034800D02*
X18384600Y-14201100D01*
X18384600Y-14201100D02*
X18384600Y-16479600D01*
X18384600Y-16479600D02*
X19685000Y-17780000D01*
%TO.N,/A1*%
X19685000Y-15240000D02*
X22289800Y-12635200D01*
X22289800Y-12635200D02*
X45799600Y-12635200D01*
X45799600Y-12635200D02*
X47637800Y-14473400D01*
%TO.N,Net-(C1-Pad2)*%
X73406000Y-41910000D02*
X73406000Y-42885300D01*
X73406000Y-47625000D02*
X72205700Y-47625000D01*
X72205700Y-47625000D02*
X72205700Y-44085600D01*
X72205700Y-44085600D02*
X73406000Y-42885300D01*
X20828000Y-105156000D02*
X20828000Y-103455700D01*
X19685000Y-48768000D02*
X18422600Y-50030400D01*
X18422600Y-50030400D02*
X18422600Y-101050300D01*
X18422600Y-101050300D02*
X20828000Y-103455700D01*
X82550000Y-30480000D02*
X82550000Y-31455300D01*
X82550000Y-36195000D02*
X81349700Y-36195000D01*
X81349700Y-36195000D02*
X81349700Y-32655600D01*
X81349700Y-32655600D02*
X82550000Y-31455300D01*
X74606200Y-59055000D02*
X74606200Y-103496200D01*
X74606200Y-103496200D02*
X80732000Y-109622000D01*
X74606200Y-59055000D02*
X74606300Y-59055000D01*
X73406000Y-59055000D02*
X74456200Y-59055000D01*
X74456200Y-59055000D02*
X74606200Y-59055000D01*
X73406000Y-53340000D02*
X73406000Y-54315300D01*
X73406000Y-54315300D02*
X74606300Y-55515600D01*
X74606300Y-55515600D02*
X74606300Y-59055000D01*
X73406000Y-41910000D02*
X74606300Y-41910000D01*
X74606300Y-36322000D02*
X74606300Y-41910000D01*
X74456200Y-36322000D02*
X74606300Y-36322000D01*
X74606300Y-36322000D02*
X74606300Y-32782600D01*
X74606300Y-32782600D02*
X73279000Y-31455300D01*
X73406000Y-36322000D02*
X74456200Y-36322000D01*
X73279000Y-30480000D02*
X73279000Y-31455300D01*
X20828000Y-106856300D02*
X18877700Y-108806600D01*
X18877700Y-108806600D02*
X18877700Y-113189400D01*
X18877700Y-113189400D02*
X20828000Y-115139700D01*
X20828000Y-106006100D02*
X20828000Y-105156000D01*
X20828000Y-106006100D02*
X20828000Y-106856300D01*
X20828000Y-116840000D02*
X20828000Y-115139700D01*
X105490000Y-36830000D02*
X105490000Y-43815000D01*
X82550000Y-53340000D02*
X81349700Y-53340000D01*
X82550000Y-47625000D02*
X82550000Y-48600300D01*
X82550000Y-48600300D02*
X81349700Y-49800600D01*
X81349700Y-49800600D02*
X81349700Y-53340000D01*
X82550000Y-59055000D02*
X83750300Y-59055000D01*
X82550000Y-53340000D02*
X82550000Y-54315300D01*
X82550000Y-54315300D02*
X83750300Y-55515600D01*
X83750300Y-55515600D02*
X83750300Y-59055000D01*
%TO.N,Net-(C1-Pad1)*%
X110410000Y-52070000D02*
X110490000Y-51990000D01*
X110490000Y-51990000D02*
X110490000Y-43815000D01*
%TO.N,Net-(Q10-Pad2)*%
X89535000Y-64135000D02*
X89314200Y-64135000D01*
X89314200Y-64135000D02*
X85666400Y-60487200D01*
X85666400Y-60487200D02*
X85666400Y-35571100D01*
X85666400Y-35571100D02*
X83750300Y-33655000D01*
X82550000Y-29210000D02*
X83750300Y-29210000D01*
X83750300Y-33655000D02*
X83750300Y-29210000D01*
X83600200Y-33655000D02*
X83750300Y-33655000D01*
X82550000Y-33655000D02*
X83600200Y-33655000D01*
%TO.N,Net-(R10-Pad2)*%
X99695000Y-64135000D02*
X99695000Y-62884700D01*
X99695000Y-62884700D02*
X100968800Y-61610900D01*
X100968800Y-61610900D02*
X100968800Y-52689100D01*
X100968800Y-52689100D02*
X99695000Y-51415300D01*
X99695000Y-67945000D02*
X99695000Y-64135000D01*
X99695000Y-50165000D02*
X99695000Y-51415300D01*
X99693000Y-46577000D02*
X99693000Y-47827300D01*
X99693000Y-47827300D02*
X99695000Y-47829300D01*
X99695000Y-47829300D02*
X99695000Y-50165000D01*
%TO.N,+24V*%
X105410000Y-52070000D02*
X107990000Y-49490000D01*
X107990000Y-49490000D02*
X107990000Y-39330000D01*
X107990000Y-39330000D02*
X110490000Y-36830000D01*
%TD*%
M02*
