%TF.GenerationSoftware,KiCad,Pcbnew,(5.1.6)-1*%
%TF.CreationDate,2021-11-19T15:30:18+01:00*%
%TF.ProjectId,FoxRobot,466f7852-6f62-46f7-942e-6b696361645f,V01*%
%TF.SameCoordinates,Original*%
%TF.FileFunction,Other,Fab,Top*%
%FSLAX46Y46*%
G04 Gerber Fmt 4.6, Leading zero omitted, Abs format (unit mm)*
G04 Created by KiCad (PCBNEW (5.1.6)-1) date 2021-11-19 15:30:18*
%MOMM*%
%LPD*%
G01*
G04 APERTURE LIST*
%ADD10C,0.120000*%
%ADD11C,0.100000*%
%ADD12C,0.200000*%
%ADD13C,0.150000*%
%ADD14C,0.254000*%
G04 APERTURE END LIST*
D10*
%TO.C,U1*%
X67945000Y-30988000D02*
X17145000Y-30988000D01*
X67945000Y-71628000D02*
X17145000Y-71628000D01*
D11*
%TO.C,R13*%
X97765000Y-61575000D02*
X97765000Y-59075000D01*
X97765000Y-59075000D02*
X91465000Y-59075000D01*
X91465000Y-59075000D02*
X91465000Y-61575000D01*
X91465000Y-61575000D02*
X97765000Y-61575000D01*
X99695000Y-60325000D02*
X97765000Y-60325000D01*
X89535000Y-60325000D02*
X91465000Y-60325000D01*
%TO.C,R12*%
X97765000Y-58273000D02*
X97765000Y-55773000D01*
X97765000Y-55773000D02*
X91465000Y-55773000D01*
X91465000Y-55773000D02*
X91465000Y-58273000D01*
X91465000Y-58273000D02*
X97765000Y-58273000D01*
X99695000Y-57023000D02*
X97765000Y-57023000D01*
X89535000Y-57023000D02*
X91465000Y-57023000D01*
%TO.C,R11*%
X97765000Y-54717000D02*
X97765000Y-52217000D01*
X97765000Y-52217000D02*
X91465000Y-52217000D01*
X91465000Y-52217000D02*
X91465000Y-54717000D01*
X91465000Y-54717000D02*
X97765000Y-54717000D01*
X99695000Y-53467000D02*
X97765000Y-53467000D01*
X89535000Y-53467000D02*
X91465000Y-53467000D01*
%TO.C,R4*%
X60731000Y-120924000D02*
X60731000Y-123424000D01*
X60731000Y-123424000D02*
X67031000Y-123424000D01*
X67031000Y-123424000D02*
X67031000Y-120924000D01*
X67031000Y-120924000D02*
X60731000Y-120924000D01*
X58801000Y-122174000D02*
X60731000Y-122174000D01*
X68961000Y-122174000D02*
X67031000Y-122174000D01*
%TO.C,R3*%
X52680000Y-123805000D02*
X52680000Y-121305000D01*
X52680000Y-121305000D02*
X46380000Y-121305000D01*
X46380000Y-121305000D02*
X46380000Y-123805000D01*
X46380000Y-123805000D02*
X52680000Y-123805000D01*
X54610000Y-122555000D02*
X52680000Y-122555000D01*
X44450000Y-122555000D02*
X46380000Y-122555000D01*
%TO.C,R2*%
X67031000Y-118852000D02*
X67031000Y-116352000D01*
X67031000Y-116352000D02*
X60731000Y-116352000D01*
X60731000Y-116352000D02*
X60731000Y-118852000D01*
X60731000Y-118852000D02*
X67031000Y-118852000D01*
X68961000Y-117602000D02*
X67031000Y-117602000D01*
X58801000Y-117602000D02*
X60731000Y-117602000D01*
%TO.C,R1*%
X46380000Y-116225000D02*
X46380000Y-118725000D01*
X46380000Y-118725000D02*
X52680000Y-118725000D01*
X52680000Y-118725000D02*
X52680000Y-116225000D01*
X52680000Y-116225000D02*
X46380000Y-116225000D01*
X44450000Y-117475000D02*
X46380000Y-117475000D01*
X54610000Y-117475000D02*
X52680000Y-117475000D01*
%TO.C,Q9*%
X71656000Y-38870000D02*
X71656000Y-42370000D01*
X71652375Y-38886375D02*
G75*
G02*
X75886000Y-40640000I1753625J-1753625D01*
G01*
X71652375Y-42393625D02*
G75*
G03*
X75886000Y-40640000I1753625J1753625D01*
G01*
%TO.C,Q8*%
X71656000Y-33282000D02*
X71656000Y-36782000D01*
X71652375Y-33298375D02*
G75*
G02*
X75886000Y-35052000I1753625J-1753625D01*
G01*
X71652375Y-36805625D02*
G75*
G03*
X75886000Y-35052000I1753625J1753625D01*
G01*
%TO.C,Q7*%
X71529000Y-27440000D02*
X71529000Y-30940000D01*
X71525375Y-27456375D02*
G75*
G02*
X75759000Y-29210000I1753625J-1753625D01*
G01*
X71525375Y-30963625D02*
G75*
G03*
X75759000Y-29210000I1753625J1753625D01*
G01*
D12*
%TO.C,K4*%
X60363000Y-96099000D02*
X99363000Y-96099000D01*
X99363000Y-96099000D02*
X99363000Y-81099000D01*
X99363000Y-81099000D02*
X60363000Y-81099000D01*
X60363000Y-81099000D02*
X60363000Y-96099000D01*
%TO.C,K3*%
X18453000Y-96099000D02*
X57453000Y-96099000D01*
X57453000Y-96099000D02*
X57453000Y-81099000D01*
X57453000Y-81099000D02*
X18453000Y-81099000D01*
X18453000Y-81099000D02*
X18453000Y-96099000D01*
%TO.C,K2*%
X58996000Y-112716000D02*
X30196000Y-112716000D01*
X30196000Y-112716000D02*
X30196000Y-99916000D01*
X30196000Y-99916000D02*
X58996000Y-99916000D01*
X58996000Y-99916000D02*
X58996000Y-112716000D01*
D11*
%TO.C,J5*%
X18415000Y-19050000D02*
X18415000Y-14970000D01*
X18415000Y-14970000D02*
X19415000Y-13970000D01*
X19415000Y-13970000D02*
X43815000Y-13970000D01*
X43815000Y-13970000D02*
X43815000Y-19050000D01*
X43815000Y-19050000D02*
X18415000Y-19050000D01*
%TO.C,J4*%
X78208000Y-19050000D02*
G75*
G03*
X78208000Y-19050000I-1500000J0D01*
G01*
X83288000Y-19050000D02*
G75*
G03*
X83288000Y-19050000I-1500000J0D01*
G01*
X74168000Y-13850000D02*
X84328000Y-13850000D01*
X84328000Y-13850000D02*
X84328000Y-23650000D01*
X84328000Y-23650000D02*
X74668000Y-23650000D01*
X74668000Y-23650000D02*
X74168000Y-23150000D01*
X74168000Y-23150000D02*
X74168000Y-13850000D01*
X74168000Y-23150000D02*
X84328000Y-23150000D01*
X74168000Y-21650000D02*
X84328000Y-21650000D01*
X74168000Y-16750000D02*
X84328000Y-16750000D01*
X77846000Y-18095000D02*
X75753000Y-20188000D01*
X77663000Y-17912000D02*
X75570000Y-20005000D01*
X82926000Y-18095000D02*
X80834000Y-20188000D01*
X82743000Y-17912000D02*
X80651000Y-20005000D01*
D12*
%TO.C,K1*%
X92732000Y-112072000D02*
X92732000Y-99672000D01*
X63732000Y-112072000D02*
X92732000Y-112072000D01*
X63732000Y-99672000D02*
X63732000Y-112072000D01*
X92732000Y-99672000D02*
X63732000Y-99672000D01*
D11*
%TO.C,J1*%
X70043000Y-17912000D02*
X67951000Y-20005000D01*
X70226000Y-18095000D02*
X68134000Y-20188000D01*
X64963000Y-17912000D02*
X62870000Y-20005000D01*
X65146000Y-18095000D02*
X63053000Y-20188000D01*
X61468000Y-16750000D02*
X71628000Y-16750000D01*
X61468000Y-21650000D02*
X71628000Y-21650000D01*
X61468000Y-23150000D02*
X71628000Y-23150000D01*
X61468000Y-23150000D02*
X61468000Y-13850000D01*
X61968000Y-23650000D02*
X61468000Y-23150000D01*
X71628000Y-23650000D02*
X61968000Y-23650000D01*
X71628000Y-13850000D02*
X71628000Y-23650000D01*
X61468000Y-13850000D02*
X71628000Y-13850000D01*
X70588000Y-19050000D02*
G75*
G03*
X70588000Y-19050000I-1500000J0D01*
G01*
X65508000Y-19050000D02*
G75*
G03*
X65508000Y-19050000I-1500000J0D01*
G01*
%TO.C,J6*%
X56835000Y-17912000D02*
X54743000Y-20005000D01*
X57018000Y-18095000D02*
X54926000Y-20188000D01*
X51755000Y-17912000D02*
X49662000Y-20005000D01*
X51938000Y-18095000D02*
X49845000Y-20188000D01*
X48260000Y-16750000D02*
X58420000Y-16750000D01*
X48260000Y-21650000D02*
X58420000Y-21650000D01*
X48260000Y-23150000D02*
X58420000Y-23150000D01*
X48260000Y-23150000D02*
X48260000Y-13850000D01*
X48760000Y-23650000D02*
X48260000Y-23150000D01*
X58420000Y-23650000D02*
X48760000Y-23650000D01*
X58420000Y-13850000D02*
X58420000Y-23650000D01*
X48260000Y-13850000D02*
X58420000Y-13850000D01*
X57380000Y-19050000D02*
G75*
G03*
X57380000Y-19050000I-1500000J0D01*
G01*
X52300000Y-19050000D02*
G75*
G03*
X52300000Y-19050000I-1500000J0D01*
G01*
%TO.C,J7*%
X113030000Y-19050000D02*
X87630000Y-19050000D01*
X113030000Y-13970000D02*
X113030000Y-19050000D01*
X88630000Y-13970000D02*
X113030000Y-13970000D01*
X87630000Y-14970000D02*
X88630000Y-13970000D01*
X87630000Y-19050000D02*
X87630000Y-14970000D01*
%TO.C,C1*%
X111740000Y-45065000D02*
X111740000Y-42565000D01*
X111740000Y-42565000D02*
X104240000Y-42565000D01*
X104240000Y-42565000D02*
X104240000Y-45065000D01*
X104240000Y-45065000D02*
X111740000Y-45065000D01*
%TO.C,C2*%
X104240000Y-38080000D02*
X111740000Y-38080000D01*
X104240000Y-35580000D02*
X104240000Y-38080000D01*
X111740000Y-35580000D02*
X104240000Y-35580000D01*
X111740000Y-38080000D02*
X111740000Y-35580000D01*
%TO.C,L1*%
X112910000Y-52070000D02*
G75*
G03*
X112910000Y-52070000I-5000000J0D01*
G01*
%TO.C,Q1*%
X80800000Y-44585000D02*
X80800000Y-48085000D01*
X80796375Y-48108625D02*
G75*
G03*
X85030000Y-46355000I1753625J1753625D01*
G01*
X80796375Y-44601375D02*
G75*
G02*
X85030000Y-46355000I1753625J-1753625D01*
G01*
%TO.C,Q2*%
X80800000Y-50300000D02*
X80800000Y-53800000D01*
X80796375Y-53823625D02*
G75*
G03*
X85030000Y-52070000I1753625J1753625D01*
G01*
X80796375Y-50316375D02*
G75*
G02*
X85030000Y-52070000I1753625J-1753625D01*
G01*
%TO.C,Q3*%
X80800000Y-56015000D02*
X80800000Y-59515000D01*
X80796375Y-59538625D02*
G75*
G03*
X85030000Y-57785000I1753625J1753625D01*
G01*
X80796375Y-56031375D02*
G75*
G02*
X85030000Y-57785000I1753625J-1753625D01*
G01*
%TO.C,Q4*%
X71656000Y-56015000D02*
X71656000Y-59515000D01*
X71652375Y-59538625D02*
G75*
G03*
X75886000Y-57785000I1753625J1753625D01*
G01*
X71652375Y-56031375D02*
G75*
G02*
X75886000Y-57785000I1753625J-1753625D01*
G01*
%TO.C,Q5*%
X71652375Y-50316375D02*
G75*
G02*
X75886000Y-52070000I1753625J-1753625D01*
G01*
X71652375Y-53823625D02*
G75*
G03*
X75886000Y-52070000I1753625J1753625D01*
G01*
X71656000Y-50300000D02*
X71656000Y-53800000D01*
%TO.C,Q6*%
X71656000Y-44585000D02*
X71656000Y-48085000D01*
X71652375Y-48108625D02*
G75*
G03*
X75886000Y-46355000I1753625J1753625D01*
G01*
X71652375Y-44601375D02*
G75*
G02*
X75886000Y-46355000I1753625J-1753625D01*
G01*
%TO.C,Q10*%
X80796375Y-27456375D02*
G75*
G02*
X85030000Y-29210000I1753625J-1753625D01*
G01*
X80796375Y-30963625D02*
G75*
G03*
X85030000Y-29210000I1753625J1753625D01*
G01*
X80800000Y-27440000D02*
X80800000Y-30940000D01*
%TO.C,Q11*%
X80796375Y-33171375D02*
G75*
G02*
X85030000Y-34925000I1753625J-1753625D01*
G01*
X80796375Y-36678625D02*
G75*
G03*
X85030000Y-34925000I1753625J1753625D01*
G01*
X80800000Y-33155000D02*
X80800000Y-36655000D01*
%TO.C,Q12*%
X80796375Y-38886375D02*
G75*
G02*
X85030000Y-40640000I1753625J-1753625D01*
G01*
X80796375Y-42393625D02*
G75*
G03*
X85030000Y-40640000I1753625J1753625D01*
G01*
X80800000Y-38870000D02*
X80800000Y-42370000D01*
%TO.C,R5*%
X91171000Y-29256000D02*
X91171000Y-31756000D01*
X91171000Y-31756000D02*
X97471000Y-31756000D01*
X97471000Y-31756000D02*
X97471000Y-29256000D01*
X97471000Y-29256000D02*
X91171000Y-29256000D01*
X89241000Y-30506000D02*
X91171000Y-30506000D01*
X99401000Y-30506000D02*
X97471000Y-30506000D01*
%TO.C,R6*%
X99401000Y-34556000D02*
X97471000Y-34556000D01*
X89241000Y-34556000D02*
X91171000Y-34556000D01*
X97471000Y-33306000D02*
X91171000Y-33306000D01*
X97471000Y-35806000D02*
X97471000Y-33306000D01*
X91171000Y-35806000D02*
X97471000Y-35806000D01*
X91171000Y-33306000D02*
X91171000Y-35806000D01*
%TO.C,R7*%
X91465000Y-37485000D02*
X91465000Y-39985000D01*
X91465000Y-39985000D02*
X97765000Y-39985000D01*
X97765000Y-39985000D02*
X97765000Y-37485000D01*
X97765000Y-37485000D02*
X91465000Y-37485000D01*
X89535000Y-38735000D02*
X91465000Y-38735000D01*
X99695000Y-38735000D02*
X97765000Y-38735000D01*
%TO.C,R8*%
X99693000Y-42527000D02*
X97763000Y-42527000D01*
X89533000Y-42527000D02*
X91463000Y-42527000D01*
X97763000Y-41277000D02*
X91463000Y-41277000D01*
X97763000Y-43777000D02*
X97763000Y-41277000D01*
X91463000Y-43777000D02*
X97763000Y-43777000D01*
X91463000Y-41277000D02*
X91463000Y-43777000D01*
%TO.C,R9*%
X99693000Y-46577000D02*
X97763000Y-46577000D01*
X89533000Y-46577000D02*
X91463000Y-46577000D01*
X97763000Y-45327000D02*
X91463000Y-45327000D01*
X97763000Y-47827000D02*
X97763000Y-45327000D01*
X91463000Y-47827000D02*
X97763000Y-47827000D01*
X91463000Y-45327000D02*
X91463000Y-47827000D01*
%TO.C,R10*%
X91465000Y-48915000D02*
X91465000Y-51415000D01*
X91465000Y-51415000D02*
X97765000Y-51415000D01*
X97765000Y-51415000D02*
X97765000Y-48915000D01*
X97765000Y-48915000D02*
X91465000Y-48915000D01*
X89535000Y-50165000D02*
X91465000Y-50165000D01*
X99695000Y-50165000D02*
X97765000Y-50165000D01*
%TO.C,R14*%
X99695000Y-64135000D02*
X97765000Y-64135000D01*
X89535000Y-64135000D02*
X91465000Y-64135000D01*
X97765000Y-62885000D02*
X91465000Y-62885000D01*
X97765000Y-65385000D02*
X97765000Y-62885000D01*
X91465000Y-65385000D02*
X97765000Y-65385000D01*
X91465000Y-62885000D02*
X91465000Y-65385000D01*
%TO.C,R15*%
X99695000Y-67945000D02*
X97765000Y-67945000D01*
X89535000Y-67945000D02*
X91465000Y-67945000D01*
X97765000Y-66695000D02*
X91465000Y-66695000D01*
X97765000Y-69195000D02*
X97765000Y-66695000D01*
X91465000Y-69195000D02*
X97765000Y-69195000D01*
X91465000Y-66695000D02*
X91465000Y-69195000D01*
%TO.C,R16*%
X91465000Y-70505000D02*
X91465000Y-73005000D01*
X91465000Y-73005000D02*
X97765000Y-73005000D01*
X97765000Y-73005000D02*
X97765000Y-70505000D01*
X97765000Y-70505000D02*
X91465000Y-70505000D01*
X89535000Y-71755000D02*
X91465000Y-71755000D01*
X99695000Y-71755000D02*
X97765000Y-71755000D01*
%TD*%
%TO.C,U1*%
D13*
X41997380Y-55403238D02*
X42711666Y-55403238D01*
X42854523Y-55450857D01*
X42949761Y-55546095D01*
X42997380Y-55688952D01*
X42997380Y-55784190D01*
X42902142Y-54355619D02*
X42949761Y-54403238D01*
X42997380Y-54546095D01*
X42997380Y-54641333D01*
X42949761Y-54784190D01*
X42854523Y-54879428D01*
X42759285Y-54927047D01*
X42568809Y-54974666D01*
X42425952Y-54974666D01*
X42235476Y-54927047D01*
X42140238Y-54879428D01*
X42045000Y-54784190D01*
X41997380Y-54641333D01*
X41997380Y-54546095D01*
X42045000Y-54403238D01*
X42092619Y-54355619D01*
X42997380Y-53450857D02*
X42997380Y-53927047D01*
X41997380Y-53927047D01*
X41997380Y-53212761D02*
X41997380Y-52593714D01*
X42378333Y-52927047D01*
X42378333Y-52784190D01*
X42425952Y-52688952D01*
X42473571Y-52641333D01*
X42568809Y-52593714D01*
X42806904Y-52593714D01*
X42902142Y-52641333D01*
X42949761Y-52688952D01*
X42997380Y-52784190D01*
X42997380Y-53069904D01*
X42949761Y-53165142D01*
X42902142Y-53212761D01*
X41997380Y-51974666D02*
X41997380Y-51879428D01*
X42045000Y-51784190D01*
X42092619Y-51736571D01*
X42187857Y-51688952D01*
X42378333Y-51641333D01*
X42616428Y-51641333D01*
X42806904Y-51688952D01*
X42902142Y-51736571D01*
X42949761Y-51784190D01*
X42997380Y-51879428D01*
X42997380Y-51974666D01*
X42949761Y-52069904D01*
X42902142Y-52117523D01*
X42806904Y-52165142D01*
X42616428Y-52212761D01*
X42378333Y-52212761D01*
X42187857Y-52165142D01*
X42092619Y-52117523D01*
X42045000Y-52069904D01*
X41997380Y-51974666D01*
X42092619Y-51260380D02*
X42045000Y-51212761D01*
X41997380Y-51117523D01*
X41997380Y-50879428D01*
X42045000Y-50784190D01*
X42092619Y-50736571D01*
X42187857Y-50688952D01*
X42283095Y-50688952D01*
X42425952Y-50736571D01*
X42997380Y-51308000D01*
X42997380Y-50688952D01*
X42330714Y-49831809D02*
X42997380Y-49831809D01*
X41949761Y-50069904D02*
X42664047Y-50308000D01*
X42664047Y-49688952D01*
X42949761Y-49355619D02*
X42997380Y-49212761D01*
X42997380Y-48974666D01*
X42949761Y-48879428D01*
X42902142Y-48831809D01*
X42806904Y-48784190D01*
X42711666Y-48784190D01*
X42616428Y-48831809D01*
X42568809Y-48879428D01*
X42521190Y-48974666D01*
X42473571Y-49165142D01*
X42425952Y-49260380D01*
X42378333Y-49308000D01*
X42283095Y-49355619D01*
X42187857Y-49355619D01*
X42092619Y-49308000D01*
X42045000Y-49260380D01*
X41997380Y-49165142D01*
X41997380Y-48927047D01*
X42045000Y-48784190D01*
X41997380Y-48165142D02*
X41997380Y-48069904D01*
X42045000Y-47974666D01*
X42092619Y-47927047D01*
X42187857Y-47879428D01*
X42378333Y-47831809D01*
X42616428Y-47831809D01*
X42806904Y-47879428D01*
X42902142Y-47927047D01*
X42949761Y-47974666D01*
X42997380Y-48069904D01*
X42997380Y-48165142D01*
X42949761Y-48260380D01*
X42902142Y-48308000D01*
X42806904Y-48355619D01*
X42616428Y-48403238D01*
X42378333Y-48403238D01*
X42187857Y-48355619D01*
X42092619Y-48308000D01*
X42045000Y-48260380D01*
X41997380Y-48165142D01*
X41997380Y-46927047D02*
X41997380Y-47403238D01*
X42473571Y-47450857D01*
X42425952Y-47403238D01*
X42378333Y-47308000D01*
X42378333Y-47069904D01*
X42425952Y-46974666D01*
X42473571Y-46927047D01*
X42568809Y-46879428D01*
X42806904Y-46879428D01*
X42902142Y-46927047D01*
X42949761Y-46974666D01*
X42997380Y-47069904D01*
X42997380Y-47308000D01*
X42949761Y-47403238D01*
X42902142Y-47450857D01*
%TO.C,R13*%
X94019761Y-58407380D02*
X93448333Y-58407380D01*
X93734047Y-58407380D02*
X93734047Y-57407380D01*
X93638809Y-57550238D01*
X93543571Y-57645476D01*
X93448333Y-57693095D01*
X94638809Y-57407380D02*
X94734047Y-57407380D01*
X94829285Y-57455000D01*
X94876904Y-57502619D01*
X94924523Y-57597857D01*
X94972142Y-57788333D01*
X94972142Y-58026428D01*
X94924523Y-58216904D01*
X94876904Y-58312142D01*
X94829285Y-58359761D01*
X94734047Y-58407380D01*
X94638809Y-58407380D01*
X94543571Y-58359761D01*
X94495952Y-58312142D01*
X94448333Y-58216904D01*
X94400714Y-58026428D01*
X94400714Y-57788333D01*
X94448333Y-57597857D01*
X94495952Y-57502619D01*
X94543571Y-57455000D01*
X94638809Y-57407380D01*
X95400714Y-58407380D02*
X95400714Y-57407380D01*
X95495952Y-58026428D02*
X95781666Y-58407380D01*
X95781666Y-57740714D02*
X95400714Y-58121666D01*
X93972142Y-60777380D02*
X93638809Y-60301190D01*
X93400714Y-60777380D02*
X93400714Y-59777380D01*
X93781666Y-59777380D01*
X93876904Y-59825000D01*
X93924523Y-59872619D01*
X93972142Y-59967857D01*
X93972142Y-60110714D01*
X93924523Y-60205952D01*
X93876904Y-60253571D01*
X93781666Y-60301190D01*
X93400714Y-60301190D01*
X94924523Y-60777380D02*
X94353095Y-60777380D01*
X94638809Y-60777380D02*
X94638809Y-59777380D01*
X94543571Y-59920238D01*
X94448333Y-60015476D01*
X94353095Y-60063095D01*
X95257857Y-59777380D02*
X95876904Y-59777380D01*
X95543571Y-60158333D01*
X95686428Y-60158333D01*
X95781666Y-60205952D01*
X95829285Y-60253571D01*
X95876904Y-60348809D01*
X95876904Y-60586904D01*
X95829285Y-60682142D01*
X95781666Y-60729761D01*
X95686428Y-60777380D01*
X95400714Y-60777380D01*
X95305476Y-60729761D01*
X95257857Y-60682142D01*
%TO.C,R12*%
X94019761Y-55105380D02*
X93448333Y-55105380D01*
X93734047Y-55105380D02*
X93734047Y-54105380D01*
X93638809Y-54248238D01*
X93543571Y-54343476D01*
X93448333Y-54391095D01*
X94638809Y-54105380D02*
X94734047Y-54105380D01*
X94829285Y-54153000D01*
X94876904Y-54200619D01*
X94924523Y-54295857D01*
X94972142Y-54486333D01*
X94972142Y-54724428D01*
X94924523Y-54914904D01*
X94876904Y-55010142D01*
X94829285Y-55057761D01*
X94734047Y-55105380D01*
X94638809Y-55105380D01*
X94543571Y-55057761D01*
X94495952Y-55010142D01*
X94448333Y-54914904D01*
X94400714Y-54724428D01*
X94400714Y-54486333D01*
X94448333Y-54295857D01*
X94495952Y-54200619D01*
X94543571Y-54153000D01*
X94638809Y-54105380D01*
X95400714Y-55105380D02*
X95400714Y-54105380D01*
X95495952Y-54724428D02*
X95781666Y-55105380D01*
X95781666Y-54438714D02*
X95400714Y-54819666D01*
X93972142Y-57475380D02*
X93638809Y-56999190D01*
X93400714Y-57475380D02*
X93400714Y-56475380D01*
X93781666Y-56475380D01*
X93876904Y-56523000D01*
X93924523Y-56570619D01*
X93972142Y-56665857D01*
X93972142Y-56808714D01*
X93924523Y-56903952D01*
X93876904Y-56951571D01*
X93781666Y-56999190D01*
X93400714Y-56999190D01*
X94924523Y-57475380D02*
X94353095Y-57475380D01*
X94638809Y-57475380D02*
X94638809Y-56475380D01*
X94543571Y-56618238D01*
X94448333Y-56713476D01*
X94353095Y-56761095D01*
X95305476Y-56570619D02*
X95353095Y-56523000D01*
X95448333Y-56475380D01*
X95686428Y-56475380D01*
X95781666Y-56523000D01*
X95829285Y-56570619D01*
X95876904Y-56665857D01*
X95876904Y-56761095D01*
X95829285Y-56903952D01*
X95257857Y-57475380D01*
X95876904Y-57475380D01*
%TO.C,R11*%
X94019761Y-51549380D02*
X93448333Y-51549380D01*
X93734047Y-51549380D02*
X93734047Y-50549380D01*
X93638809Y-50692238D01*
X93543571Y-50787476D01*
X93448333Y-50835095D01*
X94638809Y-50549380D02*
X94734047Y-50549380D01*
X94829285Y-50597000D01*
X94876904Y-50644619D01*
X94924523Y-50739857D01*
X94972142Y-50930333D01*
X94972142Y-51168428D01*
X94924523Y-51358904D01*
X94876904Y-51454142D01*
X94829285Y-51501761D01*
X94734047Y-51549380D01*
X94638809Y-51549380D01*
X94543571Y-51501761D01*
X94495952Y-51454142D01*
X94448333Y-51358904D01*
X94400714Y-51168428D01*
X94400714Y-50930333D01*
X94448333Y-50739857D01*
X94495952Y-50644619D01*
X94543571Y-50597000D01*
X94638809Y-50549380D01*
X95400714Y-51549380D02*
X95400714Y-50549380D01*
X95495952Y-51168428D02*
X95781666Y-51549380D01*
X95781666Y-50882714D02*
X95400714Y-51263666D01*
X93972142Y-53919380D02*
X93638809Y-53443190D01*
X93400714Y-53919380D02*
X93400714Y-52919380D01*
X93781666Y-52919380D01*
X93876904Y-52967000D01*
X93924523Y-53014619D01*
X93972142Y-53109857D01*
X93972142Y-53252714D01*
X93924523Y-53347952D01*
X93876904Y-53395571D01*
X93781666Y-53443190D01*
X93400714Y-53443190D01*
X94924523Y-53919380D02*
X94353095Y-53919380D01*
X94638809Y-53919380D02*
X94638809Y-52919380D01*
X94543571Y-53062238D01*
X94448333Y-53157476D01*
X94353095Y-53205095D01*
X95876904Y-53919380D02*
X95305476Y-53919380D01*
X95591190Y-53919380D02*
X95591190Y-52919380D01*
X95495952Y-53062238D01*
X95400714Y-53157476D01*
X95305476Y-53205095D01*
%TO.C,R4*%
X63714333Y-122626380D02*
X63381000Y-122150190D01*
X63142904Y-122626380D02*
X63142904Y-121626380D01*
X63523857Y-121626380D01*
X63619095Y-121674000D01*
X63666714Y-121721619D01*
X63714333Y-121816857D01*
X63714333Y-121959714D01*
X63666714Y-122054952D01*
X63619095Y-122102571D01*
X63523857Y-122150190D01*
X63142904Y-122150190D01*
X64571476Y-121959714D02*
X64571476Y-122626380D01*
X64333380Y-121578761D02*
X64095285Y-122293047D01*
X64714333Y-122293047D01*
%TO.C,R3*%
X48363333Y-119637380D02*
X48172857Y-119637380D01*
X48077619Y-119685000D01*
X48030000Y-119732619D01*
X47934761Y-119875476D01*
X47887142Y-120065952D01*
X47887142Y-120446904D01*
X47934761Y-120542142D01*
X47982380Y-120589761D01*
X48077619Y-120637380D01*
X48268095Y-120637380D01*
X48363333Y-120589761D01*
X48410952Y-120542142D01*
X48458571Y-120446904D01*
X48458571Y-120208809D01*
X48410952Y-120113571D01*
X48363333Y-120065952D01*
X48268095Y-120018333D01*
X48077619Y-120018333D01*
X47982380Y-120065952D01*
X47934761Y-120113571D01*
X47887142Y-120208809D01*
X49030000Y-120065952D02*
X48934761Y-120018333D01*
X48887142Y-119970714D01*
X48839523Y-119875476D01*
X48839523Y-119827857D01*
X48887142Y-119732619D01*
X48934761Y-119685000D01*
X49030000Y-119637380D01*
X49220476Y-119637380D01*
X49315714Y-119685000D01*
X49363333Y-119732619D01*
X49410952Y-119827857D01*
X49410952Y-119875476D01*
X49363333Y-119970714D01*
X49315714Y-120018333D01*
X49220476Y-120065952D01*
X49030000Y-120065952D01*
X48934761Y-120113571D01*
X48887142Y-120161190D01*
X48839523Y-120256428D01*
X48839523Y-120446904D01*
X48887142Y-120542142D01*
X48934761Y-120589761D01*
X49030000Y-120637380D01*
X49220476Y-120637380D01*
X49315714Y-120589761D01*
X49363333Y-120542142D01*
X49410952Y-120446904D01*
X49410952Y-120256428D01*
X49363333Y-120161190D01*
X49315714Y-120113571D01*
X49220476Y-120065952D01*
X50030000Y-119637380D02*
X50125238Y-119637380D01*
X50220476Y-119685000D01*
X50268095Y-119732619D01*
X50315714Y-119827857D01*
X50363333Y-120018333D01*
X50363333Y-120256428D01*
X50315714Y-120446904D01*
X50268095Y-120542142D01*
X50220476Y-120589761D01*
X50125238Y-120637380D01*
X50030000Y-120637380D01*
X49934761Y-120589761D01*
X49887142Y-120542142D01*
X49839523Y-120446904D01*
X49791904Y-120256428D01*
X49791904Y-120018333D01*
X49839523Y-119827857D01*
X49887142Y-119732619D01*
X49934761Y-119685000D01*
X50030000Y-119637380D01*
X50791904Y-120637380D02*
X50791904Y-119637380D01*
X50887142Y-120256428D02*
X51172857Y-120637380D01*
X51172857Y-119970714D02*
X50791904Y-120351666D01*
X49363333Y-123007380D02*
X49030000Y-122531190D01*
X48791904Y-123007380D02*
X48791904Y-122007380D01*
X49172857Y-122007380D01*
X49268095Y-122055000D01*
X49315714Y-122102619D01*
X49363333Y-122197857D01*
X49363333Y-122340714D01*
X49315714Y-122435952D01*
X49268095Y-122483571D01*
X49172857Y-122531190D01*
X48791904Y-122531190D01*
X49696666Y-122007380D02*
X50315714Y-122007380D01*
X49982380Y-122388333D01*
X50125238Y-122388333D01*
X50220476Y-122435952D01*
X50268095Y-122483571D01*
X50315714Y-122578809D01*
X50315714Y-122816904D01*
X50268095Y-122912142D01*
X50220476Y-122959761D01*
X50125238Y-123007380D01*
X49839523Y-123007380D01*
X49744285Y-122959761D01*
X49696666Y-122912142D01*
%TO.C,R2*%
X63714333Y-118054380D02*
X63381000Y-117578190D01*
X63142904Y-118054380D02*
X63142904Y-117054380D01*
X63523857Y-117054380D01*
X63619095Y-117102000D01*
X63666714Y-117149619D01*
X63714333Y-117244857D01*
X63714333Y-117387714D01*
X63666714Y-117482952D01*
X63619095Y-117530571D01*
X63523857Y-117578190D01*
X63142904Y-117578190D01*
X64095285Y-117149619D02*
X64142904Y-117102000D01*
X64238142Y-117054380D01*
X64476238Y-117054380D01*
X64571476Y-117102000D01*
X64619095Y-117149619D01*
X64666714Y-117244857D01*
X64666714Y-117340095D01*
X64619095Y-117482952D01*
X64047666Y-118054380D01*
X64666714Y-118054380D01*
%TO.C,R1*%
X48887142Y-119297380D02*
X48410952Y-119297380D01*
X48363333Y-119773571D01*
X48410952Y-119725952D01*
X48506190Y-119678333D01*
X48744285Y-119678333D01*
X48839523Y-119725952D01*
X48887142Y-119773571D01*
X48934761Y-119868809D01*
X48934761Y-120106904D01*
X48887142Y-120202142D01*
X48839523Y-120249761D01*
X48744285Y-120297380D01*
X48506190Y-120297380D01*
X48410952Y-120249761D01*
X48363333Y-120202142D01*
X49791904Y-119297380D02*
X49601428Y-119297380D01*
X49506190Y-119345000D01*
X49458571Y-119392619D01*
X49363333Y-119535476D01*
X49315714Y-119725952D01*
X49315714Y-120106904D01*
X49363333Y-120202142D01*
X49410952Y-120249761D01*
X49506190Y-120297380D01*
X49696666Y-120297380D01*
X49791904Y-120249761D01*
X49839523Y-120202142D01*
X49887142Y-120106904D01*
X49887142Y-119868809D01*
X49839523Y-119773571D01*
X49791904Y-119725952D01*
X49696666Y-119678333D01*
X49506190Y-119678333D01*
X49410952Y-119725952D01*
X49363333Y-119773571D01*
X49315714Y-119868809D01*
X50315714Y-120297380D02*
X50315714Y-119297380D01*
X50410952Y-119916428D02*
X50696666Y-120297380D01*
X50696666Y-119630714D02*
X50315714Y-120011666D01*
X49363333Y-117927380D02*
X49030000Y-117451190D01*
X48791904Y-117927380D02*
X48791904Y-116927380D01*
X49172857Y-116927380D01*
X49268095Y-116975000D01*
X49315714Y-117022619D01*
X49363333Y-117117857D01*
X49363333Y-117260714D01*
X49315714Y-117355952D01*
X49268095Y-117403571D01*
X49172857Y-117451190D01*
X48791904Y-117451190D01*
X50315714Y-117927380D02*
X49744285Y-117927380D01*
X50030000Y-117927380D02*
X50030000Y-116927380D01*
X49934761Y-117070238D01*
X49839523Y-117165476D01*
X49744285Y-117213095D01*
%TO.C,Q9*%
X70544571Y-42473333D02*
X70592190Y-42330476D01*
X70639809Y-42282857D01*
X70735047Y-42235238D01*
X70877904Y-42235238D01*
X70973142Y-42282857D01*
X71020761Y-42330476D01*
X71068380Y-42425714D01*
X71068380Y-42806666D01*
X70068380Y-42806666D01*
X70068380Y-42473333D01*
X70116000Y-42378095D01*
X70163619Y-42330476D01*
X70258857Y-42282857D01*
X70354095Y-42282857D01*
X70449333Y-42330476D01*
X70496952Y-42378095D01*
X70544571Y-42473333D01*
X70544571Y-42806666D01*
X71020761Y-41854285D02*
X71068380Y-41711428D01*
X71068380Y-41473333D01*
X71020761Y-41378095D01*
X70973142Y-41330476D01*
X70877904Y-41282857D01*
X70782666Y-41282857D01*
X70687428Y-41330476D01*
X70639809Y-41378095D01*
X70592190Y-41473333D01*
X70544571Y-41663809D01*
X70496952Y-41759047D01*
X70449333Y-41806666D01*
X70354095Y-41854285D01*
X70258857Y-41854285D01*
X70163619Y-41806666D01*
X70116000Y-41759047D01*
X70068380Y-41663809D01*
X70068380Y-41425714D01*
X70116000Y-41282857D01*
X71068380Y-40330476D02*
X71068380Y-40901904D01*
X71068380Y-40616190D02*
X70068380Y-40616190D01*
X70211238Y-40711428D01*
X70306476Y-40806666D01*
X70354095Y-40901904D01*
X70068380Y-39997142D02*
X70068380Y-39330476D01*
X71068380Y-39759047D01*
X70068380Y-38759047D02*
X70068380Y-38663809D01*
X70116000Y-38568571D01*
X70163619Y-38520952D01*
X70258857Y-38473333D01*
X70449333Y-38425714D01*
X70687428Y-38425714D01*
X70877904Y-38473333D01*
X70973142Y-38520952D01*
X71020761Y-38568571D01*
X71068380Y-38663809D01*
X71068380Y-38759047D01*
X71020761Y-38854285D01*
X70973142Y-38901904D01*
X70877904Y-38949523D01*
X70687428Y-38997142D01*
X70449333Y-38997142D01*
X70258857Y-38949523D01*
X70163619Y-38901904D01*
X70116000Y-38854285D01*
X70068380Y-38759047D01*
X77513619Y-40735238D02*
X77466000Y-40830476D01*
X77370761Y-40925714D01*
X77227904Y-41068571D01*
X77180285Y-41163809D01*
X77180285Y-41259047D01*
X77418380Y-41211428D02*
X77370761Y-41306666D01*
X77275523Y-41401904D01*
X77085047Y-41449523D01*
X76751714Y-41449523D01*
X76561238Y-41401904D01*
X76466000Y-41306666D01*
X76418380Y-41211428D01*
X76418380Y-41020952D01*
X76466000Y-40925714D01*
X76561238Y-40830476D01*
X76751714Y-40782857D01*
X77085047Y-40782857D01*
X77275523Y-40830476D01*
X77370761Y-40925714D01*
X77418380Y-41020952D01*
X77418380Y-41211428D01*
X77418380Y-40306666D02*
X77418380Y-40116190D01*
X77370761Y-40020952D01*
X77323142Y-39973333D01*
X77180285Y-39878095D01*
X76989809Y-39830476D01*
X76608857Y-39830476D01*
X76513619Y-39878095D01*
X76466000Y-39925714D01*
X76418380Y-40020952D01*
X76418380Y-40211428D01*
X76466000Y-40306666D01*
X76513619Y-40354285D01*
X76608857Y-40401904D01*
X76846952Y-40401904D01*
X76942190Y-40354285D01*
X76989809Y-40306666D01*
X77037428Y-40211428D01*
X77037428Y-40020952D01*
X76989809Y-39925714D01*
X76942190Y-39878095D01*
X76846952Y-39830476D01*
%TO.C,Q8*%
X70544571Y-36885333D02*
X70592190Y-36742476D01*
X70639809Y-36694857D01*
X70735047Y-36647238D01*
X70877904Y-36647238D01*
X70973142Y-36694857D01*
X71020761Y-36742476D01*
X71068380Y-36837714D01*
X71068380Y-37218666D01*
X70068380Y-37218666D01*
X70068380Y-36885333D01*
X70116000Y-36790095D01*
X70163619Y-36742476D01*
X70258857Y-36694857D01*
X70354095Y-36694857D01*
X70449333Y-36742476D01*
X70496952Y-36790095D01*
X70544571Y-36885333D01*
X70544571Y-37218666D01*
X71020761Y-36266285D02*
X71068380Y-36123428D01*
X71068380Y-35885333D01*
X71020761Y-35790095D01*
X70973142Y-35742476D01*
X70877904Y-35694857D01*
X70782666Y-35694857D01*
X70687428Y-35742476D01*
X70639809Y-35790095D01*
X70592190Y-35885333D01*
X70544571Y-36075809D01*
X70496952Y-36171047D01*
X70449333Y-36218666D01*
X70354095Y-36266285D01*
X70258857Y-36266285D01*
X70163619Y-36218666D01*
X70116000Y-36171047D01*
X70068380Y-36075809D01*
X70068380Y-35837714D01*
X70116000Y-35694857D01*
X71068380Y-34742476D02*
X71068380Y-35313904D01*
X71068380Y-35028190D02*
X70068380Y-35028190D01*
X70211238Y-35123428D01*
X70306476Y-35218666D01*
X70354095Y-35313904D01*
X70068380Y-34409142D02*
X70068380Y-33742476D01*
X71068380Y-34171047D01*
X70068380Y-33171047D02*
X70068380Y-33075809D01*
X70116000Y-32980571D01*
X70163619Y-32932952D01*
X70258857Y-32885333D01*
X70449333Y-32837714D01*
X70687428Y-32837714D01*
X70877904Y-32885333D01*
X70973142Y-32932952D01*
X71020761Y-32980571D01*
X71068380Y-33075809D01*
X71068380Y-33171047D01*
X71020761Y-33266285D01*
X70973142Y-33313904D01*
X70877904Y-33361523D01*
X70687428Y-33409142D01*
X70449333Y-33409142D01*
X70258857Y-33361523D01*
X70163619Y-33313904D01*
X70116000Y-33266285D01*
X70068380Y-33171047D01*
X77513619Y-35147238D02*
X77466000Y-35242476D01*
X77370761Y-35337714D01*
X77227904Y-35480571D01*
X77180285Y-35575809D01*
X77180285Y-35671047D01*
X77418380Y-35623428D02*
X77370761Y-35718666D01*
X77275523Y-35813904D01*
X77085047Y-35861523D01*
X76751714Y-35861523D01*
X76561238Y-35813904D01*
X76466000Y-35718666D01*
X76418380Y-35623428D01*
X76418380Y-35432952D01*
X76466000Y-35337714D01*
X76561238Y-35242476D01*
X76751714Y-35194857D01*
X77085047Y-35194857D01*
X77275523Y-35242476D01*
X77370761Y-35337714D01*
X77418380Y-35432952D01*
X77418380Y-35623428D01*
X76846952Y-34623428D02*
X76799333Y-34718666D01*
X76751714Y-34766285D01*
X76656476Y-34813904D01*
X76608857Y-34813904D01*
X76513619Y-34766285D01*
X76466000Y-34718666D01*
X76418380Y-34623428D01*
X76418380Y-34432952D01*
X76466000Y-34337714D01*
X76513619Y-34290095D01*
X76608857Y-34242476D01*
X76656476Y-34242476D01*
X76751714Y-34290095D01*
X76799333Y-34337714D01*
X76846952Y-34432952D01*
X76846952Y-34623428D01*
X76894571Y-34718666D01*
X76942190Y-34766285D01*
X77037428Y-34813904D01*
X77227904Y-34813904D01*
X77323142Y-34766285D01*
X77370761Y-34718666D01*
X77418380Y-34623428D01*
X77418380Y-34432952D01*
X77370761Y-34337714D01*
X77323142Y-34290095D01*
X77227904Y-34242476D01*
X77037428Y-34242476D01*
X76942190Y-34290095D01*
X76894571Y-34337714D01*
X76846952Y-34432952D01*
%TO.C,Q7*%
X70417571Y-31043333D02*
X70465190Y-30900476D01*
X70512809Y-30852857D01*
X70608047Y-30805238D01*
X70750904Y-30805238D01*
X70846142Y-30852857D01*
X70893761Y-30900476D01*
X70941380Y-30995714D01*
X70941380Y-31376666D01*
X69941380Y-31376666D01*
X69941380Y-31043333D01*
X69989000Y-30948095D01*
X70036619Y-30900476D01*
X70131857Y-30852857D01*
X70227095Y-30852857D01*
X70322333Y-30900476D01*
X70369952Y-30948095D01*
X70417571Y-31043333D01*
X70417571Y-31376666D01*
X70893761Y-30424285D02*
X70941380Y-30281428D01*
X70941380Y-30043333D01*
X70893761Y-29948095D01*
X70846142Y-29900476D01*
X70750904Y-29852857D01*
X70655666Y-29852857D01*
X70560428Y-29900476D01*
X70512809Y-29948095D01*
X70465190Y-30043333D01*
X70417571Y-30233809D01*
X70369952Y-30329047D01*
X70322333Y-30376666D01*
X70227095Y-30424285D01*
X70131857Y-30424285D01*
X70036619Y-30376666D01*
X69989000Y-30329047D01*
X69941380Y-30233809D01*
X69941380Y-29995714D01*
X69989000Y-29852857D01*
X70941380Y-28900476D02*
X70941380Y-29471904D01*
X70941380Y-29186190D02*
X69941380Y-29186190D01*
X70084238Y-29281428D01*
X70179476Y-29376666D01*
X70227095Y-29471904D01*
X69941380Y-28567142D02*
X69941380Y-27900476D01*
X70941380Y-28329047D01*
X69941380Y-27329047D02*
X69941380Y-27233809D01*
X69989000Y-27138571D01*
X70036619Y-27090952D01*
X70131857Y-27043333D01*
X70322333Y-26995714D01*
X70560428Y-26995714D01*
X70750904Y-27043333D01*
X70846142Y-27090952D01*
X70893761Y-27138571D01*
X70941380Y-27233809D01*
X70941380Y-27329047D01*
X70893761Y-27424285D01*
X70846142Y-27471904D01*
X70750904Y-27519523D01*
X70560428Y-27567142D01*
X70322333Y-27567142D01*
X70131857Y-27519523D01*
X70036619Y-27471904D01*
X69989000Y-27424285D01*
X69941380Y-27329047D01*
X77386619Y-29305238D02*
X77339000Y-29400476D01*
X77243761Y-29495714D01*
X77100904Y-29638571D01*
X77053285Y-29733809D01*
X77053285Y-29829047D01*
X77291380Y-29781428D02*
X77243761Y-29876666D01*
X77148523Y-29971904D01*
X76958047Y-30019523D01*
X76624714Y-30019523D01*
X76434238Y-29971904D01*
X76339000Y-29876666D01*
X76291380Y-29781428D01*
X76291380Y-29590952D01*
X76339000Y-29495714D01*
X76434238Y-29400476D01*
X76624714Y-29352857D01*
X76958047Y-29352857D01*
X77148523Y-29400476D01*
X77243761Y-29495714D01*
X77291380Y-29590952D01*
X77291380Y-29781428D01*
X76291380Y-29019523D02*
X76291380Y-28352857D01*
X77291380Y-28781428D01*
%TO.C,K4*%
D14*
X78662619Y-89173523D02*
X78662619Y-87903523D01*
X79388333Y-89173523D02*
X78844047Y-88447809D01*
X79388333Y-87903523D02*
X78662619Y-88629238D01*
X80476904Y-88326857D02*
X80476904Y-89173523D01*
X80174523Y-87843047D02*
X79872142Y-88750190D01*
X80658333Y-88750190D01*
%TO.C,K3*%
X36752619Y-89173523D02*
X36752619Y-87903523D01*
X37478333Y-89173523D02*
X36934047Y-88447809D01*
X37478333Y-87903523D02*
X36752619Y-88629238D01*
X37901666Y-87903523D02*
X38687857Y-87903523D01*
X38264523Y-88387333D01*
X38445952Y-88387333D01*
X38566904Y-88447809D01*
X38627380Y-88508285D01*
X38687857Y-88629238D01*
X38687857Y-88931619D01*
X38627380Y-89052571D01*
X38566904Y-89113047D01*
X38445952Y-89173523D01*
X38083095Y-89173523D01*
X37962142Y-89113047D01*
X37901666Y-89052571D01*
%TO.C,K2*%
X44083619Y-106890523D02*
X44083619Y-105620523D01*
X44809333Y-106890523D02*
X44265047Y-106164809D01*
X44809333Y-105620523D02*
X44083619Y-106346238D01*
X45293142Y-105741476D02*
X45353619Y-105681000D01*
X45474571Y-105620523D01*
X45776952Y-105620523D01*
X45897904Y-105681000D01*
X45958380Y-105741476D01*
X46018857Y-105862428D01*
X46018857Y-105983380D01*
X45958380Y-106164809D01*
X45232666Y-106890523D01*
X46018857Y-106890523D01*
%TO.C,J5*%
D13*
X45767380Y-18938571D02*
X44767380Y-18938571D01*
X45767380Y-18510000D02*
X45243571Y-18510000D01*
X45148333Y-18557619D01*
X45100714Y-18652857D01*
X45100714Y-18795714D01*
X45148333Y-18890952D01*
X45195952Y-18938571D01*
X45243571Y-18033809D02*
X45243571Y-17700476D01*
X45767380Y-17557619D02*
X45767380Y-18033809D01*
X44767380Y-18033809D01*
X44767380Y-17557619D01*
X45767380Y-17224285D02*
X45100714Y-16700476D01*
X45100714Y-17224285D02*
X45767380Y-16700476D01*
X45100714Y-16462380D02*
X45100714Y-16081428D01*
X44767380Y-16319523D02*
X45624523Y-16319523D01*
X45719761Y-16271904D01*
X45767380Y-16176666D01*
X45767380Y-16081428D01*
X45862619Y-15986190D02*
X45862619Y-15224285D01*
X45767380Y-14986190D02*
X45100714Y-14986190D01*
X44767380Y-14986190D02*
X44815000Y-15033809D01*
X44862619Y-14986190D01*
X44815000Y-14938571D01*
X44767380Y-14986190D01*
X44862619Y-14986190D01*
X45100714Y-14510000D02*
X45767380Y-14510000D01*
X45195952Y-14510000D02*
X45148333Y-14462380D01*
X45100714Y-14367142D01*
X45100714Y-14224285D01*
X45148333Y-14129047D01*
X45243571Y-14081428D01*
X45767380Y-14081428D01*
X30781666Y-15962380D02*
X30781666Y-16676666D01*
X30734047Y-16819523D01*
X30638809Y-16914761D01*
X30495952Y-16962380D01*
X30400714Y-16962380D01*
X31734047Y-15962380D02*
X31257857Y-15962380D01*
X31210238Y-16438571D01*
X31257857Y-16390952D01*
X31353095Y-16343333D01*
X31591190Y-16343333D01*
X31686428Y-16390952D01*
X31734047Y-16438571D01*
X31781666Y-16533809D01*
X31781666Y-16771904D01*
X31734047Y-16867142D01*
X31686428Y-16914761D01*
X31591190Y-16962380D01*
X31353095Y-16962380D01*
X31257857Y-16914761D01*
X31210238Y-16867142D01*
%TO.C,J4*%
X71009904Y-25114761D02*
X71152761Y-25162380D01*
X71390857Y-25162380D01*
X71486095Y-25114761D01*
X71533714Y-25067142D01*
X71581333Y-24971904D01*
X71581333Y-24876666D01*
X71533714Y-24781428D01*
X71486095Y-24733809D01*
X71390857Y-24686190D01*
X71200380Y-24638571D01*
X71105142Y-24590952D01*
X71057523Y-24543333D01*
X71009904Y-24448095D01*
X71009904Y-24352857D01*
X71057523Y-24257619D01*
X71105142Y-24210000D01*
X71200380Y-24162380D01*
X71438476Y-24162380D01*
X71581333Y-24210000D01*
X72438476Y-25114761D02*
X72343238Y-25162380D01*
X72152761Y-25162380D01*
X72057523Y-25114761D01*
X72009904Y-25067142D01*
X71962285Y-24971904D01*
X71962285Y-24686190D01*
X72009904Y-24590952D01*
X72057523Y-24543333D01*
X72152761Y-24495714D01*
X72343238Y-24495714D01*
X72438476Y-24543333D01*
X72867047Y-25162380D02*
X72867047Y-24495714D01*
X72867047Y-24686190D02*
X72914666Y-24590952D01*
X72962285Y-24543333D01*
X73057523Y-24495714D01*
X73152761Y-24495714D01*
X73867047Y-25114761D02*
X73771809Y-25162380D01*
X73581333Y-25162380D01*
X73486095Y-25114761D01*
X73438476Y-25019523D01*
X73438476Y-24638571D01*
X73486095Y-24543333D01*
X73581333Y-24495714D01*
X73771809Y-24495714D01*
X73867047Y-24543333D01*
X73914666Y-24638571D01*
X73914666Y-24733809D01*
X73438476Y-24829047D01*
X74248000Y-24495714D02*
X74438476Y-25162380D01*
X74628952Y-24686190D01*
X74819428Y-25162380D01*
X75009904Y-24495714D01*
X75152761Y-25257619D02*
X75914666Y-25257619D01*
X76009904Y-24162380D02*
X76581333Y-24162380D01*
X76295619Y-25162380D02*
X76295619Y-24162380D01*
X77295619Y-25114761D02*
X77200380Y-25162380D01*
X77009904Y-25162380D01*
X76914666Y-25114761D01*
X76867047Y-25019523D01*
X76867047Y-24638571D01*
X76914666Y-24543333D01*
X77009904Y-24495714D01*
X77200380Y-24495714D01*
X77295619Y-24543333D01*
X77343238Y-24638571D01*
X77343238Y-24733809D01*
X76867047Y-24829047D01*
X77771809Y-25162380D02*
X77771809Y-24495714D01*
X77771809Y-24686190D02*
X77819428Y-24590952D01*
X77867047Y-24543333D01*
X77962285Y-24495714D01*
X78057523Y-24495714D01*
X78390857Y-25162380D02*
X78390857Y-24495714D01*
X78390857Y-24590952D02*
X78438476Y-24543333D01*
X78533714Y-24495714D01*
X78676571Y-24495714D01*
X78771809Y-24543333D01*
X78819428Y-24638571D01*
X78819428Y-25162380D01*
X78819428Y-24638571D02*
X78867047Y-24543333D01*
X78962285Y-24495714D01*
X79105142Y-24495714D01*
X79200380Y-24543333D01*
X79248000Y-24638571D01*
X79248000Y-25162380D01*
X79724190Y-25162380D02*
X79724190Y-24495714D01*
X79724190Y-24162380D02*
X79676571Y-24210000D01*
X79724190Y-24257619D01*
X79771809Y-24210000D01*
X79724190Y-24162380D01*
X79724190Y-24257619D01*
X80200380Y-24495714D02*
X80200380Y-25162380D01*
X80200380Y-24590952D02*
X80248000Y-24543333D01*
X80343238Y-24495714D01*
X80486095Y-24495714D01*
X80581333Y-24543333D01*
X80628952Y-24638571D01*
X80628952Y-25162380D01*
X81533714Y-25162380D02*
X81533714Y-24638571D01*
X81486095Y-24543333D01*
X81390857Y-24495714D01*
X81200380Y-24495714D01*
X81105142Y-24543333D01*
X81533714Y-25114761D02*
X81438476Y-25162380D01*
X81200380Y-25162380D01*
X81105142Y-25114761D01*
X81057523Y-25019523D01*
X81057523Y-24924285D01*
X81105142Y-24829047D01*
X81200380Y-24781428D01*
X81438476Y-24781428D01*
X81533714Y-24733809D01*
X82152761Y-25162380D02*
X82057523Y-25114761D01*
X82009904Y-25019523D01*
X82009904Y-24162380D01*
X82295619Y-25257619D02*
X83057523Y-25257619D01*
X83486095Y-24162380D02*
X83581333Y-24162380D01*
X83676571Y-24210000D01*
X83724190Y-24257619D01*
X83771809Y-24352857D01*
X83819428Y-24543333D01*
X83819428Y-24781428D01*
X83771809Y-24971904D01*
X83724190Y-25067142D01*
X83676571Y-25114761D01*
X83581333Y-25162380D01*
X83486095Y-25162380D01*
X83390857Y-25114761D01*
X83343238Y-25067142D01*
X83295619Y-24971904D01*
X83248000Y-24781428D01*
X83248000Y-24543333D01*
X83295619Y-24352857D01*
X83343238Y-24257619D01*
X83390857Y-24210000D01*
X83486095Y-24162380D01*
X84771809Y-25162380D02*
X84200380Y-25162380D01*
X84486095Y-25162380D02*
X84486095Y-24162380D01*
X84390857Y-24305238D01*
X84295619Y-24400476D01*
X84200380Y-24448095D01*
X85105142Y-25162380D02*
X85628952Y-24495714D01*
X85105142Y-24495714D02*
X85628952Y-25162380D01*
X86200380Y-24162380D02*
X86295619Y-24162380D01*
X86390857Y-24210000D01*
X86438476Y-24257619D01*
X86486095Y-24352857D01*
X86533714Y-24543333D01*
X86533714Y-24781428D01*
X86486095Y-24971904D01*
X86438476Y-25067142D01*
X86390857Y-25114761D01*
X86295619Y-25162380D01*
X86200380Y-25162380D01*
X86105142Y-25114761D01*
X86057523Y-25067142D01*
X86009904Y-24971904D01*
X85962285Y-24781428D01*
X85962285Y-24543333D01*
X86009904Y-24352857D01*
X86057523Y-24257619D01*
X86105142Y-24210000D01*
X86200380Y-24162380D01*
X86914666Y-24257619D02*
X86962285Y-24210000D01*
X87057523Y-24162380D01*
X87295619Y-24162380D01*
X87390857Y-24210000D01*
X87438476Y-24257619D01*
X87486095Y-24352857D01*
X87486095Y-24448095D01*
X87438476Y-24590952D01*
X86867047Y-25162380D01*
X87486095Y-25162380D01*
X78914666Y-21702380D02*
X78914666Y-22416666D01*
X78867047Y-22559523D01*
X78771809Y-22654761D01*
X78628952Y-22702380D01*
X78533714Y-22702380D01*
X79819428Y-22035714D02*
X79819428Y-22702380D01*
X79581333Y-21654761D02*
X79343238Y-22369047D01*
X79962285Y-22369047D01*
%TO.C,J3*%
X15835380Y-112315047D02*
X16835380Y-111648380D01*
X15835380Y-111648380D02*
X16835380Y-112315047D01*
X15835380Y-111410285D02*
X15835380Y-110838857D01*
X16835380Y-111124571D02*
X15835380Y-111124571D01*
X15835380Y-110076952D02*
X15835380Y-110267428D01*
X15883000Y-110362666D01*
X15930619Y-110410285D01*
X16073476Y-110505523D01*
X16263952Y-110553142D01*
X16644904Y-110553142D01*
X16740142Y-110505523D01*
X16787761Y-110457904D01*
X16835380Y-110362666D01*
X16835380Y-110172190D01*
X16787761Y-110076952D01*
X16740142Y-110029333D01*
X16644904Y-109981714D01*
X16406809Y-109981714D01*
X16311571Y-110029333D01*
X16263952Y-110076952D01*
X16216333Y-110172190D01*
X16216333Y-110362666D01*
X16263952Y-110457904D01*
X16311571Y-110505523D01*
X16406809Y-110553142D01*
X15835380Y-109362666D02*
X15835380Y-109267428D01*
X15883000Y-109172190D01*
X15930619Y-109124571D01*
X16025857Y-109076952D01*
X16216333Y-109029333D01*
X16454428Y-109029333D01*
X16644904Y-109076952D01*
X16740142Y-109124571D01*
X16787761Y-109172190D01*
X16835380Y-109267428D01*
X16835380Y-109362666D01*
X16787761Y-109457904D01*
X16740142Y-109505523D01*
X16644904Y-109553142D01*
X16454428Y-109600761D01*
X16216333Y-109600761D01*
X16025857Y-109553142D01*
X15930619Y-109505523D01*
X15883000Y-109457904D01*
X15835380Y-109362666D01*
X16454428Y-108600761D02*
X16454428Y-107838857D01*
X16835380Y-107362666D02*
X15835380Y-107362666D01*
X16549666Y-107029333D01*
X15835380Y-106696000D01*
X16835380Y-106696000D01*
X16930619Y-106457904D02*
X16930619Y-105696000D01*
X16835380Y-104886476D02*
X16359190Y-105219809D01*
X16835380Y-105457904D02*
X15835380Y-105457904D01*
X15835380Y-105076952D01*
X15883000Y-104981714D01*
X15930619Y-104934095D01*
X16025857Y-104886476D01*
X16168714Y-104886476D01*
X16263952Y-104934095D01*
X16311571Y-104981714D01*
X16359190Y-105076952D01*
X16359190Y-105457904D01*
X16787761Y-104076952D02*
X16835380Y-104172190D01*
X16835380Y-104362666D01*
X16787761Y-104457904D01*
X16692523Y-104505523D01*
X16311571Y-104505523D01*
X16216333Y-104457904D01*
X16168714Y-104362666D01*
X16168714Y-104172190D01*
X16216333Y-104076952D01*
X16311571Y-104029333D01*
X16406809Y-104029333D01*
X16502047Y-104505523D01*
X16835380Y-103172190D02*
X15835380Y-103172190D01*
X16787761Y-103172190D02*
X16835380Y-103267428D01*
X16835380Y-103457904D01*
X16787761Y-103553142D01*
X16740142Y-103600761D01*
X16644904Y-103648380D01*
X16359190Y-103648380D01*
X16263952Y-103600761D01*
X16216333Y-103553142D01*
X16168714Y-103457904D01*
X16168714Y-103267428D01*
X16216333Y-103172190D01*
X25995380Y-108029333D02*
X26709666Y-108029333D01*
X26852523Y-108076952D01*
X26947761Y-108172190D01*
X26995380Y-108315047D01*
X26995380Y-108410285D01*
X25995380Y-107648380D02*
X25995380Y-107029333D01*
X26376333Y-107362666D01*
X26376333Y-107219809D01*
X26423952Y-107124571D01*
X26471571Y-107076952D01*
X26566809Y-107029333D01*
X26804904Y-107029333D01*
X26900142Y-107076952D01*
X26947761Y-107124571D01*
X26995380Y-107219809D01*
X26995380Y-107505523D01*
X26947761Y-107600761D01*
X26900142Y-107648380D01*
%TO.C,J2*%
X15835380Y-124737142D02*
X16835380Y-124070476D01*
X15835380Y-124070476D02*
X16835380Y-124737142D01*
X15835380Y-123832380D02*
X15835380Y-123260952D01*
X16835380Y-123546666D02*
X15835380Y-123546666D01*
X15835380Y-122499047D02*
X15835380Y-122689523D01*
X15883000Y-122784761D01*
X15930619Y-122832380D01*
X16073476Y-122927619D01*
X16263952Y-122975238D01*
X16644904Y-122975238D01*
X16740142Y-122927619D01*
X16787761Y-122880000D01*
X16835380Y-122784761D01*
X16835380Y-122594285D01*
X16787761Y-122499047D01*
X16740142Y-122451428D01*
X16644904Y-122403809D01*
X16406809Y-122403809D01*
X16311571Y-122451428D01*
X16263952Y-122499047D01*
X16216333Y-122594285D01*
X16216333Y-122784761D01*
X16263952Y-122880000D01*
X16311571Y-122927619D01*
X16406809Y-122975238D01*
X15835380Y-121784761D02*
X15835380Y-121689523D01*
X15883000Y-121594285D01*
X15930619Y-121546666D01*
X16025857Y-121499047D01*
X16216333Y-121451428D01*
X16454428Y-121451428D01*
X16644904Y-121499047D01*
X16740142Y-121546666D01*
X16787761Y-121594285D01*
X16835380Y-121689523D01*
X16835380Y-121784761D01*
X16787761Y-121880000D01*
X16740142Y-121927619D01*
X16644904Y-121975238D01*
X16454428Y-122022857D01*
X16216333Y-122022857D01*
X16025857Y-121975238D01*
X15930619Y-121927619D01*
X15883000Y-121880000D01*
X15835380Y-121784761D01*
X16454428Y-121022857D02*
X16454428Y-120260952D01*
X16835380Y-119784761D02*
X15835380Y-119784761D01*
X16549666Y-119451428D01*
X15835380Y-119118095D01*
X16835380Y-119118095D01*
X16930619Y-118880000D02*
X16930619Y-118118095D01*
X15883000Y-117356190D02*
X15835380Y-117451428D01*
X15835380Y-117594285D01*
X15883000Y-117737142D01*
X15978238Y-117832380D01*
X16073476Y-117880000D01*
X16263952Y-117927619D01*
X16406809Y-117927619D01*
X16597285Y-117880000D01*
X16692523Y-117832380D01*
X16787761Y-117737142D01*
X16835380Y-117594285D01*
X16835380Y-117499047D01*
X16787761Y-117356190D01*
X16740142Y-117308571D01*
X16406809Y-117308571D01*
X16406809Y-117499047D01*
X16835380Y-116880000D02*
X16168714Y-116880000D01*
X16359190Y-116880000D02*
X16263952Y-116832380D01*
X16216333Y-116784761D01*
X16168714Y-116689523D01*
X16168714Y-116594285D01*
X16787761Y-115880000D02*
X16835380Y-115975238D01*
X16835380Y-116165714D01*
X16787761Y-116260952D01*
X16692523Y-116308571D01*
X16311571Y-116308571D01*
X16216333Y-116260952D01*
X16168714Y-116165714D01*
X16168714Y-115975238D01*
X16216333Y-115880000D01*
X16311571Y-115832380D01*
X16406809Y-115832380D01*
X16502047Y-116308571D01*
X16787761Y-115022857D02*
X16835380Y-115118095D01*
X16835380Y-115308571D01*
X16787761Y-115403809D01*
X16692523Y-115451428D01*
X16311571Y-115451428D01*
X16216333Y-115403809D01*
X16168714Y-115308571D01*
X16168714Y-115118095D01*
X16216333Y-115022857D01*
X16311571Y-114975238D01*
X16406809Y-114975238D01*
X16502047Y-115451428D01*
X16168714Y-114546666D02*
X16835380Y-114546666D01*
X16263952Y-114546666D02*
X16216333Y-114499047D01*
X16168714Y-114403809D01*
X16168714Y-114260952D01*
X16216333Y-114165714D01*
X16311571Y-114118095D01*
X16835380Y-114118095D01*
X25995380Y-119713333D02*
X26709666Y-119713333D01*
X26852523Y-119760952D01*
X26947761Y-119856190D01*
X26995380Y-119999047D01*
X26995380Y-120094285D01*
X26090619Y-119284761D02*
X26043000Y-119237142D01*
X25995380Y-119141904D01*
X25995380Y-118903809D01*
X26043000Y-118808571D01*
X26090619Y-118760952D01*
X26185857Y-118713333D01*
X26281095Y-118713333D01*
X26423952Y-118760952D01*
X26995380Y-119332380D01*
X26995380Y-118713333D01*
%TO.C,K1*%
D14*
X77294619Y-106746523D02*
X77294619Y-105476523D01*
X78020333Y-106746523D02*
X77476047Y-106020809D01*
X78020333Y-105476523D02*
X77294619Y-106202238D01*
X79229857Y-106746523D02*
X78504142Y-106746523D01*
X78867000Y-106746523D02*
X78867000Y-105476523D01*
X78746047Y-105657952D01*
X78625095Y-105778904D01*
X78504142Y-105839380D01*
%TO.C,J1*%
D13*
X58309904Y-25114761D02*
X58452761Y-25162380D01*
X58690857Y-25162380D01*
X58786095Y-25114761D01*
X58833714Y-25067142D01*
X58881333Y-24971904D01*
X58881333Y-24876666D01*
X58833714Y-24781428D01*
X58786095Y-24733809D01*
X58690857Y-24686190D01*
X58500380Y-24638571D01*
X58405142Y-24590952D01*
X58357523Y-24543333D01*
X58309904Y-24448095D01*
X58309904Y-24352857D01*
X58357523Y-24257619D01*
X58405142Y-24210000D01*
X58500380Y-24162380D01*
X58738476Y-24162380D01*
X58881333Y-24210000D01*
X59738476Y-25114761D02*
X59643238Y-25162380D01*
X59452761Y-25162380D01*
X59357523Y-25114761D01*
X59309904Y-25067142D01*
X59262285Y-24971904D01*
X59262285Y-24686190D01*
X59309904Y-24590952D01*
X59357523Y-24543333D01*
X59452761Y-24495714D01*
X59643238Y-24495714D01*
X59738476Y-24543333D01*
X60167047Y-25162380D02*
X60167047Y-24495714D01*
X60167047Y-24686190D02*
X60214666Y-24590952D01*
X60262285Y-24543333D01*
X60357523Y-24495714D01*
X60452761Y-24495714D01*
X61167047Y-25114761D02*
X61071809Y-25162380D01*
X60881333Y-25162380D01*
X60786095Y-25114761D01*
X60738476Y-25019523D01*
X60738476Y-24638571D01*
X60786095Y-24543333D01*
X60881333Y-24495714D01*
X61071809Y-24495714D01*
X61167047Y-24543333D01*
X61214666Y-24638571D01*
X61214666Y-24733809D01*
X60738476Y-24829047D01*
X61547999Y-24495714D02*
X61738476Y-25162380D01*
X61928952Y-24686190D01*
X62119428Y-25162380D01*
X62309904Y-24495714D01*
X62452761Y-25257619D02*
X63214666Y-25257619D01*
X63309904Y-24162380D02*
X63881333Y-24162380D01*
X63595619Y-25162380D02*
X63595619Y-24162380D01*
X64595619Y-25114761D02*
X64500380Y-25162380D01*
X64309904Y-25162380D01*
X64214666Y-25114761D01*
X64167047Y-25019523D01*
X64167047Y-24638571D01*
X64214666Y-24543333D01*
X64309904Y-24495714D01*
X64500380Y-24495714D01*
X64595619Y-24543333D01*
X64643238Y-24638571D01*
X64643238Y-24733809D01*
X64167047Y-24829047D01*
X65071809Y-25162380D02*
X65071809Y-24495714D01*
X65071809Y-24686190D02*
X65119428Y-24590952D01*
X65167047Y-24543333D01*
X65262285Y-24495714D01*
X65357523Y-24495714D01*
X65690857Y-25162380D02*
X65690857Y-24495714D01*
X65690857Y-24590952D02*
X65738476Y-24543333D01*
X65833714Y-24495714D01*
X65976571Y-24495714D01*
X66071809Y-24543333D01*
X66119428Y-24638571D01*
X66119428Y-25162380D01*
X66119428Y-24638571D02*
X66167047Y-24543333D01*
X66262285Y-24495714D01*
X66405142Y-24495714D01*
X66500380Y-24543333D01*
X66548000Y-24638571D01*
X66548000Y-25162380D01*
X67024190Y-25162380D02*
X67024190Y-24495714D01*
X67024190Y-24162380D02*
X66976571Y-24210000D01*
X67024190Y-24257619D01*
X67071809Y-24210000D01*
X67024190Y-24162380D01*
X67024190Y-24257619D01*
X67500380Y-24495714D02*
X67500380Y-25162380D01*
X67500380Y-24590952D02*
X67548000Y-24543333D01*
X67643238Y-24495714D01*
X67786095Y-24495714D01*
X67881333Y-24543333D01*
X67928952Y-24638571D01*
X67928952Y-25162380D01*
X68833714Y-25162380D02*
X68833714Y-24638571D01*
X68786095Y-24543333D01*
X68690857Y-24495714D01*
X68500380Y-24495714D01*
X68405142Y-24543333D01*
X68833714Y-25114761D02*
X68738476Y-25162380D01*
X68500380Y-25162380D01*
X68405142Y-25114761D01*
X68357523Y-25019523D01*
X68357523Y-24924285D01*
X68405142Y-24829047D01*
X68500380Y-24781428D01*
X68738476Y-24781428D01*
X68833714Y-24733809D01*
X69452761Y-25162380D02*
X69357523Y-25114761D01*
X69309904Y-25019523D01*
X69309904Y-24162380D01*
X69595619Y-25257619D02*
X70357523Y-25257619D01*
X70786095Y-24162380D02*
X70881333Y-24162380D01*
X70976571Y-24210000D01*
X71024190Y-24257619D01*
X71071809Y-24352857D01*
X71119428Y-24543333D01*
X71119428Y-24781428D01*
X71071809Y-24971904D01*
X71024190Y-25067142D01*
X70976571Y-25114761D01*
X70881333Y-25162380D01*
X70786095Y-25162380D01*
X70690857Y-25114761D01*
X70643238Y-25067142D01*
X70595619Y-24971904D01*
X70548000Y-24781428D01*
X70548000Y-24543333D01*
X70595619Y-24352857D01*
X70643238Y-24257619D01*
X70690857Y-24210000D01*
X70786095Y-24162380D01*
X72071809Y-25162380D02*
X71500380Y-25162380D01*
X71786095Y-25162380D02*
X71786095Y-24162380D01*
X71690857Y-24305238D01*
X71595619Y-24400476D01*
X71500380Y-24448095D01*
X72405142Y-25162380D02*
X72928952Y-24495714D01*
X72405142Y-24495714D02*
X72928952Y-25162380D01*
X73500380Y-24162380D02*
X73595619Y-24162380D01*
X73690857Y-24210000D01*
X73738476Y-24257619D01*
X73786095Y-24352857D01*
X73833714Y-24543333D01*
X73833714Y-24781428D01*
X73786095Y-24971904D01*
X73738476Y-25067142D01*
X73690857Y-25114761D01*
X73595619Y-25162380D01*
X73500380Y-25162380D01*
X73405142Y-25114761D01*
X73357523Y-25067142D01*
X73309904Y-24971904D01*
X73262285Y-24781428D01*
X73262285Y-24543333D01*
X73309904Y-24352857D01*
X73357523Y-24257619D01*
X73405142Y-24210000D01*
X73500380Y-24162380D01*
X74214666Y-24257619D02*
X74262285Y-24210000D01*
X74357523Y-24162380D01*
X74595619Y-24162380D01*
X74690857Y-24210000D01*
X74738476Y-24257619D01*
X74786095Y-24352857D01*
X74786095Y-24448095D01*
X74738476Y-24590952D01*
X74167047Y-25162380D01*
X74786095Y-25162380D01*
X66214666Y-21702380D02*
X66214666Y-22416666D01*
X66167047Y-22559523D01*
X66071809Y-22654761D01*
X65928952Y-22702380D01*
X65833714Y-22702380D01*
X67214666Y-22702380D02*
X66643238Y-22702380D01*
X66928952Y-22702380D02*
X66928952Y-21702380D01*
X66833714Y-21845238D01*
X66738476Y-21940476D01*
X66643238Y-21988095D01*
%TO.C,J6*%
X45101904Y-25114761D02*
X45244761Y-25162380D01*
X45482857Y-25162380D01*
X45578095Y-25114761D01*
X45625714Y-25067142D01*
X45673333Y-24971904D01*
X45673333Y-24876666D01*
X45625714Y-24781428D01*
X45578095Y-24733809D01*
X45482857Y-24686190D01*
X45292380Y-24638571D01*
X45197142Y-24590952D01*
X45149523Y-24543333D01*
X45101904Y-24448095D01*
X45101904Y-24352857D01*
X45149523Y-24257619D01*
X45197142Y-24210000D01*
X45292380Y-24162380D01*
X45530476Y-24162380D01*
X45673333Y-24210000D01*
X46530476Y-25114761D02*
X46435238Y-25162380D01*
X46244761Y-25162380D01*
X46149523Y-25114761D01*
X46101904Y-25067142D01*
X46054285Y-24971904D01*
X46054285Y-24686190D01*
X46101904Y-24590952D01*
X46149523Y-24543333D01*
X46244761Y-24495714D01*
X46435238Y-24495714D01*
X46530476Y-24543333D01*
X46959047Y-25162380D02*
X46959047Y-24495714D01*
X46959047Y-24686190D02*
X47006666Y-24590952D01*
X47054285Y-24543333D01*
X47149523Y-24495714D01*
X47244761Y-24495714D01*
X47959047Y-25114761D02*
X47863809Y-25162380D01*
X47673333Y-25162380D01*
X47578095Y-25114761D01*
X47530476Y-25019523D01*
X47530476Y-24638571D01*
X47578095Y-24543333D01*
X47673333Y-24495714D01*
X47863809Y-24495714D01*
X47959047Y-24543333D01*
X48006666Y-24638571D01*
X48006666Y-24733809D01*
X47530476Y-24829047D01*
X48339999Y-24495714D02*
X48530476Y-25162380D01*
X48720952Y-24686190D01*
X48911428Y-25162380D01*
X49101904Y-24495714D01*
X49244761Y-25257619D02*
X50006666Y-25257619D01*
X50101904Y-24162380D02*
X50673333Y-24162380D01*
X50387619Y-25162380D02*
X50387619Y-24162380D01*
X51387619Y-25114761D02*
X51292380Y-25162380D01*
X51101904Y-25162380D01*
X51006666Y-25114761D01*
X50959047Y-25019523D01*
X50959047Y-24638571D01*
X51006666Y-24543333D01*
X51101904Y-24495714D01*
X51292380Y-24495714D01*
X51387619Y-24543333D01*
X51435238Y-24638571D01*
X51435238Y-24733809D01*
X50959047Y-24829047D01*
X51863809Y-25162380D02*
X51863809Y-24495714D01*
X51863809Y-24686190D02*
X51911428Y-24590952D01*
X51959047Y-24543333D01*
X52054285Y-24495714D01*
X52149523Y-24495714D01*
X52482857Y-25162380D02*
X52482857Y-24495714D01*
X52482857Y-24590952D02*
X52530476Y-24543333D01*
X52625714Y-24495714D01*
X52768571Y-24495714D01*
X52863809Y-24543333D01*
X52911428Y-24638571D01*
X52911428Y-25162380D01*
X52911428Y-24638571D02*
X52959047Y-24543333D01*
X53054285Y-24495714D01*
X53197142Y-24495714D01*
X53292380Y-24543333D01*
X53340000Y-24638571D01*
X53340000Y-25162380D01*
X53816190Y-25162380D02*
X53816190Y-24495714D01*
X53816190Y-24162380D02*
X53768571Y-24210000D01*
X53816190Y-24257619D01*
X53863809Y-24210000D01*
X53816190Y-24162380D01*
X53816190Y-24257619D01*
X54292380Y-24495714D02*
X54292380Y-25162380D01*
X54292380Y-24590952D02*
X54340000Y-24543333D01*
X54435238Y-24495714D01*
X54578095Y-24495714D01*
X54673333Y-24543333D01*
X54720952Y-24638571D01*
X54720952Y-25162380D01*
X55625714Y-25162380D02*
X55625714Y-24638571D01*
X55578095Y-24543333D01*
X55482857Y-24495714D01*
X55292380Y-24495714D01*
X55197142Y-24543333D01*
X55625714Y-25114761D02*
X55530476Y-25162380D01*
X55292380Y-25162380D01*
X55197142Y-25114761D01*
X55149523Y-25019523D01*
X55149523Y-24924285D01*
X55197142Y-24829047D01*
X55292380Y-24781428D01*
X55530476Y-24781428D01*
X55625714Y-24733809D01*
X56244761Y-25162380D02*
X56149523Y-25114761D01*
X56101904Y-25019523D01*
X56101904Y-24162380D01*
X56387619Y-25257619D02*
X57149523Y-25257619D01*
X57578095Y-24162380D02*
X57673333Y-24162380D01*
X57768571Y-24210000D01*
X57816190Y-24257619D01*
X57863809Y-24352857D01*
X57911428Y-24543333D01*
X57911428Y-24781428D01*
X57863809Y-24971904D01*
X57816190Y-25067142D01*
X57768571Y-25114761D01*
X57673333Y-25162380D01*
X57578095Y-25162380D01*
X57482857Y-25114761D01*
X57435238Y-25067142D01*
X57387619Y-24971904D01*
X57340000Y-24781428D01*
X57340000Y-24543333D01*
X57387619Y-24352857D01*
X57435238Y-24257619D01*
X57482857Y-24210000D01*
X57578095Y-24162380D01*
X58863809Y-25162380D02*
X58292380Y-25162380D01*
X58578095Y-25162380D02*
X58578095Y-24162380D01*
X58482857Y-24305238D01*
X58387619Y-24400476D01*
X58292380Y-24448095D01*
X59197142Y-25162380D02*
X59720952Y-24495714D01*
X59197142Y-24495714D02*
X59720952Y-25162380D01*
X60292380Y-24162380D02*
X60387619Y-24162380D01*
X60482857Y-24210000D01*
X60530476Y-24257619D01*
X60578095Y-24352857D01*
X60625714Y-24543333D01*
X60625714Y-24781428D01*
X60578095Y-24971904D01*
X60530476Y-25067142D01*
X60482857Y-25114761D01*
X60387619Y-25162380D01*
X60292380Y-25162380D01*
X60197142Y-25114761D01*
X60149523Y-25067142D01*
X60101904Y-24971904D01*
X60054285Y-24781428D01*
X60054285Y-24543333D01*
X60101904Y-24352857D01*
X60149523Y-24257619D01*
X60197142Y-24210000D01*
X60292380Y-24162380D01*
X61006666Y-24257619D02*
X61054285Y-24210000D01*
X61149523Y-24162380D01*
X61387619Y-24162380D01*
X61482857Y-24210000D01*
X61530476Y-24257619D01*
X61578095Y-24352857D01*
X61578095Y-24448095D01*
X61530476Y-24590952D01*
X60959047Y-25162380D01*
X61578095Y-25162380D01*
X53006666Y-21702380D02*
X53006666Y-22416666D01*
X52959047Y-22559523D01*
X52863809Y-22654761D01*
X52720952Y-22702380D01*
X52625714Y-22702380D01*
X53911428Y-21702380D02*
X53720952Y-21702380D01*
X53625714Y-21750000D01*
X53578095Y-21797619D01*
X53482857Y-21940476D01*
X53435238Y-22130952D01*
X53435238Y-22511904D01*
X53482857Y-22607142D01*
X53530476Y-22654761D01*
X53625714Y-22702380D01*
X53816190Y-22702380D01*
X53911428Y-22654761D01*
X53959047Y-22607142D01*
X54006666Y-22511904D01*
X54006666Y-22273809D01*
X53959047Y-22178571D01*
X53911428Y-22130952D01*
X53816190Y-22083333D01*
X53625714Y-22083333D01*
X53530476Y-22130952D01*
X53482857Y-22178571D01*
X53435238Y-22273809D01*
%TO.C,J7*%
X114982380Y-20438571D02*
X113982380Y-20438571D01*
X113982380Y-20057619D01*
X114030000Y-19962380D01*
X114077619Y-19914761D01*
X114172857Y-19867142D01*
X114315714Y-19867142D01*
X114410952Y-19914761D01*
X114458571Y-19962380D01*
X114506190Y-20057619D01*
X114506190Y-20438571D01*
X114982380Y-19438571D02*
X114315714Y-19438571D01*
X113982380Y-19438571D02*
X114030000Y-19486190D01*
X114077619Y-19438571D01*
X114030000Y-19390952D01*
X113982380Y-19438571D01*
X114077619Y-19438571D01*
X114315714Y-18962380D02*
X114982380Y-18962380D01*
X114410952Y-18962380D02*
X114363333Y-18914761D01*
X114315714Y-18819523D01*
X114315714Y-18676666D01*
X114363333Y-18581428D01*
X114458571Y-18533809D01*
X114982380Y-18533809D01*
X115077619Y-18295714D02*
X115077619Y-17533809D01*
X114982380Y-17295714D02*
X113982380Y-17295714D01*
X114458571Y-17295714D02*
X114458571Y-16724285D01*
X114982380Y-16724285D02*
X113982380Y-16724285D01*
X114934761Y-15867142D02*
X114982380Y-15962380D01*
X114982380Y-16152857D01*
X114934761Y-16248095D01*
X114839523Y-16295714D01*
X114458571Y-16295714D01*
X114363333Y-16248095D01*
X114315714Y-16152857D01*
X114315714Y-15962380D01*
X114363333Y-15867142D01*
X114458571Y-15819523D01*
X114553809Y-15819523D01*
X114649047Y-16295714D01*
X114982380Y-14962380D02*
X114458571Y-14962380D01*
X114363333Y-15010000D01*
X114315714Y-15105238D01*
X114315714Y-15295714D01*
X114363333Y-15390952D01*
X114934761Y-14962380D02*
X114982380Y-15057619D01*
X114982380Y-15295714D01*
X114934761Y-15390952D01*
X114839523Y-15438571D01*
X114744285Y-15438571D01*
X114649047Y-15390952D01*
X114601428Y-15295714D01*
X114601428Y-15057619D01*
X114553809Y-14962380D01*
X114982380Y-14057619D02*
X113982380Y-14057619D01*
X114934761Y-14057619D02*
X114982380Y-14152857D01*
X114982380Y-14343333D01*
X114934761Y-14438571D01*
X114887142Y-14486190D01*
X114791904Y-14533809D01*
X114506190Y-14533809D01*
X114410952Y-14486190D01*
X114363333Y-14438571D01*
X114315714Y-14343333D01*
X114315714Y-14152857D01*
X114363333Y-14057619D01*
X114934761Y-13200476D02*
X114982380Y-13295714D01*
X114982380Y-13486190D01*
X114934761Y-13581428D01*
X114839523Y-13629047D01*
X114458571Y-13629047D01*
X114363333Y-13581428D01*
X114315714Y-13486190D01*
X114315714Y-13295714D01*
X114363333Y-13200476D01*
X114458571Y-13152857D01*
X114553809Y-13152857D01*
X114649047Y-13629047D01*
X114982380Y-12724285D02*
X114315714Y-12724285D01*
X114506190Y-12724285D02*
X114410952Y-12676666D01*
X114363333Y-12629047D01*
X114315714Y-12533809D01*
X114315714Y-12438571D01*
X99996666Y-15962380D02*
X99996666Y-16676666D01*
X99949047Y-16819523D01*
X99853809Y-16914761D01*
X99710952Y-16962380D01*
X99615714Y-16962380D01*
X100377619Y-15962380D02*
X101044285Y-15962380D01*
X100615714Y-16962380D01*
%TO.C,H1*%
X14264285Y-28432380D02*
X14264285Y-27432380D01*
X14597619Y-28146666D01*
X14930952Y-27432380D01*
X14930952Y-28432380D01*
X15550000Y-28432380D02*
X15454761Y-28384761D01*
X15407142Y-28337142D01*
X15359523Y-28241904D01*
X15359523Y-27956190D01*
X15407142Y-27860952D01*
X15454761Y-27813333D01*
X15550000Y-27765714D01*
X15692857Y-27765714D01*
X15788095Y-27813333D01*
X15835714Y-27860952D01*
X15883333Y-27956190D01*
X15883333Y-28241904D01*
X15835714Y-28337142D01*
X15788095Y-28384761D01*
X15692857Y-28432380D01*
X15550000Y-28432380D01*
X16740476Y-27765714D02*
X16740476Y-28432380D01*
X16311904Y-27765714D02*
X16311904Y-28289523D01*
X16359523Y-28384761D01*
X16454761Y-28432380D01*
X16597619Y-28432380D01*
X16692857Y-28384761D01*
X16740476Y-28337142D01*
X17216666Y-27765714D02*
X17216666Y-28432380D01*
X17216666Y-27860952D02*
X17264285Y-27813333D01*
X17359523Y-27765714D01*
X17502380Y-27765714D01*
X17597619Y-27813333D01*
X17645238Y-27908571D01*
X17645238Y-28432380D01*
X17978571Y-27765714D02*
X18359523Y-27765714D01*
X18121428Y-27432380D02*
X18121428Y-28289523D01*
X18169047Y-28384761D01*
X18264285Y-28432380D01*
X18359523Y-28432380D01*
X18692857Y-28432380D02*
X18692857Y-27765714D01*
X18692857Y-27432380D02*
X18645238Y-27480000D01*
X18692857Y-27527619D01*
X18740476Y-27480000D01*
X18692857Y-27432380D01*
X18692857Y-27527619D01*
X19169047Y-27765714D02*
X19169047Y-28432380D01*
X19169047Y-27860952D02*
X19216666Y-27813333D01*
X19311904Y-27765714D01*
X19454761Y-27765714D01*
X19550000Y-27813333D01*
X19597619Y-27908571D01*
X19597619Y-28432380D01*
X20502380Y-27765714D02*
X20502380Y-28575238D01*
X20454761Y-28670476D01*
X20407142Y-28718095D01*
X20311904Y-28765714D01*
X20169047Y-28765714D01*
X20073809Y-28718095D01*
X20502380Y-28384761D02*
X20407142Y-28432380D01*
X20216666Y-28432380D01*
X20121428Y-28384761D01*
X20073809Y-28337142D01*
X20026190Y-28241904D01*
X20026190Y-27956190D01*
X20073809Y-27860952D01*
X20121428Y-27813333D01*
X20216666Y-27765714D01*
X20407142Y-27765714D01*
X20502380Y-27813333D01*
X20978571Y-28432380D02*
X20978571Y-27432380D01*
X20978571Y-27908571D02*
X21550000Y-27908571D01*
X21550000Y-28432380D02*
X21550000Y-27432380D01*
X22169047Y-28432380D02*
X22073809Y-28384761D01*
X22026190Y-28337142D01*
X21978571Y-28241904D01*
X21978571Y-27956190D01*
X22026190Y-27860952D01*
X22073809Y-27813333D01*
X22169047Y-27765714D01*
X22311904Y-27765714D01*
X22407142Y-27813333D01*
X22454761Y-27860952D01*
X22502380Y-27956190D01*
X22502380Y-28241904D01*
X22454761Y-28337142D01*
X22407142Y-28384761D01*
X22311904Y-28432380D01*
X22169047Y-28432380D01*
X23073809Y-28432380D02*
X22978571Y-28384761D01*
X22930952Y-28289523D01*
X22930952Y-27432380D01*
X23835714Y-28384761D02*
X23740476Y-28432380D01*
X23550000Y-28432380D01*
X23454761Y-28384761D01*
X23407142Y-28289523D01*
X23407142Y-27908571D01*
X23454761Y-27813333D01*
X23550000Y-27765714D01*
X23740476Y-27765714D01*
X23835714Y-27813333D01*
X23883333Y-27908571D01*
X23883333Y-28003809D01*
X23407142Y-28099047D01*
X18588095Y-24582380D02*
X18588095Y-23582380D01*
X18588095Y-24058571D02*
X19159523Y-24058571D01*
X19159523Y-24582380D02*
X19159523Y-23582380D01*
X20159523Y-24582380D02*
X19588095Y-24582380D01*
X19873809Y-24582380D02*
X19873809Y-23582380D01*
X19778571Y-23725238D01*
X19683333Y-23820476D01*
X19588095Y-23868095D01*
%TO.C,H2*%
X103164285Y-29702380D02*
X103164285Y-28702380D01*
X103497619Y-29416666D01*
X103830952Y-28702380D01*
X103830952Y-29702380D01*
X104450000Y-29702380D02*
X104354761Y-29654761D01*
X104307142Y-29607142D01*
X104259523Y-29511904D01*
X104259523Y-29226190D01*
X104307142Y-29130952D01*
X104354761Y-29083333D01*
X104450000Y-29035714D01*
X104592857Y-29035714D01*
X104688095Y-29083333D01*
X104735714Y-29130952D01*
X104783333Y-29226190D01*
X104783333Y-29511904D01*
X104735714Y-29607142D01*
X104688095Y-29654761D01*
X104592857Y-29702380D01*
X104450000Y-29702380D01*
X105640476Y-29035714D02*
X105640476Y-29702380D01*
X105211904Y-29035714D02*
X105211904Y-29559523D01*
X105259523Y-29654761D01*
X105354761Y-29702380D01*
X105497619Y-29702380D01*
X105592857Y-29654761D01*
X105640476Y-29607142D01*
X106116666Y-29035714D02*
X106116666Y-29702380D01*
X106116666Y-29130952D02*
X106164285Y-29083333D01*
X106259523Y-29035714D01*
X106402380Y-29035714D01*
X106497619Y-29083333D01*
X106545238Y-29178571D01*
X106545238Y-29702380D01*
X106878571Y-29035714D02*
X107259523Y-29035714D01*
X107021428Y-28702380D02*
X107021428Y-29559523D01*
X107069047Y-29654761D01*
X107164285Y-29702380D01*
X107259523Y-29702380D01*
X107592857Y-29702380D02*
X107592857Y-29035714D01*
X107592857Y-28702380D02*
X107545238Y-28750000D01*
X107592857Y-28797619D01*
X107640476Y-28750000D01*
X107592857Y-28702380D01*
X107592857Y-28797619D01*
X108069047Y-29035714D02*
X108069047Y-29702380D01*
X108069047Y-29130952D02*
X108116666Y-29083333D01*
X108211904Y-29035714D01*
X108354761Y-29035714D01*
X108450000Y-29083333D01*
X108497619Y-29178571D01*
X108497619Y-29702380D01*
X109402380Y-29035714D02*
X109402380Y-29845238D01*
X109354761Y-29940476D01*
X109307142Y-29988095D01*
X109211904Y-30035714D01*
X109069047Y-30035714D01*
X108973809Y-29988095D01*
X109402380Y-29654761D02*
X109307142Y-29702380D01*
X109116666Y-29702380D01*
X109021428Y-29654761D01*
X108973809Y-29607142D01*
X108926190Y-29511904D01*
X108926190Y-29226190D01*
X108973809Y-29130952D01*
X109021428Y-29083333D01*
X109116666Y-29035714D01*
X109307142Y-29035714D01*
X109402380Y-29083333D01*
X109878571Y-29702380D02*
X109878571Y-28702380D01*
X109878571Y-29178571D02*
X110450000Y-29178571D01*
X110450000Y-29702380D02*
X110450000Y-28702380D01*
X111069047Y-29702380D02*
X110973809Y-29654761D01*
X110926190Y-29607142D01*
X110878571Y-29511904D01*
X110878571Y-29226190D01*
X110926190Y-29130952D01*
X110973809Y-29083333D01*
X111069047Y-29035714D01*
X111211904Y-29035714D01*
X111307142Y-29083333D01*
X111354761Y-29130952D01*
X111402380Y-29226190D01*
X111402380Y-29511904D01*
X111354761Y-29607142D01*
X111307142Y-29654761D01*
X111211904Y-29702380D01*
X111069047Y-29702380D01*
X111973809Y-29702380D02*
X111878571Y-29654761D01*
X111830952Y-29559523D01*
X111830952Y-28702380D01*
X112735714Y-29654761D02*
X112640476Y-29702380D01*
X112450000Y-29702380D01*
X112354761Y-29654761D01*
X112307142Y-29559523D01*
X112307142Y-29178571D01*
X112354761Y-29083333D01*
X112450000Y-29035714D01*
X112640476Y-29035714D01*
X112735714Y-29083333D01*
X112783333Y-29178571D01*
X112783333Y-29273809D01*
X112307142Y-29369047D01*
X107488095Y-25852380D02*
X107488095Y-24852380D01*
X107488095Y-25328571D02*
X108059523Y-25328571D01*
X108059523Y-25852380D02*
X108059523Y-24852380D01*
X108488095Y-24947619D02*
X108535714Y-24900000D01*
X108630952Y-24852380D01*
X108869047Y-24852380D01*
X108964285Y-24900000D01*
X109011904Y-24947619D01*
X109059523Y-25042857D01*
X109059523Y-25138095D01*
X109011904Y-25280952D01*
X108440476Y-25852380D01*
X109059523Y-25852380D01*
%TO.C,H3*%
X28234285Y-123682380D02*
X28234285Y-122682380D01*
X28567619Y-123396666D01*
X28900952Y-122682380D01*
X28900952Y-123682380D01*
X29520000Y-123682380D02*
X29424761Y-123634761D01*
X29377142Y-123587142D01*
X29329523Y-123491904D01*
X29329523Y-123206190D01*
X29377142Y-123110952D01*
X29424761Y-123063333D01*
X29520000Y-123015714D01*
X29662857Y-123015714D01*
X29758095Y-123063333D01*
X29805714Y-123110952D01*
X29853333Y-123206190D01*
X29853333Y-123491904D01*
X29805714Y-123587142D01*
X29758095Y-123634761D01*
X29662857Y-123682380D01*
X29520000Y-123682380D01*
X30710476Y-123015714D02*
X30710476Y-123682380D01*
X30281904Y-123015714D02*
X30281904Y-123539523D01*
X30329523Y-123634761D01*
X30424761Y-123682380D01*
X30567619Y-123682380D01*
X30662857Y-123634761D01*
X30710476Y-123587142D01*
X31186666Y-123015714D02*
X31186666Y-123682380D01*
X31186666Y-123110952D02*
X31234285Y-123063333D01*
X31329523Y-123015714D01*
X31472380Y-123015714D01*
X31567619Y-123063333D01*
X31615238Y-123158571D01*
X31615238Y-123682380D01*
X31948571Y-123015714D02*
X32329523Y-123015714D01*
X32091428Y-122682380D02*
X32091428Y-123539523D01*
X32139047Y-123634761D01*
X32234285Y-123682380D01*
X32329523Y-123682380D01*
X32662857Y-123682380D02*
X32662857Y-123015714D01*
X32662857Y-122682380D02*
X32615238Y-122730000D01*
X32662857Y-122777619D01*
X32710476Y-122730000D01*
X32662857Y-122682380D01*
X32662857Y-122777619D01*
X33139047Y-123015714D02*
X33139047Y-123682380D01*
X33139047Y-123110952D02*
X33186666Y-123063333D01*
X33281904Y-123015714D01*
X33424761Y-123015714D01*
X33520000Y-123063333D01*
X33567619Y-123158571D01*
X33567619Y-123682380D01*
X34472380Y-123015714D02*
X34472380Y-123825238D01*
X34424761Y-123920476D01*
X34377142Y-123968095D01*
X34281904Y-124015714D01*
X34139047Y-124015714D01*
X34043809Y-123968095D01*
X34472380Y-123634761D02*
X34377142Y-123682380D01*
X34186666Y-123682380D01*
X34091428Y-123634761D01*
X34043809Y-123587142D01*
X33996190Y-123491904D01*
X33996190Y-123206190D01*
X34043809Y-123110952D01*
X34091428Y-123063333D01*
X34186666Y-123015714D01*
X34377142Y-123015714D01*
X34472380Y-123063333D01*
X34948571Y-123682380D02*
X34948571Y-122682380D01*
X34948571Y-123158571D02*
X35520000Y-123158571D01*
X35520000Y-123682380D02*
X35520000Y-122682380D01*
X36139047Y-123682380D02*
X36043809Y-123634761D01*
X35996190Y-123587142D01*
X35948571Y-123491904D01*
X35948571Y-123206190D01*
X35996190Y-123110952D01*
X36043809Y-123063333D01*
X36139047Y-123015714D01*
X36281904Y-123015714D01*
X36377142Y-123063333D01*
X36424761Y-123110952D01*
X36472380Y-123206190D01*
X36472380Y-123491904D01*
X36424761Y-123587142D01*
X36377142Y-123634761D01*
X36281904Y-123682380D01*
X36139047Y-123682380D01*
X37043809Y-123682380D02*
X36948571Y-123634761D01*
X36900952Y-123539523D01*
X36900952Y-122682380D01*
X37805714Y-123634761D02*
X37710476Y-123682380D01*
X37520000Y-123682380D01*
X37424761Y-123634761D01*
X37377142Y-123539523D01*
X37377142Y-123158571D01*
X37424761Y-123063333D01*
X37520000Y-123015714D01*
X37710476Y-123015714D01*
X37805714Y-123063333D01*
X37853333Y-123158571D01*
X37853333Y-123253809D01*
X37377142Y-123349047D01*
X32558095Y-119832380D02*
X32558095Y-118832380D01*
X32558095Y-119308571D02*
X33129523Y-119308571D01*
X33129523Y-119832380D02*
X33129523Y-118832380D01*
X33510476Y-118832380D02*
X34129523Y-118832380D01*
X33796190Y-119213333D01*
X33939047Y-119213333D01*
X34034285Y-119260952D01*
X34081904Y-119308571D01*
X34129523Y-119403809D01*
X34129523Y-119641904D01*
X34081904Y-119737142D01*
X34034285Y-119784761D01*
X33939047Y-119832380D01*
X33653333Y-119832380D01*
X33558095Y-119784761D01*
X33510476Y-119737142D01*
%TO.C,H4*%
X104434285Y-123682380D02*
X104434285Y-122682380D01*
X104767619Y-123396666D01*
X105100952Y-122682380D01*
X105100952Y-123682380D01*
X105720000Y-123682380D02*
X105624761Y-123634761D01*
X105577142Y-123587142D01*
X105529523Y-123491904D01*
X105529523Y-123206190D01*
X105577142Y-123110952D01*
X105624761Y-123063333D01*
X105720000Y-123015714D01*
X105862857Y-123015714D01*
X105958095Y-123063333D01*
X106005714Y-123110952D01*
X106053333Y-123206190D01*
X106053333Y-123491904D01*
X106005714Y-123587142D01*
X105958095Y-123634761D01*
X105862857Y-123682380D01*
X105720000Y-123682380D01*
X106910476Y-123015714D02*
X106910476Y-123682380D01*
X106481904Y-123015714D02*
X106481904Y-123539523D01*
X106529523Y-123634761D01*
X106624761Y-123682380D01*
X106767619Y-123682380D01*
X106862857Y-123634761D01*
X106910476Y-123587142D01*
X107386666Y-123015714D02*
X107386666Y-123682380D01*
X107386666Y-123110952D02*
X107434285Y-123063333D01*
X107529523Y-123015714D01*
X107672380Y-123015714D01*
X107767619Y-123063333D01*
X107815238Y-123158571D01*
X107815238Y-123682380D01*
X108148571Y-123015714D02*
X108529523Y-123015714D01*
X108291428Y-122682380D02*
X108291428Y-123539523D01*
X108339047Y-123634761D01*
X108434285Y-123682380D01*
X108529523Y-123682380D01*
X108862857Y-123682380D02*
X108862857Y-123015714D01*
X108862857Y-122682380D02*
X108815238Y-122730000D01*
X108862857Y-122777619D01*
X108910476Y-122730000D01*
X108862857Y-122682380D01*
X108862857Y-122777619D01*
X109339047Y-123015714D02*
X109339047Y-123682380D01*
X109339047Y-123110952D02*
X109386666Y-123063333D01*
X109481904Y-123015714D01*
X109624761Y-123015714D01*
X109720000Y-123063333D01*
X109767619Y-123158571D01*
X109767619Y-123682380D01*
X110672380Y-123015714D02*
X110672380Y-123825238D01*
X110624761Y-123920476D01*
X110577142Y-123968095D01*
X110481904Y-124015714D01*
X110339047Y-124015714D01*
X110243809Y-123968095D01*
X110672380Y-123634761D02*
X110577142Y-123682380D01*
X110386666Y-123682380D01*
X110291428Y-123634761D01*
X110243809Y-123587142D01*
X110196190Y-123491904D01*
X110196190Y-123206190D01*
X110243809Y-123110952D01*
X110291428Y-123063333D01*
X110386666Y-123015714D01*
X110577142Y-123015714D01*
X110672380Y-123063333D01*
X111148571Y-123682380D02*
X111148571Y-122682380D01*
X111148571Y-123158571D02*
X111720000Y-123158571D01*
X111720000Y-123682380D02*
X111720000Y-122682380D01*
X112339047Y-123682380D02*
X112243809Y-123634761D01*
X112196190Y-123587142D01*
X112148571Y-123491904D01*
X112148571Y-123206190D01*
X112196190Y-123110952D01*
X112243809Y-123063333D01*
X112339047Y-123015714D01*
X112481904Y-123015714D01*
X112577142Y-123063333D01*
X112624761Y-123110952D01*
X112672380Y-123206190D01*
X112672380Y-123491904D01*
X112624761Y-123587142D01*
X112577142Y-123634761D01*
X112481904Y-123682380D01*
X112339047Y-123682380D01*
X113243809Y-123682380D02*
X113148571Y-123634761D01*
X113100952Y-123539523D01*
X113100952Y-122682380D01*
X114005714Y-123634761D02*
X113910476Y-123682380D01*
X113720000Y-123682380D01*
X113624761Y-123634761D01*
X113577142Y-123539523D01*
X113577142Y-123158571D01*
X113624761Y-123063333D01*
X113720000Y-123015714D01*
X113910476Y-123015714D01*
X114005714Y-123063333D01*
X114053333Y-123158571D01*
X114053333Y-123253809D01*
X113577142Y-123349047D01*
X108758095Y-119832380D02*
X108758095Y-118832380D01*
X108758095Y-119308571D02*
X109329523Y-119308571D01*
X109329523Y-119832380D02*
X109329523Y-118832380D01*
X110234285Y-119165714D02*
X110234285Y-119832380D01*
X109996190Y-118784761D02*
X109758095Y-119499047D01*
X110377142Y-119499047D01*
%TO.C,C1*%
X105823333Y-40767380D02*
X106442380Y-40767380D01*
X106109047Y-41148333D01*
X106251904Y-41148333D01*
X106347142Y-41195952D01*
X106394761Y-41243571D01*
X106442380Y-41338809D01*
X106442380Y-41576904D01*
X106394761Y-41672142D01*
X106347142Y-41719761D01*
X106251904Y-41767380D01*
X105966190Y-41767380D01*
X105870952Y-41719761D01*
X105823333Y-41672142D01*
X106775714Y-40767380D02*
X107394761Y-40767380D01*
X107061428Y-41148333D01*
X107204285Y-41148333D01*
X107299523Y-41195952D01*
X107347142Y-41243571D01*
X107394761Y-41338809D01*
X107394761Y-41576904D01*
X107347142Y-41672142D01*
X107299523Y-41719761D01*
X107204285Y-41767380D01*
X106918571Y-41767380D01*
X106823333Y-41719761D01*
X106775714Y-41672142D01*
X108013809Y-40767380D02*
X108109047Y-40767380D01*
X108204285Y-40815000D01*
X108251904Y-40862619D01*
X108299523Y-40957857D01*
X108347142Y-41148333D01*
X108347142Y-41386428D01*
X108299523Y-41576904D01*
X108251904Y-41672142D01*
X108204285Y-41719761D01*
X108109047Y-41767380D01*
X108013809Y-41767380D01*
X107918571Y-41719761D01*
X107870952Y-41672142D01*
X107823333Y-41576904D01*
X107775714Y-41386428D01*
X107775714Y-41148333D01*
X107823333Y-40957857D01*
X107870952Y-40862619D01*
X107918571Y-40815000D01*
X108013809Y-40767380D01*
X109204285Y-41100714D02*
X109204285Y-41767380D01*
X108775714Y-41100714D02*
X108775714Y-41624523D01*
X108823333Y-41719761D01*
X108918571Y-41767380D01*
X109061428Y-41767380D01*
X109156666Y-41719761D01*
X109204285Y-41672142D01*
X110013809Y-41243571D02*
X109680476Y-41243571D01*
X109680476Y-41767380D02*
X109680476Y-40767380D01*
X110156666Y-40767380D01*
X107823333Y-44172142D02*
X107775714Y-44219761D01*
X107632857Y-44267380D01*
X107537619Y-44267380D01*
X107394761Y-44219761D01*
X107299523Y-44124523D01*
X107251904Y-44029285D01*
X107204285Y-43838809D01*
X107204285Y-43695952D01*
X107251904Y-43505476D01*
X107299523Y-43410238D01*
X107394761Y-43315000D01*
X107537619Y-43267380D01*
X107632857Y-43267380D01*
X107775714Y-43315000D01*
X107823333Y-43362619D01*
X108775714Y-44267380D02*
X108204285Y-44267380D01*
X108490000Y-44267380D02*
X108490000Y-43267380D01*
X108394761Y-43410238D01*
X108299523Y-43505476D01*
X108204285Y-43553095D01*
%TO.C,C2*%
X106442380Y-34782380D02*
X105870952Y-34782380D01*
X106156666Y-34782380D02*
X106156666Y-33782380D01*
X106061428Y-33925238D01*
X105966190Y-34020476D01*
X105870952Y-34068095D01*
X107061428Y-33782380D02*
X107156666Y-33782380D01*
X107251904Y-33830000D01*
X107299523Y-33877619D01*
X107347142Y-33972857D01*
X107394761Y-34163333D01*
X107394761Y-34401428D01*
X107347142Y-34591904D01*
X107299523Y-34687142D01*
X107251904Y-34734761D01*
X107156666Y-34782380D01*
X107061428Y-34782380D01*
X106966190Y-34734761D01*
X106918571Y-34687142D01*
X106870952Y-34591904D01*
X106823333Y-34401428D01*
X106823333Y-34163333D01*
X106870952Y-33972857D01*
X106918571Y-33877619D01*
X106966190Y-33830000D01*
X107061428Y-33782380D01*
X108013809Y-33782380D02*
X108109047Y-33782380D01*
X108204285Y-33830000D01*
X108251904Y-33877619D01*
X108299523Y-33972857D01*
X108347142Y-34163333D01*
X108347142Y-34401428D01*
X108299523Y-34591904D01*
X108251904Y-34687142D01*
X108204285Y-34734761D01*
X108109047Y-34782380D01*
X108013809Y-34782380D01*
X107918571Y-34734761D01*
X107870952Y-34687142D01*
X107823333Y-34591904D01*
X107775714Y-34401428D01*
X107775714Y-34163333D01*
X107823333Y-33972857D01*
X107870952Y-33877619D01*
X107918571Y-33830000D01*
X108013809Y-33782380D01*
X109204285Y-34115714D02*
X109204285Y-34782380D01*
X108775714Y-34115714D02*
X108775714Y-34639523D01*
X108823333Y-34734761D01*
X108918571Y-34782380D01*
X109061428Y-34782380D01*
X109156666Y-34734761D01*
X109204285Y-34687142D01*
X110013809Y-34258571D02*
X109680476Y-34258571D01*
X109680476Y-34782380D02*
X109680476Y-33782380D01*
X110156666Y-33782380D01*
X107823333Y-37187142D02*
X107775714Y-37234761D01*
X107632857Y-37282380D01*
X107537619Y-37282380D01*
X107394761Y-37234761D01*
X107299523Y-37139523D01*
X107251904Y-37044285D01*
X107204285Y-36853809D01*
X107204285Y-36710952D01*
X107251904Y-36520476D01*
X107299523Y-36425238D01*
X107394761Y-36330000D01*
X107537619Y-36282380D01*
X107632857Y-36282380D01*
X107775714Y-36330000D01*
X107823333Y-36377619D01*
X108204285Y-36377619D02*
X108251904Y-36330000D01*
X108347142Y-36282380D01*
X108585238Y-36282380D01*
X108680476Y-36330000D01*
X108728095Y-36377619D01*
X108775714Y-36472857D01*
X108775714Y-36568095D01*
X108728095Y-36710952D01*
X108156666Y-37282380D01*
X108775714Y-37282380D01*
%TO.C,L1*%
X108219523Y-58772380D02*
X107743333Y-58772380D01*
X107743333Y-57772380D01*
X107743333Y-52522380D02*
X107267142Y-52522380D01*
X107267142Y-51522380D01*
X108600476Y-52522380D02*
X108029047Y-52522380D01*
X108314761Y-52522380D02*
X108314761Y-51522380D01*
X108219523Y-51665238D01*
X108124285Y-51760476D01*
X108029047Y-51808095D01*
%TO.C,Q1*%
X79688571Y-48188333D02*
X79736190Y-48045476D01*
X79783809Y-47997857D01*
X79879047Y-47950238D01*
X80021904Y-47950238D01*
X80117142Y-47997857D01*
X80164761Y-48045476D01*
X80212380Y-48140714D01*
X80212380Y-48521666D01*
X79212380Y-48521666D01*
X79212380Y-48188333D01*
X79260000Y-48093095D01*
X79307619Y-48045476D01*
X79402857Y-47997857D01*
X79498095Y-47997857D01*
X79593333Y-48045476D01*
X79640952Y-48093095D01*
X79688571Y-48188333D01*
X79688571Y-48521666D01*
X80164761Y-47569285D02*
X80212380Y-47426428D01*
X80212380Y-47188333D01*
X80164761Y-47093095D01*
X80117142Y-47045476D01*
X80021904Y-46997857D01*
X79926666Y-46997857D01*
X79831428Y-47045476D01*
X79783809Y-47093095D01*
X79736190Y-47188333D01*
X79688571Y-47378809D01*
X79640952Y-47474047D01*
X79593333Y-47521666D01*
X79498095Y-47569285D01*
X79402857Y-47569285D01*
X79307619Y-47521666D01*
X79260000Y-47474047D01*
X79212380Y-47378809D01*
X79212380Y-47140714D01*
X79260000Y-46997857D01*
X80212380Y-46045476D02*
X80212380Y-46616904D01*
X80212380Y-46331190D02*
X79212380Y-46331190D01*
X79355238Y-46426428D01*
X79450476Y-46521666D01*
X79498095Y-46616904D01*
X79212380Y-45712142D02*
X79212380Y-45045476D01*
X80212380Y-45474047D01*
X79212380Y-44474047D02*
X79212380Y-44378809D01*
X79260000Y-44283571D01*
X79307619Y-44235952D01*
X79402857Y-44188333D01*
X79593333Y-44140714D01*
X79831428Y-44140714D01*
X80021904Y-44188333D01*
X80117142Y-44235952D01*
X80164761Y-44283571D01*
X80212380Y-44378809D01*
X80212380Y-44474047D01*
X80164761Y-44569285D01*
X80117142Y-44616904D01*
X80021904Y-44664523D01*
X79831428Y-44712142D01*
X79593333Y-44712142D01*
X79402857Y-44664523D01*
X79307619Y-44616904D01*
X79260000Y-44569285D01*
X79212380Y-44474047D01*
X86657619Y-46450238D02*
X86610000Y-46545476D01*
X86514761Y-46640714D01*
X86371904Y-46783571D01*
X86324285Y-46878809D01*
X86324285Y-46974047D01*
X86562380Y-46926428D02*
X86514761Y-47021666D01*
X86419523Y-47116904D01*
X86229047Y-47164523D01*
X85895714Y-47164523D01*
X85705238Y-47116904D01*
X85610000Y-47021666D01*
X85562380Y-46926428D01*
X85562380Y-46735952D01*
X85610000Y-46640714D01*
X85705238Y-46545476D01*
X85895714Y-46497857D01*
X86229047Y-46497857D01*
X86419523Y-46545476D01*
X86514761Y-46640714D01*
X86562380Y-46735952D01*
X86562380Y-46926428D01*
X86562380Y-45545476D02*
X86562380Y-46116904D01*
X86562380Y-45831190D02*
X85562380Y-45831190D01*
X85705238Y-45926428D01*
X85800476Y-46021666D01*
X85848095Y-46116904D01*
%TO.C,Q2*%
X79688571Y-53903333D02*
X79736190Y-53760476D01*
X79783809Y-53712857D01*
X79879047Y-53665238D01*
X80021904Y-53665238D01*
X80117142Y-53712857D01*
X80164761Y-53760476D01*
X80212380Y-53855714D01*
X80212380Y-54236666D01*
X79212380Y-54236666D01*
X79212380Y-53903333D01*
X79260000Y-53808095D01*
X79307619Y-53760476D01*
X79402857Y-53712857D01*
X79498095Y-53712857D01*
X79593333Y-53760476D01*
X79640952Y-53808095D01*
X79688571Y-53903333D01*
X79688571Y-54236666D01*
X80164761Y-53284285D02*
X80212380Y-53141428D01*
X80212380Y-52903333D01*
X80164761Y-52808095D01*
X80117142Y-52760476D01*
X80021904Y-52712857D01*
X79926666Y-52712857D01*
X79831428Y-52760476D01*
X79783809Y-52808095D01*
X79736190Y-52903333D01*
X79688571Y-53093809D01*
X79640952Y-53189047D01*
X79593333Y-53236666D01*
X79498095Y-53284285D01*
X79402857Y-53284285D01*
X79307619Y-53236666D01*
X79260000Y-53189047D01*
X79212380Y-53093809D01*
X79212380Y-52855714D01*
X79260000Y-52712857D01*
X80212380Y-51760476D02*
X80212380Y-52331904D01*
X80212380Y-52046190D02*
X79212380Y-52046190D01*
X79355238Y-52141428D01*
X79450476Y-52236666D01*
X79498095Y-52331904D01*
X79212380Y-51427142D02*
X79212380Y-50760476D01*
X80212380Y-51189047D01*
X79212380Y-50189047D02*
X79212380Y-50093809D01*
X79260000Y-49998571D01*
X79307619Y-49950952D01*
X79402857Y-49903333D01*
X79593333Y-49855714D01*
X79831428Y-49855714D01*
X80021904Y-49903333D01*
X80117142Y-49950952D01*
X80164761Y-49998571D01*
X80212380Y-50093809D01*
X80212380Y-50189047D01*
X80164761Y-50284285D01*
X80117142Y-50331904D01*
X80021904Y-50379523D01*
X79831428Y-50427142D01*
X79593333Y-50427142D01*
X79402857Y-50379523D01*
X79307619Y-50331904D01*
X79260000Y-50284285D01*
X79212380Y-50189047D01*
X86657619Y-52165238D02*
X86610000Y-52260476D01*
X86514761Y-52355714D01*
X86371904Y-52498571D01*
X86324285Y-52593809D01*
X86324285Y-52689047D01*
X86562380Y-52641428D02*
X86514761Y-52736666D01*
X86419523Y-52831904D01*
X86229047Y-52879523D01*
X85895714Y-52879523D01*
X85705238Y-52831904D01*
X85610000Y-52736666D01*
X85562380Y-52641428D01*
X85562380Y-52450952D01*
X85610000Y-52355714D01*
X85705238Y-52260476D01*
X85895714Y-52212857D01*
X86229047Y-52212857D01*
X86419523Y-52260476D01*
X86514761Y-52355714D01*
X86562380Y-52450952D01*
X86562380Y-52641428D01*
X85657619Y-51831904D02*
X85610000Y-51784285D01*
X85562380Y-51689047D01*
X85562380Y-51450952D01*
X85610000Y-51355714D01*
X85657619Y-51308095D01*
X85752857Y-51260476D01*
X85848095Y-51260476D01*
X85990952Y-51308095D01*
X86562380Y-51879523D01*
X86562380Y-51260476D01*
%TO.C,Q3*%
X79688571Y-59618333D02*
X79736190Y-59475476D01*
X79783809Y-59427857D01*
X79879047Y-59380238D01*
X80021904Y-59380238D01*
X80117142Y-59427857D01*
X80164761Y-59475476D01*
X80212380Y-59570714D01*
X80212380Y-59951666D01*
X79212380Y-59951666D01*
X79212380Y-59618333D01*
X79260000Y-59523095D01*
X79307619Y-59475476D01*
X79402857Y-59427857D01*
X79498095Y-59427857D01*
X79593333Y-59475476D01*
X79640952Y-59523095D01*
X79688571Y-59618333D01*
X79688571Y-59951666D01*
X80164761Y-58999285D02*
X80212380Y-58856428D01*
X80212380Y-58618333D01*
X80164761Y-58523095D01*
X80117142Y-58475476D01*
X80021904Y-58427857D01*
X79926666Y-58427857D01*
X79831428Y-58475476D01*
X79783809Y-58523095D01*
X79736190Y-58618333D01*
X79688571Y-58808809D01*
X79640952Y-58904047D01*
X79593333Y-58951666D01*
X79498095Y-58999285D01*
X79402857Y-58999285D01*
X79307619Y-58951666D01*
X79260000Y-58904047D01*
X79212380Y-58808809D01*
X79212380Y-58570714D01*
X79260000Y-58427857D01*
X80212380Y-57475476D02*
X80212380Y-58046904D01*
X80212380Y-57761190D02*
X79212380Y-57761190D01*
X79355238Y-57856428D01*
X79450476Y-57951666D01*
X79498095Y-58046904D01*
X79212380Y-57142142D02*
X79212380Y-56475476D01*
X80212380Y-56904047D01*
X79212380Y-55904047D02*
X79212380Y-55808809D01*
X79260000Y-55713571D01*
X79307619Y-55665952D01*
X79402857Y-55618333D01*
X79593333Y-55570714D01*
X79831428Y-55570714D01*
X80021904Y-55618333D01*
X80117142Y-55665952D01*
X80164761Y-55713571D01*
X80212380Y-55808809D01*
X80212380Y-55904047D01*
X80164761Y-55999285D01*
X80117142Y-56046904D01*
X80021904Y-56094523D01*
X79831428Y-56142142D01*
X79593333Y-56142142D01*
X79402857Y-56094523D01*
X79307619Y-56046904D01*
X79260000Y-55999285D01*
X79212380Y-55904047D01*
X86657619Y-57880238D02*
X86610000Y-57975476D01*
X86514761Y-58070714D01*
X86371904Y-58213571D01*
X86324285Y-58308809D01*
X86324285Y-58404047D01*
X86562380Y-58356428D02*
X86514761Y-58451666D01*
X86419523Y-58546904D01*
X86229047Y-58594523D01*
X85895714Y-58594523D01*
X85705238Y-58546904D01*
X85610000Y-58451666D01*
X85562380Y-58356428D01*
X85562380Y-58165952D01*
X85610000Y-58070714D01*
X85705238Y-57975476D01*
X85895714Y-57927857D01*
X86229047Y-57927857D01*
X86419523Y-57975476D01*
X86514761Y-58070714D01*
X86562380Y-58165952D01*
X86562380Y-58356428D01*
X85562380Y-57594523D02*
X85562380Y-56975476D01*
X85943333Y-57308809D01*
X85943333Y-57165952D01*
X85990952Y-57070714D01*
X86038571Y-57023095D01*
X86133809Y-56975476D01*
X86371904Y-56975476D01*
X86467142Y-57023095D01*
X86514761Y-57070714D01*
X86562380Y-57165952D01*
X86562380Y-57451666D01*
X86514761Y-57546904D01*
X86467142Y-57594523D01*
%TO.C,Q4*%
X70544571Y-59618333D02*
X70592190Y-59475476D01*
X70639809Y-59427857D01*
X70735047Y-59380238D01*
X70877904Y-59380238D01*
X70973142Y-59427857D01*
X71020761Y-59475476D01*
X71068380Y-59570714D01*
X71068380Y-59951666D01*
X70068380Y-59951666D01*
X70068380Y-59618333D01*
X70116000Y-59523095D01*
X70163619Y-59475476D01*
X70258857Y-59427857D01*
X70354095Y-59427857D01*
X70449333Y-59475476D01*
X70496952Y-59523095D01*
X70544571Y-59618333D01*
X70544571Y-59951666D01*
X71020761Y-58999285D02*
X71068380Y-58856428D01*
X71068380Y-58618333D01*
X71020761Y-58523095D01*
X70973142Y-58475476D01*
X70877904Y-58427857D01*
X70782666Y-58427857D01*
X70687428Y-58475476D01*
X70639809Y-58523095D01*
X70592190Y-58618333D01*
X70544571Y-58808809D01*
X70496952Y-58904047D01*
X70449333Y-58951666D01*
X70354095Y-58999285D01*
X70258857Y-58999285D01*
X70163619Y-58951666D01*
X70116000Y-58904047D01*
X70068380Y-58808809D01*
X70068380Y-58570714D01*
X70116000Y-58427857D01*
X71068380Y-57475476D02*
X71068380Y-58046904D01*
X71068380Y-57761190D02*
X70068380Y-57761190D01*
X70211238Y-57856428D01*
X70306476Y-57951666D01*
X70354095Y-58046904D01*
X70068380Y-57142142D02*
X70068380Y-56475476D01*
X71068380Y-56904047D01*
X70068380Y-55904047D02*
X70068380Y-55808809D01*
X70116000Y-55713571D01*
X70163619Y-55665952D01*
X70258857Y-55618333D01*
X70449333Y-55570714D01*
X70687428Y-55570714D01*
X70877904Y-55618333D01*
X70973142Y-55665952D01*
X71020761Y-55713571D01*
X71068380Y-55808809D01*
X71068380Y-55904047D01*
X71020761Y-55999285D01*
X70973142Y-56046904D01*
X70877904Y-56094523D01*
X70687428Y-56142142D01*
X70449333Y-56142142D01*
X70258857Y-56094523D01*
X70163619Y-56046904D01*
X70116000Y-55999285D01*
X70068380Y-55904047D01*
X77513619Y-57880238D02*
X77466000Y-57975476D01*
X77370761Y-58070714D01*
X77227904Y-58213571D01*
X77180285Y-58308809D01*
X77180285Y-58404047D01*
X77418380Y-58356428D02*
X77370761Y-58451666D01*
X77275523Y-58546904D01*
X77085047Y-58594523D01*
X76751714Y-58594523D01*
X76561238Y-58546904D01*
X76466000Y-58451666D01*
X76418380Y-58356428D01*
X76418380Y-58165952D01*
X76466000Y-58070714D01*
X76561238Y-57975476D01*
X76751714Y-57927857D01*
X77085047Y-57927857D01*
X77275523Y-57975476D01*
X77370761Y-58070714D01*
X77418380Y-58165952D01*
X77418380Y-58356428D01*
X76751714Y-57070714D02*
X77418380Y-57070714D01*
X76370761Y-57308809D02*
X77085047Y-57546904D01*
X77085047Y-56927857D01*
%TO.C,Q5*%
X70544571Y-53903333D02*
X70592190Y-53760476D01*
X70639809Y-53712857D01*
X70735047Y-53665238D01*
X70877904Y-53665238D01*
X70973142Y-53712857D01*
X71020761Y-53760476D01*
X71068380Y-53855714D01*
X71068380Y-54236666D01*
X70068380Y-54236666D01*
X70068380Y-53903333D01*
X70116000Y-53808095D01*
X70163619Y-53760476D01*
X70258857Y-53712857D01*
X70354095Y-53712857D01*
X70449333Y-53760476D01*
X70496952Y-53808095D01*
X70544571Y-53903333D01*
X70544571Y-54236666D01*
X71020761Y-53284285D02*
X71068380Y-53141428D01*
X71068380Y-52903333D01*
X71020761Y-52808095D01*
X70973142Y-52760476D01*
X70877904Y-52712857D01*
X70782666Y-52712857D01*
X70687428Y-52760476D01*
X70639809Y-52808095D01*
X70592190Y-52903333D01*
X70544571Y-53093809D01*
X70496952Y-53189047D01*
X70449333Y-53236666D01*
X70354095Y-53284285D01*
X70258857Y-53284285D01*
X70163619Y-53236666D01*
X70116000Y-53189047D01*
X70068380Y-53093809D01*
X70068380Y-52855714D01*
X70116000Y-52712857D01*
X71068380Y-51760476D02*
X71068380Y-52331904D01*
X71068380Y-52046190D02*
X70068380Y-52046190D01*
X70211238Y-52141428D01*
X70306476Y-52236666D01*
X70354095Y-52331904D01*
X70068380Y-51427142D02*
X70068380Y-50760476D01*
X71068380Y-51189047D01*
X70068380Y-50189047D02*
X70068380Y-50093809D01*
X70116000Y-49998571D01*
X70163619Y-49950952D01*
X70258857Y-49903333D01*
X70449333Y-49855714D01*
X70687428Y-49855714D01*
X70877904Y-49903333D01*
X70973142Y-49950952D01*
X71020761Y-49998571D01*
X71068380Y-50093809D01*
X71068380Y-50189047D01*
X71020761Y-50284285D01*
X70973142Y-50331904D01*
X70877904Y-50379523D01*
X70687428Y-50427142D01*
X70449333Y-50427142D01*
X70258857Y-50379523D01*
X70163619Y-50331904D01*
X70116000Y-50284285D01*
X70068380Y-50189047D01*
X77513619Y-52165238D02*
X77466000Y-52260476D01*
X77370761Y-52355714D01*
X77227904Y-52498571D01*
X77180285Y-52593809D01*
X77180285Y-52689047D01*
X77418380Y-52641428D02*
X77370761Y-52736666D01*
X77275523Y-52831904D01*
X77085047Y-52879523D01*
X76751714Y-52879523D01*
X76561238Y-52831904D01*
X76466000Y-52736666D01*
X76418380Y-52641428D01*
X76418380Y-52450952D01*
X76466000Y-52355714D01*
X76561238Y-52260476D01*
X76751714Y-52212857D01*
X77085047Y-52212857D01*
X77275523Y-52260476D01*
X77370761Y-52355714D01*
X77418380Y-52450952D01*
X77418380Y-52641428D01*
X76418380Y-51308095D02*
X76418380Y-51784285D01*
X76894571Y-51831904D01*
X76846952Y-51784285D01*
X76799333Y-51689047D01*
X76799333Y-51450952D01*
X76846952Y-51355714D01*
X76894571Y-51308095D01*
X76989809Y-51260476D01*
X77227904Y-51260476D01*
X77323142Y-51308095D01*
X77370761Y-51355714D01*
X77418380Y-51450952D01*
X77418380Y-51689047D01*
X77370761Y-51784285D01*
X77323142Y-51831904D01*
%TO.C,Q6*%
X70544571Y-48188333D02*
X70592190Y-48045476D01*
X70639809Y-47997857D01*
X70735047Y-47950238D01*
X70877904Y-47950238D01*
X70973142Y-47997857D01*
X71020761Y-48045476D01*
X71068380Y-48140714D01*
X71068380Y-48521666D01*
X70068380Y-48521666D01*
X70068380Y-48188333D01*
X70116000Y-48093095D01*
X70163619Y-48045476D01*
X70258857Y-47997857D01*
X70354095Y-47997857D01*
X70449333Y-48045476D01*
X70496952Y-48093095D01*
X70544571Y-48188333D01*
X70544571Y-48521666D01*
X71020761Y-47569285D02*
X71068380Y-47426428D01*
X71068380Y-47188333D01*
X71020761Y-47093095D01*
X70973142Y-47045476D01*
X70877904Y-46997857D01*
X70782666Y-46997857D01*
X70687428Y-47045476D01*
X70639809Y-47093095D01*
X70592190Y-47188333D01*
X70544571Y-47378809D01*
X70496952Y-47474047D01*
X70449333Y-47521666D01*
X70354095Y-47569285D01*
X70258857Y-47569285D01*
X70163619Y-47521666D01*
X70116000Y-47474047D01*
X70068380Y-47378809D01*
X70068380Y-47140714D01*
X70116000Y-46997857D01*
X71068380Y-46045476D02*
X71068380Y-46616904D01*
X71068380Y-46331190D02*
X70068380Y-46331190D01*
X70211238Y-46426428D01*
X70306476Y-46521666D01*
X70354095Y-46616904D01*
X70068380Y-45712142D02*
X70068380Y-45045476D01*
X71068380Y-45474047D01*
X70068380Y-44474047D02*
X70068380Y-44378809D01*
X70116000Y-44283571D01*
X70163619Y-44235952D01*
X70258857Y-44188333D01*
X70449333Y-44140714D01*
X70687428Y-44140714D01*
X70877904Y-44188333D01*
X70973142Y-44235952D01*
X71020761Y-44283571D01*
X71068380Y-44378809D01*
X71068380Y-44474047D01*
X71020761Y-44569285D01*
X70973142Y-44616904D01*
X70877904Y-44664523D01*
X70687428Y-44712142D01*
X70449333Y-44712142D01*
X70258857Y-44664523D01*
X70163619Y-44616904D01*
X70116000Y-44569285D01*
X70068380Y-44474047D01*
X77513619Y-46450238D02*
X77466000Y-46545476D01*
X77370761Y-46640714D01*
X77227904Y-46783571D01*
X77180285Y-46878809D01*
X77180285Y-46974047D01*
X77418380Y-46926428D02*
X77370761Y-47021666D01*
X77275523Y-47116904D01*
X77085047Y-47164523D01*
X76751714Y-47164523D01*
X76561238Y-47116904D01*
X76466000Y-47021666D01*
X76418380Y-46926428D01*
X76418380Y-46735952D01*
X76466000Y-46640714D01*
X76561238Y-46545476D01*
X76751714Y-46497857D01*
X77085047Y-46497857D01*
X77275523Y-46545476D01*
X77370761Y-46640714D01*
X77418380Y-46735952D01*
X77418380Y-46926428D01*
X76418380Y-45640714D02*
X76418380Y-45831190D01*
X76466000Y-45926428D01*
X76513619Y-45974047D01*
X76656476Y-46069285D01*
X76846952Y-46116904D01*
X77227904Y-46116904D01*
X77323142Y-46069285D01*
X77370761Y-46021666D01*
X77418380Y-45926428D01*
X77418380Y-45735952D01*
X77370761Y-45640714D01*
X77323142Y-45593095D01*
X77227904Y-45545476D01*
X76989809Y-45545476D01*
X76894571Y-45593095D01*
X76846952Y-45640714D01*
X76799333Y-45735952D01*
X76799333Y-45926428D01*
X76846952Y-46021666D01*
X76894571Y-46069285D01*
X76989809Y-46116904D01*
%TO.C,Q10*%
X79688571Y-31043333D02*
X79736190Y-30900476D01*
X79783809Y-30852857D01*
X79879047Y-30805238D01*
X80021904Y-30805238D01*
X80117142Y-30852857D01*
X80164761Y-30900476D01*
X80212380Y-30995714D01*
X80212380Y-31376666D01*
X79212380Y-31376666D01*
X79212380Y-31043333D01*
X79260000Y-30948095D01*
X79307619Y-30900476D01*
X79402857Y-30852857D01*
X79498095Y-30852857D01*
X79593333Y-30900476D01*
X79640952Y-30948095D01*
X79688571Y-31043333D01*
X79688571Y-31376666D01*
X80164761Y-30424285D02*
X80212380Y-30281428D01*
X80212380Y-30043333D01*
X80164761Y-29948095D01*
X80117142Y-29900476D01*
X80021904Y-29852857D01*
X79926666Y-29852857D01*
X79831428Y-29900476D01*
X79783809Y-29948095D01*
X79736190Y-30043333D01*
X79688571Y-30233809D01*
X79640952Y-30329047D01*
X79593333Y-30376666D01*
X79498095Y-30424285D01*
X79402857Y-30424285D01*
X79307619Y-30376666D01*
X79260000Y-30329047D01*
X79212380Y-30233809D01*
X79212380Y-29995714D01*
X79260000Y-29852857D01*
X80212380Y-28900476D02*
X80212380Y-29471904D01*
X80212380Y-29186190D02*
X79212380Y-29186190D01*
X79355238Y-29281428D01*
X79450476Y-29376666D01*
X79498095Y-29471904D01*
X79212380Y-28567142D02*
X79212380Y-27900476D01*
X80212380Y-28329047D01*
X79212380Y-27329047D02*
X79212380Y-27233809D01*
X79260000Y-27138571D01*
X79307619Y-27090952D01*
X79402857Y-27043333D01*
X79593333Y-26995714D01*
X79831428Y-26995714D01*
X80021904Y-27043333D01*
X80117142Y-27090952D01*
X80164761Y-27138571D01*
X80212380Y-27233809D01*
X80212380Y-27329047D01*
X80164761Y-27424285D01*
X80117142Y-27471904D01*
X80021904Y-27519523D01*
X79831428Y-27567142D01*
X79593333Y-27567142D01*
X79402857Y-27519523D01*
X79307619Y-27471904D01*
X79260000Y-27424285D01*
X79212380Y-27329047D01*
X86657619Y-29781428D02*
X86610000Y-29876666D01*
X86514761Y-29971904D01*
X86371904Y-30114761D01*
X86324285Y-30210000D01*
X86324285Y-30305238D01*
X86562380Y-30257619D02*
X86514761Y-30352857D01*
X86419523Y-30448095D01*
X86229047Y-30495714D01*
X85895714Y-30495714D01*
X85705238Y-30448095D01*
X85610000Y-30352857D01*
X85562380Y-30257619D01*
X85562380Y-30067142D01*
X85610000Y-29971904D01*
X85705238Y-29876666D01*
X85895714Y-29829047D01*
X86229047Y-29829047D01*
X86419523Y-29876666D01*
X86514761Y-29971904D01*
X86562380Y-30067142D01*
X86562380Y-30257619D01*
X86562380Y-28876666D02*
X86562380Y-29448095D01*
X86562380Y-29162380D02*
X85562380Y-29162380D01*
X85705238Y-29257619D01*
X85800476Y-29352857D01*
X85848095Y-29448095D01*
X85562380Y-28257619D02*
X85562380Y-28162380D01*
X85610000Y-28067142D01*
X85657619Y-28019523D01*
X85752857Y-27971904D01*
X85943333Y-27924285D01*
X86181428Y-27924285D01*
X86371904Y-27971904D01*
X86467142Y-28019523D01*
X86514761Y-28067142D01*
X86562380Y-28162380D01*
X86562380Y-28257619D01*
X86514761Y-28352857D01*
X86467142Y-28400476D01*
X86371904Y-28448095D01*
X86181428Y-28495714D01*
X85943333Y-28495714D01*
X85752857Y-28448095D01*
X85657619Y-28400476D01*
X85610000Y-28352857D01*
X85562380Y-28257619D01*
%TO.C,Q11*%
X79688571Y-36758333D02*
X79736190Y-36615476D01*
X79783809Y-36567857D01*
X79879047Y-36520238D01*
X80021904Y-36520238D01*
X80117142Y-36567857D01*
X80164761Y-36615476D01*
X80212380Y-36710714D01*
X80212380Y-37091666D01*
X79212380Y-37091666D01*
X79212380Y-36758333D01*
X79260000Y-36663095D01*
X79307619Y-36615476D01*
X79402857Y-36567857D01*
X79498095Y-36567857D01*
X79593333Y-36615476D01*
X79640952Y-36663095D01*
X79688571Y-36758333D01*
X79688571Y-37091666D01*
X80164761Y-36139285D02*
X80212380Y-35996428D01*
X80212380Y-35758333D01*
X80164761Y-35663095D01*
X80117142Y-35615476D01*
X80021904Y-35567857D01*
X79926666Y-35567857D01*
X79831428Y-35615476D01*
X79783809Y-35663095D01*
X79736190Y-35758333D01*
X79688571Y-35948809D01*
X79640952Y-36044047D01*
X79593333Y-36091666D01*
X79498095Y-36139285D01*
X79402857Y-36139285D01*
X79307619Y-36091666D01*
X79260000Y-36044047D01*
X79212380Y-35948809D01*
X79212380Y-35710714D01*
X79260000Y-35567857D01*
X80212380Y-34615476D02*
X80212380Y-35186904D01*
X80212380Y-34901190D02*
X79212380Y-34901190D01*
X79355238Y-34996428D01*
X79450476Y-35091666D01*
X79498095Y-35186904D01*
X79212380Y-34282142D02*
X79212380Y-33615476D01*
X80212380Y-34044047D01*
X79212380Y-33044047D02*
X79212380Y-32948809D01*
X79260000Y-32853571D01*
X79307619Y-32805952D01*
X79402857Y-32758333D01*
X79593333Y-32710714D01*
X79831428Y-32710714D01*
X80021904Y-32758333D01*
X80117142Y-32805952D01*
X80164761Y-32853571D01*
X80212380Y-32948809D01*
X80212380Y-33044047D01*
X80164761Y-33139285D01*
X80117142Y-33186904D01*
X80021904Y-33234523D01*
X79831428Y-33282142D01*
X79593333Y-33282142D01*
X79402857Y-33234523D01*
X79307619Y-33186904D01*
X79260000Y-33139285D01*
X79212380Y-33044047D01*
X86657619Y-35496428D02*
X86610000Y-35591666D01*
X86514761Y-35686904D01*
X86371904Y-35829761D01*
X86324285Y-35925000D01*
X86324285Y-36020238D01*
X86562380Y-35972619D02*
X86514761Y-36067857D01*
X86419523Y-36163095D01*
X86229047Y-36210714D01*
X85895714Y-36210714D01*
X85705238Y-36163095D01*
X85610000Y-36067857D01*
X85562380Y-35972619D01*
X85562380Y-35782142D01*
X85610000Y-35686904D01*
X85705238Y-35591666D01*
X85895714Y-35544047D01*
X86229047Y-35544047D01*
X86419523Y-35591666D01*
X86514761Y-35686904D01*
X86562380Y-35782142D01*
X86562380Y-35972619D01*
X86562380Y-34591666D02*
X86562380Y-35163095D01*
X86562380Y-34877380D02*
X85562380Y-34877380D01*
X85705238Y-34972619D01*
X85800476Y-35067857D01*
X85848095Y-35163095D01*
X86562380Y-33639285D02*
X86562380Y-34210714D01*
X86562380Y-33925000D02*
X85562380Y-33925000D01*
X85705238Y-34020238D01*
X85800476Y-34115476D01*
X85848095Y-34210714D01*
%TO.C,Q12*%
X79688571Y-42473333D02*
X79736190Y-42330476D01*
X79783809Y-42282857D01*
X79879047Y-42235238D01*
X80021904Y-42235238D01*
X80117142Y-42282857D01*
X80164761Y-42330476D01*
X80212380Y-42425714D01*
X80212380Y-42806666D01*
X79212380Y-42806666D01*
X79212380Y-42473333D01*
X79260000Y-42378095D01*
X79307619Y-42330476D01*
X79402857Y-42282857D01*
X79498095Y-42282857D01*
X79593333Y-42330476D01*
X79640952Y-42378095D01*
X79688571Y-42473333D01*
X79688571Y-42806666D01*
X80164761Y-41854285D02*
X80212380Y-41711428D01*
X80212380Y-41473333D01*
X80164761Y-41378095D01*
X80117142Y-41330476D01*
X80021904Y-41282857D01*
X79926666Y-41282857D01*
X79831428Y-41330476D01*
X79783809Y-41378095D01*
X79736190Y-41473333D01*
X79688571Y-41663809D01*
X79640952Y-41759047D01*
X79593333Y-41806666D01*
X79498095Y-41854285D01*
X79402857Y-41854285D01*
X79307619Y-41806666D01*
X79260000Y-41759047D01*
X79212380Y-41663809D01*
X79212380Y-41425714D01*
X79260000Y-41282857D01*
X80212380Y-40330476D02*
X80212380Y-40901904D01*
X80212380Y-40616190D02*
X79212380Y-40616190D01*
X79355238Y-40711428D01*
X79450476Y-40806666D01*
X79498095Y-40901904D01*
X79212380Y-39997142D02*
X79212380Y-39330476D01*
X80212380Y-39759047D01*
X79212380Y-38759047D02*
X79212380Y-38663809D01*
X79260000Y-38568571D01*
X79307619Y-38520952D01*
X79402857Y-38473333D01*
X79593333Y-38425714D01*
X79831428Y-38425714D01*
X80021904Y-38473333D01*
X80117142Y-38520952D01*
X80164761Y-38568571D01*
X80212380Y-38663809D01*
X80212380Y-38759047D01*
X80164761Y-38854285D01*
X80117142Y-38901904D01*
X80021904Y-38949523D01*
X79831428Y-38997142D01*
X79593333Y-38997142D01*
X79402857Y-38949523D01*
X79307619Y-38901904D01*
X79260000Y-38854285D01*
X79212380Y-38759047D01*
X86657619Y-41211428D02*
X86610000Y-41306666D01*
X86514761Y-41401904D01*
X86371904Y-41544761D01*
X86324285Y-41640000D01*
X86324285Y-41735238D01*
X86562380Y-41687619D02*
X86514761Y-41782857D01*
X86419523Y-41878095D01*
X86229047Y-41925714D01*
X85895714Y-41925714D01*
X85705238Y-41878095D01*
X85610000Y-41782857D01*
X85562380Y-41687619D01*
X85562380Y-41497142D01*
X85610000Y-41401904D01*
X85705238Y-41306666D01*
X85895714Y-41259047D01*
X86229047Y-41259047D01*
X86419523Y-41306666D01*
X86514761Y-41401904D01*
X86562380Y-41497142D01*
X86562380Y-41687619D01*
X86562380Y-40306666D02*
X86562380Y-40878095D01*
X86562380Y-40592380D02*
X85562380Y-40592380D01*
X85705238Y-40687619D01*
X85800476Y-40782857D01*
X85848095Y-40878095D01*
X85657619Y-39925714D02*
X85610000Y-39878095D01*
X85562380Y-39782857D01*
X85562380Y-39544761D01*
X85610000Y-39449523D01*
X85657619Y-39401904D01*
X85752857Y-39354285D01*
X85848095Y-39354285D01*
X85990952Y-39401904D01*
X86562380Y-39973333D01*
X86562380Y-39354285D01*
%TO.C,R5*%
X93725761Y-33328380D02*
X93154333Y-33328380D01*
X93440047Y-33328380D02*
X93440047Y-32328380D01*
X93344809Y-32471238D01*
X93249571Y-32566476D01*
X93154333Y-32614095D01*
X94344809Y-32328380D02*
X94440047Y-32328380D01*
X94535285Y-32376000D01*
X94582904Y-32423619D01*
X94630523Y-32518857D01*
X94678142Y-32709333D01*
X94678142Y-32947428D01*
X94630523Y-33137904D01*
X94582904Y-33233142D01*
X94535285Y-33280761D01*
X94440047Y-33328380D01*
X94344809Y-33328380D01*
X94249571Y-33280761D01*
X94201952Y-33233142D01*
X94154333Y-33137904D01*
X94106714Y-32947428D01*
X94106714Y-32709333D01*
X94154333Y-32518857D01*
X94201952Y-32423619D01*
X94249571Y-32376000D01*
X94344809Y-32328380D01*
X95106714Y-33328380D02*
X95106714Y-32328380D01*
X95201952Y-32947428D02*
X95487666Y-33328380D01*
X95487666Y-32661714D02*
X95106714Y-33042666D01*
X94154333Y-30958380D02*
X93821000Y-30482190D01*
X93582904Y-30958380D02*
X93582904Y-29958380D01*
X93963857Y-29958380D01*
X94059095Y-30006000D01*
X94106714Y-30053619D01*
X94154333Y-30148857D01*
X94154333Y-30291714D01*
X94106714Y-30386952D01*
X94059095Y-30434571D01*
X93963857Y-30482190D01*
X93582904Y-30482190D01*
X95059095Y-29958380D02*
X94582904Y-29958380D01*
X94535285Y-30434571D01*
X94582904Y-30386952D01*
X94678142Y-30339333D01*
X94916238Y-30339333D01*
X95011476Y-30386952D01*
X95059095Y-30434571D01*
X95106714Y-30529809D01*
X95106714Y-30767904D01*
X95059095Y-30863142D01*
X95011476Y-30910761D01*
X94916238Y-30958380D01*
X94678142Y-30958380D01*
X94582904Y-30910761D01*
X94535285Y-30863142D01*
%TO.C,R6*%
X93725761Y-37378380D02*
X93154333Y-37378380D01*
X93440047Y-37378380D02*
X93440047Y-36378380D01*
X93344809Y-36521238D01*
X93249571Y-36616476D01*
X93154333Y-36664095D01*
X94344809Y-36378380D02*
X94440047Y-36378380D01*
X94535285Y-36426000D01*
X94582904Y-36473619D01*
X94630523Y-36568857D01*
X94678142Y-36759333D01*
X94678142Y-36997428D01*
X94630523Y-37187904D01*
X94582904Y-37283142D01*
X94535285Y-37330761D01*
X94440047Y-37378380D01*
X94344809Y-37378380D01*
X94249571Y-37330761D01*
X94201952Y-37283142D01*
X94154333Y-37187904D01*
X94106714Y-36997428D01*
X94106714Y-36759333D01*
X94154333Y-36568857D01*
X94201952Y-36473619D01*
X94249571Y-36426000D01*
X94344809Y-36378380D01*
X95106714Y-37378380D02*
X95106714Y-36378380D01*
X95201952Y-36997428D02*
X95487666Y-37378380D01*
X95487666Y-36711714D02*
X95106714Y-37092666D01*
X94154333Y-35008380D02*
X93821000Y-34532190D01*
X93582904Y-35008380D02*
X93582904Y-34008380D01*
X93963857Y-34008380D01*
X94059095Y-34056000D01*
X94106714Y-34103619D01*
X94154333Y-34198857D01*
X94154333Y-34341714D01*
X94106714Y-34436952D01*
X94059095Y-34484571D01*
X93963857Y-34532190D01*
X93582904Y-34532190D01*
X95011476Y-34008380D02*
X94821000Y-34008380D01*
X94725761Y-34056000D01*
X94678142Y-34103619D01*
X94582904Y-34246476D01*
X94535285Y-34436952D01*
X94535285Y-34817904D01*
X94582904Y-34913142D01*
X94630523Y-34960761D01*
X94725761Y-35008380D01*
X94916238Y-35008380D01*
X95011476Y-34960761D01*
X95059095Y-34913142D01*
X95106714Y-34817904D01*
X95106714Y-34579809D01*
X95059095Y-34484571D01*
X95011476Y-34436952D01*
X94916238Y-34389333D01*
X94725761Y-34389333D01*
X94630523Y-34436952D01*
X94582904Y-34484571D01*
X94535285Y-34579809D01*
%TO.C,R7*%
X94019761Y-41557380D02*
X93448333Y-41557380D01*
X93734047Y-41557380D02*
X93734047Y-40557380D01*
X93638809Y-40700238D01*
X93543571Y-40795476D01*
X93448333Y-40843095D01*
X94638809Y-40557380D02*
X94734047Y-40557380D01*
X94829285Y-40605000D01*
X94876904Y-40652619D01*
X94924523Y-40747857D01*
X94972142Y-40938333D01*
X94972142Y-41176428D01*
X94924523Y-41366904D01*
X94876904Y-41462142D01*
X94829285Y-41509761D01*
X94734047Y-41557380D01*
X94638809Y-41557380D01*
X94543571Y-41509761D01*
X94495952Y-41462142D01*
X94448333Y-41366904D01*
X94400714Y-41176428D01*
X94400714Y-40938333D01*
X94448333Y-40747857D01*
X94495952Y-40652619D01*
X94543571Y-40605000D01*
X94638809Y-40557380D01*
X95400714Y-41557380D02*
X95400714Y-40557380D01*
X95495952Y-41176428D02*
X95781666Y-41557380D01*
X95781666Y-40890714D02*
X95400714Y-41271666D01*
X94448333Y-39187380D02*
X94115000Y-38711190D01*
X93876904Y-39187380D02*
X93876904Y-38187380D01*
X94257857Y-38187380D01*
X94353095Y-38235000D01*
X94400714Y-38282619D01*
X94448333Y-38377857D01*
X94448333Y-38520714D01*
X94400714Y-38615952D01*
X94353095Y-38663571D01*
X94257857Y-38711190D01*
X93876904Y-38711190D01*
X94781666Y-38187380D02*
X95448333Y-38187380D01*
X95019761Y-39187380D01*
%TO.C,R8*%
X94017761Y-45349380D02*
X93446333Y-45349380D01*
X93732047Y-45349380D02*
X93732047Y-44349380D01*
X93636809Y-44492238D01*
X93541571Y-44587476D01*
X93446333Y-44635095D01*
X94636809Y-44349380D02*
X94732047Y-44349380D01*
X94827285Y-44397000D01*
X94874904Y-44444619D01*
X94922523Y-44539857D01*
X94970142Y-44730333D01*
X94970142Y-44968428D01*
X94922523Y-45158904D01*
X94874904Y-45254142D01*
X94827285Y-45301761D01*
X94732047Y-45349380D01*
X94636809Y-45349380D01*
X94541571Y-45301761D01*
X94493952Y-45254142D01*
X94446333Y-45158904D01*
X94398714Y-44968428D01*
X94398714Y-44730333D01*
X94446333Y-44539857D01*
X94493952Y-44444619D01*
X94541571Y-44397000D01*
X94636809Y-44349380D01*
X95398714Y-45349380D02*
X95398714Y-44349380D01*
X95493952Y-44968428D02*
X95779666Y-45349380D01*
X95779666Y-44682714D02*
X95398714Y-45063666D01*
X94446333Y-42979380D02*
X94113000Y-42503190D01*
X93874904Y-42979380D02*
X93874904Y-41979380D01*
X94255857Y-41979380D01*
X94351095Y-42027000D01*
X94398714Y-42074619D01*
X94446333Y-42169857D01*
X94446333Y-42312714D01*
X94398714Y-42407952D01*
X94351095Y-42455571D01*
X94255857Y-42503190D01*
X93874904Y-42503190D01*
X95017761Y-42407952D02*
X94922523Y-42360333D01*
X94874904Y-42312714D01*
X94827285Y-42217476D01*
X94827285Y-42169857D01*
X94874904Y-42074619D01*
X94922523Y-42027000D01*
X95017761Y-41979380D01*
X95208238Y-41979380D01*
X95303476Y-42027000D01*
X95351095Y-42074619D01*
X95398714Y-42169857D01*
X95398714Y-42217476D01*
X95351095Y-42312714D01*
X95303476Y-42360333D01*
X95208238Y-42407952D01*
X95017761Y-42407952D01*
X94922523Y-42455571D01*
X94874904Y-42503190D01*
X94827285Y-42598428D01*
X94827285Y-42788904D01*
X94874904Y-42884142D01*
X94922523Y-42931761D01*
X95017761Y-42979380D01*
X95208238Y-42979380D01*
X95303476Y-42931761D01*
X95351095Y-42884142D01*
X95398714Y-42788904D01*
X95398714Y-42598428D01*
X95351095Y-42503190D01*
X95303476Y-42455571D01*
X95208238Y-42407952D01*
%TO.C,R9*%
X94017761Y-49399380D02*
X93446333Y-49399380D01*
X93732047Y-49399380D02*
X93732047Y-48399380D01*
X93636809Y-48542238D01*
X93541571Y-48637476D01*
X93446333Y-48685095D01*
X94636809Y-48399380D02*
X94732047Y-48399380D01*
X94827285Y-48447000D01*
X94874904Y-48494619D01*
X94922523Y-48589857D01*
X94970142Y-48780333D01*
X94970142Y-49018428D01*
X94922523Y-49208904D01*
X94874904Y-49304142D01*
X94827285Y-49351761D01*
X94732047Y-49399380D01*
X94636809Y-49399380D01*
X94541571Y-49351761D01*
X94493952Y-49304142D01*
X94446333Y-49208904D01*
X94398714Y-49018428D01*
X94398714Y-48780333D01*
X94446333Y-48589857D01*
X94493952Y-48494619D01*
X94541571Y-48447000D01*
X94636809Y-48399380D01*
X95398714Y-49399380D02*
X95398714Y-48399380D01*
X95493952Y-49018428D02*
X95779666Y-49399380D01*
X95779666Y-48732714D02*
X95398714Y-49113666D01*
X94446333Y-47029380D02*
X94113000Y-46553190D01*
X93874904Y-47029380D02*
X93874904Y-46029380D01*
X94255857Y-46029380D01*
X94351095Y-46077000D01*
X94398714Y-46124619D01*
X94446333Y-46219857D01*
X94446333Y-46362714D01*
X94398714Y-46457952D01*
X94351095Y-46505571D01*
X94255857Y-46553190D01*
X93874904Y-46553190D01*
X94922523Y-47029380D02*
X95113000Y-47029380D01*
X95208238Y-46981761D01*
X95255857Y-46934142D01*
X95351095Y-46791285D01*
X95398714Y-46600809D01*
X95398714Y-46219857D01*
X95351095Y-46124619D01*
X95303476Y-46077000D01*
X95208238Y-46029380D01*
X95017761Y-46029380D01*
X94922523Y-46077000D01*
X94874904Y-46124619D01*
X94827285Y-46219857D01*
X94827285Y-46457952D01*
X94874904Y-46553190D01*
X94922523Y-46600809D01*
X95017761Y-46648428D01*
X95208238Y-46648428D01*
X95303476Y-46600809D01*
X95351095Y-46553190D01*
X95398714Y-46457952D01*
%TO.C,R10*%
X94019761Y-52987380D02*
X93448333Y-52987380D01*
X93734047Y-52987380D02*
X93734047Y-51987380D01*
X93638809Y-52130238D01*
X93543571Y-52225476D01*
X93448333Y-52273095D01*
X94638809Y-51987380D02*
X94734047Y-51987380D01*
X94829285Y-52035000D01*
X94876904Y-52082619D01*
X94924523Y-52177857D01*
X94972142Y-52368333D01*
X94972142Y-52606428D01*
X94924523Y-52796904D01*
X94876904Y-52892142D01*
X94829285Y-52939761D01*
X94734047Y-52987380D01*
X94638809Y-52987380D01*
X94543571Y-52939761D01*
X94495952Y-52892142D01*
X94448333Y-52796904D01*
X94400714Y-52606428D01*
X94400714Y-52368333D01*
X94448333Y-52177857D01*
X94495952Y-52082619D01*
X94543571Y-52035000D01*
X94638809Y-51987380D01*
X95400714Y-52987380D02*
X95400714Y-51987380D01*
X95495952Y-52606428D02*
X95781666Y-52987380D01*
X95781666Y-52320714D02*
X95400714Y-52701666D01*
X93972142Y-50617380D02*
X93638809Y-50141190D01*
X93400714Y-50617380D02*
X93400714Y-49617380D01*
X93781666Y-49617380D01*
X93876904Y-49665000D01*
X93924523Y-49712619D01*
X93972142Y-49807857D01*
X93972142Y-49950714D01*
X93924523Y-50045952D01*
X93876904Y-50093571D01*
X93781666Y-50141190D01*
X93400714Y-50141190D01*
X94924523Y-50617380D02*
X94353095Y-50617380D01*
X94638809Y-50617380D02*
X94638809Y-49617380D01*
X94543571Y-49760238D01*
X94448333Y-49855476D01*
X94353095Y-49903095D01*
X95543571Y-49617380D02*
X95638809Y-49617380D01*
X95734047Y-49665000D01*
X95781666Y-49712619D01*
X95829285Y-49807857D01*
X95876904Y-49998333D01*
X95876904Y-50236428D01*
X95829285Y-50426904D01*
X95781666Y-50522142D01*
X95734047Y-50569761D01*
X95638809Y-50617380D01*
X95543571Y-50617380D01*
X95448333Y-50569761D01*
X95400714Y-50522142D01*
X95353095Y-50426904D01*
X95305476Y-50236428D01*
X95305476Y-49998333D01*
X95353095Y-49807857D01*
X95400714Y-49712619D01*
X95448333Y-49665000D01*
X95543571Y-49617380D01*
%TO.C,R14*%
X94019761Y-66957380D02*
X93448333Y-66957380D01*
X93734047Y-66957380D02*
X93734047Y-65957380D01*
X93638809Y-66100238D01*
X93543571Y-66195476D01*
X93448333Y-66243095D01*
X94638809Y-65957380D02*
X94734047Y-65957380D01*
X94829285Y-66005000D01*
X94876904Y-66052619D01*
X94924523Y-66147857D01*
X94972142Y-66338333D01*
X94972142Y-66576428D01*
X94924523Y-66766904D01*
X94876904Y-66862142D01*
X94829285Y-66909761D01*
X94734047Y-66957380D01*
X94638809Y-66957380D01*
X94543571Y-66909761D01*
X94495952Y-66862142D01*
X94448333Y-66766904D01*
X94400714Y-66576428D01*
X94400714Y-66338333D01*
X94448333Y-66147857D01*
X94495952Y-66052619D01*
X94543571Y-66005000D01*
X94638809Y-65957380D01*
X95400714Y-66957380D02*
X95400714Y-65957380D01*
X95495952Y-66576428D02*
X95781666Y-66957380D01*
X95781666Y-66290714D02*
X95400714Y-66671666D01*
X93972142Y-64587380D02*
X93638809Y-64111190D01*
X93400714Y-64587380D02*
X93400714Y-63587380D01*
X93781666Y-63587380D01*
X93876904Y-63635000D01*
X93924523Y-63682619D01*
X93972142Y-63777857D01*
X93972142Y-63920714D01*
X93924523Y-64015952D01*
X93876904Y-64063571D01*
X93781666Y-64111190D01*
X93400714Y-64111190D01*
X94924523Y-64587380D02*
X94353095Y-64587380D01*
X94638809Y-64587380D02*
X94638809Y-63587380D01*
X94543571Y-63730238D01*
X94448333Y-63825476D01*
X94353095Y-63873095D01*
X95781666Y-63920714D02*
X95781666Y-64587380D01*
X95543571Y-63539761D02*
X95305476Y-64254047D01*
X95924523Y-64254047D01*
%TO.C,R15*%
X94019761Y-70767380D02*
X93448333Y-70767380D01*
X93734047Y-70767380D02*
X93734047Y-69767380D01*
X93638809Y-69910238D01*
X93543571Y-70005476D01*
X93448333Y-70053095D01*
X94638809Y-69767380D02*
X94734047Y-69767380D01*
X94829285Y-69815000D01*
X94876904Y-69862619D01*
X94924523Y-69957857D01*
X94972142Y-70148333D01*
X94972142Y-70386428D01*
X94924523Y-70576904D01*
X94876904Y-70672142D01*
X94829285Y-70719761D01*
X94734047Y-70767380D01*
X94638809Y-70767380D01*
X94543571Y-70719761D01*
X94495952Y-70672142D01*
X94448333Y-70576904D01*
X94400714Y-70386428D01*
X94400714Y-70148333D01*
X94448333Y-69957857D01*
X94495952Y-69862619D01*
X94543571Y-69815000D01*
X94638809Y-69767380D01*
X95400714Y-70767380D02*
X95400714Y-69767380D01*
X95495952Y-70386428D02*
X95781666Y-70767380D01*
X95781666Y-70100714D02*
X95400714Y-70481666D01*
X93972142Y-68397380D02*
X93638809Y-67921190D01*
X93400714Y-68397380D02*
X93400714Y-67397380D01*
X93781666Y-67397380D01*
X93876904Y-67445000D01*
X93924523Y-67492619D01*
X93972142Y-67587857D01*
X93972142Y-67730714D01*
X93924523Y-67825952D01*
X93876904Y-67873571D01*
X93781666Y-67921190D01*
X93400714Y-67921190D01*
X94924523Y-68397380D02*
X94353095Y-68397380D01*
X94638809Y-68397380D02*
X94638809Y-67397380D01*
X94543571Y-67540238D01*
X94448333Y-67635476D01*
X94353095Y-67683095D01*
X95829285Y-67397380D02*
X95353095Y-67397380D01*
X95305476Y-67873571D01*
X95353095Y-67825952D01*
X95448333Y-67778333D01*
X95686428Y-67778333D01*
X95781666Y-67825952D01*
X95829285Y-67873571D01*
X95876904Y-67968809D01*
X95876904Y-68206904D01*
X95829285Y-68302142D01*
X95781666Y-68349761D01*
X95686428Y-68397380D01*
X95448333Y-68397380D01*
X95353095Y-68349761D01*
X95305476Y-68302142D01*
%TO.C,R16*%
X94019761Y-74577380D02*
X93448333Y-74577380D01*
X93734047Y-74577380D02*
X93734047Y-73577380D01*
X93638809Y-73720238D01*
X93543571Y-73815476D01*
X93448333Y-73863095D01*
X94638809Y-73577380D02*
X94734047Y-73577380D01*
X94829285Y-73625000D01*
X94876904Y-73672619D01*
X94924523Y-73767857D01*
X94972142Y-73958333D01*
X94972142Y-74196428D01*
X94924523Y-74386904D01*
X94876904Y-74482142D01*
X94829285Y-74529761D01*
X94734047Y-74577380D01*
X94638809Y-74577380D01*
X94543571Y-74529761D01*
X94495952Y-74482142D01*
X94448333Y-74386904D01*
X94400714Y-74196428D01*
X94400714Y-73958333D01*
X94448333Y-73767857D01*
X94495952Y-73672619D01*
X94543571Y-73625000D01*
X94638809Y-73577380D01*
X95400714Y-74577380D02*
X95400714Y-73577380D01*
X95495952Y-74196428D02*
X95781666Y-74577380D01*
X95781666Y-73910714D02*
X95400714Y-74291666D01*
X93972142Y-72207380D02*
X93638809Y-71731190D01*
X93400714Y-72207380D02*
X93400714Y-71207380D01*
X93781666Y-71207380D01*
X93876904Y-71255000D01*
X93924523Y-71302619D01*
X93972142Y-71397857D01*
X93972142Y-71540714D01*
X93924523Y-71635952D01*
X93876904Y-71683571D01*
X93781666Y-71731190D01*
X93400714Y-71731190D01*
X94924523Y-72207380D02*
X94353095Y-72207380D01*
X94638809Y-72207380D02*
X94638809Y-71207380D01*
X94543571Y-71350238D01*
X94448333Y-71445476D01*
X94353095Y-71493095D01*
X95781666Y-71207380D02*
X95591190Y-71207380D01*
X95495952Y-71255000D01*
X95448333Y-71302619D01*
X95353095Y-71445476D01*
X95305476Y-71635952D01*
X95305476Y-72016904D01*
X95353095Y-72112142D01*
X95400714Y-72159761D01*
X95495952Y-72207380D01*
X95686428Y-72207380D01*
X95781666Y-72159761D01*
X95829285Y-72112142D01*
X95876904Y-72016904D01*
X95876904Y-71778809D01*
X95829285Y-71683571D01*
X95781666Y-71635952D01*
X95686428Y-71588333D01*
X95495952Y-71588333D01*
X95400714Y-71635952D01*
X95353095Y-71683571D01*
X95305476Y-71778809D01*
%TD*%
M02*
