M48
; DRILL file {KiCad (5.1.6)-1} date 11/10/21 17:08:42
; FORMAT={-:-/ absolute / metric / decimal}
; #@! TF.CreationDate,2021-11-10T17:08:42+01:00
; #@! TF.GenerationSoftware,Kicad,Pcbnew,(5.1.6)-1
FMAT,2
METRIC
T1C0.400
T2C0.750
T3C0.762
T4C0.800
T5C1.000
T6C1.300
T7C1.400
T8C1.500
T9C2.900
T10C3.200
%
G90
G05
T1
X33.656Y-19.088
X37.208Y-67.082
X37.264Y-11.431
X39.305Y-79.83
X41.057Y-11.156
X46.322Y-14.156
X47.886Y-14.208
X70.557Y-80.064
X71.379Y-75.941
X78.655Y-63.958
X78.912Y-37.592
X81.118Y-63.744
X84.799Y-61.737
X86.986Y-25.56
X91.08Y-23.645
X92.17Y-22.695
X93.729Y-21.83
X97.61Y-20.854
X101.934Y-11.655
X106.209Y-13.587
T2
X102.87Y-69.342
X104.14Y-69.342
X105.41Y-69.342
X74.676Y-43.688
X74.676Y-44.958
X74.676Y-46.228
X102.87Y-62.23
X104.14Y-62.23
X105.41Y-62.23
X74.676Y-59.436
X74.676Y-60.706
X74.676Y-61.976
X102.87Y-75.946
X104.14Y-75.946
X105.41Y-75.946
X74.676Y-37.592
X74.676Y-38.862
X74.676Y-40.132
X74.676Y-53.34
X74.676Y-54.61
X74.676Y-55.88
X74.549Y-31.75
X74.549Y-33.02
X74.549Y-34.29
X74.676Y-65.532
X74.676Y-66.802
X74.676Y-68.072
T3
X19.685Y-38.608
X19.685Y-48.768
X19.685Y-53.848
X65.405Y-36.068
X65.405Y-46.228
X65.405Y-56.388
X65.405Y-66.548
T4
X82.55Y-52.832
X92.71Y-52.832
X96.52Y-48.26
X106.68Y-48.26
X82.296Y-48.26
X92.456Y-48.26
X82.55Y-64.516
X92.71Y-64.516
X82.296Y-44.196
X92.456Y-44.196
X96.518Y-52.052
X106.678Y-52.052
X82.55Y-58.928
X92.71Y-58.928
X82.296Y-35.052
X92.456Y-35.052
X96.518Y-56.102
X106.678Y-56.102
X96.226Y-39.396
X106.386Y-39.396
X82.296Y-39.624
X92.456Y-39.624
X96.52Y-35.56
X106.68Y-35.56
X96.226Y-43.446
X106.386Y-43.446
T5
X88.9Y-15.24
X88.9Y-17.78
X91.44Y-15.24
X91.44Y-17.78
X93.98Y-15.24
X93.98Y-17.78
X96.52Y-15.24
X96.52Y-17.78
X99.06Y-15.24
X99.06Y-17.78
X101.6Y-15.24
X101.6Y-17.78
X104.14Y-15.24
X104.14Y-17.78
X106.68Y-15.24
X106.68Y-17.78
X109.22Y-15.24
X109.22Y-17.78
X111.76Y-15.24
X111.76Y-17.78
X19.685Y-15.24
X19.685Y-17.78
X22.225Y-15.24
X22.225Y-17.78
X24.765Y-15.24
X24.765Y-17.78
X27.305Y-15.24
X27.305Y-17.78
X29.845Y-15.24
X29.845Y-17.78
X32.385Y-15.24
X32.385Y-17.78
X34.925Y-15.24
X34.925Y-17.78
X37.465Y-15.24
X37.465Y-17.78
X40.005Y-15.24
X40.005Y-17.78
X42.545Y-15.24
X42.545Y-17.78
T6
X62.738Y-77.884
X62.738Y-82.884
X62.738Y-87.884
X20.828Y-77.884
X20.828Y-82.884
X20.828Y-87.884
X76.708Y-19.05
X81.788Y-19.05
X64.008Y-19.05
X69.088Y-19.05
X50.8Y-19.05
X55.88Y-19.05
T7
X33.396Y-102.616
X36.896Y-110.116
X40.396Y-102.616
X51.896Y-102.616
X51.896Y-110.116
X56.896Y-102.616
X56.896Y-110.116
T8
X65.732Y-102.122
X65.732Y-109.622
X80.732Y-102.122
X80.732Y-109.622
X85.732Y-102.122
X85.732Y-109.622
X90.732Y-102.122
X90.732Y-109.622
T9
X90.238Y-79.134
X96.988Y-86.634
X48.328Y-79.134
X55.078Y-86.634
T10
X33.02Y-119.38
X19.05Y-24.13
X100.915Y-28.155
X109.22Y-119.38
T0
M30
