%TF.GenerationSoftware,KiCad,Pcbnew,(5.1.6)-1*%
%TF.CreationDate,2021-11-10T17:08:40+01:00*%
%TF.ProjectId,FoxRobot,466f7852-6f62-46f7-942e-6b696361645f,V01*%
%TF.SameCoordinates,Original*%
%TF.FileFunction,Soldermask,Bot*%
%TF.FilePolarity,Negative*%
%FSLAX46Y46*%
G04 Gerber Fmt 4.6, Leading zero omitted, Abs format (unit mm)*
G04 Created by KiCad (PCBNEW (5.1.6)-1) date 2021-11-10 17:08:40*
%MOMM*%
%LPD*%
G01*
G04 APERTURE LIST*
%ADD10C,1.624000*%
%ADD11O,1.700000X1.700000*%
%ADD12C,1.700000*%
%ADD13R,1.600000X1.150000*%
%ADD14O,1.600000X1.150000*%
%ADD15R,1.150000X1.600000*%
%ADD16O,1.150000X1.600000*%
%ADD17C,2.050000*%
%ADD18C,4.450000*%
%ADD19O,1.800000X1.800000*%
%ADD20R,1.800000X1.800000*%
%ADD21C,2.700000*%
%ADD22R,2.700000X2.700000*%
%ADD23C,2.350000*%
%ADD24C,3.700000*%
%ADD25C,5.800000*%
G04 APERTURE END LIST*
D10*
%TO.C,U1*%
X65405000Y-66548000D03*
X65405000Y-56388000D03*
X65405000Y-46228000D03*
X65405000Y-36068000D03*
X19685000Y-53848000D03*
X19685000Y-48768000D03*
X19685000Y-38608000D03*
%TD*%
D11*
%TO.C,R13*%
X82550000Y-64516000D03*
D12*
X92710000Y-64516000D03*
%TD*%
D11*
%TO.C,R12*%
X82550000Y-58928000D03*
D12*
X92710000Y-58928000D03*
%TD*%
D11*
%TO.C,R11*%
X82550000Y-52832000D03*
D12*
X92710000Y-52832000D03*
%TD*%
D11*
%TO.C,R10*%
X106680000Y-35560000D03*
D12*
X96520000Y-35560000D03*
%TD*%
D11*
%TO.C,R9*%
X106678000Y-56102000D03*
D12*
X96518000Y-56102000D03*
%TD*%
D11*
%TO.C,R8*%
X106678000Y-52052000D03*
D12*
X96518000Y-52052000D03*
%TD*%
D11*
%TO.C,R7*%
X106680000Y-48260000D03*
D12*
X96520000Y-48260000D03*
%TD*%
D11*
%TO.C,R6*%
X106386000Y-43446000D03*
D12*
X96226000Y-43446000D03*
%TD*%
D11*
%TO.C,R5*%
X106386000Y-39396000D03*
D12*
X96226000Y-39396000D03*
%TD*%
D11*
%TO.C,R4*%
X92456000Y-39624000D03*
D12*
X82296000Y-39624000D03*
%TD*%
D11*
%TO.C,R3*%
X82296000Y-48260000D03*
D12*
X92456000Y-48260000D03*
%TD*%
D11*
%TO.C,R2*%
X82296000Y-35052000D03*
D12*
X92456000Y-35052000D03*
%TD*%
D11*
%TO.C,R1*%
X92456000Y-44196000D03*
D12*
X82296000Y-44196000D03*
%TD*%
D13*
%TO.C,Q9*%
X74676000Y-43688000D03*
D14*
X74676000Y-46228000D03*
X74676000Y-44958000D03*
%TD*%
D13*
%TO.C,Q8*%
X74676000Y-37592000D03*
D14*
X74676000Y-40132000D03*
X74676000Y-38862000D03*
%TD*%
D13*
%TO.C,Q7*%
X74549000Y-31750000D03*
D14*
X74549000Y-34290000D03*
X74549000Y-33020000D03*
%TD*%
D13*
%TO.C,Q6*%
X74676000Y-53340000D03*
D14*
X74676000Y-55880000D03*
X74676000Y-54610000D03*
%TD*%
D13*
%TO.C,Q5*%
X74676000Y-59436000D03*
D14*
X74676000Y-61976000D03*
X74676000Y-60706000D03*
%TD*%
D13*
%TO.C,Q4*%
X74676000Y-65532000D03*
D14*
X74676000Y-68072000D03*
X74676000Y-66802000D03*
%TD*%
D15*
%TO.C,Q3*%
X102870000Y-75946000D03*
D16*
X105410000Y-75946000D03*
X104140000Y-75946000D03*
%TD*%
D15*
%TO.C,Q2*%
X102870000Y-69342000D03*
D16*
X105410000Y-69342000D03*
X104140000Y-69342000D03*
%TD*%
D15*
%TO.C,Q1*%
X102870000Y-62230000D03*
D16*
X105410000Y-62230000D03*
X104140000Y-62230000D03*
%TD*%
D17*
%TO.C,K4*%
X62738000Y-82884000D03*
D18*
X96988000Y-86634000D03*
X90238000Y-79134000D03*
D17*
X62738000Y-77884000D03*
X62738000Y-87884000D03*
%TD*%
%TO.C,K3*%
X20828000Y-82884000D03*
D18*
X55078000Y-86634000D03*
X48328000Y-79134000D03*
D17*
X20828000Y-77884000D03*
X20828000Y-87884000D03*
%TD*%
%TO.C,K2*%
X56896000Y-110116000D03*
X51896000Y-110116000D03*
X36896000Y-110116000D03*
X33396000Y-102616000D03*
X40396000Y-102616000D03*
X51896000Y-102616000D03*
X56896000Y-102616000D03*
%TD*%
D19*
%TO.C,J5*%
X42545000Y-17780000D03*
X42545000Y-15240000D03*
X40005000Y-17780000D03*
X40005000Y-15240000D03*
X37465000Y-17780000D03*
X37465000Y-15240000D03*
X34925000Y-17780000D03*
X34925000Y-15240000D03*
X32385000Y-17780000D03*
X32385000Y-15240000D03*
X29845000Y-17780000D03*
X29845000Y-15240000D03*
X27305000Y-17780000D03*
X27305000Y-15240000D03*
X24765000Y-17780000D03*
X24765000Y-15240000D03*
X22225000Y-17780000D03*
X22225000Y-15240000D03*
X19685000Y-17780000D03*
D20*
X19685000Y-15240000D03*
%TD*%
D21*
%TO.C,J4*%
X81788000Y-19050000D03*
D22*
X76708000Y-19050000D03*
%TD*%
D23*
%TO.C,K1*%
X85732000Y-109622000D03*
X80732000Y-109622000D03*
X90732000Y-109622000D03*
X85732000Y-102122000D03*
X80732000Y-102122000D03*
X90732000Y-102122000D03*
X65732000Y-109622000D03*
X65732000Y-102122000D03*
%TD*%
D22*
%TO.C,J1*%
X64008000Y-19050000D03*
D21*
X69088000Y-19050000D03*
%TD*%
D22*
%TO.C,J6*%
X50800000Y-19050000D03*
D21*
X55880000Y-19050000D03*
%TD*%
D20*
%TO.C,J7*%
X88900000Y-15240000D03*
D19*
X88900000Y-17780000D03*
X91440000Y-15240000D03*
X91440000Y-17780000D03*
X93980000Y-15240000D03*
X93980000Y-17780000D03*
X96520000Y-15240000D03*
X96520000Y-17780000D03*
X99060000Y-15240000D03*
X99060000Y-17780000D03*
X101600000Y-15240000D03*
X101600000Y-17780000D03*
X104140000Y-15240000D03*
X104140000Y-17780000D03*
X106680000Y-15240000D03*
X106680000Y-17780000D03*
X109220000Y-15240000D03*
X109220000Y-17780000D03*
X111760000Y-15240000D03*
X111760000Y-17780000D03*
%TD*%
D24*
%TO.C,H1*%
X19050000Y-24130000D03*
D25*
X19050000Y-24130000D03*
%TD*%
%TO.C,H2*%
X100915000Y-28155000D03*
D24*
X100915000Y-28155000D03*
%TD*%
%TO.C,H3*%
X33020000Y-119380000D03*
D25*
X33020000Y-119380000D03*
%TD*%
%TO.C,H4*%
X109220000Y-119380000D03*
D24*
X109220000Y-119380000D03*
%TD*%
M02*
