%TF.GenerationSoftware,KiCad,Pcbnew,(5.1.6)-1*%
%TF.CreationDate,2021-11-19T15:30:09+01:00*%
%TF.ProjectId,FoxRobot,466f7852-6f62-46f7-942e-6b696361645f,V01*%
%TF.SameCoordinates,Original*%
%TF.FileFunction,Soldermask,Bot*%
%TF.FilePolarity,Negative*%
%FSLAX46Y46*%
G04 Gerber Fmt 4.6, Leading zero omitted, Abs format (unit mm)*
G04 Created by KiCad (PCBNEW (5.1.6)-1) date 2021-11-19 15:30:09*
%MOMM*%
%LPD*%
G01*
G04 APERTURE LIST*
%ADD10C,1.624000*%
%ADD11O,1.700000X1.700000*%
%ADD12C,1.700000*%
%ADD13R,1.600000X1.150000*%
%ADD14O,1.600000X1.150000*%
%ADD15C,2.050000*%
%ADD16C,4.450000*%
%ADD17O,1.800000X1.800000*%
%ADD18R,1.800000X1.800000*%
%ADD19C,2.700000*%
%ADD20R,2.700000X2.700000*%
%ADD21C,2.350000*%
%ADD22C,3.700000*%
%ADD23C,5.800000*%
%ADD24C,2.100000*%
G04 APERTURE END LIST*
D10*
%TO.C,U1*%
X65405000Y-66548000D03*
X65405000Y-56388000D03*
X65405000Y-46228000D03*
X65405000Y-36068000D03*
X19685000Y-53848000D03*
X19685000Y-48768000D03*
X19685000Y-38608000D03*
%TD*%
D11*
%TO.C,R13*%
X89535000Y-60325000D03*
D12*
X99695000Y-60325000D03*
%TD*%
D11*
%TO.C,R12*%
X89535000Y-57023000D03*
D12*
X99695000Y-57023000D03*
%TD*%
D11*
%TO.C,R11*%
X89535000Y-53467000D03*
D12*
X99695000Y-53467000D03*
%TD*%
D11*
%TO.C,R4*%
X68961000Y-122174000D03*
D12*
X58801000Y-122174000D03*
%TD*%
D11*
%TO.C,R3*%
X44450000Y-122555000D03*
D12*
X54610000Y-122555000D03*
%TD*%
D11*
%TO.C,R2*%
X58801000Y-117602000D03*
D12*
X68961000Y-117602000D03*
%TD*%
D11*
%TO.C,R1*%
X54610000Y-117475000D03*
D12*
X44450000Y-117475000D03*
%TD*%
D13*
%TO.C,Q9*%
X73406000Y-39370000D03*
D14*
X73406000Y-41910000D03*
X73406000Y-40640000D03*
%TD*%
D13*
%TO.C,Q8*%
X73406000Y-33782000D03*
D14*
X73406000Y-36322000D03*
X73406000Y-35052000D03*
%TD*%
D13*
%TO.C,Q7*%
X73279000Y-27940000D03*
D14*
X73279000Y-30480000D03*
X73279000Y-29210000D03*
%TD*%
D15*
%TO.C,K4*%
X62738000Y-88599000D03*
D16*
X96988000Y-92349000D03*
X90238000Y-84849000D03*
D15*
X62738000Y-83599000D03*
X62738000Y-93599000D03*
%TD*%
%TO.C,K3*%
X20828000Y-88599000D03*
D16*
X55078000Y-92349000D03*
X48328000Y-84849000D03*
D15*
X20828000Y-83599000D03*
X20828000Y-93599000D03*
%TD*%
%TO.C,K2*%
X56896000Y-110116000D03*
X51896000Y-110116000D03*
X36896000Y-110116000D03*
X33396000Y-102616000D03*
X40396000Y-102616000D03*
X51896000Y-102616000D03*
X56896000Y-102616000D03*
%TD*%
D17*
%TO.C,J5*%
X42545000Y-17780000D03*
X42545000Y-15240000D03*
X40005000Y-17780000D03*
X40005000Y-15240000D03*
X37465000Y-17780000D03*
X37465000Y-15240000D03*
X34925000Y-17780000D03*
X34925000Y-15240000D03*
X32385000Y-17780000D03*
X32385000Y-15240000D03*
X29845000Y-17780000D03*
X29845000Y-15240000D03*
X27305000Y-17780000D03*
X27305000Y-15240000D03*
X24765000Y-17780000D03*
X24765000Y-15240000D03*
X22225000Y-17780000D03*
X22225000Y-15240000D03*
X19685000Y-17780000D03*
D18*
X19685000Y-15240000D03*
%TD*%
D19*
%TO.C,J4*%
X81788000Y-19050000D03*
D20*
X76708000Y-19050000D03*
%TD*%
D21*
%TO.C,K1*%
X85732000Y-109622000D03*
X80732000Y-109622000D03*
X90732000Y-109622000D03*
X85732000Y-102122000D03*
X80732000Y-102122000D03*
X90732000Y-102122000D03*
X65732000Y-109622000D03*
X65732000Y-102122000D03*
%TD*%
D20*
%TO.C,J1*%
X64008000Y-19050000D03*
D19*
X69088000Y-19050000D03*
%TD*%
D20*
%TO.C,J6*%
X50800000Y-19050000D03*
D19*
X55880000Y-19050000D03*
%TD*%
D18*
%TO.C,J7*%
X88900000Y-15240000D03*
D17*
X88900000Y-17780000D03*
X91440000Y-15240000D03*
X91440000Y-17780000D03*
X93980000Y-15240000D03*
X93980000Y-17780000D03*
X96520000Y-15240000D03*
X96520000Y-17780000D03*
X99060000Y-15240000D03*
X99060000Y-17780000D03*
X101600000Y-15240000D03*
X101600000Y-17780000D03*
X104140000Y-15240000D03*
X104140000Y-17780000D03*
X106680000Y-15240000D03*
X106680000Y-17780000D03*
X109220000Y-15240000D03*
X109220000Y-17780000D03*
X111760000Y-15240000D03*
X111760000Y-17780000D03*
%TD*%
D22*
%TO.C,H1*%
X19050000Y-24130000D03*
D23*
X19050000Y-24130000D03*
%TD*%
%TO.C,H2*%
X107950000Y-25400000D03*
D22*
X107950000Y-25400000D03*
%TD*%
%TO.C,H3*%
X33020000Y-119380000D03*
D23*
X33020000Y-119380000D03*
%TD*%
%TO.C,H4*%
X109220000Y-119380000D03*
D22*
X109220000Y-119380000D03*
%TD*%
D24*
%TO.C,C1*%
X105490000Y-43815000D03*
X110490000Y-43815000D03*
%TD*%
%TO.C,C2*%
X110490000Y-36830000D03*
X105490000Y-36830000D03*
%TD*%
D19*
%TO.C,L1*%
X105410000Y-52070000D03*
X110410000Y-52070000D03*
%TD*%
D14*
%TO.C,Q1*%
X82550000Y-46355000D03*
X82550000Y-47625000D03*
D13*
X82550000Y-45085000D03*
%TD*%
D14*
%TO.C,Q2*%
X82550000Y-52070000D03*
X82550000Y-53340000D03*
D13*
X82550000Y-50800000D03*
%TD*%
D14*
%TO.C,Q3*%
X82550000Y-57785000D03*
X82550000Y-59055000D03*
D13*
X82550000Y-56515000D03*
%TD*%
D14*
%TO.C,Q4*%
X73406000Y-57785000D03*
X73406000Y-59055000D03*
D13*
X73406000Y-56515000D03*
%TD*%
%TO.C,Q5*%
X73406000Y-50800000D03*
D14*
X73406000Y-53340000D03*
X73406000Y-52070000D03*
%TD*%
%TO.C,Q6*%
X73406000Y-46355000D03*
X73406000Y-47625000D03*
D13*
X73406000Y-45085000D03*
%TD*%
%TO.C,Q10*%
X82550000Y-27940000D03*
D14*
X82550000Y-30480000D03*
X82550000Y-29210000D03*
%TD*%
D13*
%TO.C,Q11*%
X82550000Y-33655000D03*
D14*
X82550000Y-36195000D03*
X82550000Y-34925000D03*
%TD*%
D13*
%TO.C,Q12*%
X82550000Y-39370000D03*
D14*
X82550000Y-41910000D03*
X82550000Y-40640000D03*
%TD*%
D11*
%TO.C,R5*%
X99401000Y-30506000D03*
D12*
X89241000Y-30506000D03*
%TD*%
%TO.C,R6*%
X89241000Y-34556000D03*
D11*
X99401000Y-34556000D03*
%TD*%
%TO.C,R7*%
X99695000Y-38735000D03*
D12*
X89535000Y-38735000D03*
%TD*%
%TO.C,R8*%
X89533000Y-42527000D03*
D11*
X99693000Y-42527000D03*
%TD*%
D12*
%TO.C,R9*%
X89533000Y-46577000D03*
D11*
X99693000Y-46577000D03*
%TD*%
%TO.C,R10*%
X99695000Y-50165000D03*
D12*
X89535000Y-50165000D03*
%TD*%
%TO.C,R14*%
X89535000Y-64135000D03*
D11*
X99695000Y-64135000D03*
%TD*%
D12*
%TO.C,R15*%
X89535000Y-67945000D03*
D11*
X99695000Y-67945000D03*
%TD*%
%TO.C,R16*%
X99695000Y-71755000D03*
D12*
X89535000Y-71755000D03*
%TD*%
M02*
