M48
; DRILL file {KiCad (5.1.6)-1} date 11/19/21 15:30:05
; FORMAT={-:-/ absolute / metric / decimal}
; #@! TF.CreationDate,2021-11-19T15:30:05+01:00
; #@! TF.GenerationSoftware,Kicad,Pcbnew,(5.1.6)-1
FMAT,2
METRIC
T1C0.400
T2C0.750
T3C0.762
T4C0.800
T5C1.000
T6C1.300
T7C1.400
T8C1.500
T9C2.900
T10C3.200
%
G90
G05
T1
X47.161Y-17.703
X47.638Y-14.473
X48.411Y-17.702
X49.617Y-37.9
X58.104Y-32.36
X59.25Y-33.563
X65.785Y-43.469
X69.551Y-86.786
X70.369Y-61.997
X71.501Y-16.822
X77.812Y-15.326
X78.037Y-83.045
X79.174Y-83.111
X80.044Y-31.927
X84.443Y-17.275
X87.117Y-49.642
X87.431Y-61.046
X87.805Y-26.464
X87.81Y-27.564
X89.548Y-40.631
X91.082Y-25.866
X94.682Y-34.627
X98.784Y-13.683
X101.829Y-12.823
T2
X73.406Y-39.37
X73.406Y-40.64
X73.406Y-41.91
X82.55Y-39.37
X82.55Y-40.64
X82.55Y-41.91
X73.406Y-33.782
X73.406Y-35.052
X73.406Y-36.322
X73.279Y-27.94
X73.279Y-29.21
X73.279Y-30.48
X82.55Y-45.085
X82.55Y-46.355
X82.55Y-47.625
X73.406Y-45.085
X73.406Y-46.355
X73.406Y-47.625
X82.55Y-27.94
X82.55Y-29.21
X82.55Y-30.48
X82.55Y-33.655
X82.55Y-34.925
X82.55Y-36.195
X82.55Y-56.515
X82.55Y-57.785
X82.55Y-59.055
X73.406Y-50.8
X73.406Y-52.07
X73.406Y-53.34
X82.55Y-50.8
X82.55Y-52.07
X82.55Y-53.34
X73.406Y-56.515
X73.406Y-57.785
X73.406Y-59.055
T3
X19.685Y-38.608
X19.685Y-48.768
X19.685Y-53.848
X65.405Y-36.068
X65.405Y-46.228
X65.405Y-56.388
X65.405Y-66.548
T4
X89.533Y-46.577
X99.693Y-46.577
X89.535Y-50.165
X99.695Y-50.165
X89.535Y-53.467
X99.695Y-53.467
X58.801Y-122.174
X68.961Y-122.174
X89.533Y-42.527
X99.693Y-42.527
X89.535Y-64.135
X99.695Y-64.135
X89.241Y-30.506
X99.401Y-30.506
X89.535Y-67.945
X99.695Y-67.945
X89.241Y-34.556
X99.401Y-34.556
X44.45Y-122.555
X54.61Y-122.555
X89.535Y-71.755
X99.695Y-71.755
X44.45Y-117.475
X54.61Y-117.475
X89.535Y-60.325
X99.695Y-60.325
X58.801Y-117.602
X68.961Y-117.602
X89.535Y-38.735
X99.695Y-38.735
X89.535Y-57.023
X99.695Y-57.023
T5
X105.49Y-43.815
X110.49Y-43.815
X19.685Y-15.24
X19.685Y-17.78
X22.225Y-15.24
X22.225Y-17.78
X24.765Y-15.24
X24.765Y-17.78
X27.305Y-15.24
X27.305Y-17.78
X29.845Y-15.24
X29.845Y-17.78
X32.385Y-15.24
X32.385Y-17.78
X34.925Y-15.24
X34.925Y-17.78
X37.465Y-15.24
X37.465Y-17.78
X40.005Y-15.24
X40.005Y-17.78
X42.545Y-15.24
X42.545Y-17.78
X105.49Y-36.83
X110.49Y-36.83
X88.9Y-15.24
X88.9Y-17.78
X91.44Y-15.24
X91.44Y-17.78
X93.98Y-15.24
X93.98Y-17.78
X96.52Y-15.24
X96.52Y-17.78
X99.06Y-15.24
X99.06Y-17.78
X101.6Y-15.24
X101.6Y-17.78
X104.14Y-15.24
X104.14Y-17.78
X106.68Y-15.24
X106.68Y-17.78
X109.22Y-15.24
X109.22Y-17.78
X111.76Y-15.24
X111.76Y-17.78
T6
X50.8Y-19.05
X55.88Y-19.05
X76.708Y-19.05
X81.788Y-19.05
X20.828Y-83.599
X20.828Y-88.599
X20.828Y-93.599
X64.008Y-19.05
X69.088Y-19.05
X62.738Y-83.599
X62.738Y-88.599
X62.738Y-93.599
X105.41Y-52.07
X110.41Y-52.07
T7
X33.396Y-102.616
X36.896Y-110.116
X40.396Y-102.616
X51.896Y-102.616
X51.896Y-110.116
X56.896Y-102.616
X56.896Y-110.116
T8
X65.732Y-102.122
X65.732Y-109.622
X80.732Y-102.122
X80.732Y-109.622
X85.732Y-102.122
X85.732Y-109.622
X90.732Y-102.122
X90.732Y-109.622
T9
X48.328Y-84.849
X55.078Y-92.349
X90.238Y-84.849
X96.988Y-92.349
T10
X107.95Y-25.4
X19.05Y-24.13
X109.22Y-119.38
X33.02Y-119.38
T0
M30
